<?xml version="1.0" encoding="utf-8" standalone="no"?>
<!DOCTYPE svg PUBLIC "-//W3C//DTD SVG 1.1//EN"
  "http://www.w3.org/Graphics/SVG/1.1/DTD/svg11.dtd">
<svg xmlns:xlink="http://www.w3.org/1999/xlink" width="360pt" height="216pt" viewBox="0 0 360 216" xmlns="http://www.w3.org/2000/svg" version="1.1">
 <metadata>
  <rdf:RDF xmlns:dc="http://purl.org/dc/elements/1.1/" xmlns:cc="http://creativecommons.org/ns#" xmlns:rdf="http://www.w3.org/1999/02/22-rdf-syntax-ns#">
   <cc:Work>
    <dc:type rdf:resource="http://purl.org/dc/dcmitype/StillImage"/>
    <dc:date>2024-01-07T08:22:53.410739</dc:date>
    <dc:format>image/svg+xml</dc:format>
    <dc:creator>
     <cc:Agent>
      <dc:title>Matplotlib v3.7.4, https://matplotlib.org/</dc:title>
     </cc:Agent>
    </dc:creator>
   </cc:Work>
  </rdf:RDF>
 </metadata>
 <defs>
  <style type="text/css">*{stroke-linejoin: round; stroke-linecap: butt}</style>
 </defs>
 <g id="figure_1">
  <g id="patch_1">
   <path d="M 0 216 
L 360 216 
L 360 0 
L 0 0 
z
" style="fill: #ffffff"/>
  </g>
  <g id="axes_1">
   <g id="patch_2">
    <path d="M 63.2 171.16 
L 338.75661 171.16 
L 338.75661 10.8 
L 63.2 10.8 
z
" style="fill: #ffffff"/>
   </g>
   <g id="matplotlib.axis_1">
    <g id="xtick_1">
     <g id="line2d_1">
      <defs>
       <path id="m9e601910ec" d="M 0 0 
L 0 3.5 
" style="stroke: #000000; stroke-width: 0.8"/>
      </defs>
      <g>
       <use xlink:href="#m9e601910ec" x="63.2" y="171.16" style="stroke: #000000; stroke-width: 0.8"/>
      </g>
     </g>
     <g id="text_1">
      <!-- 0 -->
      <g transform="translate(60.01875 185.758437) scale(0.1 -0.1)">
       <defs>
        <path id="DejaVuSans-30" d="M 2034 4250 
Q 1547 4250 1301 3770 
Q 1056 3291 1056 2328 
Q 1056 1369 1301 889 
Q 1547 409 2034 409 
Q 2525 409 2770 889 
Q 3016 1369 3016 2328 
Q 3016 3291 2770 3770 
Q 2525 4250 2034 4250 
z
M 2034 4750 
Q 2819 4750 3233 4129 
Q 3647 3509 3647 2328 
Q 3647 1150 3233 529 
Q 2819 -91 2034 -91 
Q 1250 -91 836 529 
Q 422 1150 422 2328 
Q 422 3509 836 4129 
Q 1250 4750 2034 4750 
z
" transform="scale(0.015625)"/>
       </defs>
       <use xlink:href="#DejaVuSans-30"/>
      </g>
     </g>
    </g>
    <g id="xtick_2">
     <g id="line2d_2">
      <g>
       <use xlink:href="#m9e601910ec" x="117.885323" y="171.16" style="stroke: #000000; stroke-width: 0.8"/>
      </g>
     </g>
     <g id="text_2">
      <!-- 1000 -->
      <g transform="translate(105.160323 185.758437) scale(0.1 -0.1)">
       <defs>
        <path id="DejaVuSans-31" d="M 794 531 
L 1825 531 
L 1825 4091 
L 703 3866 
L 703 4441 
L 1819 4666 
L 2450 4666 
L 2450 531 
L 3481 531 
L 3481 0 
L 794 0 
L 794 531 
z
" transform="scale(0.015625)"/>
       </defs>
       <use xlink:href="#DejaVuSans-31"/>
       <use xlink:href="#DejaVuSans-30" x="63.623047"/>
       <use xlink:href="#DejaVuSans-30" x="127.246094"/>
       <use xlink:href="#DejaVuSans-30" x="190.869141"/>
      </g>
     </g>
    </g>
    <g id="xtick_3">
     <g id="line2d_3">
      <g>
       <use xlink:href="#m9e601910ec" x="172.570647" y="171.16" style="stroke: #000000; stroke-width: 0.8"/>
      </g>
     </g>
     <g id="text_3">
      <!-- 2000 -->
      <g transform="translate(159.845647 185.758437) scale(0.1 -0.1)">
       <defs>
        <path id="DejaVuSans-32" d="M 1228 531 
L 3431 531 
L 3431 0 
L 469 0 
L 469 531 
Q 828 903 1448 1529 
Q 2069 2156 2228 2338 
Q 2531 2678 2651 2914 
Q 2772 3150 2772 3378 
Q 2772 3750 2511 3984 
Q 2250 4219 1831 4219 
Q 1534 4219 1204 4116 
Q 875 4013 500 3803 
L 500 4441 
Q 881 4594 1212 4672 
Q 1544 4750 1819 4750 
Q 2544 4750 2975 4387 
Q 3406 4025 3406 3419 
Q 3406 3131 3298 2873 
Q 3191 2616 2906 2266 
Q 2828 2175 2409 1742 
Q 1991 1309 1228 531 
z
" transform="scale(0.015625)"/>
       </defs>
       <use xlink:href="#DejaVuSans-32"/>
       <use xlink:href="#DejaVuSans-30" x="63.623047"/>
       <use xlink:href="#DejaVuSans-30" x="127.246094"/>
       <use xlink:href="#DejaVuSans-30" x="190.869141"/>
      </g>
     </g>
    </g>
    <g id="xtick_4">
     <g id="line2d_4">
      <g>
       <use xlink:href="#m9e601910ec" x="227.25597" y="171.16" style="stroke: #000000; stroke-width: 0.8"/>
      </g>
     </g>
     <g id="text_4">
      <!-- 3000 -->
      <g transform="translate(214.53097 185.758437) scale(0.1 -0.1)">
       <defs>
        <path id="DejaVuSans-33" d="M 2597 2516 
Q 3050 2419 3304 2112 
Q 3559 1806 3559 1356 
Q 3559 666 3084 287 
Q 2609 -91 1734 -91 
Q 1441 -91 1130 -33 
Q 819 25 488 141 
L 488 750 
Q 750 597 1062 519 
Q 1375 441 1716 441 
Q 2309 441 2620 675 
Q 2931 909 2931 1356 
Q 2931 1769 2642 2001 
Q 2353 2234 1838 2234 
L 1294 2234 
L 1294 2753 
L 1863 2753 
Q 2328 2753 2575 2939 
Q 2822 3125 2822 3475 
Q 2822 3834 2567 4026 
Q 2313 4219 1838 4219 
Q 1578 4219 1281 4162 
Q 984 4106 628 3988 
L 628 4550 
Q 988 4650 1302 4700 
Q 1616 4750 1894 4750 
Q 2613 4750 3031 4423 
Q 3450 4097 3450 3541 
Q 3450 3153 3228 2886 
Q 3006 2619 2597 2516 
z
" transform="scale(0.015625)"/>
       </defs>
       <use xlink:href="#DejaVuSans-33"/>
       <use xlink:href="#DejaVuSans-30" x="63.623047"/>
       <use xlink:href="#DejaVuSans-30" x="127.246094"/>
       <use xlink:href="#DejaVuSans-30" x="190.869141"/>
      </g>
     </g>
    </g>
    <g id="xtick_5">
     <g id="line2d_5">
      <g>
       <use xlink:href="#m9e601910ec" x="281.941293" y="171.16" style="stroke: #000000; stroke-width: 0.8"/>
      </g>
     </g>
     <g id="text_5">
      <!-- 4000 -->
      <g transform="translate(269.216293 185.758437) scale(0.1 -0.1)">
       <defs>
        <path id="DejaVuSans-34" d="M 2419 4116 
L 825 1625 
L 2419 1625 
L 2419 4116 
z
M 2253 4666 
L 3047 4666 
L 3047 1625 
L 3713 1625 
L 3713 1100 
L 3047 1100 
L 3047 0 
L 2419 0 
L 2419 1100 
L 313 1100 
L 313 1709 
L 2253 4666 
z
" transform="scale(0.015625)"/>
       </defs>
       <use xlink:href="#DejaVuSans-34"/>
       <use xlink:href="#DejaVuSans-30" x="63.623047"/>
       <use xlink:href="#DejaVuSans-30" x="127.246094"/>
       <use xlink:href="#DejaVuSans-30" x="190.869141"/>
      </g>
     </g>
    </g>
    <g id="xtick_6">
     <g id="line2d_6">
      <g>
       <use xlink:href="#m9e601910ec" x="336.626617" y="171.16" style="stroke: #000000; stroke-width: 0.8"/>
      </g>
     </g>
     <g id="text_6">
      <!-- 5000 -->
      <g transform="translate(323.901617 185.758437) scale(0.1 -0.1)">
       <defs>
        <path id="DejaVuSans-35" d="M 691 4666 
L 3169 4666 
L 3169 4134 
L 1269 4134 
L 1269 2991 
Q 1406 3038 1543 3061 
Q 1681 3084 1819 3084 
Q 2600 3084 3056 2656 
Q 3513 2228 3513 1497 
Q 3513 744 3044 326 
Q 2575 -91 1722 -91 
Q 1428 -91 1123 -41 
Q 819 9 494 109 
L 494 744 
Q 775 591 1075 516 
Q 1375 441 1709 441 
Q 2250 441 2565 725 
Q 2881 1009 2881 1497 
Q 2881 1984 2565 2268 
Q 2250 2553 1709 2553 
Q 1456 2553 1204 2497 
Q 953 2441 691 2322 
L 691 4666 
z
" transform="scale(0.015625)"/>
       </defs>
       <use xlink:href="#DejaVuSans-35"/>
       <use xlink:href="#DejaVuSans-30" x="63.623047"/>
       <use xlink:href="#DejaVuSans-30" x="127.246094"/>
       <use xlink:href="#DejaVuSans-30" x="190.869141"/>
      </g>
     </g>
    </g>
    <g id="text_7">
     <!-- Episode -->
     <g transform="translate(177.413305 200.95625) scale(0.12 -0.12)">
      <defs>
       <path id="DejaVuSans-45" d="M 628 4666 
L 3578 4666 
L 3578 4134 
L 1259 4134 
L 1259 2753 
L 3481 2753 
L 3481 2222 
L 1259 2222 
L 1259 531 
L 3634 531 
L 3634 0 
L 628 0 
L 628 4666 
z
" transform="scale(0.015625)"/>
       <path id="DejaVuSans-70" d="M 1159 525 
L 1159 -1331 
L 581 -1331 
L 581 3500 
L 1159 3500 
L 1159 2969 
Q 1341 3281 1617 3432 
Q 1894 3584 2278 3584 
Q 2916 3584 3314 3078 
Q 3713 2572 3713 1747 
Q 3713 922 3314 415 
Q 2916 -91 2278 -91 
Q 1894 -91 1617 61 
Q 1341 213 1159 525 
z
M 3116 1747 
Q 3116 2381 2855 2742 
Q 2594 3103 2138 3103 
Q 1681 3103 1420 2742 
Q 1159 2381 1159 1747 
Q 1159 1113 1420 752 
Q 1681 391 2138 391 
Q 2594 391 2855 752 
Q 3116 1113 3116 1747 
z
" transform="scale(0.015625)"/>
       <path id="DejaVuSans-69" d="M 603 3500 
L 1178 3500 
L 1178 0 
L 603 0 
L 603 3500 
z
M 603 4863 
L 1178 4863 
L 1178 4134 
L 603 4134 
L 603 4863 
z
" transform="scale(0.015625)"/>
       <path id="DejaVuSans-73" d="M 2834 3397 
L 2834 2853 
Q 2591 2978 2328 3040 
Q 2066 3103 1784 3103 
Q 1356 3103 1142 2972 
Q 928 2841 928 2578 
Q 928 2378 1081 2264 
Q 1234 2150 1697 2047 
L 1894 2003 
Q 2506 1872 2764 1633 
Q 3022 1394 3022 966 
Q 3022 478 2636 193 
Q 2250 -91 1575 -91 
Q 1294 -91 989 -36 
Q 684 19 347 128 
L 347 722 
Q 666 556 975 473 
Q 1284 391 1588 391 
Q 1994 391 2212 530 
Q 2431 669 2431 922 
Q 2431 1156 2273 1281 
Q 2116 1406 1581 1522 
L 1381 1569 
Q 847 1681 609 1914 
Q 372 2147 372 2553 
Q 372 3047 722 3315 
Q 1072 3584 1716 3584 
Q 2034 3584 2315 3537 
Q 2597 3491 2834 3397 
z
" transform="scale(0.015625)"/>
       <path id="DejaVuSans-6f" d="M 1959 3097 
Q 1497 3097 1228 2736 
Q 959 2375 959 1747 
Q 959 1119 1226 758 
Q 1494 397 1959 397 
Q 2419 397 2687 759 
Q 2956 1122 2956 1747 
Q 2956 2369 2687 2733 
Q 2419 3097 1959 3097 
z
M 1959 3584 
Q 2709 3584 3137 3096 
Q 3566 2609 3566 1747 
Q 3566 888 3137 398 
Q 2709 -91 1959 -91 
Q 1206 -91 779 398 
Q 353 888 353 1747 
Q 353 2609 779 3096 
Q 1206 3584 1959 3584 
z
" transform="scale(0.015625)"/>
       <path id="DejaVuSans-64" d="M 2906 2969 
L 2906 4863 
L 3481 4863 
L 3481 0 
L 2906 0 
L 2906 525 
Q 2725 213 2448 61 
Q 2172 -91 1784 -91 
Q 1150 -91 751 415 
Q 353 922 353 1747 
Q 353 2572 751 3078 
Q 1150 3584 1784 3584 
Q 2172 3584 2448 3432 
Q 2725 3281 2906 2969 
z
M 947 1747 
Q 947 1113 1208 752 
Q 1469 391 1925 391 
Q 2381 391 2643 752 
Q 2906 1113 2906 1747 
Q 2906 2381 2643 2742 
Q 2381 3103 1925 3103 
Q 1469 3103 1208 2742 
Q 947 2381 947 1747 
z
" transform="scale(0.015625)"/>
       <path id="DejaVuSans-65" d="M 3597 1894 
L 3597 1613 
L 953 1613 
Q 991 1019 1311 708 
Q 1631 397 2203 397 
Q 2534 397 2845 478 
Q 3156 559 3463 722 
L 3463 178 
Q 3153 47 2828 -22 
Q 2503 -91 2169 -91 
Q 1331 -91 842 396 
Q 353 884 353 1716 
Q 353 2575 817 3079 
Q 1281 3584 2069 3584 
Q 2775 3584 3186 3129 
Q 3597 2675 3597 1894 
z
M 3022 2063 
Q 3016 2534 2758 2815 
Q 2500 3097 2075 3097 
Q 1594 3097 1305 2825 
Q 1016 2553 972 2059 
L 3022 2063 
z
" transform="scale(0.015625)"/>
      </defs>
      <use xlink:href="#DejaVuSans-45"/>
      <use xlink:href="#DejaVuSans-70" x="63.183594"/>
      <use xlink:href="#DejaVuSans-69" x="126.660156"/>
      <use xlink:href="#DejaVuSans-73" x="154.443359"/>
      <use xlink:href="#DejaVuSans-6f" x="206.542969"/>
      <use xlink:href="#DejaVuSans-64" x="267.724609"/>
      <use xlink:href="#DejaVuSans-65" x="331.201172"/>
     </g>
    </g>
   </g>
   <g id="matplotlib.axis_2">
    <g id="ytick_1">
     <g id="line2d_7">
      <defs>
       <path id="m2c6266f562" d="M 0 0 
L -3.5 0 
" style="stroke: #000000; stroke-width: 0.8"/>
      </defs>
      <g>
       <use xlink:href="#m2c6266f562" x="63.2" y="171.16" style="stroke: #000000; stroke-width: 0.8"/>
      </g>
     </g>
     <g id="text_8">
      <!-- 0.000 -->
      <g transform="translate(27.571875 174.959219) scale(0.1 -0.1)">
       <defs>
        <path id="DejaVuSans-2e" d="M 684 794 
L 1344 794 
L 1344 0 
L 684 0 
L 684 794 
z
" transform="scale(0.015625)"/>
       </defs>
       <use xlink:href="#DejaVuSans-30"/>
       <use xlink:href="#DejaVuSans-2e" x="63.623047"/>
       <use xlink:href="#DejaVuSans-30" x="95.410156"/>
       <use xlink:href="#DejaVuSans-30" x="159.033203"/>
       <use xlink:href="#DejaVuSans-30" x="222.65625"/>
      </g>
     </g>
    </g>
    <g id="ytick_2">
     <g id="line2d_8">
      <g>
       <use xlink:href="#m2c6266f562" x="63.2" y="133.085444" style="stroke: #000000; stroke-width: 0.8"/>
      </g>
     </g>
     <g id="text_9">
      <!-- 0.005 -->
      <g transform="translate(27.571875 136.884662) scale(0.1 -0.1)">
       <use xlink:href="#DejaVuSans-30"/>
       <use xlink:href="#DejaVuSans-2e" x="63.623047"/>
       <use xlink:href="#DejaVuSans-30" x="95.410156"/>
       <use xlink:href="#DejaVuSans-30" x="159.033203"/>
       <use xlink:href="#DejaVuSans-35" x="222.65625"/>
      </g>
     </g>
    </g>
    <g id="ytick_3">
     <g id="line2d_9">
      <g>
       <use xlink:href="#m2c6266f562" x="63.2" y="95.010887" style="stroke: #000000; stroke-width: 0.8"/>
      </g>
     </g>
     <g id="text_10">
      <!-- 0.010 -->
      <g transform="translate(27.571875 98.810106) scale(0.1 -0.1)">
       <use xlink:href="#DejaVuSans-30"/>
       <use xlink:href="#DejaVuSans-2e" x="63.623047"/>
       <use xlink:href="#DejaVuSans-30" x="95.410156"/>
       <use xlink:href="#DejaVuSans-31" x="159.033203"/>
       <use xlink:href="#DejaVuSans-30" x="222.65625"/>
      </g>
     </g>
    </g>
    <g id="ytick_4">
     <g id="line2d_10">
      <g>
       <use xlink:href="#m2c6266f562" x="63.2" y="56.936331" style="stroke: #000000; stroke-width: 0.8"/>
      </g>
     </g>
     <g id="text_11">
      <!-- 0.015 -->
      <g transform="translate(27.571875 60.73555) scale(0.1 -0.1)">
       <use xlink:href="#DejaVuSans-30"/>
       <use xlink:href="#DejaVuSans-2e" x="63.623047"/>
       <use xlink:href="#DejaVuSans-30" x="95.410156"/>
       <use xlink:href="#DejaVuSans-31" x="159.033203"/>
       <use xlink:href="#DejaVuSans-35" x="222.65625"/>
      </g>
     </g>
    </g>
    <g id="ytick_5">
     <g id="line2d_11">
      <g>
       <use xlink:href="#m2c6266f562" x="63.2" y="18.861774" style="stroke: #000000; stroke-width: 0.8"/>
      </g>
     </g>
     <g id="text_12">
      <!-- 0.020 -->
      <g transform="translate(27.571875 22.660993) scale(0.1 -0.1)">
       <use xlink:href="#DejaVuSans-30"/>
       <use xlink:href="#DejaVuSans-2e" x="63.623047"/>
       <use xlink:href="#DejaVuSans-30" x="95.410156"/>
       <use xlink:href="#DejaVuSans-32" x="159.033203"/>
       <use xlink:href="#DejaVuSans-30" x="222.65625"/>
      </g>
     </g>
    </g>
    <g id="text_13">
     <!-- Efficiency (U) -->
     <g transform="translate(21.07625 130.953125) rotate(-90) scale(0.12 -0.12)">
      <defs>
       <path id="DejaVuSans-66" d="M 2375 4863 
L 2375 4384 
L 1825 4384 
Q 1516 4384 1395 4259 
Q 1275 4134 1275 3809 
L 1275 3500 
L 2222 3500 
L 2222 3053 
L 1275 3053 
L 1275 0 
L 697 0 
L 697 3053 
L 147 3053 
L 147 3500 
L 697 3500 
L 697 3744 
Q 697 4328 969 4595 
Q 1241 4863 1831 4863 
L 2375 4863 
z
" transform="scale(0.015625)"/>
       <path id="DejaVuSans-63" d="M 3122 3366 
L 3122 2828 
Q 2878 2963 2633 3030 
Q 2388 3097 2138 3097 
Q 1578 3097 1268 2742 
Q 959 2388 959 1747 
Q 959 1106 1268 751 
Q 1578 397 2138 397 
Q 2388 397 2633 464 
Q 2878 531 3122 666 
L 3122 134 
Q 2881 22 2623 -34 
Q 2366 -91 2075 -91 
Q 1284 -91 818 406 
Q 353 903 353 1747 
Q 353 2603 823 3093 
Q 1294 3584 2113 3584 
Q 2378 3584 2631 3529 
Q 2884 3475 3122 3366 
z
" transform="scale(0.015625)"/>
       <path id="DejaVuSans-6e" d="M 3513 2113 
L 3513 0 
L 2938 0 
L 2938 2094 
Q 2938 2591 2744 2837 
Q 2550 3084 2163 3084 
Q 1697 3084 1428 2787 
Q 1159 2491 1159 1978 
L 1159 0 
L 581 0 
L 581 3500 
L 1159 3500 
L 1159 2956 
Q 1366 3272 1645 3428 
Q 1925 3584 2291 3584 
Q 2894 3584 3203 3211 
Q 3513 2838 3513 2113 
z
" transform="scale(0.015625)"/>
       <path id="DejaVuSans-79" d="M 2059 -325 
Q 1816 -950 1584 -1140 
Q 1353 -1331 966 -1331 
L 506 -1331 
L 506 -850 
L 844 -850 
Q 1081 -850 1212 -737 
Q 1344 -625 1503 -206 
L 1606 56 
L 191 3500 
L 800 3500 
L 1894 763 
L 2988 3500 
L 3597 3500 
L 2059 -325 
z
" transform="scale(0.015625)"/>
       <path id="DejaVuSans-20" transform="scale(0.015625)"/>
       <path id="DejaVuSans-28" d="M 1984 4856 
Q 1566 4138 1362 3434 
Q 1159 2731 1159 2009 
Q 1159 1288 1364 580 
Q 1569 -128 1984 -844 
L 1484 -844 
Q 1016 -109 783 600 
Q 550 1309 550 2009 
Q 550 2706 781 3412 
Q 1013 4119 1484 4856 
L 1984 4856 
z
" transform="scale(0.015625)"/>
       <path id="DejaVuSans-55" d="M 556 4666 
L 1191 4666 
L 1191 1831 
Q 1191 1081 1462 751 
Q 1734 422 2344 422 
Q 2950 422 3222 751 
Q 3494 1081 3494 1831 
L 3494 4666 
L 4128 4666 
L 4128 1753 
Q 4128 841 3676 375 
Q 3225 -91 2344 -91 
Q 1459 -91 1007 375 
Q 556 841 556 1753 
L 556 4666 
z
" transform="scale(0.015625)"/>
       <path id="DejaVuSans-29" d="M 513 4856 
L 1013 4856 
Q 1481 4119 1714 3412 
Q 1947 2706 1947 2009 
Q 1947 1309 1714 600 
Q 1481 -109 1013 -844 
L 513 -844 
Q 928 -128 1133 580 
Q 1338 1288 1338 2009 
Q 1338 2731 1133 3434 
Q 928 4138 513 4856 
z
" transform="scale(0.015625)"/>
      </defs>
      <use xlink:href="#DejaVuSans-45"/>
      <use xlink:href="#DejaVuSans-66" x="63.183594"/>
      <use xlink:href="#DejaVuSans-66" x="98.388672"/>
      <use xlink:href="#DejaVuSans-69" x="133.59375"/>
      <use xlink:href="#DejaVuSans-63" x="161.376953"/>
      <use xlink:href="#DejaVuSans-69" x="216.357422"/>
      <use xlink:href="#DejaVuSans-65" x="244.140625"/>
      <use xlink:href="#DejaVuSans-6e" x="305.664062"/>
      <use xlink:href="#DejaVuSans-63" x="369.042969"/>
      <use xlink:href="#DejaVuSans-79" x="424.023438"/>
      <use xlink:href="#DejaVuSans-20" x="483.203125"/>
      <use xlink:href="#DejaVuSans-28" x="514.990234"/>
      <use xlink:href="#DejaVuSans-55" x="554.003906"/>
      <use xlink:href="#DejaVuSans-29" x="627.197266"/>
     </g>
    </g>
   </g>
   <g id="line2d_12">
    <path d="M 63.2 45.187176 
L 63.254685 45.392368 
L 63.309371 45.301172 
L 63.528112 44.731194 
L 63.692168 44.320809 
L 63.801539 45.194776 
L 63.965595 46.091542 
L 64.074965 46.159939 
L 64.12965 45.840751 
L 64.293706 47.147902 
L 64.512448 45.848351 
L 64.567133 46.068743 
L 64.731189 46.608322 
L 64.785874 46.40313 
L 64.84056 47.033906 
L 64.895245 46.859113 
L 65.113986 46.41073 
L 65.223357 45.240374 
L 65.278042 45.323971 
L 65.332728 45.323971 
L 65.387413 45.582361 
L 65.442098 45.194776 
L 65.496784 45.567162 
L 65.606154 46.205538 
L 65.715525 45.802753 
L 65.879581 46.509526 
L 66.043637 47.109903 
L 66.098322 46.729918 
L 66.153007 46.821114 
L 66.426434 47.603885 
L 66.481119 47.337895 
L 66.535805 47.520288 
L 66.59049 47.368294 
L 66.754546 46.425929 
L 66.809231 46.859113 
L 66.863917 46.501926 
L 66.918602 46.12954 
L 66.973287 46.456328 
L 67.027973 46.593123 
L 67.192029 46.159939 
L 67.301399 46.570324 
L 67.41077 47.125103 
L 67.629511 46.159939 
L 67.738882 46.889512 
L 67.902938 46.15234 
L 68.121679 45.992746 
L 68.176364 45.855951 
L 68.23105 46.007945 
L 68.285735 45.901549 
L 68.34042 45.962347 
L 68.504476 47.079504 
L 68.559162 46.798315 
L 68.723218 48.029468 
L 68.777903 48.014269 
L 68.832588 47.786278 
L 68.887274 48.26506 
L 68.941959 48.006669 
L 69.106015 46.555124 
L 69.1607 46.357532 
L 69.434127 47.125103 
L 69.762239 45.179577 
L 69.98098 43.819228 
L 70.145036 44.02442 
L 70.309092 43.925624 
L 70.582519 45.506364 
L 70.746575 45.004783 
L 70.80126 45.179577 
L 70.965316 43.826828 
L 71.074687 43.842027 
L 71.129372 44.115617 
L 71.238743 43.264449 
L 71.293428 43.469641 
L 71.512169 44.632397 
L 71.676225 44.062419 
L 71.73091 44.533601 
L 71.785596 44.092818 
L 71.894966 44.077618 
L 71.949652 44.442404 
L 72.004337 44.389206 
L 72.059022 44.168815 
L 72.113708 44.617198 
L 72.168393 44.184014 
L 72.332449 43.378445 
L 72.605876 44.81479 
L 72.715246 44.495602 
L 72.769932 44.769192 
L 72.824617 44.495602 
L 72.933988 43.735631 
L 73.043358 44.328409 
L 73.098044 44.214413 
L 73.152729 44.054819 
L 73.37147 46.12954 
L 73.480841 47.482289 
L 73.535526 47.391093 
L 73.590211 46.828714 
L 73.644897 47.269497 
L 73.754267 47.786278 
L 73.808953 47.041506 
L 73.863638 47.1935 
L 73.973009 47.634283 
L 74.246435 46.494327 
L 74.301121 46.608322 
L 74.355806 46.281535 
L 74.410491 46.608322 
L 74.574547 48.736242 
L 74.629233 48.485451 
L 74.683918 48.705843 
L 74.738603 48.705843 
L 74.902659 47.877474 
L 74.957345 48.173863 
L 75.01203 48.151064 
L 75.230771 46.539925 
L 75.285456 46.965509 
L 75.340142 47.170701 
L 75.504198 48.166263 
L 75.558883 47.99907 
L 75.613568 48.052268 
L 75.722939 48.447453 
L 75.886995 47.710281 
L 75.996366 47.543087 
L 76.160422 48.607047 
L 76.215107 48.386655 
L 76.379163 47.071905 
L 76.433848 47.155502 
L 76.488534 47.064305 
L 76.543219 46.813515 
L 76.65259 47.444291 
L 76.816646 46.973109 
L 76.926016 47.003507 
L 77.035387 47.315096 
L 77.308813 46.729918 
L 77.363499 46.919911 
L 77.472869 46.372731 
L 77.527555 46.66912 
L 77.691611 47.657083 
L 77.746296 47.497489 
L 77.800981 48.234661 
L 77.855667 47.98387 
L 77.965037 47.869875 
L 78.074408 48.333457 
L 78.129093 48.234661 
L 78.347835 46.93511 
L 78.40252 46.965509 
L 78.566576 47.603885 
L 78.675947 46.798315 
L 78.730632 46.950309 
L 78.785317 47.269497 
L 78.949373 46.517126 
L 79.113429 47.163101 
L 79.277485 46.471528 
L 79.605597 44.799591 
L 79.769653 43.880026 
L 79.824338 43.735631 
L 79.933709 44.860389 
L 79.988394 44.503202 
L 80.097765 44.860389 
L 80.207136 44.526001 
L 80.261821 44.715994 
L 80.371192 44.191614 
L 80.425877 44.442404 
L 80.535247 44.085218 
L 80.589933 44.328409 
L 80.808674 46.281535 
L 80.863359 46.106741 
L 80.918045 46.342332 
L 80.97273 46.205538 
L 81.082101 45.377169 
L 81.136786 45.513964 
L 81.191471 45.726756 
L 81.246157 45.582361 
L 81.519583 44.267611 
L 81.628954 44.488003 
L 81.683639 44.579199 
L 81.738325 44.381607 
L 81.79301 44.434805 
L 81.902381 45.377169 
L 82.066437 44.852789 
L 82.394548 46.479127 
L 82.449234 46.190338 
L 82.503919 46.342332 
L 82.61329 47.018707 
L 82.667975 46.775516 
L 82.777346 47.603885 
L 82.832031 47.550687 
L 83.050772 47.284697 
L 83.105458 47.497489 
L 83.160143 47.398692 
L 83.214828 47.360694 
L 83.43357 46.304334 
L 83.488255 46.501926 
L 83.706996 45.225175 
L 83.816367 45.855951 
L 83.871052 45.779954 
L 83.925738 45.802753 
L 84.144479 44.883188 
L 84.199164 44.738793 
L 84.308535 43.826828 
L 84.36322 43.978822 
L 84.417905 43.621636 
L 84.472591 43.971222 
L 84.581961 44.776792 
L 84.636647 44.062419 
L 84.691332 44.313209 
L 84.964759 46.258736 
L 85.074129 45.726756 
L 85.128815 45.825552 
L 85.292871 47.003507 
L 85.511612 45.947147 
L 85.566297 46.243536 
L 85.620983 46.076343 
L 85.730353 45.734355 
L 85.785039 45.977546 
L 85.839724 45.924348 
L 85.949095 45.126379 
L 86.00378 45.483565 
L 86.222521 44.282811 
L 86.277206 44.799591 
L 86.331892 44.639997 
L 86.495948 44.419605 
L 86.660004 43.560838 
L 86.769374 43.75843 
L 86.82406 43.864826 
L 86.988116 43.317647 
L 87.097486 43.652034 
L 87.152172 43.621636 
L 87.261542 44.852789 
L 87.316228 44.81479 
L 87.370913 44.82999 
L 87.425598 44.662796 
L 87.480284 44.82239 
L 87.534969 45.065581 
L 87.589654 44.867988 
L 87.64434 44.913587 
L 87.699025 44.617198 
L 87.75371 44.81479 
L 87.808395 44.791991 
L 87.863081 44.921186 
L 87.917766 44.784391 
L 87.972451 44.594399 
L 88.027137 44.655196 
L 88.081822 44.913587 
L 88.136507 44.624798 
L 88.191193 44.708394 
L 88.245878 45.012383 
L 88.300563 44.708394 
L 88.355249 44.662796 
L 88.464619 44.890787 
L 88.519305 44.564 
L 88.57399 44.898387 
L 88.683361 44.427205 
L 88.738046 43.849627 
L 88.792731 44.229613 
L 88.847417 44.336008 
L 89.339585 42.671672 
L 89.448955 43.104855 
L 89.558326 42.565276 
L 89.613011 42.838865 
L 89.777067 43.76603 
L 90.050494 42.610874 
L 90.105179 43.173253 
L 90.159864 42.96806 
L 90.269235 43.089656 
L 90.32392 42.914862 
L 90.378606 43.629235 
L 90.433291 43.49244 
L 90.487976 43.401244 
L 90.652032 44.457604 
L 90.706718 44.396806 
L 90.816088 44.092818 
L 90.870774 44.206813 
L 90.925459 44.001621 
L 90.980144 44.244812 
L 91.03483 44.153615 
L 91.089515 43.872426 
L 91.1442 44.29041 
L 91.198886 43.644435 
L 91.253571 43.971222 
L 91.308256 44.123217 
L 91.472312 45.278373 
L 91.636368 44.267611 
L 91.691053 44.29801 
L 92.128536 43.370845 
L 92.183221 43.614036 
L 92.237907 43.439242 
L 92.401963 43.530439 
L 92.511333 43.887625 
L 92.566019 43.811628 
L 92.620704 43.332847 
L 92.675389 43.674834 
L 92.730075 43.560838 
L 93.003501 41.797705 
L 93.112872 42.116893 
L 93.331613 40.376559 
L 93.386298 40.391758 
L 93.495669 39.935775 
L 93.60504 40.642549 
L 93.769096 39.988973 
L 93.987837 39.244202 
L 94.042522 39.115006 
L 94.097208 39.145405 
L 94.151893 38.567827 
L 94.206578 39.046609 
L 94.315949 39.80658 
L 94.370634 39.502592 
L 94.42532 39.2746 
L 94.480005 39.434194 
L 94.589376 40.133368 
L 94.698746 39.449394 
L 95.35497 41.197327 
L 95.409655 41.113731 
L 95.519026 40.680547 
L 95.573711 41.204927 
L 95.628397 41.068132 
L 95.737767 40.133368 
L 95.901823 40.201765 
L 95.956509 40.201765 
L 96.011194 40.893339 
L 96.065879 40.86294 
L 96.229935 40.505754 
L 96.284621 40.832541 
L 96.339306 40.513353 
L 96.558047 41.083332 
L 96.612733 41.007335 
L 96.722103 40.847741 
L 96.831474 41.235326 
L 96.886159 40.923738 
L 96.940844 41.189728 
L 96.99553 41.40252 
L 97.050215 41.250525 
L 97.1049 41.182128 
L 97.159586 41.721708 
L 97.214271 41.326523 
L 97.378327 41.13653 
L 97.92518 43.857227 
L 97.979866 43.49244 
L 98.089236 43.454442 
L 98.143922 43.173253 
L 98.198607 43.302448 
L 98.253292 43.750831 
L 98.307978 43.378445 
L 98.417348 43.530439 
L 98.472034 43.287248 
L 98.63609 44.351208 
L 98.690775 43.880026 
L 98.74546 44.092818 
L 98.800145 44.123217 
L 99.018887 45.255574 
L 99.073572 45.027582 
L 99.182943 44.5716 
L 99.456369 45.643159 
L 99.511055 45.437967 
L 99.56574 45.559562 
L 99.620425 45.559562 
L 99.729796 46.539925 
L 99.784481 46.494327 
L 99.893852 46.023145 
L 100.112593 46.798315 
L 100.221964 46.881912 
L 100.331335 47.527887 
L 100.38602 46.760317 
L 100.440705 46.836314 
L 100.495391 47.094704 
L 100.714132 46.40313 
L 100.878188 46.41833 
L 100.932873 46.517126 
L 101.042244 47.132702 
L 101.2063 46.539925 
L 101.260985 46.775516 
L 101.31567 46.41073 
L 101.370356 46.722318 
L 101.534412 47.2087 
L 101.589097 47.2087 
L 101.807838 46.175139 
L 101.862524 46.448728 
L 101.971894 45.658358 
L 102.13595 46.441129 
L 102.245321 46.745117 
L 102.300006 46.41833 
L 102.354692 46.501926 
L 102.464062 46.479127 
L 102.518747 46.015545 
L 102.573433 46.433529 
L 102.628118 46.258736 
L 102.901545 47.755879 
L 103.120286 46.783116 
L 103.174971 47.277097 
L 103.229657 47.261898 
L 103.284342 47.2011 
L 103.339027 47.505088 
L 103.393713 47.375893 
L 103.503083 47.254298 
L 103.557769 47.421492 
L 103.612454 46.821114 
L 103.721825 46.843913 
L 103.940566 48.576648 
L 103.995251 48.455052 
L 104.049937 47.97627 
L 104.159307 49.063029 
L 104.213992 48.880636 
L 104.323363 48.667844 
L 104.432734 49.321419 
L 104.487419 49.184625 
L 104.59679 49.237823 
L 104.70616 49.488613 
L 104.815531 50.210586 
L 104.870216 50.202986 
L 104.924902 50.005394 
L 105.088958 50.962957 
L 105.253014 50.081391 
L 105.362384 50.316982 
L 105.41707 50.415778 
L 105.581126 51.099752 
L 105.745182 50.415778 
L 105.854552 50.499375 
L 105.909238 50.461376 
L 106.073293 49.57221 
L 106.127979 49.351818 
L 106.182664 49.435415 
L 106.237349 49.374617 
L 106.456091 49.967395 
L 106.565461 49.03263 
L 106.620147 49.268221 
L 106.674832 49.541811 
L 106.838888 48.660245 
L 106.893573 48.819838 
L 117.885323 47.99907 
L 117.994694 47.603885 
L 118.15875 48.348656 
L 118.213435 48.173863 
L 118.268121 48.295458 
L 118.322806 48.295458 
L 118.486862 49.519012 
L 118.596233 50.522174 
L 118.650918 50.423378 
L 118.924344 49.56461 
L 119.143086 50.734966 
L 119.252456 50.962957 
L 119.307142 50.89456 
L 119.689939 52.437301 
L 119.79931 51.745728 
L 119.90868 52.353705 
L 119.963366 52.224509 
L 120.018051 52.330905 
L 120.072736 52.080115 
L 120.127422 52.346105 
L 120.182107 52.254908 
L 120.236792 52.422102 
L 120.291478 52.277707 
L 120.400848 51.996518 
L 120.510219 52.923683 
L 120.564904 52.437301 
L 120.783645 52.102914 
L 120.947701 52.315706 
L 121.057072 52.74129 
L 121.111757 52.422102 
L 121.221128 52.551297 
L 121.385184 53.220072 
L 121.439869 52.703291 
L 121.494555 53.037679 
L 121.603925 52.74129 
L 121.713296 52.862885 
L 121.877352 53.372066 
L 122.041408 52.042116 
L 122.205464 52.74889 
L 122.260149 52.878085 
L 122.424205 51.981319 
L 122.47889 51.981319 
L 122.807002 53.121275 
L 122.861688 52.574096 
L 122.916373 52.764089 
L 122.971058 53.364466 
L 123.025744 53.334067 
L 123.080429 52.73369 
L 123.135114 52.794488 
L 123.1898 52.817287 
L 123.29917 52.4753 
L 123.408541 52.870485 
L 123.627282 54.550021 
L 123.681968 54.702015 
L 123.900709 53.820449 
L 123.955394 53.980043 
L 124.283506 52.429702 
L 124.392877 52.862885 
L 124.447562 52.634894 
L 124.502247 52.21691 
L 124.556933 52.277707 
L 124.611618 52.764089 
L 124.666303 52.642494 
L 124.775674 51.928121 
L 124.830359 52.049716 
L 124.885045 52.118113 
L 124.994415 51.882522 
L 125.049101 52.087715 
L 125.103786 51.996518 
L 125.322527 50.552573 
L 125.377213 50.864161 
L 125.431898 50.605771 
L 125.486583 50.643769 
L 125.541269 50.461376 
L 125.595954 50.529774 
L 125.705325 50.780564 
L 125.76001 51.388541 
L 125.814695 51.259346 
L 125.869381 51.069353 
L 125.924066 51.168149 
L 125.978751 51.320144 
L 126.088122 50.788164 
L 126.142807 50.848962 
L 126.306863 50.537373 
L 126.361548 51.046554 
L 126.416234 50.742566 
L 126.525604 50.180187 
L 126.58029 50.195386 
L 126.634975 50.62857 
L 126.68966 50.210586 
L 126.744346 50.248584 
L 126.799031 50.050992 
L 126.853716 50.134589 
L 127.072458 51.753327 
L 127.127143 51.882522 
L 127.455255 50.149788 
L 127.564626 50.248584 
L 127.673996 50.772964 
L 128.111479 48.333457 
L 128.166164 48.363856 
L 128.33022 49.131427 
L 128.384905 48.766641 
L 128.603647 47.406292 
L 128.822388 48.272659 
L 129.095815 49.8458 
L 129.1505 49.663407 
L 129.533297 47.064305 
L 129.752038 47.885074 
L 129.806724 47.641883 
L 130.134836 45.764754 
L 130.189521 45.947147 
L 130.298892 46.40313 
L 130.353577 46.342332 
L 130.462948 46.190338 
L 130.681689 45.36197 
L 130.736374 45.688757 
L 130.79106 45.012383 
L 130.845745 45.133978 
L 131.009801 45.650759 
L 131.064486 45.719156 
L 131.283228 45.164377 
L 131.392598 45.392368 
L 131.447284 45.255574 
L 131.501969 45.445566 
L 131.611339 46.775516 
L 131.666025 46.623522 
L 131.994137 44.890787 
L 132.048822 45.301172 
L 132.103507 45.255574 
L 132.322249 44.647597 
L 132.486305 45.126379 
L 132.54099 45.202376 
L 132.650361 44.81479 
L 132.759731 43.690033 
L 132.814417 43.864826 
L 132.978473 44.389206 
L 133.197214 43.469641 
L 133.251899 43.986422 
L 133.306585 43.849627 
L 133.36127 43.720432 
L 133.525326 42.512078 
L 133.580011 42.527277 
L 133.689382 42.230888 
L 133.853438 42.998459 
L 133.908123 42.268887 
L 133.962808 42.679271 
L 134.017494 43.287248 
L 134.072179 43.196052 
L 134.29092 42.960461 
L 134.345606 43.158053 
L 134.400291 42.360083 
L 134.454976 42.648872 
L 134.619032 42.230888 
L 134.728403 43.013659 
L 135.00183 41.820504 
L 135.329941 42.504478 
L 135.384627 42.72487 
L 135.439312 42.626073 
L 135.548683 42.246088 
L 135.603368 42.329685 
L 135.712739 43.142854 
L 135.767424 43.074456 
L 135.986165 42.610874 
L 136.040851 42.534877 
L 136.259592 43.910425 
L 136.314277 43.864826 
L 136.368963 44.260011 
L 136.478333 43.454442 
L 136.533019 43.477241 
L 136.861131 44.867988 
L 136.915816 44.328409 
L 136.970501 44.837589 
L 137.134557 44.723594 
L 137.243928 45.909149 
L 137.298613 45.240374 
L 137.353298 45.308772 
L 137.407984 45.696357 
L 137.462669 45.635559 
L 137.57204 45.35437 
L 137.626725 45.969947 
L 137.68141 45.688757 
L 137.845466 45.369569 
L 138.064208 44.564 
L 138.282949 46.061143 
L 138.337634 45.658358 
L 138.39232 46.045944 
L 138.556376 45.62036 
L 138.665746 45.810353 
L 139.048543 48.50825 
L 139.103229 48.24226 
L 139.157914 47.854675 
L 139.212599 48.029468 
L 139.32197 47.915473 
L 139.431341 48.591847 
L 139.868823 47.269497 
L 140.087565 45.559562 
L 140.251621 46.501926 
L 140.306306 46.175139 
L 140.360991 46.106741 
L 140.415677 45.749555 
L 140.470362 45.88635 
L 140.525047 45.772354 
L 140.634418 46.577923 
L 140.689103 46.182738 
L 140.798474 46.805915 
L 140.853159 46.66912 
L 141.126586 47.026306 
L 141.181271 46.874312 
L 141.345327 46.570324 
L 141.400012 46.638721 
L 141.454698 46.380331 
L 141.618754 46.828714 
L 141.728124 46.889512 
L 141.837495 47.345494 
L 141.946866 46.980708 
L 142.001551 47.132702 
L 142.056236 47.155502 
L 142.110922 46.767916 
L 142.165607 47.292296 
L 142.220292 47.223899 
L 142.329663 46.517126 
L 142.384348 46.547525 
L 142.439034 46.653921 
L 142.548404 45.574762 
L 142.603089 45.681157 
L 142.657775 45.992746 
L 142.71246 45.901549 
L 142.767145 45.331571 
L 142.821831 45.681157 
L 142.985887 45.34677 
L 143.204628 46.349932 
L 143.313999 45.164377 
L 143.423369 45.202376 
L 144.626446 49.511412 
L 144.735817 48.918635 
L 144.790502 48.949034 
L 144.845188 49.511412 
L 144.899873 49.123827 
L 144.954558 49.177025 
L 145.009244 48.873036 
L 145.063929 49.04023 
L 145.1733 48.964233 
L 145.446726 48.059867 
L 145.501412 48.021869 
L 145.556097 47.497489 
L 145.610782 47.664682 
L 145.665468 47.611484 
L 145.99358 48.949034 
L 146.048265 48.721042 
L 146.157635 48.310658 
L 146.212321 48.493051 
L 146.267006 48.394255 
L 146.321691 47.99907 
L 146.376377 48.295458 
L 146.540433 48.204262 
L 146.649803 47.748279 
L 146.92323 48.835038 
L 146.977915 48.77424 
L 147.087286 47.46709 
L 147.141971 47.641883 
L 147.360713 46.182738 
L 147.524769 46.684319 
L 147.74351 45.392368 
L 147.798195 45.453166 
L 147.852881 45.681157 
L 147.907566 45.316371 
L 147.962251 45.574762 
L 148.180992 44.898387 
L 148.290363 45.422767 
L 148.399734 45.240374 
L 148.56379 44.313209 
L 148.618475 44.427205 
L 148.67316 44.82239 
L 148.727846 44.457604 
L 148.782531 44.03202 
L 148.891902 44.564 
L 148.946587 44.495602 
L 149.110643 44.738793 
L 149.329384 43.811628 
L 149.438755 44.381607 
L 149.766867 42.97566 
L 149.876237 43.332847 
L 149.985608 42.671672 
L 150.094979 43.279649 
L 150.149664 43.120055 
L 150.31372 42.45888 
L 150.368405 42.375283 
L 150.477776 42.907263 
L 150.532461 42.504478 
L 150.587147 42.71727 
L 150.751203 43.332847 
L 150.805888 43.082056 
L 150.969944 44.047219 
L 151.024629 43.963623 
L 151.079315 44.123217 
L 151.188685 43.743231 
L 151.352741 44.685595 
L 151.407427 44.518402 
L 151.571483 43.355646 
L 151.626168 43.431643 
L 151.680853 43.211251 
L 151.735538 43.401244 
L 151.95428 44.845189 
L 152.008965 44.708394 
L 152.06365 44.389206 
L 152.118336 44.434805 
L 152.227706 44.396806 
L 152.282392 44.731194 
L 152.337077 44.541201 
L 152.391762 44.655196 
L 152.446448 44.229613 
L 152.501133 44.282811 
L 152.555818 44.282811 
L 152.610504 44.070019 
L 152.665189 44.472803 
L 152.719874 44.062419 
L 152.77456 43.76603 
L 152.829245 43.849627 
L 152.88393 43.857227 
L 153.102672 44.905987 
L 153.157357 44.746393 
L 153.266728 45.202376 
L 153.376098 44.389206 
L 153.485469 44.427205 
L 153.540154 44.488003 
L 153.594839 44.016821 
L 153.649525 44.03962 
L 153.813581 45.057981 
L 153.977637 45.764754 
L 154.032322 45.61276 
L 154.196378 44.624798 
L 154.251063 45.050381 
L 154.469805 43.416443 
L 154.52449 43.044057 
L 154.579175 43.120055 
L 154.633861 43.24165 
L 154.688546 43.066857 
L 154.743231 43.401244 
L 154.852602 42.960461 
L 154.907287 43.294848 
L 154.961973 42.861664 
L 155.016658 42.97566 
L 155.071343 43.332847 
L 155.290084 42.352484 
L 155.45414 42.040896 
L 155.508826 42.101693 
L 155.563511 41.828104 
L 155.672882 42.299286 
L 155.727567 41.9117 
L 155.782252 42.116893 
L 155.946308 42.785667 
L 156.055679 42.398082 
L 156.383791 43.940823 
L 156.438476 43.697633 
L 156.493162 44.5564 
L 156.547847 44.108017 
L 156.711903 43.788829 
L 156.766588 44.184014 
L 156.821274 44.009221 
L 156.875959 43.895225 
L 156.930644 44.03202 
L 156.98533 44.03202 
L 157.0947 44.685595 
L 157.149385 44.381607 
L 157.204071 44.070019 
L 157.258756 44.366407 
L 157.313441 44.320809 
L 157.368127 44.617198 
L 157.422812 44.5716 
L 157.477497 44.184014 
L 157.532183 44.586799 
L 157.586868 44.784391 
L 157.750924 44.427205 
L 157.91498 44.130816 
L 158.079036 44.685595 
L 158.133721 44.807191 
L 158.297777 45.278373 
L 158.461833 44.632397 
L 158.516519 44.807191 
L 158.571204 44.791991 
L 158.680575 45.369569 
L 158.73526 45.240374 
L 158.789945 45.111179 
L 158.844631 45.688757 
L 158.899316 45.551962 
L 159.063372 45.88635 
L 159.282113 45.217575 
L 159.500854 45.521564 
L 159.55554 45.331571 
L 159.610225 45.61276 
L 159.66491 45.491165 
L 159.719596 45.460766 
L 159.828966 44.738793 
L 159.883652 44.921186 
L 159.938337 44.966785 
L 160.102393 44.465204 
L 160.157078 44.5716 
L 160.266449 45.749555 
L 160.48519 44.799591 
L 160.539876 45.057981 
L 160.594561 44.776792 
L 160.649246 44.807191 
L 160.703932 44.867988 
L 160.813302 44.396806 
L 160.922673 45.369569 
L 160.977358 45.308772 
L 161.196099 46.562724 
L 161.250785 46.40313 
L 161.30547 46.760317 
L 161.360155 46.623522 
L 161.414841 46.494327 
L 161.469526 46.767916 
L 161.578897 46.053543 
L 172.570647 51.578534 
L 172.625332 50.841362 
L 172.680017 51.114951 
L 172.844073 51.966119 
L 172.898759 51.806525 
L 173.062815 52.414502 
L 173.336241 51.130151 
L 173.500297 52.703291 
L 173.554982 52.308106 
L 173.664353 52.323306 
L 173.828409 52.885684 
L 173.883094 52.870485 
L 174.04715 52.437301 
L 174.211206 53.045278 
L 174.320577 52.087715 
L 174.429948 52.4753 
L 174.484633 52.558897 
L 174.703374 51.586134 
L 174.812745 52.148512 
L 174.86743 51.707729 
L 174.922116 51.722928 
L 175.031486 52.589296 
L 175.250228 50.932558 
L 175.523654 50.035792 
L 175.633025 50.233385 
L 175.68771 50.590571 
L 175.742395 50.415778 
L 175.961137 50.195386 
L 176.070507 50.62097 
L 176.234563 52.186511 
L 176.289249 52.102914 
L 176.343934 52.080115 
L 176.562675 52.855285 
L 176.617361 52.695692 
L 176.836102 51.350543 
L 177.054843 52.019317 
L 177.109529 51.973719 
L 177.273584 52.528498 
L 177.32827 52.224509 
L 177.382955 52.73369 
L 177.43764 52.680492 
L 177.492326 52.551297 
L 177.547011 52.695692 
L 177.820438 53.615257 
L 177.875123 53.26567 
L 177.929808 53.600057 
L 177.984494 54.086439 
L 178.039179 53.698854 
L 178.203235 53.980043 
L 178.640718 52.505699 
L 178.695403 52.558897 
L 178.804774 51.981319 
L 178.914144 51.570934 
L 178.968829 51.859723 
L 179.023515 51.616532 
L 179.187571 51.046554 
L 179.242256 51.662131 
L 179.296941 51.259346 
L 179.460997 51.487337 
L 179.570368 50.970557 
L 179.734424 51.601333 
L 179.843795 51.472138 
L 179.953165 51.251746 
L 180.007851 50.742566 
L 180.062536 50.833762 
L 180.117221 51.122551 
L 180.171907 50.940158 
L 180.226592 50.826162 
L 180.281277 50.947758 
L 180.390648 51.099752 
L 180.554704 50.050992 
L 180.773445 49.397417 
L 180.82813 49.944596 
L 180.882816 49.283421 
L 180.937501 49.724204 
L 180.992186 49.716604 
L 181.210928 50.742566 
L 181.374984 50.271383 
L 181.53904 51.304944 
L 181.64841 50.962957 
L 181.703096 51.41894 
L 181.921837 49.906597 
L 182.085893 49.199824 
L 182.140578 49.526612 
L 182.195264 49.253022 
L 182.249949 49.321419 
L 182.414005 48.895836 
L 182.46869 48.690643 
L 182.523376 48.78184 
L 182.632746 49.860999 
L 182.796802 49.184625 
L 182.906173 49.663407 
L 182.960858 49.04023 
L 183.015543 49.215024 
L 183.124914 49.929396 
L 183.28897 49.800201 
L 183.343655 49.762203 
L 183.453026 49.488613 
L 183.835823 51.259346 
L 183.999879 50.88696 
L 184.163935 52.064915 
L 184.218621 52.437301 
L 184.273306 52.285307 
L 184.327991 52.308106 
L 184.382677 52.672892 
L 184.437362 52.330905 
L 184.492047 52.277707 
L 184.601418 52.581696 
L 184.765474 51.570934 
L 184.820159 51.624132 
L 184.984215 52.21691 
L 185.0389 52.163712 
L 185.093586 52.376504 
L 185.202956 52.026917 
L 185.257642 52.186511 
L 185.421698 51.821725 
L 185.476383 52.087715 
L 185.531068 51.753327 
L 185.585754 52.338505 
L 185.640439 52.156112 
L 185.85918 52.505699 
L 185.968551 51.981319 
L 186.023236 52.368904 
L 186.077922 51.890122 
L 186.132607 51.981319 
L 186.351348 53.288469 
L 186.406033 53.27327 
L 186.460719 53.372066 
L 186.570089 52.74889 
L 186.734145 51.882522 
L 186.788831 51.874923 
L 186.843516 51.183349 
L 186.898201 51.403741 
L 187.007572 51.282145 
L 187.062257 51.312544 
L 187.335684 50.316982 
L 187.390369 50.590571 
L 187.445055 50.575372 
L 187.554425 49.769802 
L 187.609111 49.785002 
L 187.663796 49.602609 
L 187.718481 50.149788 
L 187.773167 49.952196 
L 187.882537 50.066191 
L 188.046593 49.412616 
L 188.155964 49.344219 
L 188.210649 48.949034 
L 188.265334 49.253022 
L 188.42939 48.766641 
L 188.593446 49.283421 
L 188.757502 48.766641 
L 188.812188 48.842638 
L 189.030929 47.885074 
L 189.194985 47.565886 
L 189.24967 47.73308 
L 189.468412 48.546249 
L 189.523097 48.614646 
L 189.577782 49.101028 
L 189.632468 48.721042 
L 189.687153 48.812239 
L 189.741838 49.192224 
L 189.796524 49.05543 
L 190.015265 48.173863 
L 190.124635 48.401854 
L 190.398062 47.710281 
L 190.452747 47.907873 
L 190.616803 48.295458 
L 190.726174 48.417054 
L 190.89023 48.173863 
L 191.054286 48.759041 
L 191.108971 48.880636 
L 191.327713 47.892674 
L 191.382398 48.895836 
L 191.437083 48.645045 
L 191.546454 48.531049 
L 191.71051 49.511412 
L 191.765195 49.03263 
L 191.81988 49.785002 
L 191.874566 49.617808 
L 192.093307 48.455052 
L 192.202678 49.215024 
L 192.257363 48.987032 
L 192.421419 48.485451 
L 192.53079 48.675444 
L 192.804216 49.853399 
L 192.858902 49.671006 
L 192.913587 49.8382 
L 192.968272 50.081391 
L 193.022958 49.944596 
L 193.077643 50.005394 
L 193.132328 50.385379 
L 193.296384 49.936996 
L 193.35107 50.073791 
L 193.843237 47.847075 
L 193.952608 48.325857 
L 194.007293 47.72548 
L 194.061979 47.755879 
L 194.226035 48.204262 
L 194.772888 45.468366 
L 194.827573 45.544363 
L 194.882259 46.015545 
L 194.936944 45.749555 
L 195.101 45.278373 
L 195.210371 45.491165 
L 195.265056 45.164377 
L 195.319741 45.33917 
L 195.374426 45.301172 
L 195.647853 46.243536 
L 195.702538 46.114341 
L 195.757224 46.053543 
L 195.92128 45.475965 
L 195.975965 45.779954 
L 196.03065 45.567162 
L 196.085336 45.551962 
L 196.249392 46.13714 
L 196.358762 46.091542 
L 196.413448 46.319533 
L 196.522818 45.407568 
L 196.577504 45.741955 
L 196.686874 45.848351 
L 196.74156 46.380331 
L 196.796245 46.281535 
L 197.069672 44.860389 
L 197.124357 44.883188 
L 197.288413 44.351208 
L 197.397783 44.875588 
L 197.452469 44.784391 
L 197.507154 44.845189 
L 197.616525 45.506364 
L 197.67121 45.483565 
L 197.835266 45.156777 
L 197.889951 45.278373 
L 198.054007 44.753993 
L 198.327434 45.392368 
L 198.382119 45.118779 
L 198.546175 45.954747 
L 198.710231 45.308772 
L 198.874287 45.149178 
L 198.983658 45.475965 
L 199.093028 44.860389 
L 199.202399 44.936386 
L 199.257084 44.989584 
L 199.475826 45.931948 
L 199.639882 46.334733 
L 199.803938 47.064305 
L 199.858623 46.957909 
L 199.967994 47.2087 
L 200.077364 47.923072 
L 200.13205 47.862275 
L 200.186735 47.862275 
L 200.24142 47.702681 
L 200.296106 48.090266 
L 200.460162 47.254298 
L 200.514847 47.284697 
L 200.569532 47.596285 
L 200.624218 47.315096 
L 200.733588 47.824276 
L 200.788274 47.611484 
L 200.842959 47.056705 
L 200.897644 47.269497 
L 200.952329 47.786278 
L 201.007015 47.254298 
L 201.280441 48.683044 
L 201.335127 48.51585 
L 201.499183 48.835038 
L 201.608553 48.021869 
L 201.663239 48.310658 
L 201.827295 49.785002 
L 201.936665 49.496213 
L 201.991351 49.549411 
L 202.046036 49.321419 
L 202.155407 50.050992 
L 202.319463 49.359418 
L 202.428833 49.595009 
L 202.483519 49.724204 
L 202.647574 48.903435 
L 202.70226 49.131427 
L 202.81163 48.447453 
L 203.030372 49.982594 
L 203.085057 49.815401 
L 203.139742 49.716604 
L 203.194428 50.005394 
L 203.249113 49.952196 
L 203.358484 49.397417 
L 203.413169 48.895836 
L 203.467854 49.002232 
L 203.63191 49.108628 
L 203.686596 49.108628 
L 203.795966 48.348656 
L 203.850652 48.477851 
L 203.905337 48.24226 
L 203.960022 48.599447 
L 204.014708 48.424653 
L 204.069393 47.97627 
L 204.124078 48.363856 
L 204.178764 48.006669 
L 204.233449 48.310658 
L 204.288134 48.493051 
L 204.34282 48.211862 
L 204.45219 48.584247 
L 204.506875 48.371455 
L 204.780302 49.686206 
L 204.834987 49.56461 
L 204.889673 49.610209 
L 204.944358 49.792602 
L 205.108414 49.30622 
L 205.436526 50.856561 
L 205.600582 49.883798 
L 205.655267 49.823 
L 205.709953 49.936996 
L 205.764638 50.408178 
L 205.819323 50.202986 
L 205.874009 50.36258 
L 205.928694 50.043392 
L 205.983379 50.339781 
L 206.256806 49.108628 
L 206.366176 49.154226 
L 206.420862 49.237823 
L 206.584918 48.196662 
L 206.694288 48.546249 
L 206.91303 47.474689 
L 207.241142 48.173863 
L 207.350512 47.064305 
L 207.405198 47.299896 
L 207.459883 47.550687 
L 207.514568 47.535487 
L 207.678624 46.752717 
L 208.006736 48.371455 
L 208.061422 48.439853 
L 208.225477 49.397417 
L 208.389533 48.219461 
L 208.444219 48.333457 
L 208.881701 50.316982 
L 208.936387 50.294183 
L 208.991072 50.066191 
L 209.155128 50.947758 
L 209.209813 50.62857 
L 209.264499 50.780564 
L 209.428555 51.259346 
L 209.48324 50.826162 
L 209.647296 51.67733 
L 209.866037 50.750165 
L 209.920723 51.023755 
L 210.030093 51.266946 
L 210.084778 51.15295 
L 210.139464 51.251746 
L 210.248834 51.616532 
L 210.576946 50.164987 
L 210.631632 49.815401 
L 210.686317 49.868599 
L 210.795688 50.36258 
L 210.850373 50.339781 
L 211.069114 49.389817 
L 211.178485 49.519012 
L 211.23317 49.655807 
L 211.397226 50.932558 
L 211.451912 50.833762 
L 211.506597 50.605771 
L 211.561282 50.917359 
L 211.615968 50.795764 
L 211.725338 50.35498 
L 211.944079 52.019317 
L 212.108135 51.168149 
L 212.162821 51.221347 
L 212.217506 51.008556 
L 212.326877 51.68493 
L 212.436247 50.772964 
L 212.490933 51.168149 
L 212.600303 51.593733 
L 212.764359 50.385379 
L 212.819045 50.484175 
L 212.87373 50.126989 
L 212.928415 50.491775 
L 213.092471 49.739404 
L 213.311213 50.970557 
L 213.365898 50.35498 
L 213.420583 50.833762 
L 213.69401 51.373342 
L 213.912751 50.294183 
L 214.076807 50.795764 
L 214.131492 50.392979 
L 214.186178 50.704567 
L 214.240863 50.742566 
L 214.295548 51.000956 
L 214.350234 50.734966 
L 214.404919 50.560173 
L 214.62366 49.260622 
L 214.678346 49.336619 
L 214.787716 50.225785 
L 214.842402 50.164987 
L 214.897087 50.005394 
L 214.951772 50.134589 
L 215.115828 50.605771 
L 215.170514 50.142188 
L 215.225199 50.164987 
L 215.279884 50.780564 
L 215.33457 50.62857 
L 215.389255 50.704567 
L 215.44394 51.069353 
L 215.498625 50.658969 
L 215.553311 50.940158 
L 215.607996 51.304944 
L 215.662681 51.244147 
L 215.826737 49.944596 
L 215.881423 50.233385 
L 216.045479 50.788164 
L 216.209535 49.617808 
L 216.26422 49.747003 
L 227.25597 42.626073 
L 227.310655 42.854065 
L 227.365341 42.618474 
L 227.638767 41.964898 
L 227.693453 42.238488 
L 227.748138 42.124492 
L 227.802823 41.64571 
L 227.857509 41.888901 
L 228.021565 41.972498 
L 228.294991 41.098531 
L 228.513732 39.745783 
L 228.677788 40.209365 
L 228.787159 40.513353 
L 228.841844 40.34616 
L 228.89653 40.840141 
L 228.951215 40.589351 
L 229.0059 40.59695 
L 229.115271 40.254963 
L 229.224642 40.916138 
L 229.279327 40.650148 
L 229.334012 41.090932 
L 229.388698 40.786943 
L 229.498068 40.900939 
L 229.662124 40.59695 
L 229.82618 41.113731 
L 229.880866 41.296124 
L 229.935551 41.090932 
L 229.990236 41.258125 
L 230.044921 41.410119 
L 230.208977 42.314485 
L 230.318348 42.246088 
L 230.373033 42.306885 
L 230.427719 42.428481 
L 230.482404 41.964898 
L 230.537089 42.010497 
L 230.865201 43.226451 
L 230.919887 43.028858 
L 231.029257 44.358808 
L 231.083943 44.229613 
L 231.138628 43.880026 
L 231.193313 44.130816 
L 231.412055 42.922462 
L 231.46674 43.568438 
L 231.521425 43.24165 
L 231.630796 43.218851 
L 231.685481 43.401244 
L 231.740167 43.059257 
L 231.794852 43.370845 
L 231.904222 43.75843 
L 232.013593 43.636835 
L 232.068278 43.636835 
L 232.122964 44.115617 
L 232.177649 43.439242 
L 232.232334 43.583637 
L 232.28702 43.644435 
L 232.341705 43.23405 
L 232.39639 43.294848 
L 232.505761 43.652034 
L 232.560446 42.97566 
L 232.615132 43.23405 
L 232.669817 43.51524 
L 232.724502 42.740069 
L 232.779188 43.059257 
L 232.833873 43.074456 
L 232.943244 43.849627 
L 232.997929 43.735631 
L 233.1073 43.50764 
L 233.161985 43.849627 
L 233.21667 43.522839 
L 233.271356 43.538039 
L 233.326041 42.892063 
L 233.380726 42.98326 
L 233.435412 43.23405 
L 233.490097 42.96806 
L 233.544782 42.914862 
L 233.654153 43.606436 
L 233.708838 43.408844 
L 233.872894 44.03962 
L 233.927579 43.971222 
L 233.982265 43.591237 
L 234.03695 43.880026 
L 234.091635 43.887625 
L 234.201006 42.869264 
L 234.255691 43.150453 
L 234.365062 42.732469 
L 234.474433 42.952861 
L 234.638489 43.446842 
L 234.747859 43.408844 
L 234.802545 42.998459 
L 234.85723 43.104855 
L 235.021286 43.538039 
L 235.349398 44.503202 
L 235.404083 44.412006 
L 235.458768 43.986422 
L 235.513454 44.161215 
L 235.67751 44.077618 
L 235.841566 44.700795 
L 236.005622 43.872426 
L 236.114992 43.963623 
L 236.279048 44.624798 
L 236.443104 43.849627 
L 236.661846 42.565276 
L 236.716531 42.671672 
L 236.771216 43.021258 
L 236.825902 42.755268 
L 236.935272 42.284086 
L 236.989958 42.633673 
L 237.044643 42.557676 
L 237.154014 42.420881 
L 237.208699 42.527277 
L 237.372755 42.056095 
L 237.536811 42.284086 
L 237.591496 41.964898 
L 237.646181 42.018096 
L 237.755552 42.823666 
L 237.919608 43.49244 
L 237.974293 43.340446 
L 238.193035 44.419605 
L 238.357091 44.928786 
L 238.466461 44.518402 
L 238.521147 44.913587 
L 238.575832 44.647597 
L 238.685203 44.206813 
L 238.739888 44.488003 
L 238.794573 44.5488 
L 238.903944 44.009221 
L 238.958629 43.51524 
L 239.013315 43.804029 
L 239.122685 43.956023 
L 239.286741 44.632397 
L 239.450797 45.019983 
L 239.669538 44.138416 
L 239.724224 44.184014 
L 240.052336 45.60516 
L 240.271077 44.282811 
L 240.435133 43.940823 
L 240.489818 43.583637 
L 240.544504 43.720432 
L 240.653874 43.948423 
L 240.927301 42.869264 
L 241.036671 43.842027 
L 241.146042 42.747669 
L 241.200727 42.876864 
L 241.419469 43.872426 
L 241.528839 43.538039 
L 241.583525 43.332847 
L 241.63821 43.386045 
L 241.692895 43.416443 
L 241.747581 42.869264 
L 241.802266 43.021258 
L 241.856951 42.930062 
L 241.966322 42.086494 
L 242.349119 43.925624 
L 242.403805 43.690033 
L 242.45849 44.108017 
L 242.513175 43.796429 
L 242.567861 43.940823 
L 242.622546 43.842027 
L 242.786602 43.165653 
L 242.895972 42.892063 
L 243.060028 43.644435 
L 243.27877 44.244812 
L 243.38814 43.918024 
L 243.442826 43.956023 
L 243.497511 43.933224 
L 243.606882 42.98326 
L 243.661567 43.287248 
L 243.989679 42.101693 
L 244.153735 43.013659 
L 244.20842 42.641273 
L 244.263106 42.861664 
L 244.372476 42.641273 
L 244.591217 43.462042 
L 244.645903 43.484841 
L 244.700588 43.735631 
L 244.755273 43.614036 
L 244.809959 43.50004 
L 244.864644 42.907263 
L 244.919329 43.120055 
L 244.974015 43.021258 
L 245.0287 43.188452 
L 245.083385 43.918024 
L 245.138071 43.659634 
L 245.466183 43.104855 
L 245.520868 43.370845 
L 245.575553 42.664072 
L 245.630239 43.089656 
L 245.739609 43.424043 
L 245.794295 43.021258 
L 245.84898 43.044057 
L 246.122407 43.956023 
L 246.177092 44.351208 
L 246.231777 44.100417 
L 246.286463 43.933224 
L 246.395833 44.336008 
L 246.505204 44.016821 
L 246.559889 44.252412 
L 246.614574 44.138416 
L 246.66926 44.047219 
L 246.723945 44.191614 
L 246.77863 43.925624 
L 246.942686 45.817952 
L 247.052057 45.817952 
L 247.161428 45.848351 
L 247.270798 46.66912 
L 247.325484 46.114341 
L 247.380169 46.805915 
L 247.434854 46.349932 
L 247.48954 46.281535 
L 247.59891 46.988308 
L 247.653596 46.94271 
L 247.872337 48.059867 
L 248.036393 47.596285 
L 248.145764 47.740679 
L 248.309819 48.143464 
L 248.364505 48.105466 
L 248.473875 47.2087 
L 248.528561 47.391093 
L 248.692617 46.813515 
L 248.747302 46.980708 
L 248.801987 46.767916 
L 248.856673 45.825552 
L 248.966043 45.855951 
L 249.020729 45.430367 
L 249.184785 45.977546 
L 249.23947 45.787553 
L 249.294155 45.962347 
L 249.403526 45.947147 
L 249.512897 46.076343 
L 249.567582 45.833152 
L 249.622267 45.962347 
L 249.786323 46.691919 
L 249.895694 47.755879 
L 249.950379 47.558286 
L 250.16912 46.585523 
L 250.333176 46.980708 
L 250.497232 46.099142 
L 250.551918 46.045944 
L 250.606603 46.14474 
L 250.661288 46.175139 
L 250.934715 45.430367 
L 250.9894 45.536763 
L 251.044086 45.369569 
L 251.208142 46.600723 
L 251.262827 46.509526 
L 251.481568 48.006669 
L 251.536254 47.953471 
L 251.590939 47.816677 
L 251.645624 48.143464 
L 251.70031 47.695081 
L 251.754995 48.021869 
L 251.864365 48.949034 
L 251.973736 47.869875 
L 252.028421 48.363856 
L 252.083107 48.128265 
L 252.301848 47.657083 
L 252.356533 47.626684 
L 252.411219 47.406292 
L 252.465904 47.527887 
L 252.684645 48.363856 
L 252.848701 47.854675 
L 253.122128 48.637445 
L 253.231499 48.128265 
L 253.286184 48.219461 
L 253.340869 48.667844 
L 253.395555 48.303058 
L 253.723666 49.215024 
L 253.887722 49.625408 
L 254.161149 47.99147 
L 254.215834 48.371455 
L 254.27052 48.675444 
L 254.325205 48.363856 
L 254.37989 48.24226 
L 254.543946 49.807801 
L 254.598632 49.633008 
L 254.653317 49.648207 
L 254.762688 49.800201 
L 255.036114 48.964233 
L 255.20017 49.215024 
L 255.254856 49.275821 
L 255.418912 49.678606 
L 255.582967 48.78184 
L 255.747023 48.569048 
L 255.801709 48.766641 
L 255.856394 48.728642 
L 255.911079 48.561448 
L 256.075135 48.956633 
L 256.239191 49.541811 
L 256.293877 49.344219 
L 256.457933 49.101028 
L 256.512618 49.921797 
L 256.567303 49.640607 
L 256.621989 49.648207 
L 256.676674 49.807801 
L 256.731359 50.332181 
L 256.786045 50.050992 
L 257.059471 48.903435 
L 257.223527 48.105466 
L 257.278213 47.489889 
L 257.332898 47.72548 
L 257.442268 47.527887 
L 257.606324 47.170701 
L 257.879751 45.544363 
L 257.934436 45.848351 
L 257.989122 46.281535 
L 258.043807 46.083942 
L 258.098492 46.068743 
L 258.207863 45.369569 
L 258.262548 45.772354 
L 258.317234 45.369569 
L 258.426604 45.931948 
L 258.48129 45.795153 
L 258.645346 45.422767 
L 258.754716 45.551962 
L 258.809402 45.027582 
L 258.864087 45.171977 
L 258.918772 45.126379 
L 258.973458 45.255574 
L 259.028143 44.677996 
L 259.082828 45.179577 
L 259.137514 45.073181 
L 259.192199 45.141578 
L 259.301569 45.263173 
L 259.41094 46.273935 
L 259.465625 46.213137 
L 259.520311 46.479127 
L 259.684367 45.065581 
L 259.739052 45.225175 
L 259.903108 46.235936 
L 259.957793 46.39553 
L 260.012479 46.296734 
L 260.449961 44.343608 
L 260.668703 45.035182 
L 260.778073 44.252412 
L 260.832759 44.260011 
L 260.887444 44.275211 
L 260.996814 44.807191 
L 261.0515 44.731194 
L 261.106185 44.82999 
L 261.16087 44.753993 
L 261.270241 44.214413 
L 261.434297 44.5564 
L 261.653038 43.880026 
L 261.707724 44.062419 
L 261.817094 44.434805 
L 261.87178 44.047219 
L 261.926465 44.222013 
L 261.98115 44.450004 
L 262.199892 43.272049 
L 262.309262 42.778068 
L 262.582689 41.159329 
L 262.69206 41.9345 
L 262.746745 41.866102 
L 262.80143 41.721708 
L 262.856115 41.964898 
L 262.910801 41.866102 
L 262.965486 41.341722 
L 263.020171 41.40252 
L 263.074857 41.65331 
L 263.129542 41.40252 
L 263.184227 41.12133 
L 263.238913 41.189728 
L 263.293598 41.189728 
L 263.567025 40.467755 
L 263.731081 40.900939 
L 263.785766 41.744507 
L 263.840451 41.12893 
L 264.168563 41.812904 
L 264.223249 41.729307 
L 264.387305 41.341722 
L 264.606046 42.291686 
L 264.660731 42.375283 
L 264.824787 41.432919 
L 264.934158 41.440518 
L 265.152899 42.17769 
L 265.207584 41.767306 
L 265.26227 42.002897 
L 265.426326 42.390482 
L 265.535696 42.778068 
L 265.590382 42.998459 
L 265.645067 42.71727 
L 265.699752 42.816066 
L 265.754438 43.127654 
L 265.809123 43.006059 
L 265.863808 43.074456 
L 266.027864 42.610874 
L 266.137235 42.686871 
L 266.19192 42.960461 
L 266.246606 42.930062 
L 266.301291 42.732469 
L 266.355976 42.876864 
L 266.465347 43.135254 
L 266.629403 43.986422 
L 266.793459 43.355646 
L 266.848144 43.454442 
L 266.957515 43.013659 
L 267.0122 43.150453 
L 267.066885 43.097255 
L 267.285627 43.614036 
L 267.340312 44.03962 
L 267.394997 43.735631 
L 267.613739 43.842027 
L 267.887165 44.867988 
L 267.941851 44.776792 
L 268.051221 44.526001 
L 268.160592 44.951585 
L 268.269962 44.837589 
L 268.379333 44.267611 
L 268.76213 45.60516 
L 268.816816 45.36197 
L 268.926186 44.723594 
L 269.090242 45.293572 
L 269.144928 45.103579 
L 269.199613 45.164377 
L 269.418354 45.263173 
L 269.47304 45.893949 
L 269.527725 45.430367 
L 269.637096 45.278373 
L 269.801152 46.099142 
L 269.855837 46.099142 
L 269.965208 46.980708 
L 270.074578 46.775516 
L 270.129263 46.425929 
L 270.183949 46.760317 
L 270.238634 46.957909 
L 270.293319 46.843913 
L 270.348005 46.456328 
L 270.621431 48.287859 
L 270.676117 48.189062 
L 270.949543 47.056705 
L 282.050664 47.664682 
L 282.160035 47.99147 
L 282.324091 48.24986 
L 282.488147 47.98387 
L 282.597517 48.797039 
L 282.652203 48.607047 
L 282.706888 48.698243 
L 282.816259 48.173863 
L 282.870944 48.204262 
L 283.035 48.819838 
L 283.089685 48.873036 
L 283.14437 49.222623 
L 283.199056 49.101028 
L 283.308426 48.561448 
L 283.363112 48.698243 
L 283.472482 49.511412 
L 283.527168 49.222623 
L 283.636538 48.873036 
L 283.691224 48.690643 
L 283.745909 49.207424 
L 283.800594 49.070629 
L 283.85528 48.880636 
L 283.909965 49.412616 
L 283.96465 49.29862 
L 284.074021 49.161826 
L 284.183392 49.633008 
L 284.238077 49.534211 
L 284.347448 48.667844 
L 284.402133 48.971833 
L 284.456818 49.154226 
L 284.511504 48.964233 
L 284.620874 48.561448 
L 284.730245 49.017431 
L 284.78493 48.994632 
L 284.839615 49.139026 
L 284.894301 48.439853 
L 284.948986 48.622246 
L 285.058357 48.675444 
L 285.113042 48.51585 
L 285.331783 49.511412 
L 285.495839 47.98387 
L 285.550525 48.287859 
L 285.60521 48.713443 
L 285.659895 48.409454 
L 286.152063 49.549411 
L 286.261434 49.519012 
L 286.316119 49.397417 
L 286.370805 49.709005 
L 286.42549 49.420216 
L 286.480175 49.587409 
L 286.53486 49.450615 
L 286.644231 49.260622 
L 286.698916 49.29862 
L 286.808287 49.997794 
L 286.917658 49.473414 
L 287.027028 50.012993 
L 287.191084 49.04023 
L 287.24577 49.29862 
L 287.464511 48.690643 
L 287.519196 48.964233 
L 287.573882 48.865437 
L 287.628567 48.857837 
L 287.792623 49.906597 
L 287.847308 49.610209 
L 287.901994 49.785002 
L 287.956679 49.785002 
L 288.120735 49.275821 
L 288.339476 49.731804 
L 288.394161 49.275821 
L 288.448847 49.397417 
L 288.558217 49.777402 
L 288.612903 49.701405 
L 288.667588 49.420216 
L 288.722273 49.595009 
L 288.776959 49.883798 
L 288.9957 48.78944 
L 289.050385 49.04023 
L 289.159756 48.325857 
L 289.214441 48.455052 
L 289.269127 48.607047 
L 289.323812 48.439853 
L 289.706609 47.793877 
L 289.761295 47.672282 
L 289.81598 47.763479 
L 290.034721 49.465814 
L 290.198777 48.645045 
L 290.308148 48.379055 
L 290.362833 47.748279 
L 290.417518 48.272659 
L 290.472204 47.953471 
L 290.63626 48.546249 
L 290.690945 48.51585 
L 290.800316 48.029468 
L 290.909686 48.949034 
L 290.964372 48.766641 
L 291.019057 48.804639 
L 291.183113 49.427815 
L 291.292484 49.291021 
L 291.511225 50.491775 
L 291.56591 50.484175 
L 291.620596 50.742566 
L 291.675281 50.468976 
L 291.784652 49.944596 
L 291.948708 50.35498 
L 292.058078 50.294183 
L 292.276819 50.727366 
L 292.331505 50.126989 
L 292.38619 50.271383 
L 292.440875 50.62097 
L 292.495561 50.461376 
L 292.550246 50.423378 
L 292.768987 51.054154 
L 292.823673 51.099752 
L 292.878358 51.023755 
L 293.042414 50.248584 
L 293.097099 50.476576 
L 293.261155 49.511412 
L 293.315841 49.541811 
L 293.425211 49.8458 
L 293.479897 49.655807 
L 293.643953 49.002232 
L 293.808008 49.769802 
L 294.081435 47.573486 
L 294.13612 47.489889 
L 294.190806 47.041506 
L 294.245491 47.497489 
L 294.409547 46.631121 
L 294.464232 46.691919 
L 294.573603 47.474689 
L 294.628288 47.307496 
L 294.682974 46.66152 
L 294.737659 46.965509 
L 294.792344 47.299896 
L 294.9564 46.372731 
L 295.065771 46.691919 
L 295.229827 47.155502 
L 295.284512 47.1859 
L 295.503254 46.760317 
L 295.557939 47.261898 
L 295.612624 47.178301 
L 295.667309 47.2011 
L 295.831365 46.007945 
L 295.886051 46.175139 
L 295.940736 46.372731 
L 295.995421 46.289134 
L 296.323533 45.035182 
L 296.487589 46.106741 
L 296.706331 44.404406 
L 296.761016 44.351208 
L 296.925072 43.735631 
L 297.034443 43.925624 
L 297.143813 43.127654 
L 297.198499 43.49244 
L 297.253184 43.49244 
L 297.362555 42.671672 
L 297.41724 42.770468 
L 297.471925 42.96806 
L 297.52661 42.770468 
L 297.635981 42.70207 
L 297.690666 42.519677 
L 297.745352 42.588075 
L 297.800037 43.310047 
L 297.854722 43.097255 
L 297.964093 43.036458 
L 298.073464 43.477241 
L 298.128149 43.006059 
L 298.23752 44.070019 
L 298.292205 43.743231 
L 298.456261 44.252412 
L 298.510946 43.948423 
L 298.565632 44.077618 
L 298.620317 44.146016 
L 298.675002 44.419605 
L 298.729688 44.176415 
L 298.839058 43.393644 
L 298.948429 43.560838 
L 299.003114 43.49244 
L 299.112485 43.135254 
L 299.16717 43.203651 
L 299.221856 43.287248 
L 299.440597 42.534877 
L 299.495282 42.466479 
L 299.768709 43.76603 
L 299.932765 43.454442 
L 300.042135 42.230888 
L 300.096821 42.770468 
L 300.151506 42.337284 
L 300.206191 41.774906 
L 300.479618 44.123217 
L 300.643674 43.348046 
L 300.698359 43.659634 
L 300.753045 43.796429 
L 300.971786 42.489279 
L 301.026471 42.990859 
L 301.081156 42.610874 
L 301.299898 43.469641 
L 301.573324 42.618474 
L 301.62801 42.808466 
L 301.682695 42.588075 
L 301.73738 42.686871 
L 301.792066 41.65331 
L 301.846751 41.957299 
L 302.010807 41.744507 
L 302.065492 41.873702 
L 302.284234 41.288524 
L 302.338919 41.182128 
L 302.393604 41.40252 
L 302.44829 41.250525 
L 302.502975 41.258125 
L 302.55766 41.045333 
L 302.612346 41.204927 
L 302.667031 41.448118 
L 302.721716 41.356921 
L 302.940457 39.890177 
L 302.995143 40.026972 
L 303.37794 38.400634 
L 303.432625 38.788219 
L 303.487311 38.49183 
L 303.541996 38.537428 
L 303.760737 37.610263 
L 303.815423 37.526667 
L 303.924793 38.089045 
L 304.034164 37.944651 
L 304.088849 38.013048 
L 304.143535 38.020648 
L 304.307591 37.671061 
L 304.581017 38.49943 
L 304.635703 38.195441 
L 304.690388 38.210641 
L 304.745073 38.393034 
L 304.799758 39.077008 
L 304.854444 38.970612 
L 304.909129 38.917414 
L 304.963814 39.00861 
L 305.12787 39.510191 
L 305.182556 38.932613 
L 305.237241 38.955412 
L 305.291926 39.03141 
L 305.455982 38.545028 
L 305.674724 39.107407 
L 305.729409 39.206203 
L 305.83878 39.639387 
L 306.057521 38.355035 
L 306.221577 39.206203 
L 306.330948 39.456993 
L 306.440318 39.973774 
L 306.604374 39.084608 
L 306.76843 40.33096 
L 306.823115 40.125768 
L 306.877801 40.232164 
L 306.932486 40.201765 
L 306.987171 40.171366 
L 307.041857 39.973774 
L 307.096542 40.019372 
L 307.205913 40.34616 
L 307.260598 40.817342 
L 307.315283 40.764144 
L 307.369969 40.786943 
L 307.58871 41.691309 
L 308.080878 44.5564 
L 308.190249 44.336008 
L 308.244934 44.374007 
L 308.299619 44.5716 
L 308.40899 43.826828 
L 308.463675 43.895225 
L 308.682416 44.852789 
L 308.737102 44.632397 
L 308.791787 44.799591 
L 308.846472 44.883188 
L 308.955843 43.796429 
L 309.010528 44.062419 
L 309.065214 44.495602 
L 309.119899 44.282811 
L 309.22927 44.434805 
L 309.33864 44.997183 
L 309.393326 44.533601 
L 309.448011 44.5716 
L 309.557382 44.82239 
L 309.612067 44.206813 
L 309.666752 44.282811 
L 309.721438 45.042782 
L 309.776123 44.860389 
L 309.994864 44.009221 
L 310.04955 44.02442 
L 310.104235 44.267611 
L 310.268291 43.872426 
L 310.322976 43.895225 
L 310.541717 43.006059 
L 310.596403 42.686871 
L 310.651088 42.907263 
L 310.705773 43.044057 
L 310.760459 42.990859 
L 310.815144 42.952861 
L 311.143256 45.582361 
L 311.361997 44.214413 
L 311.471368 43.963623 
L 311.526053 44.115617 
L 311.580739 44.715994 
L 311.635424 44.5564 
L 311.744795 43.826828 
L 311.908851 44.905987 
L 311.963536 44.374007 
L 312.018221 43.948423 
L 312.072906 44.465204 
L 312.127592 44.358808 
L 312.291648 43.302448 
L 312.401018 44.054819 
L 312.455704 43.887625 
L 312.510389 43.925624 
L 312.565074 43.598836 
L 312.72913 44.928786 
L 312.838501 44.738793 
L 313.057242 45.263173 
L 313.166613 45.270773 
L 313.275984 45.901549 
L 313.385354 45.62796 
L 313.44004 45.673558 
L 313.494725 45.855951 
L 313.54941 45.574762 
L 313.604096 45.810353 
L 313.768152 46.859113 
L 313.822837 46.813515 
L 313.877522 47.079504 
L 313.986893 46.790715 
L 314.041578 46.836314 
L 314.36969 48.303058 
L 314.479061 48.698243 
L 314.533746 48.667844 
L 314.588431 48.272659 
L 314.643117 48.622246 
L 314.697802 48.493051 
L 314.752487 48.652645 
L 314.807173 48.493051 
L 314.971229 47.641883 
L 315.18997 47.877474 
L 315.354026 48.865437 
L 315.408711 49.116227 
L 315.463397 49.063029 
L 315.791508 47.292296 
L 316.174306 49.260622 
L 316.338362 48.675444 
L 316.393047 48.561448 
L 316.447732 48.622246 
L 316.502418 49.253022 
L 316.557103 49.237823 
L 316.721159 48.804639 
L 316.994586 50.833762 
L 317.103956 50.446177 
L 317.158642 50.712167 
L 317.322698 50.263784 
L 317.377383 50.286583 
L 317.432068 50.696967 
L 317.486753 50.666568 
L 317.650809 49.944596 
L 317.705495 50.066191 
L 317.869551 49.260622 
L 317.924236 49.412616 
L 317.978921 49.336619 
L 318.197663 50.484175 
L 318.252348 50.210586 
L 318.416404 50.742566 
L 318.525775 50.157388 
L 318.58046 50.400579 
L 318.635145 50.36258 
L 318.744516 49.693805 
L 318.799201 49.785002 
L 318.853887 49.944596 
L 318.963257 49.481013 
L 319.346054 51.274545 
L 319.455425 50.225785 
L 319.564796 50.256184 
L 319.619481 50.202986 
L 319.674166 50.438577 
L 319.838222 50.126989 
L 319.892908 50.415778 
L 320.056964 49.253022 
L 320.166334 49.815401 
L 320.385076 48.287859 
L 320.494446 47.839476 
L 320.549132 48.447453 
L 320.603817 47.968671 
L 320.658502 48.363856 
L 320.713188 48.24986 
L 320.822558 48.325857 
L 320.877244 48.645045 
L 320.931929 48.493051 
L 321.0413 48.113065 
L 321.314726 49.693805 
L 321.588153 50.491775 
L 321.697523 50.005394 
L 321.752209 50.423378 
L 321.806894 50.210586 
L 321.861579 50.324581 
L 321.916265 50.256184 
L 321.97095 50.187787 
L 322.135006 49.777402 
L 322.189691 49.724204 
L 322.244377 49.974995 
L 322.299062 49.876198 
L 322.572489 48.759041 
L 322.681859 49.534211 
L 322.736545 49.382217 
L 322.900601 48.667844 
L 322.955286 49.291021 
L 323.064656 48.333457 
L 323.174027 48.903435 
L 323.228712 48.660245 
L 323.338083 48.067467 
L 323.502139 49.625408 
L 323.994307 46.66912 
L 324.43179 45.33917 
L 324.486475 45.437967 
L 324.705216 44.655196 
L 324.759902 44.647597 
L 324.869272 45.042782 
L 324.978643 44.617198 
L 325.033328 45.133978 
L 325.088013 44.951585 
L 325.142699 44.860389 
L 325.197384 45.225175 
L 325.252069 44.966785 
L 325.306755 44.81479 
L 325.36144 44.959185 
L 325.470811 44.81479 
L 325.525496 45.460766 
L 325.580181 45.141578 
L 325.634867 45.415168 
L 325.634867 45.415168 
" clip-path="url(#p96fcd20974)" style="fill: none; stroke: #0000ff; stroke-width: 1.5; stroke-linecap: square"/>
   </g>
   <g id="patch_3">
    <path d="M 63.2 171.16 
L 63.2 10.8 
" style="fill: none; stroke: #000000; stroke-width: 0.8; stroke-linejoin: miter; stroke-linecap: square"/>
   </g>
   <g id="patch_4">
    <path d="M 338.75661 171.16 
L 338.75661 10.8 
" style="fill: none; stroke: #000000; stroke-width: 0.8; stroke-linejoin: miter; stroke-linecap: square"/>
   </g>
   <g id="patch_5">
    <path d="M 63.2 171.16 
L 338.75661 171.16 
" style="fill: none; stroke: #000000; stroke-width: 0.8; stroke-linejoin: miter; stroke-linecap: square"/>
   </g>
   <g id="patch_6">
    <path d="M 63.2 10.8 
L 338.75661 10.8 
" style="fill: none; stroke: #000000; stroke-width: 0.8; stroke-linejoin: miter; stroke-linecap: square"/>
   </g>
  </g>
 </g>
 <defs>
  <clipPath id="p96fcd20974">
   <rect x="63.2" y="10.8" width="275.55661" height="160.36"/>
  </clipPath>
 </defs>
</svg>
