<?xml version="1.0" encoding="utf-8" standalone="no"?>
<!DOCTYPE svg PUBLIC "-//W3C//DTD SVG 1.1//EN"
  "http://www.w3.org/Graphics/SVG/1.1/DTD/svg11.dtd">
<svg xmlns:xlink="http://www.w3.org/1999/xlink" width="360pt" height="216pt" viewBox="0 0 360 216" xmlns="http://www.w3.org/2000/svg" version="1.1">
 <metadata>
  <rdf:RDF xmlns:dc="http://purl.org/dc/elements/1.1/" xmlns:cc="http://creativecommons.org/ns#" xmlns:rdf="http://www.w3.org/1999/02/22-rdf-syntax-ns#">
   <cc:Work>
    <dc:type rdf:resource="http://purl.org/dc/dcmitype/StillImage"/>
    <dc:date>2024-01-07T08:22:53.586963</dc:date>
    <dc:format>image/svg+xml</dc:format>
    <dc:creator>
     <cc:Agent>
      <dc:title>Matplotlib v3.7.4, https://matplotlib.org/</dc:title>
     </cc:Agent>
    </dc:creator>
   </cc:Work>
  </rdf:RDF>
 </metadata>
 <defs>
  <style type="text/css">*{stroke-linejoin: round; stroke-linecap: butt}</style>
 </defs>
 <g id="figure_1">
  <g id="patch_1">
   <path d="M 0 216 
L 360 216 
L 360 0 
L 0 0 
z
" style="fill: #ffffff"/>
  </g>
  <g id="axes_1">
   <g id="patch_2">
    <path d="M 50.6 171.16 
L 338.75661 171.16 
L 338.75661 10.8 
L 50.6 10.8 
z
" style="fill: #ffffff"/>
   </g>
   <g id="matplotlib.axis_1">
    <g id="xtick_1">
     <g id="line2d_1">
      <defs>
       <path id="m5cc7dcef83" d="M 0 0 
L 0 3.5 
" style="stroke: #000000; stroke-width: 0.8"/>
      </defs>
      <g>
       <use xlink:href="#m5cc7dcef83" x="50.6" y="171.16" style="stroke: #000000; stroke-width: 0.8"/>
      </g>
     </g>
     <g id="text_1">
      <!-- 0 -->
      <g transform="translate(47.41875 185.758437) scale(0.1 -0.1)">
       <defs>
        <path id="DejaVuSans-30" d="M 2034 4250 
Q 1547 4250 1301 3770 
Q 1056 3291 1056 2328 
Q 1056 1369 1301 889 
Q 1547 409 2034 409 
Q 2525 409 2770 889 
Q 3016 1369 3016 2328 
Q 3016 3291 2770 3770 
Q 2525 4250 2034 4250 
z
M 2034 4750 
Q 2819 4750 3233 4129 
Q 3647 3509 3647 2328 
Q 3647 1150 3233 529 
Q 2819 -91 2034 -91 
Q 1250 -91 836 529 
Q 422 1150 422 2328 
Q 422 3509 836 4129 
Q 1250 4750 2034 4750 
z
" transform="scale(0.015625)"/>
       </defs>
       <use xlink:href="#DejaVuSans-30"/>
      </g>
     </g>
    </g>
    <g id="xtick_2">
     <g id="line2d_2">
      <g>
       <use xlink:href="#m5cc7dcef83" x="107.785844" y="171.16" style="stroke: #000000; stroke-width: 0.8"/>
      </g>
     </g>
     <g id="text_2">
      <!-- 1000 -->
      <g transform="translate(95.060844 185.758437) scale(0.1 -0.1)">
       <defs>
        <path id="DejaVuSans-31" d="M 794 531 
L 1825 531 
L 1825 4091 
L 703 3866 
L 703 4441 
L 1819 4666 
L 2450 4666 
L 2450 531 
L 3481 531 
L 3481 0 
L 794 0 
L 794 531 
z
" transform="scale(0.015625)"/>
       </defs>
       <use xlink:href="#DejaVuSans-31"/>
       <use xlink:href="#DejaVuSans-30" x="63.623047"/>
       <use xlink:href="#DejaVuSans-30" x="127.246094"/>
       <use xlink:href="#DejaVuSans-30" x="190.869141"/>
      </g>
     </g>
    </g>
    <g id="xtick_3">
     <g id="line2d_3">
      <g>
       <use xlink:href="#m5cc7dcef83" x="164.971689" y="171.16" style="stroke: #000000; stroke-width: 0.8"/>
      </g>
     </g>
     <g id="text_3">
      <!-- 2000 -->
      <g transform="translate(152.246689 185.758437) scale(0.1 -0.1)">
       <defs>
        <path id="DejaVuSans-32" d="M 1228 531 
L 3431 531 
L 3431 0 
L 469 0 
L 469 531 
Q 828 903 1448 1529 
Q 2069 2156 2228 2338 
Q 2531 2678 2651 2914 
Q 2772 3150 2772 3378 
Q 2772 3750 2511 3984 
Q 2250 4219 1831 4219 
Q 1534 4219 1204 4116 
Q 875 4013 500 3803 
L 500 4441 
Q 881 4594 1212 4672 
Q 1544 4750 1819 4750 
Q 2544 4750 2975 4387 
Q 3406 4025 3406 3419 
Q 3406 3131 3298 2873 
Q 3191 2616 2906 2266 
Q 2828 2175 2409 1742 
Q 1991 1309 1228 531 
z
" transform="scale(0.015625)"/>
       </defs>
       <use xlink:href="#DejaVuSans-32"/>
       <use xlink:href="#DejaVuSans-30" x="63.623047"/>
       <use xlink:href="#DejaVuSans-30" x="127.246094"/>
       <use xlink:href="#DejaVuSans-30" x="190.869141"/>
      </g>
     </g>
    </g>
    <g id="xtick_4">
     <g id="line2d_4">
      <g>
       <use xlink:href="#m5cc7dcef83" x="222.157533" y="171.16" style="stroke: #000000; stroke-width: 0.8"/>
      </g>
     </g>
     <g id="text_4">
      <!-- 3000 -->
      <g transform="translate(209.432533 185.758437) scale(0.1 -0.1)">
       <defs>
        <path id="DejaVuSans-33" d="M 2597 2516 
Q 3050 2419 3304 2112 
Q 3559 1806 3559 1356 
Q 3559 666 3084 287 
Q 2609 -91 1734 -91 
Q 1441 -91 1130 -33 
Q 819 25 488 141 
L 488 750 
Q 750 597 1062 519 
Q 1375 441 1716 441 
Q 2309 441 2620 675 
Q 2931 909 2931 1356 
Q 2931 1769 2642 2001 
Q 2353 2234 1838 2234 
L 1294 2234 
L 1294 2753 
L 1863 2753 
Q 2328 2753 2575 2939 
Q 2822 3125 2822 3475 
Q 2822 3834 2567 4026 
Q 2313 4219 1838 4219 
Q 1578 4219 1281 4162 
Q 984 4106 628 3988 
L 628 4550 
Q 988 4650 1302 4700 
Q 1616 4750 1894 4750 
Q 2613 4750 3031 4423 
Q 3450 4097 3450 3541 
Q 3450 3153 3228 2886 
Q 3006 2619 2597 2516 
z
" transform="scale(0.015625)"/>
       </defs>
       <use xlink:href="#DejaVuSans-33"/>
       <use xlink:href="#DejaVuSans-30" x="63.623047"/>
       <use xlink:href="#DejaVuSans-30" x="127.246094"/>
       <use xlink:href="#DejaVuSans-30" x="190.869141"/>
      </g>
     </g>
    </g>
    <g id="xtick_5">
     <g id="line2d_5">
      <g>
       <use xlink:href="#m5cc7dcef83" x="279.343377" y="171.16" style="stroke: #000000; stroke-width: 0.8"/>
      </g>
     </g>
     <g id="text_5">
      <!-- 4000 -->
      <g transform="translate(266.618377 185.758437) scale(0.1 -0.1)">
       <defs>
        <path id="DejaVuSans-34" d="M 2419 4116 
L 825 1625 
L 2419 1625 
L 2419 4116 
z
M 2253 4666 
L 3047 4666 
L 3047 1625 
L 3713 1625 
L 3713 1100 
L 3047 1100 
L 3047 0 
L 2419 0 
L 2419 1100 
L 313 1100 
L 313 1709 
L 2253 4666 
z
" transform="scale(0.015625)"/>
       </defs>
       <use xlink:href="#DejaVuSans-34"/>
       <use xlink:href="#DejaVuSans-30" x="63.623047"/>
       <use xlink:href="#DejaVuSans-30" x="127.246094"/>
       <use xlink:href="#DejaVuSans-30" x="190.869141"/>
      </g>
     </g>
    </g>
    <g id="xtick_6">
     <g id="line2d_6">
      <g>
       <use xlink:href="#m5cc7dcef83" x="336.529221" y="171.16" style="stroke: #000000; stroke-width: 0.8"/>
      </g>
     </g>
     <g id="text_6">
      <!-- 5000 -->
      <g transform="translate(323.804221 185.758437) scale(0.1 -0.1)">
       <defs>
        <path id="DejaVuSans-35" d="M 691 4666 
L 3169 4666 
L 3169 4134 
L 1269 4134 
L 1269 2991 
Q 1406 3038 1543 3061 
Q 1681 3084 1819 3084 
Q 2600 3084 3056 2656 
Q 3513 2228 3513 1497 
Q 3513 744 3044 326 
Q 2575 -91 1722 -91 
Q 1428 -91 1123 -41 
Q 819 9 494 109 
L 494 744 
Q 775 591 1075 516 
Q 1375 441 1709 441 
Q 2250 441 2565 725 
Q 2881 1009 2881 1497 
Q 2881 1984 2565 2268 
Q 2250 2553 1709 2553 
Q 1456 2553 1204 2497 
Q 953 2441 691 2322 
L 691 4666 
z
" transform="scale(0.015625)"/>
       </defs>
       <use xlink:href="#DejaVuSans-35"/>
       <use xlink:href="#DejaVuSans-30" x="63.623047"/>
       <use xlink:href="#DejaVuSans-30" x="127.246094"/>
       <use xlink:href="#DejaVuSans-30" x="190.869141"/>
      </g>
     </g>
    </g>
    <g id="text_7">
     <!-- Episode -->
     <g transform="translate(171.113305 200.95625) scale(0.12 -0.12)">
      <defs>
       <path id="DejaVuSans-45" d="M 628 4666 
L 3578 4666 
L 3578 4134 
L 1259 4134 
L 1259 2753 
L 3481 2753 
L 3481 2222 
L 1259 2222 
L 1259 531 
L 3634 531 
L 3634 0 
L 628 0 
L 628 4666 
z
" transform="scale(0.015625)"/>
       <path id="DejaVuSans-70" d="M 1159 525 
L 1159 -1331 
L 581 -1331 
L 581 3500 
L 1159 3500 
L 1159 2969 
Q 1341 3281 1617 3432 
Q 1894 3584 2278 3584 
Q 2916 3584 3314 3078 
Q 3713 2572 3713 1747 
Q 3713 922 3314 415 
Q 2916 -91 2278 -91 
Q 1894 -91 1617 61 
Q 1341 213 1159 525 
z
M 3116 1747 
Q 3116 2381 2855 2742 
Q 2594 3103 2138 3103 
Q 1681 3103 1420 2742 
Q 1159 2381 1159 1747 
Q 1159 1113 1420 752 
Q 1681 391 2138 391 
Q 2594 391 2855 752 
Q 3116 1113 3116 1747 
z
" transform="scale(0.015625)"/>
       <path id="DejaVuSans-69" d="M 603 3500 
L 1178 3500 
L 1178 0 
L 603 0 
L 603 3500 
z
M 603 4863 
L 1178 4863 
L 1178 4134 
L 603 4134 
L 603 4863 
z
" transform="scale(0.015625)"/>
       <path id="DejaVuSans-73" d="M 2834 3397 
L 2834 2853 
Q 2591 2978 2328 3040 
Q 2066 3103 1784 3103 
Q 1356 3103 1142 2972 
Q 928 2841 928 2578 
Q 928 2378 1081 2264 
Q 1234 2150 1697 2047 
L 1894 2003 
Q 2506 1872 2764 1633 
Q 3022 1394 3022 966 
Q 3022 478 2636 193 
Q 2250 -91 1575 -91 
Q 1294 -91 989 -36 
Q 684 19 347 128 
L 347 722 
Q 666 556 975 473 
Q 1284 391 1588 391 
Q 1994 391 2212 530 
Q 2431 669 2431 922 
Q 2431 1156 2273 1281 
Q 2116 1406 1581 1522 
L 1381 1569 
Q 847 1681 609 1914 
Q 372 2147 372 2553 
Q 372 3047 722 3315 
Q 1072 3584 1716 3584 
Q 2034 3584 2315 3537 
Q 2597 3491 2834 3397 
z
" transform="scale(0.015625)"/>
       <path id="DejaVuSans-6f" d="M 1959 3097 
Q 1497 3097 1228 2736 
Q 959 2375 959 1747 
Q 959 1119 1226 758 
Q 1494 397 1959 397 
Q 2419 397 2687 759 
Q 2956 1122 2956 1747 
Q 2956 2369 2687 2733 
Q 2419 3097 1959 3097 
z
M 1959 3584 
Q 2709 3584 3137 3096 
Q 3566 2609 3566 1747 
Q 3566 888 3137 398 
Q 2709 -91 1959 -91 
Q 1206 -91 779 398 
Q 353 888 353 1747 
Q 353 2609 779 3096 
Q 1206 3584 1959 3584 
z
" transform="scale(0.015625)"/>
       <path id="DejaVuSans-64" d="M 2906 2969 
L 2906 4863 
L 3481 4863 
L 3481 0 
L 2906 0 
L 2906 525 
Q 2725 213 2448 61 
Q 2172 -91 1784 -91 
Q 1150 -91 751 415 
Q 353 922 353 1747 
Q 353 2572 751 3078 
Q 1150 3584 1784 3584 
Q 2172 3584 2448 3432 
Q 2725 3281 2906 2969 
z
M 947 1747 
Q 947 1113 1208 752 
Q 1469 391 1925 391 
Q 2381 391 2643 752 
Q 2906 1113 2906 1747 
Q 2906 2381 2643 2742 
Q 2381 3103 1925 3103 
Q 1469 3103 1208 2742 
Q 947 2381 947 1747 
z
" transform="scale(0.015625)"/>
       <path id="DejaVuSans-65" d="M 3597 1894 
L 3597 1613 
L 953 1613 
Q 991 1019 1311 708 
Q 1631 397 2203 397 
Q 2534 397 2845 478 
Q 3156 559 3463 722 
L 3463 178 
Q 3153 47 2828 -22 
Q 2503 -91 2169 -91 
Q 1331 -91 842 396 
Q 353 884 353 1716 
Q 353 2575 817 3079 
Q 1281 3584 2069 3584 
Q 2775 3584 3186 3129 
Q 3597 2675 3597 1894 
z
M 3022 2063 
Q 3016 2534 2758 2815 
Q 2500 3097 2075 3097 
Q 1594 3097 1305 2825 
Q 1016 2553 972 2059 
L 3022 2063 
z
" transform="scale(0.015625)"/>
      </defs>
      <use xlink:href="#DejaVuSans-45"/>
      <use xlink:href="#DejaVuSans-70" x="63.183594"/>
      <use xlink:href="#DejaVuSans-69" x="126.660156"/>
      <use xlink:href="#DejaVuSans-73" x="154.443359"/>
      <use xlink:href="#DejaVuSans-6f" x="206.542969"/>
      <use xlink:href="#DejaVuSans-64" x="267.724609"/>
      <use xlink:href="#DejaVuSans-65" x="331.201172"/>
     </g>
    </g>
   </g>
   <g id="matplotlib.axis_2">
    <g id="ytick_1">
     <g id="line2d_7">
      <defs>
       <path id="m5cd6ab12d3" d="M 0 0 
L -3.5 0 
" style="stroke: #000000; stroke-width: 0.8"/>
      </defs>
      <g>
       <use xlink:href="#m5cd6ab12d3" x="50.6" y="171.16" style="stroke: #000000; stroke-width: 0.8"/>
      </g>
     </g>
     <g id="text_8">
      <!-- 0.0 -->
      <g transform="translate(27.696875 174.959219) scale(0.1 -0.1)">
       <defs>
        <path id="DejaVuSans-2e" d="M 684 794 
L 1344 794 
L 1344 0 
L 684 0 
L 684 794 
z
" transform="scale(0.015625)"/>
       </defs>
       <use xlink:href="#DejaVuSans-30"/>
       <use xlink:href="#DejaVuSans-2e" x="63.623047"/>
       <use xlink:href="#DejaVuSans-30" x="95.410156"/>
      </g>
     </g>
    </g>
    <g id="ytick_2">
     <g id="line2d_8">
      <g>
       <use xlink:href="#m5cd6ab12d3" x="50.6" y="149.985623" style="stroke: #000000; stroke-width: 0.8"/>
      </g>
     </g>
     <g id="text_9">
      <!-- 0.1 -->
      <g transform="translate(27.696875 153.784842) scale(0.1 -0.1)">
       <use xlink:href="#DejaVuSans-30"/>
       <use xlink:href="#DejaVuSans-2e" x="63.623047"/>
       <use xlink:href="#DejaVuSans-31" x="95.410156"/>
      </g>
     </g>
    </g>
    <g id="ytick_3">
     <g id="line2d_9">
      <g>
       <use xlink:href="#m5cd6ab12d3" x="50.6" y="128.811247" style="stroke: #000000; stroke-width: 0.8"/>
      </g>
     </g>
     <g id="text_10">
      <!-- 0.2 -->
      <g transform="translate(27.696875 132.610465) scale(0.1 -0.1)">
       <use xlink:href="#DejaVuSans-30"/>
       <use xlink:href="#DejaVuSans-2e" x="63.623047"/>
       <use xlink:href="#DejaVuSans-32" x="95.410156"/>
      </g>
     </g>
    </g>
    <g id="ytick_4">
     <g id="line2d_10">
      <g>
       <use xlink:href="#m5cd6ab12d3" x="50.6" y="107.63687" style="stroke: #000000; stroke-width: 0.8"/>
      </g>
     </g>
     <g id="text_11">
      <!-- 0.3 -->
      <g transform="translate(27.696875 111.436089) scale(0.1 -0.1)">
       <use xlink:href="#DejaVuSans-30"/>
       <use xlink:href="#DejaVuSans-2e" x="63.623047"/>
       <use xlink:href="#DejaVuSans-33" x="95.410156"/>
      </g>
     </g>
    </g>
    <g id="ytick_5">
     <g id="line2d_11">
      <g>
       <use xlink:href="#m5cd6ab12d3" x="50.6" y="86.462493" style="stroke: #000000; stroke-width: 0.8"/>
      </g>
     </g>
     <g id="text_12">
      <!-- 0.4 -->
      <g transform="translate(27.696875 90.261712) scale(0.1 -0.1)">
       <use xlink:href="#DejaVuSans-30"/>
       <use xlink:href="#DejaVuSans-2e" x="63.623047"/>
       <use xlink:href="#DejaVuSans-34" x="95.410156"/>
      </g>
     </g>
    </g>
    <g id="ytick_6">
     <g id="line2d_12">
      <g>
       <use xlink:href="#m5cd6ab12d3" x="50.6" y="65.288117" style="stroke: #000000; stroke-width: 0.8"/>
      </g>
     </g>
     <g id="text_13">
      <!-- 0.5 -->
      <g transform="translate(27.696875 69.087335) scale(0.1 -0.1)">
       <use xlink:href="#DejaVuSans-30"/>
       <use xlink:href="#DejaVuSans-2e" x="63.623047"/>
       <use xlink:href="#DejaVuSans-35" x="95.410156"/>
      </g>
     </g>
    </g>
    <g id="ytick_7">
     <g id="line2d_13">
      <g>
       <use xlink:href="#m5cd6ab12d3" x="50.6" y="44.11374" style="stroke: #000000; stroke-width: 0.8"/>
      </g>
     </g>
     <g id="text_14">
      <!-- 0.6 -->
      <g transform="translate(27.696875 47.912959) scale(0.1 -0.1)">
       <defs>
        <path id="DejaVuSans-36" d="M 2113 2584 
Q 1688 2584 1439 2293 
Q 1191 2003 1191 1497 
Q 1191 994 1439 701 
Q 1688 409 2113 409 
Q 2538 409 2786 701 
Q 3034 994 3034 1497 
Q 3034 2003 2786 2293 
Q 2538 2584 2113 2584 
z
M 3366 4563 
L 3366 3988 
Q 3128 4100 2886 4159 
Q 2644 4219 2406 4219 
Q 1781 4219 1451 3797 
Q 1122 3375 1075 2522 
Q 1259 2794 1537 2939 
Q 1816 3084 2150 3084 
Q 2853 3084 3261 2657 
Q 3669 2231 3669 1497 
Q 3669 778 3244 343 
Q 2819 -91 2113 -91 
Q 1303 -91 875 529 
Q 447 1150 447 2328 
Q 447 3434 972 4092 
Q 1497 4750 2381 4750 
Q 2619 4750 2861 4703 
Q 3103 4656 3366 4563 
z
" transform="scale(0.015625)"/>
       </defs>
       <use xlink:href="#DejaVuSans-30"/>
       <use xlink:href="#DejaVuSans-2e" x="63.623047"/>
       <use xlink:href="#DejaVuSans-36" x="95.410156"/>
      </g>
     </g>
    </g>
    <g id="ytick_8">
     <g id="line2d_14">
      <g>
       <use xlink:href="#m5cd6ab12d3" x="50.6" y="22.939363" style="stroke: #000000; stroke-width: 0.8"/>
      </g>
     </g>
     <g id="text_15">
      <!-- 0.7 -->
      <g transform="translate(27.696875 26.738582) scale(0.1 -0.1)">
       <defs>
        <path id="DejaVuSans-37" d="M 525 4666 
L 3525 4666 
L 3525 4397 
L 1831 0 
L 1172 0 
L 2766 4134 
L 525 4134 
L 525 4666 
z
" transform="scale(0.015625)"/>
       </defs>
       <use xlink:href="#DejaVuSans-30"/>
       <use xlink:href="#DejaVuSans-2e" x="63.623047"/>
       <use xlink:href="#DejaVuSans-37" x="95.410156"/>
      </g>
     </g>
    </g>
    <g id="text_16">
     <!-- Equality (E) -->
     <g transform="translate(21.20125 125.676875) rotate(-90) scale(0.12 -0.12)">
      <defs>
       <path id="DejaVuSans-71" d="M 947 1747 
Q 947 1113 1208 752 
Q 1469 391 1925 391 
Q 2381 391 2643 752 
Q 2906 1113 2906 1747 
Q 2906 2381 2643 2742 
Q 2381 3103 1925 3103 
Q 1469 3103 1208 2742 
Q 947 2381 947 1747 
z
M 2906 525 
Q 2725 213 2448 61 
Q 2172 -91 1784 -91 
Q 1150 -91 751 415 
Q 353 922 353 1747 
Q 353 2572 751 3078 
Q 1150 3584 1784 3584 
Q 2172 3584 2448 3432 
Q 2725 3281 2906 2969 
L 2906 3500 
L 3481 3500 
L 3481 -1331 
L 2906 -1331 
L 2906 525 
z
" transform="scale(0.015625)"/>
       <path id="DejaVuSans-75" d="M 544 1381 
L 544 3500 
L 1119 3500 
L 1119 1403 
Q 1119 906 1312 657 
Q 1506 409 1894 409 
Q 2359 409 2629 706 
Q 2900 1003 2900 1516 
L 2900 3500 
L 3475 3500 
L 3475 0 
L 2900 0 
L 2900 538 
Q 2691 219 2414 64 
Q 2138 -91 1772 -91 
Q 1169 -91 856 284 
Q 544 659 544 1381 
z
M 1991 3584 
L 1991 3584 
z
" transform="scale(0.015625)"/>
       <path id="DejaVuSans-61" d="M 2194 1759 
Q 1497 1759 1228 1600 
Q 959 1441 959 1056 
Q 959 750 1161 570 
Q 1363 391 1709 391 
Q 2188 391 2477 730 
Q 2766 1069 2766 1631 
L 2766 1759 
L 2194 1759 
z
M 3341 1997 
L 3341 0 
L 2766 0 
L 2766 531 
Q 2569 213 2275 61 
Q 1981 -91 1556 -91 
Q 1019 -91 701 211 
Q 384 513 384 1019 
Q 384 1609 779 1909 
Q 1175 2209 1959 2209 
L 2766 2209 
L 2766 2266 
Q 2766 2663 2505 2880 
Q 2244 3097 1772 3097 
Q 1472 3097 1187 3025 
Q 903 2953 641 2809 
L 641 3341 
Q 956 3463 1253 3523 
Q 1550 3584 1831 3584 
Q 2591 3584 2966 3190 
Q 3341 2797 3341 1997 
z
" transform="scale(0.015625)"/>
       <path id="DejaVuSans-6c" d="M 603 4863 
L 1178 4863 
L 1178 0 
L 603 0 
L 603 4863 
z
" transform="scale(0.015625)"/>
       <path id="DejaVuSans-74" d="M 1172 4494 
L 1172 3500 
L 2356 3500 
L 2356 3053 
L 1172 3053 
L 1172 1153 
Q 1172 725 1289 603 
Q 1406 481 1766 481 
L 2356 481 
L 2356 0 
L 1766 0 
Q 1100 0 847 248 
Q 594 497 594 1153 
L 594 3053 
L 172 3053 
L 172 3500 
L 594 3500 
L 594 4494 
L 1172 4494 
z
" transform="scale(0.015625)"/>
       <path id="DejaVuSans-79" d="M 2059 -325 
Q 1816 -950 1584 -1140 
Q 1353 -1331 966 -1331 
L 506 -1331 
L 506 -850 
L 844 -850 
Q 1081 -850 1212 -737 
Q 1344 -625 1503 -206 
L 1606 56 
L 191 3500 
L 800 3500 
L 1894 763 
L 2988 3500 
L 3597 3500 
L 2059 -325 
z
" transform="scale(0.015625)"/>
       <path id="DejaVuSans-20" transform="scale(0.015625)"/>
       <path id="DejaVuSans-28" d="M 1984 4856 
Q 1566 4138 1362 3434 
Q 1159 2731 1159 2009 
Q 1159 1288 1364 580 
Q 1569 -128 1984 -844 
L 1484 -844 
Q 1016 -109 783 600 
Q 550 1309 550 2009 
Q 550 2706 781 3412 
Q 1013 4119 1484 4856 
L 1984 4856 
z
" transform="scale(0.015625)"/>
       <path id="DejaVuSans-29" d="M 513 4856 
L 1013 4856 
Q 1481 4119 1714 3412 
Q 1947 2706 1947 2009 
Q 1947 1309 1714 600 
Q 1481 -109 1013 -844 
L 513 -844 
Q 928 -128 1133 580 
Q 1338 1288 1338 2009 
Q 1338 2731 1133 3434 
Q 928 4138 513 4856 
z
" transform="scale(0.015625)"/>
      </defs>
      <use xlink:href="#DejaVuSans-45"/>
      <use xlink:href="#DejaVuSans-71" x="63.183594"/>
      <use xlink:href="#DejaVuSans-75" x="126.660156"/>
      <use xlink:href="#DejaVuSans-61" x="190.039062"/>
      <use xlink:href="#DejaVuSans-6c" x="251.318359"/>
      <use xlink:href="#DejaVuSans-69" x="279.101562"/>
      <use xlink:href="#DejaVuSans-74" x="306.884766"/>
      <use xlink:href="#DejaVuSans-79" x="346.09375"/>
      <use xlink:href="#DejaVuSans-20" x="405.273438"/>
      <use xlink:href="#DejaVuSans-28" x="437.060547"/>
      <use xlink:href="#DejaVuSans-45" x="476.074219"/>
      <use xlink:href="#DejaVuSans-29" x="539.257812"/>
     </g>
    </g>
   </g>
   <g id="line2d_15">
    <path d="M 50.6 41.738659 
L 50.714372 41.591318 
L 50.828743 41.863021 
L 50.943115 41.696021 
L 51.000301 41.885992 
L 51.057487 41.820578 
L 51.514974 40.742532 
L 51.572159 40.983359 
L 51.800903 40.282267 
L 51.915274 40.431699 
L 52.144018 40.263486 
L 52.315575 39.78958 
L 52.429947 39.890699 
L 52.487133 39.79838 
L 52.601505 39.794251 
L 52.715876 40.355158 
L 52.773062 40.168696 
L 53.116177 39.042143 
L 53.173363 39.070408 
L 53.230549 39.466804 
L 53.287735 39.384625 
L 53.402106 39.429885 
L 53.459292 39.309093 
L 53.516478 39.593025 
L 53.573664 39.330922 
L 53.63085 39.510751 
L 53.688036 39.438212 
L 53.802407 39.407151 
L 54.031151 39.987087 
L 54.145522 39.601404 
L 54.202708 39.745455 
L 54.259894 39.567564 
L 54.31708 39.784509 
L 54.374266 39.583283 
L 54.603009 39.026163 
L 54.717381 39.231678 
L 54.888938 39.200018 
L 54.946124 38.899119 
L 55.00331 38.968686 
L 55.232053 39.249413 
L 55.346425 39.048477 
L 55.403611 39.129365 
L 55.460797 39.154779 
L 55.68954 38.810453 
L 55.746726 38.809614 
L 55.918284 39.081635 
L 56.147027 38.934037 
L 56.204213 39.11707 
L 56.318584 38.776756 
L 56.37577 38.836684 
L 56.604514 38.296681 
L 56.661699 38.5242 
L 56.718885 38.593355 
L 56.776071 38.94953 
L 56.833257 38.9328 
L 57.004815 38.862638 
L 57.062 38.638994 
L 57.119186 38.764883 
L 57.176372 38.966937 
L 57.233558 38.749141 
L 57.576673 40.161763 
L 57.633859 40.086237 
L 57.748231 40.282449 
L 57.805416 40.158205 
L 57.862602 40.264077 
L 58.03416 40.590485 
L 58.148531 40.603014 
L 58.205717 40.374869 
L 58.262903 40.504611 
L 58.320089 40.444938 
L 58.548832 40.842876 
L 58.606018 40.789941 
L 58.72039 41.227928 
L 58.777576 41.212251 
L 58.834762 41.43628 
L 58.891947 41.323208 
L 59.006319 41.396213 
L 59.063505 41.360224 
L 59.292248 40.937893 
L 59.463806 41.34099 
L 59.806921 40.759012 
L 60.035664 41.56109 
L 60.321594 41.002836 
L 60.378779 41.318951 
L 60.435965 41.124146 
L 60.664709 40.922165 
L 60.77908 41.300874 
L 60.836266 41.114689 
L 60.893452 41.178701 
L 61.122195 41.207686 
L 61.179381 41.069463 
L 61.236567 41.148882 
L 61.293753 41.302195 
L 61.350939 41.036085 
L 61.408125 41.071401 
L 61.579682 41.26658 
L 61.636868 41.094811 
L 61.694054 41.204292 
L 61.75124 41.269317 
L 61.922797 40.943845 
L 62.094355 41.346285 
L 62.323098 41.91696 
L 62.43747 41.087634 
L 62.494656 41.096545 
L 62.837771 41.637742 
L 63.009328 41.645883 
L 63.238072 42.522918 
L 63.295257 42.523673 
L 63.466815 42.306963 
L 63.638372 42.67649 
L 63.695558 42.554043 
L 63.867116 43.164891 
L 63.981488 43.104905 
L 64.095859 42.955929 
L 64.153045 42.799747 
L 64.210231 42.907897 
L 64.381788 43.255904 
L 64.610532 43.330226 
L 64.667718 43.099233 
L 64.724904 43.142229 
L 64.896461 43.345176 
L 65.010833 43.229193 
L 65.068019 43.404563 
L 65.125204 43.332335 
L 65.18239 43.385431 
L 65.296762 43.103978 
L 65.353948 43.148511 
L 65.411134 42.984662 
L 65.582691 43.252763 
L 65.639877 43.227913 
L 65.697063 43.331414 
L 65.86862 42.840351 
L 65.925806 43.084859 
L 66.040178 43.206812 
L 66.15455 42.868477 
L 66.383293 43.525398 
L 66.497665 43.446795 
L 66.669222 43.403044 
L 67.069523 44.335008 
L 67.126709 44.297024 
L 67.241081 44.348121 
L 67.584196 44.782352 
L 67.641382 44.52621 
L 67.927311 45.394168 
L 68.156054 45.555299 
L 68.270426 45.208876 
L 68.327612 45.307654 
L 68.384798 45.225583 
L 68.441983 45.21429 
L 68.499169 45.507829 
L 68.556355 45.460016 
L 68.613541 45.246473 
L 68.670727 45.397958 
L 69.013842 44.5491 
L 69.071028 44.74613 
L 69.299771 45.153913 
L 69.356957 45.05256 
L 69.471329 45.018832 
L 69.87163 45.76348 
L 69.986001 45.622173 
L 70.043187 45.761731 
L 70.157559 45.219952 
L 70.329116 45.303269 
L 70.55786 44.746449 
L 70.615045 44.861753 
L 70.786603 44.495702 
L 70.900975 44.246822 
L 70.958161 44.325413 
L 71.072532 43.994589 
L 71.24409 44.336706 
L 71.415647 43.961071 
L 71.472833 43.988412 
L 71.644391 44.333555 
L 71.701577 44.319023 
L 72.044692 45.189462 
L 72.101877 45.11762 
L 72.159063 44.833297 
L 72.216249 44.908331 
L 72.273435 44.932676 
L 72.330621 45.151608 
L 72.387807 44.97554 
L 72.845293 45.450154 
L 72.959665 44.975761 
L 73.016851 45.101907 
L 73.188408 44.64752 
L 73.30278 44.785496 
L 73.417152 44.766868 
L 73.474338 44.846559 
L 73.531524 44.800798 
L 73.760267 43.975245 
L 73.874639 44.347373 
L 73.931824 44.657096 
L 73.98901 44.529351 
L 74.046196 44.36849 
L 74.103382 44.634841 
L 74.160568 44.539556 
L 74.27494 44.367604 
L 74.389311 44.716576 
L 74.560869 44.423614 
L 74.618055 44.33928 
L 74.67524 44.461764 
L 74.846798 43.896636 
L 74.903984 43.987646 
L 75.075541 43.698814 
L 75.189913 43.554844 
L 75.418656 43.072353 
L 75.475842 43.310141 
L 75.533028 43.276032 
L 75.6474 43.392486 
L 75.876143 42.864036 
L 76.047701 43.228594 
L 76.505187 42.873238 
L 76.791117 42.845038 
L 77.01986 42.617998 
L 77.191418 42.69221 
L 77.305789 43.514286 
L 77.362975 43.349319 
L 77.477347 43.283443 
L 77.591718 43.614708 
L 77.648904 43.562124 
L 77.820462 43.166336 
L 77.992019 43.240399 
L 78.049205 42.979406 
L 78.106391 43.113056 
L 78.220763 43.270385 
L 78.506692 42.647912 
L 78.621064 42.764178 
L 78.792621 42.438868 
L 78.849807 42.230686 
L 78.906993 42.356329 
L 78.964179 42.607083 
L 79.021365 42.34326 
L 79.07855 42.377071 
L 79.135736 42.466658 
L 79.192922 42.383473 
L 79.307294 41.973773 
L 79.36448 42.070521 
L 79.421666 42.013446 
L 79.593223 41.6375 
L 79.650409 41.57133 
L 79.707595 41.636504 
L 79.879152 41.809754 
L 80.107896 41.217185 
L 80.165081 41.260023 
L 80.336639 41.618082 
L 80.565382 41.443857 
L 80.679754 41.710091 
L 80.908497 41.259107 
L 80.965683 41.253746 
L 81.251613 40.775158 
L 81.308798 40.821731 
L 81.537542 41.497562 
L 81.880657 42.1296 
L 81.995029 42.528413 
L 82.166586 42.417975 
L 82.338144 42.809608 
L 82.395329 42.670879 
L 82.452515 42.698668 
L 82.509701 42.827715 
L 82.566887 42.755322 
L 82.681259 42.787867 
L 83.08156 43.3391 
L 83.253117 43.188484 
L 83.367489 43.309357 
L 83.424675 42.812193 
L 83.48186 42.910412 
L 83.596232 42.896417 
L 83.76779 42.384157 
L 83.996533 42.617738 
L 84.282462 42.097391 
L 84.339648 42.30041 
L 84.396834 42.246394 
L 84.45402 42.208475 
L 84.625577 42.812707 
L 84.797135 42.364328 
L 84.854321 42.377666 
L 84.968692 42.163121 
L 85.025878 42.292931 
L 85.083064 42.14954 
L 85.254622 42.23636 
L 85.426179 41.969469 
L 85.540551 42.004998 
L 85.597737 41.963532 
L 85.654923 42.095936 
L 85.769294 41.901325 
L 85.998038 42.145813 
L 86.055223 42.346339 
L 86.112409 42.263501 
L 86.398339 42.557463 
L 86.455524 42.356444 
L 86.627082 42.703688 
L 86.684268 42.7103 
L 86.855825 42.868855 
L 86.970197 42.410543 
L 87.027383 42.436391 
L 87.084569 42.281468 
L 87.19894 42.45288 
L 87.370498 42.173547 
L 87.48487 42.463187 
L 87.542055 42.27659 
L 87.599241 42.535753 
L 87.656427 42.256485 
L 87.713613 42.329475 
L 87.942356 42.002554 
L 87.999542 42.091751 
L 88.056728 41.661708 
L 88.113914 41.956032 
L 88.1711 41.973488 
L 88.228286 42.140316 
L 88.285471 41.983606 
L 88.742958 40.635312 
L 88.800144 40.493278 
L 88.85733 40.53653 
L 88.971702 40.864684 
L 89.086073 40.620661 
L 89.143259 40.781512 
L 89.200445 40.742223 
L 89.257631 40.654882 
L 89.314817 40.770531 
L 89.372002 40.566627 
L 89.429188 40.677793 
L 89.486374 41.037673 
L 89.54356 40.923221 
L 89.772303 40.820438 
L 89.943861 41.325394 
L 90.172604 41.069672 
L 90.344162 41.498031 
L 90.401348 41.374084 
L 90.515719 41.594986 
L 90.630091 41.117697 
L 91.144764 42.489705 
L 91.316321 42.104119 
L 91.659436 42.669588 
L 91.773808 42.602923 
L 92.002551 42.121557 
L 92.116923 41.267211 
L 92.231295 41.341369 
L 92.28848 41.321608 
L 92.345666 41.481541 
L 92.517224 41.14144 
L 92.688781 40.960274 
L 92.745967 41.029636 
L 92.803153 40.950568 
L 92.860339 40.847966 
L 92.917525 40.907737 
L 92.974711 41.173877 
L 93.031896 41.094371 
L 93.146268 40.859163 
L 93.203454 40.895527 
L 93.26064 40.940763 
L 93.317826 40.868161 
L 93.375012 40.757215 
L 93.432197 40.851405 
L 93.603755 41.144111 
L 93.832498 40.391425 
L 94.004056 40.781359 
L 94.461543 40.210406 
L 94.575914 40.466036 
L 94.804658 39.965958 
L 94.861843 40.123085 
L 94.976215 39.65937 
L 95.090587 40.073749 
L 95.147773 39.894581 
L 95.376516 39.842068 
L 95.548074 39.706288 
L 95.834003 39.544754 
L 95.948375 39.962827 
L 96.00556 39.876395 
L 96.062746 39.764057 
L 96.29149 40.283182 
L 107.900216 44.547879 
L 108.071773 44.220709 
L 108.128959 44.329998 
L 108.357703 43.829958 
L 108.414889 43.940277 
L 108.472074 43.700153 
L 108.52926 43.804586 
L 108.586446 43.827095 
L 108.758004 44.418478 
L 108.872375 44.317964 
L 109.043933 44.170538 
L 109.101119 44.332711 
L 109.158305 43.962467 
L 109.21549 44.038838 
L 109.50142 44.120075 
L 109.672977 43.340235 
L 109.787349 43.380485 
L 110.130464 42.58414 
L 110.244836 42.796834 
L 110.416393 42.570394 
L 110.530765 42.502205 
L 110.587951 42.633398 
L 110.645136 42.582746 
L 110.702322 42.506073 
L 110.816694 42.709423 
L 110.87388 42.547843 
L 110.931066 42.674209 
L 111.102623 42.983058 
L 111.331367 43.695464 
L 111.445738 43.409672 
L 111.502924 43.510594 
L 111.56011 43.453416 
L 111.617296 43.450562 
L 111.674482 43.63739 
L 111.731668 43.51287 
L 111.903225 43.741732 
L 112.131968 44.252954 
L 112.360712 43.384594 
L 112.417898 43.538897 
L 112.475084 43.422577 
L 112.532269 43.450086 
L 112.646641 43.157165 
L 112.703827 43.219281 
L 113.104128 42.315983 
L 113.161314 42.381051 
L 113.218499 42.654745 
L 113.275685 42.574778 
L 113.447243 42.703481 
L 113.790358 41.805609 
L 113.961915 42.043953 
L 114.019101 41.800731 
L 114.076287 41.938832 
L 114.133473 41.857163 
L 114.362216 42.358643 
L 114.476588 42.779046 
L 114.59096 42.592196 
L 114.762517 42.481497 
L 114.819703 42.488518 
L 114.876889 42.369317 
L 114.934075 42.486088 
L 114.991261 42.681733 
L 115.048446 42.562317 
L 115.162818 42.614387 
L 115.220004 42.816047 
L 115.27719 42.584322 
L 115.448747 43.366568 
L 115.563119 43.512638 
L 115.734677 43.137668 
L 115.849048 43.269886 
L 116.020606 42.924849 
L 116.134978 43.230626 
L 116.249349 42.711943 
L 116.363721 42.943517 
L 116.420907 42.857531 
L 116.478093 42.928112 
L 116.592464 42.998643 
L 116.64965 42.704238 
L 116.706836 42.859154 
L 116.764022 42.876879 
L 116.821208 43.0495 
L 116.878394 42.940071 
L 116.935579 42.86761 
L 117.107137 43.09134 
L 117.278694 43.010599 
L 117.33588 43.100456 
L 117.450252 42.839958 
L 117.678995 43.240346 
L 117.736181 42.950124 
L 117.850553 43.351039 
L 118.250854 42.561248 
L 118.479597 43.154704 
L 118.536783 43.046215 
L 118.708341 42.949153 
L 118.99427 43.664929 
L 119.280199 42.805346 
L 119.394571 42.602004 
L 119.451757 42.666284 
L 119.508942 42.553205 
L 119.566128 42.640383 
L 119.6805 42.883142 
L 119.737686 43.263035 
L 119.794872 43.153047 
L 119.852057 43.089333 
L 119.909243 43.245888 
L 119.966429 43.196209 
L 120.080801 43.049343 
L 120.137987 43.117526 
L 120.195172 42.954562 
L 120.252358 43.036931 
L 120.481102 43.893029 
L 120.595473 43.895314 
L 120.881403 43.192603 
L 120.938588 43.26069 
L 121.110146 43.583909 
L 121.224518 43.679073 
L 121.338889 43.964004 
L 121.682004 43.562462 
L 121.796376 43.676848 
L 121.910748 43.492037 
L 122.025119 43.695059 
L 122.082305 43.626761 
L 122.196677 43.100076 
L 122.253863 43.205948 
L 122.42542 43.502697 
L 122.482606 43.383679 
L 122.539792 43.445023 
L 122.596978 43.403274 
L 122.654164 43.20511 
L 122.71135 43.35759 
L 122.825721 43.331589 
L 123.226022 42.512153 
L 123.340394 42.578037 
L 123.39758 42.438435 
L 123.454766 42.585582 
L 123.569137 42.56845 
L 123.797881 42.983773 
L 123.855067 42.873221 
L 124.08381 43.409757 
L 124.140996 43.230079 
L 124.198182 43.361506 
L 124.255367 43.640663 
L 124.312553 43.525251 
L 124.598482 43.110268 
L 124.712854 42.749706 
L 124.77004 42.769992 
L 124.827226 42.555221 
L 124.884412 42.574489 
L 125.055969 42.652093 
L 125.113155 42.608077 
L 125.227527 42.832186 
L 125.284713 42.525867 
L 125.341898 42.605602 
L 125.399084 42.555652 
L 125.45627 42.867268 
L 125.513456 42.637398 
L 125.685014 42.85655 
L 126.028129 42.389833 
L 126.085314 42.399514 
L 126.314058 42.912471 
L 126.485615 42.454452 
L 126.599987 42.669628 
L 127.000288 41.777371 
L 127.057474 41.782379 
L 127.229031 41.556809 
L 127.572146 41.739145 
L 127.629332 41.544122 
L 127.686518 41.865355 
L 127.743704 41.72003 
L 127.915261 41.92593 
L 128.029633 41.546079 
L 128.086819 41.842004 
L 128.144005 41.782253 
L 128.201191 41.677805 
L 128.258377 41.735949 
L 128.315562 41.810414 
L 128.372748 41.719699 
L 128.48712 41.613255 
L 128.544306 41.759 
L 128.715863 41.733249 
L 128.773049 41.497646 
L 128.830235 41.625173 
L 128.887421 41.833595 
L 128.944607 41.648911 
L 129.17335 41.840856 
L 129.230536 41.694926 
L 129.287722 41.809725 
L 129.344908 41.798596 
L 129.459279 42.071317 
L 129.630837 41.794309 
L 129.688023 41.929589 
L 129.745208 41.897466 
L 129.916766 41.701042 
L 129.973952 41.990809 
L 130.031138 41.949891 
L 130.317067 41.408059 
L 130.431439 41.481822 
L 130.54581 41.496222 
L 130.602996 41.612566 
L 130.660182 41.419305 
L 130.717368 41.596561 
L 130.946111 41.877722 
L 131.060483 41.7336 
L 131.174855 41.5281 
L 131.346412 41.874165 
L 131.460784 41.804266 
L 131.689527 41.137161 
L 131.746713 40.98052 
L 131.803899 41.095929 
L 131.975456 41.165765 
L 132.032642 41.153805 
L 132.147014 41.445982 
L 132.2042 41.409351 
L 132.547315 41.96797 
L 132.604501 41.925582 
L 132.776058 41.104055 
L 132.89043 41.24185 
L 132.947616 41.840714 
L 133.004802 41.724255 
L 133.233545 41.60356 
L 133.290731 41.964533 
L 133.347917 41.826806 
L 133.405103 41.708742 
L 133.462288 41.745431 
L 133.633846 42.132502 
L 133.748218 41.649235 
L 133.805403 41.896472 
L 133.862589 41.889015 
L 133.919775 42.003525 
L 134.205704 41.083444 
L 134.320076 41.255599 
L 134.491634 41.47866 
L 134.548819 41.411472 
L 134.663191 41.654076 
L 134.777563 41.48922 
L 134.834749 41.646873 
L 134.891934 41.412493 
L 134.94912 41.514203 
L 135.120678 41.664076 
L 135.23505 41.94887 
L 135.292235 41.891003 
L 135.463793 41.266656 
L 135.692536 41.888742 
L 135.92128 41.889822 
L 136.150023 42.06016 
L 136.207209 41.985363 
L 136.264395 42.113789 
L 136.321581 41.816201 
L 136.378766 41.957031 
L 136.60751 42.626986 
L 136.664696 42.480706 
L 136.836253 42.927154 
L 136.950625 43.154554 
L 137.179368 42.410813 
L 137.408112 43.276257 
L 137.465297 43.101402 
L 137.522483 43.285622 
L 137.579669 43.138377 
L 137.694041 42.921014 
L 137.751227 43.029827 
L 137.865598 43.359883 
L 138.037156 43.065626 
L 138.094342 43.103454 
L 138.265899 43.572566 
L 138.323085 43.528836 
L 138.380271 43.498587 
L 138.609014 44.069914 
L 138.6662 43.997833 
L 138.894944 43.55034 
L 139.066501 43.739317 
L 139.123687 43.644072 
L 139.180873 43.946995 
L 139.238059 43.766492 
L 139.295244 43.849297 
L 139.35243 43.747283 
L 139.409616 43.619645 
L 139.466802 43.832126 
L 139.523988 43.732675 
L 139.581174 43.553255 
L 139.809917 44.090861 
L 140.03866 43.825274 
L 140.095846 44.07636 
L 140.32459 43.504047 
L 140.381776 43.65896 
L 140.553333 43.252525 
L 140.667705 43.598609 
L 140.724891 43.325518 
L 140.782076 43.367156 
L 140.839262 43.478277 
L 140.896448 43.319881 
L 141.01082 43.695186 
L 141.182377 43.362645 
L 141.239563 43.430388 
L 141.353935 43.73846 
L 141.411121 43.470738 
L 141.468307 43.668957 
L 141.525492 43.672493 
L 141.639864 44.042021 
L 141.69705 43.777375 
L 141.754236 43.92496 
L 141.982979 44.171219 
L 142.040165 43.956432 
L 142.097351 44.226043 
L 142.268908 43.800796 
L 142.326094 43.964531 
L 142.497652 43.728617 
L 142.612023 43.554988 
L 142.669209 43.294764 
L 142.726395 43.398381 
L 142.840767 43.462563 
L 143.012324 43.878843 
L 143.06951 43.831699 
L 143.183882 43.621361 
L 143.355439 43.093189 
L 143.412625 43.159566 
L 143.469811 43.368448 
L 143.526997 43.31059 
L 143.584183 43.350066 
L 143.75574 43.653079 
L 144.156041 43.234776 
L 144.327599 43.630966 
L 144.44197 43.171514 
L 144.499156 43.221208 
L 144.613528 42.966702 
L 144.956643 43.684428 
L 145.013829 43.686582 
L 145.071015 43.47801 
L 145.128201 43.568773 
L 145.185386 43.835754 
L 145.356944 43.438791 
L 145.528501 43.489597 
L 145.757245 43.893251 
L 145.814431 43.824424 
L 146.10036 44.429455 
L 146.615033 43.613084 
L 146.672218 43.472134 
L 146.729404 43.606178 
L 146.900962 43.915441 
L 147.186891 43.237666 
L 147.244077 43.293879 
L 147.301263 43.23188 
L 147.358449 43.372045 
L 147.415634 43.273678 
L 147.587192 43.143552 
L 147.758749 43.438974 
L 147.930307 42.813109 
L 148.15905 42.374664 
L 148.330608 42.330324 
L 148.559351 42.963615 
L 148.730909 42.676534 
L 148.84528 41.99278 
L 148.902466 42.150297 
L 148.959652 42.021382 
L 149.074024 42.174609 
L 149.13121 42.058174 
L 149.188396 42.235964 
L 149.302767 41.980357 
L 149.359953 42.286629 
L 149.417139 42.189477 
L 149.474325 42.222586 
L 149.703068 41.957852 
L 149.760254 42.038537 
L 150.103369 41.325482 
L 150.217741 41.552354 
L 150.274927 41.458609 
L 150.332112 41.727208 
L 150.50367 41.366662 
L 150.560856 41.356805 
L 150.732413 40.827945 
L 150.903971 40.721127 
L 151.018343 40.982126 
L 151.075528 40.868043 
L 151.132714 40.65709 
L 151.1899 40.673435 
L 151.361458 40.627871 
L 151.418643 40.513149 
L 151.647387 41.061438 
L 151.761759 41.122773 
L 151.818944 41.075131 
L 151.990502 41.411181 
L 152.047688 41.299521 
L 152.104874 41.09583 
L 152.219245 41.791195 
L 152.276431 41.778107 
L 152.447989 41.982032 
L 152.56236 42.311415 
L 152.619546 42.504316 
L 152.905475 41.596672 
L 152.962661 41.697633 
L 153.077033 41.303204 
L 153.134219 41.404141 
L 153.191405 41.359089 
L 153.362962 41.114572 
L 153.477334 41.263854 
L 164.971689 39.546351 
L 165.028874 39.765356 
L 165.08606 39.597965 
L 165.257618 38.977073 
L 165.371989 39.187906 
L 165.486361 38.975259 
L 165.543547 39.346321 
L 165.600733 39.268177 
L 165.943848 38.319393 
L 166.05822 38.494245 
L 166.172591 38.401724 
L 166.229777 38.486742 
L 166.286963 38.568031 
L 166.401335 38.431822 
L 166.458521 38.460105 
L 166.687264 38.138994 
L 166.801636 38.251992 
L 166.973193 38.051594 
L 167.030379 38.432289 
L 167.087565 38.189589 
L 167.201936 38.506267 
L 167.259122 38.296687 
L 167.316308 38.392188 
L 167.43068 38.442819 
L 167.487866 38.19399 
L 167.545052 38.332464 
L 168.002538 39.513515 
L 168.231282 38.913014 
L 168.460025 39.791938 
L 168.917512 38.781726 
L 169.031883 38.72009 
L 169.146255 38.368935 
L 169.203441 38.148788 
L 169.260627 38.234074 
L 169.317813 38.414817 
L 169.374999 38.366373 
L 169.48937 38.317338 
L 169.546556 38.432328 
L 169.660928 37.857782 
L 169.718114 37.958321 
L 169.775299 37.662961 
L 169.832485 37.749404 
L 169.889671 37.701739 
L 169.946857 37.939741 
L 170.004043 37.526667 
L 170.061229 37.672524 
L 170.232786 37.672942 
L 170.575901 38.145651 
L 170.633087 37.98048 
L 170.804645 38.32643 
L 170.861831 38.139721 
L 170.919016 38.181798 
L 171.033388 38.295572 
L 171.14776 38.045996 
L 171.319317 38.793519 
L 171.376503 38.783057 
L 171.433689 38.567849 
L 171.490875 38.768872 
L 171.548061 38.844627 
L 171.605246 38.736855 
L 171.719618 38.731282 
L 171.891176 39.304346 
L 171.948362 39.083606 
L 172.005547 39.224972 
L 172.062733 39.413575 
L 172.119919 39.329745 
L 172.177105 39.281768 
L 172.348662 39.515362 
L 172.405848 39.64802 
L 172.52022 39.399809 
L 172.577406 39.487375 
L 172.691778 39.427844 
L 172.920521 40.086943 
L 173.034893 40.426435 
L 173.092078 40.353846 
L 173.149264 40.292788 
L 173.20645 40.575608 
L 173.263636 40.398202 
L 173.320822 40.503479 
L 173.492379 40.065902 
L 173.606751 40.648056 
L 173.663937 40.504093 
L 173.721123 40.188081 
L 173.778309 40.337306 
L 173.835494 40.497947 
L 174.007052 40.126707 
L 174.178609 40.521707 
L 174.235795 40.295829 
L 174.292981 40.495157 
L 174.57891 40.002902 
L 174.922025 40.724204 
L 174.979211 40.665113 
L 175.150769 41.013204 
L 175.207955 40.803897 
L 175.265141 40.950923 
L 175.322326 40.940036 
L 175.836999 39.808678 
L 175.951371 39.872835 
L 176.065742 39.917017 
L 176.122928 39.951138 
L 176.351672 40.387576 
L 176.637601 39.943109 
L 176.694787 40.069636 
L 176.809158 39.729378 
L 176.866344 39.905959 
L 176.92353 39.791524 
L 176.980716 39.459129 
L 177.037902 39.554918 
L 177.152273 39.658764 
L 177.209459 40.041589 
L 177.266645 40.01907 
L 177.323831 39.989775 
L 177.552574 40.351497 
L 177.60976 40.315387 
L 177.781318 40.859504 
L 177.838504 40.882235 
L 177.895689 40.744121 
L 177.952875 40.915925 
L 178.010061 40.866275 
L 178.124433 40.914301 
L 178.181619 41.092071 
L 178.238804 41.037145 
L 178.467548 40.572448 
L 178.581919 40.642277 
L 178.696291 40.784351 
L 178.810663 40.269021 
L 179.039406 40.850032 
L 179.096592 40.94022 
L 179.26815 40.429372 
L 179.439707 40.003422 
L 179.611265 40.424159 
L 179.668451 40.732945 
L 179.725636 40.678462 
L 179.897194 40.756417 
L 180.011566 40.405168 
L 180.240309 40.979074 
L 180.297495 40.859017 
L 180.354681 41.01927 
L 180.411867 40.937444 
L 180.526238 40.874644 
L 180.697796 41.553322 
L 180.754982 41.527571 
L 180.869353 41.759709 
L 181.098097 42.077161 
L 181.155282 42.106698 
L 181.212468 42.273016 
L 181.269654 42.24727 
L 181.32684 42.240088 
L 181.555583 42.599769 
L 181.727141 42.265608 
L 181.784327 42.196013 
L 181.841513 42.387955 
L 181.898698 42.241097 
L 181.955884 42.249539 
L 182.01307 42.081538 
L 182.070256 42.253662 
L 182.241814 42.151999 
L 182.356185 42.551048 
L 182.413371 42.513886 
L 182.470557 42.522341 
L 182.584929 42.786991 
L 182.928044 41.883777 
L 182.985229 42.022191 
L 183.042415 42.248631 
L 183.099601 42.038304 
L 183.156787 42.227033 
L 183.213973 42.18407 
L 183.328345 42.049521 
L 183.38553 42.183732 
L 183.442716 42.056483 
L 183.499902 41.796117 
L 183.557088 41.918293 
L 183.614274 42.144306 
L 183.67146 42.059582 
L 183.728645 42.008159 
L 183.785831 42.17892 
L 183.900203 41.812972 
L 184.128946 42.325149 
L 184.300504 41.846643 
L 184.35769 41.968803 
L 184.472061 41.664252 
L 184.529247 41.757955 
L 184.872362 42.63088 
L 185.101106 41.895137 
L 185.158292 41.994222 
L 185.215477 41.80673 
L 185.272663 41.830016 
L 185.444221 42.436393 
L 185.501407 42.233411 
L 185.672964 42.724819 
L 185.73015 42.688997 
L 185.787336 42.606141 
L 185.844522 42.713995 
L 185.901708 42.80047 
L 185.958893 42.72882 
L 186.702309 41.402574 
L 187.216982 42.983072 
L 187.274168 42.865529 
L 187.38854 42.917432 
L 187.445725 43.119459 
L 187.502911 42.972355 
L 187.617283 42.6998 
L 187.674469 42.848402 
L 187.731655 43.082312 
L 187.78884 43.041623 
L 187.846026 42.998821 
L 188.246327 43.977766 
L 188.303513 43.891901 
L 188.475071 44.534472 
L 188.646628 44.376527 
L 188.703814 44.589753 
L 188.761 44.561093 
L 188.875371 44.547932 
L 188.932557 44.699815 
L 189.161301 43.948861 
L 189.218487 44.054569 
L 189.275672 44.113952 
L 189.332858 44.055804 
L 189.44723 43.735956 
L 189.504416 43.782863 
L 189.733159 43.481842 
L 189.847531 43.630499 
L 189.904717 43.597561 
L 190.019088 44.026548 
L 190.13346 43.789693 
L 190.190646 44.005584 
L 190.247832 43.953168 
L 190.305018 43.790921 
L 190.476575 44.219064 
L 190.648133 44.059604 
L 190.81969 44.456365 
L 190.934062 44.473945 
L 191.162805 44.003119 
L 191.219991 43.997412 
L 191.50592 44.620962 
L 191.620292 44.371811 
L 191.677478 44.395774 
L 191.849035 44.542531 
L 191.906221 44.394 
L 191.963407 44.670456 
L 192.020593 44.469585 
L 192.134965 44.080393 
L 192.19215 44.264364 
L 192.249336 44.370546 
L 192.363708 43.971312 
L 192.420894 43.990177 
L 192.47808 44.185806 
L 192.535265 44.119178 
L 192.649637 44.044491 
L 192.764009 44.303628 
L 192.935566 43.775996 
L 192.992752 43.878148 
L 193.049938 43.760483 
L 193.16431 43.697179 
L 193.221496 44.030445 
L 193.278681 43.867997 
L 193.393053 43.671182 
L 193.450239 43.774039 
L 193.507425 43.658656 
L 193.564611 43.569557 
L 193.678982 43.704195 
L 193.793354 43.459248 
L 194.022097 43.666957 
L 194.136469 43.528147 
L 194.193655 43.569232 
L 194.365213 43.825384 
L 194.479584 43.618081 
L 194.53677 44.087013 
L 194.593956 43.964202 
L 194.822699 43.337489 
L 194.994257 43.787429 
L 195.223 43.230191 
L 195.337372 43.750105 
L 195.508929 43.38404 
L 195.566115 43.443348 
L 195.623301 43.355996 
L 195.680487 43.337911 
L 195.852044 42.942694 
L 195.90923 43.027392 
L 196.309531 42.275685 
L 196.423903 42.596159 
L 196.481089 42.461051 
L 196.59546 42.722899 
L 196.652646 42.673904 
L 196.824204 42.079154 
L 196.88139 42.10726 
L 196.995761 41.943637 
L 197.052947 42.183368 
L 197.110133 42.151547 
L 197.167319 42.083972 
L 197.338876 42.367346 
L 197.453248 42.535225 
L 197.739177 43.608606 
L 197.796363 43.58029 
L 198.196664 44.229527 
L 198.25385 44.020808 
L 198.311036 44.221693 
L 198.368222 44.290045 
L 198.768523 43.281122 
L 198.94008 43.460512 
L 198.997266 43.480731 
L 199.226009 42.962899 
L 199.283195 43.015167 
L 199.340381 42.60027 
L 199.397567 42.712994 
L 199.454753 42.655491 
L 199.511938 42.736637 
L 199.569124 42.806392 
L 199.62631 42.728687 
L 199.855054 42.073578 
L 199.912239 42.01514 
L 200.026611 42.39563 
L 200.083797 42.349133 
L 200.140983 42.307822 
L 200.31254 42.825256 
L 200.369726 42.783397 
L 200.426912 42.864977 
L 200.712841 42.830529 
L 200.770027 42.941239 
L 200.884399 43.600351 
L 200.941585 43.532731 
L 201.055956 43.457829 
L 201.170328 43.593378 
L 201.227514 43.429471 
L 201.341886 43.966398 
L 201.456257 43.594392 
L 201.570629 44.014502 
L 201.627815 43.811841 
L 201.685001 44.052782 
L 201.742186 43.972728 
L 201.97093 43.286196 
L 202.028116 43.223899 
L 202.085301 43.423801 
L 202.142487 43.402494 
L 202.256859 43.193957 
L 202.485602 43.841586 
L 202.542788 43.622866 
L 202.599974 43.872146 
L 202.65716 43.650302 
L 202.828717 43.065686 
L 203.000275 43.669184 
L 203.057461 43.550205 
L 203.286204 42.980579 
L 203.34339 43.078574 
L 203.457762 43.169484 
L 203.572133 43.504392 
L 203.743691 43.003293 
L 203.858063 43.462042 
L 203.915249 43.242075 
L 203.972434 43.280063 
L 204.258364 43.417476 
L 204.315549 43.508642 
L 204.487107 43.156488 
L 204.601479 43.303477 
L 204.658664 43.186763 
L 204.830222 43.76408 
L 205.00178 43.384989 
L 205.116151 43.354234 
L 205.230523 43.692917 
L 205.459266 42.831509 
L 205.573638 42.940531 
L 205.630824 42.887595 
L 205.745196 42.846826 
L 205.859567 43.188384 
L 205.916753 43.118569 
L 206.031125 42.693152 
L 206.088311 42.721309 
L 206.145496 42.43396 
L 206.202682 42.607886 
L 206.317054 42.905717 
L 206.488611 42.498225 
L 206.660169 42.716038 
L 206.888912 42.306863 
L 207.06047 42.216423 
L 207.117656 42.560927 
L 207.174842 42.399563 
L 207.460771 42.90171 
L 207.632328 42.874104 
L 207.861072 42.420725 
L 207.918258 42.478864 
L 207.975443 42.344429 
L 208.261373 43.270755 
L 208.375744 43.257539 
L 208.43293 43.41475 
L 208.547302 43.003136 
L 208.833231 43.608953 
L 208.890417 43.492179 
L 209.233532 42.733556 
L 209.462275 42.264762 
L 209.519461 42.391931 
L 209.576647 42.314472 
L 209.748205 41.949281 
L 209.976948 41.759886 
L 210.034134 41.777202 
L 210.205691 42.252566 
L 210.262877 42.101297 
L 210.434435 41.931325 
L 210.605992 42.322583 
L 210.663178 42.215396 
L 222.157533 43.307313 
L 222.214719 43.012026 
L 222.271905 43.081003 
L 222.386276 43.046758 
L 222.443462 42.839995 
L 222.500648 42.989459 
L 222.557834 43.139314 
L 222.61502 43.091639 
L 222.672205 42.865574 
L 222.729391 43.005871 
L 222.786577 42.936139 
L 222.900949 43.113833 
L 223.072506 42.428513 
L 223.30125 42.930455 
L 223.358436 42.705993 
L 223.415621 42.676387 
L 223.529993 42.765582 
L 223.587179 42.763177 
L 223.701551 42.319994 
L 223.758736 42.457032 
L 223.815922 42.382131 
L 223.98748 42.176584 
L 224.159037 41.773589 
L 224.216223 42.029026 
L 224.273409 41.943138 
L 224.330595 41.961406 
L 224.387781 42.250107 
L 224.444967 42.078101 
L 224.616524 42.682429 
L 224.67371 42.472438 
L 224.788082 42.111245 
L 224.845268 42.307883 
L 224.902453 42.23061 
L 225.074011 42.008562 
L 225.35994 41.138289 
L 225.417126 41.031975 
L 225.474312 41.092422 
L 225.531498 41.480235 
L 225.588683 41.354854 
L 225.817427 40.919587 
L 225.988984 41.038677 
L 226.103356 40.684289 
L 226.160542 40.743601 
L 226.332099 41.099584 
L 226.503657 41.424339 
L 226.560843 41.08554 
L 226.618029 41.220084 
L 226.7324 41.336581 
L 226.903958 40.651194 
L 227.189887 41.120421 
L 227.247073 41.124687 
L 227.475816 41.832825 
L 227.590188 41.37015 
L 227.647374 41.438378 
L 227.70456 41.846594 
L 227.761746 41.708313 
L 227.818931 41.544559 
L 227.990489 41.865407 
L 228.162046 41.369873 
L 228.219232 41.515039 
L 228.333604 41.144657 
L 228.505162 41.634037 
L 228.619533 41.65576 
L 228.676719 41.885248 
L 228.733905 41.748763 
L 228.905462 41.579391 
L 229.07702 41.139192 
L 229.134206 41.201505 
L 229.191392 41.210472 
L 229.420135 41.749816 
L 229.591693 41.779985 
L 229.706064 41.666951 
L 229.877622 41.140098 
L 230.106365 41.860709 
L 230.220737 41.94653 
L 230.277923 42.118863 
L 230.335109 42.099122 
L 230.392294 42.009966 
L 230.563852 42.385518 
L 230.621038 42.20921 
L 230.678224 42.383423 
L 230.849781 42.658282 
L 231.021339 42.353607 
L 231.078525 42.575667 
L 231.13571 42.458149 
L 231.192896 42.487906 
L 231.364454 42.924421 
L 231.42164 42.926457 
L 231.707569 42.51277 
L 231.879126 42.705706 
L 232.10787 42.658791 
L 232.279427 42.922464 
L 232.336613 42.761354 
L 232.450985 43.335781 
L 232.508171 43.32635 
L 232.565356 43.48756 
L 232.622542 43.433629 
L 232.679728 43.359183 
L 232.851286 43.466359 
L 232.908472 43.327498 
L 232.965657 43.492248 
L 233.022843 43.443956 
L 233.194401 42.878994 
L 233.251587 43.357494 
L 233.308772 43.038194 
L 233.365958 43.257444 
L 233.423144 43.062384 
L 233.537516 43.114724 
L 233.651888 42.771446 
L 233.880631 43.6449 
L 233.995003 43.114541 
L 234.052188 43.165561 
L 234.109374 43.358296 
L 234.16656 43.096215 
L 234.223746 43.217112 
L 234.280932 43.133915 
L 234.338118 43.173498 
L 234.509675 43.736209 
L 234.795604 43.788902 
L 234.85279 43.836743 
L 234.909976 43.620026 
L 235.024348 44.036632 
L 235.081534 43.938915 
L 235.138719 44.087613 
L 235.253091 43.742753 
L 235.310277 43.816551 
L 235.367463 43.778354 
L 235.767764 44.444238 
L 235.82495 44.29922 
L 235.882135 44.546186 
L 235.939321 44.376369 
L 235.996507 44.340114 
L 236.053693 43.962746 
L 236.110879 44.152165 
L 236.396808 44.100006 
L 236.625551 43.724971 
L 236.854295 44.622191 
L 236.968666 44.382092 
L 237.254596 45.342692 
L 237.368967 45.279252 
L 237.540525 45.718716 
L 237.597711 45.504546 
L 237.654897 45.535304 
L 237.940826 44.847609 
L 237.998012 44.994366 
L 238.169569 44.571699 
L 238.341127 45.057921 
L 238.398313 44.88545 
L 238.455498 44.923284 
L 238.512684 45.136355 
L 238.741428 44.320828 
L 239.027357 44.390489 
L 239.141729 44.021625 
L 239.2561 44.516758 
L 239.313286 44.272608 
L 239.542029 44.943002 
L 239.599215 45.197483 
L 239.656401 45.072296 
L 239.713587 45.09347 
L 239.827959 44.839238 
L 239.885145 44.962123 
L 240.113888 44.511263 
L 240.171074 44.525835 
L 240.342631 44.405012 
L 240.571375 44.776051 
L 240.628561 44.69642 
L 240.685746 44.448016 
L 240.742932 44.608068 
L 240.857304 44.411379 
L 240.91449 44.524754 
L 240.971676 44.310482 
L 241.028861 44.46455 
L 241.086047 44.37242 
L 241.143233 44.476064 
L 241.314791 45.132989 
L 241.486348 44.923063 
L 241.543534 44.880244 
L 241.657906 45.0985 
L 241.943835 44.60681 
L 242.001021 44.784108 
L 242.058207 44.652384 
L 242.172578 44.523508 
L 242.28695 44.880202 
L 242.344136 44.695981 
L 242.401322 45.037816 
L 242.458508 44.911561 
L 242.744437 44.062136 
L 242.801623 44.13559 
L 242.858808 44.142644 
L 242.915994 44.312039 
L 243.087552 43.76228 
L 243.144738 43.90453 
L 243.201924 43.522389 
L 243.259109 43.775142 
L 243.316295 43.851049 
L 243.373481 43.614913 
L 243.430667 43.811863 
L 243.602224 43.609037 
L 243.65941 43.687622 
L 243.888154 43.03849 
L 244.002525 43.011893 
L 244.116897 43.192329 
L 244.174083 43.085485 
L 244.231269 42.951393 
L 244.288455 43.048942 
L 244.34564 43.475543 
L 244.402826 43.318867 
L 244.517198 43.658574 
L 244.574384 43.568886 
L 244.63157 43.594785 
L 244.688755 43.456444 
L 244.745941 43.690688 
L 244.803127 43.660725 
L 244.974685 43.388099 
L 245.089056 43.681628 
L 245.146242 43.636392 
L 245.489357 43.813635 
L 245.718101 43.953568 
L 245.832472 43.671503 
L 246.00403 43.975012 
L 246.061216 44.227928 
L 246.118402 44.07991 
L 246.232773 43.901824 
L 246.461517 44.663815 
L 246.518702 44.626822 
L 246.575888 44.270226 
L 246.633074 44.437004 
L 246.804632 44.851361 
L 246.919003 44.539235 
L 247.147747 43.995146 
L 247.37649 43.225547 
L 247.662419 42.783702 
L 247.719605 42.980282 
L 247.776791 42.813912 
L 247.833977 42.666478 
L 248.119906 43.395327 
L 248.291464 43.14107 
L 248.34865 43.13096 
L 248.634579 42.365476 
L 248.74895 42.611543 
L 248.806136 42.572354 
L 248.920508 42.289968 
L 248.977694 42.311962 
L 249.03488 42.275143 
L 249.206437 41.746585 
L 249.263623 42.078074 
L 249.320809 42.006019 
L 249.435181 41.740095 
L 249.492366 41.783631 
L 249.663924 41.977209 
L 249.835481 42.080241 
L 250.007039 41.564257 
L 250.235782 42.527551 
L 250.40734 42.155951 
L 250.464526 42.264623 
L 250.521712 42.558277 
L 250.578897 42.282132 
L 250.864827 41.724257 
L 251.379499 42.465809 
L 251.493871 42.820239 
L 251.551057 42.785754 
L 251.608243 42.729289 
L 251.665428 43.030718 
L 251.722614 42.971292 
L 252.122915 43.165868 
L 252.294473 42.816875 
L 252.351659 42.619482 
L 252.408844 42.655809 
L 252.580402 42.481273 
L 252.637588 42.665473 
L 252.694774 42.725082 
L 252.75196 42.501122 
L 252.809145 42.679459 
L 253.209446 42.533098 
L 253.381004 42.910427 
L 253.43819 42.847125 
L 253.552561 43.083042 
L 253.609747 42.888639 
L 253.666933 42.954877 
L 253.724119 42.927343 
L 253.952862 43.358321 
L 254.067234 43.475006 
L 254.181606 43.710262 
L 254.295977 43.344382 
L 254.353163 43.365347 
L 254.410349 43.396828 
L 254.524721 43.660729 
L 254.581907 43.589173 
L 254.753464 43.923705 
L 254.925022 44.085406 
L 255.096579 44.366166 
L 255.268137 44.90017 
L 255.325323 44.822139 
L 255.382508 45.005726 
L 255.439694 44.592358 
L 255.49688 44.6889 
L 255.611252 44.665742 
L 255.668438 44.855769 
L 255.897181 44.020747 
L 255.954367 43.969682 
L 256.011553 44.31909 
L 256.068738 44.215762 
L 256.18311 43.847127 
L 256.240296 43.909688 
L 256.411854 43.918031 
L 256.469039 43.861235 
L 256.583411 44.268178 
L 256.640597 44.23767 
L 257.040898 44.170682 
L 257.098084 44.073773 
L 257.212455 44.262146 
L 257.498385 43.508085 
L 257.669942 43.758805 
L 257.898685 42.994427 
L 257.955871 43.060882 
L 258.013057 43.493791 
L 258.070243 43.308566 
L 258.184615 43.712852 
L 258.241801 43.523134 
L 258.298986 43.518982 
L 258.584916 44.121289 
L 258.928031 44.709634 
L 258.985217 44.600976 
L 259.099588 45.043263 
L 259.156774 44.86756 
L 259.21396 44.96421 
L 259.271146 44.881588 
L 259.328332 45.097543 
L 259.557075 44.494576 
L 259.728633 44.370041 
L 259.843004 44.594417 
L 259.90019 44.552994 
L 259.957376 44.692638 
L 260.014562 44.545261 
L 260.128933 44.46144 
L 260.243305 44.355438 
L 260.300491 44.452581 
L 260.357677 44.169454 
L 260.414863 44.335324 
L 260.643606 44.535773 
L 260.815164 44.238822 
L 260.872349 44.219405 
L 260.986721 44.349465 
L 261.215464 43.78574 
L 261.27265 43.686444 
L 261.387022 44.029494 
L 261.55858 43.847421 
L 261.615765 43.927018 
L 261.672951 43.672801 
L 261.730137 43.744643 
L 261.844509 43.754093 
L 261.901695 43.714969 
L 262.073252 43.429123 
L 262.24481 43.667544 
L 262.530739 43.196703 
L 262.759482 42.887613 
L 262.816668 42.977656 
L 262.988226 42.261509 
L 263.045411 42.429644 
L 263.331341 41.808908 
L 263.388527 42.019228 
L 263.445712 41.825808 
L 263.502898 42.011 
L 263.560084 41.857815 
L 263.731642 41.994794 
L 263.788827 41.887479 
L 264.017571 42.445695 
L 264.131943 42.145424 
L 264.3035 42.314786 
L 264.475058 41.840705 
L 264.760987 41.527789 
L 264.875358 41.176481 
L 265.161288 41.521665 
L 265.275659 41.310382 
L 265.332845 41.153309 
L 265.390031 41.194214 
L 265.447217 41.384718 
L 265.504403 41.255893 
L 265.561589 40.999039 
L 265.618774 41.01889 
L 265.733146 41.240415 
L 265.790332 41.048689 
L 265.847518 41.192698 
L 265.904704 41.128839 
L 265.96189 41.190245 
L 266.133447 41.207683 
L 266.247819 40.794979 
L 266.305005 40.854702 
L 266.419376 40.982926 
L 266.533748 40.463687 
L 266.64812 40.20954 
L 266.762491 40.327539 
L 266.819677 40.106664 
L 266.876863 40.334998 
L 266.934049 40.291441 
L 267.105606 40.045068 
L 267.162792 40.094258 
L 267.219978 40.262407 
L 267.277164 40.078552 
L 267.33435 40.099475 
L 267.391536 40.190014 
L 267.505907 39.954282 
L 267.563093 40.082104 
L 267.677465 39.912351 
L 267.734651 40.038184 
L 267.791837 39.916705 
L 267.849022 39.996768 
L 279.343377 42.145789 
L 279.57212 41.599536 
L 279.686492 41.816095 
L 279.800864 41.75219 
L 279.972421 42.004947 
L 280.143979 41.872187 
L 280.201165 41.96766 
L 280.315536 42.35305 
L 280.54428 41.778332 
L 280.773023 42.14458 
L 280.830209 42.340899 
L 280.887395 42.216746 
L 280.944581 42.161849 
L 281.173324 42.776198 
L 281.23051 42.664219 
L 281.344882 42.906125 
L 281.459253 42.459234 
L 281.573625 42.84555 
L 281.630811 42.658153 
L 281.687997 42.570981 
L 281.973926 43.260065 
L 282.202669 43.05729 
L 282.259855 43.374762 
L 282.317041 43.291834 
L 282.60297 43.043793 
L 282.774528 43.219663 
L 283.003271 42.698517 
L 283.060457 42.865222 
L 283.174829 42.613526 
L 283.346386 42.749941 
L 283.57513 42.387944 
L 283.632315 42.451132 
L 283.689501 42.799764 
L 283.746687 42.607118 
L 283.97543 42.163337 
L 284.146988 42.029893 
L 284.26136 42.232791 
L 284.318546 42.119272 
L 284.432917 41.732758 
L 284.490103 41.824905 
L 284.547289 41.963169 
L 284.661661 41.454961 
L 284.833218 41.693675 
L 284.890404 41.747065 
L 285.004776 42.312221 
L 285.061962 42.292141 
L 285.119147 42.26341 
L 285.176333 42.085696 
L 285.233519 42.323181 
L 285.290705 42.231797 
L 285.462262 41.637359 
L 285.519448 41.743702 
L 285.576634 41.858743 
L 285.691006 41.669597 
L 285.805378 42.015291 
L 285.976935 41.763274 
L 286.091307 42.197166 
L 286.148493 42.185732 
L 286.205678 41.950396 
L 286.262864 41.983796 
L 286.434422 42.21492 
L 286.777537 41.314676 
L 286.834723 41.491011 
L 286.891909 41.462085 
L 287.063466 41.165906 
L 287.292209 41.873578 
L 287.349395 41.716146 
L 287.406581 41.697698 
L 287.520953 41.852952 
L 287.578139 41.789429 
L 287.749696 41.344049 
L 287.806882 41.340469 
L 288.264369 42.452881 
L 288.321555 42.377448 
L 288.493112 42.672098 
L 288.550298 42.826915 
L 288.607484 42.680052 
L 289.064971 41.889598 
L 289.122156 41.977389 
L 289.3509 41.366046 
L 289.408086 41.42057 
L 289.465272 41.226012 
L 289.522457 41.362133 
L 289.636829 41.577775 
L 289.694015 41.499567 
L 289.751201 41.281407 
L 289.808387 41.385555 
L 289.979944 41.893117 
L 290.03713 41.870732 
L 290.151502 41.620677 
L 290.208688 41.762483 
L 290.323059 41.48044 
L 290.608988 41.913529 
L 290.780546 41.430262 
L 290.952103 41.753512 
L 291.009289 41.722768 
L 291.180847 41.776335 
L 291.238033 41.95863 
L 291.295219 41.888487 
L 291.40959 41.650972 
L 291.581148 42.079668 
L 291.752705 41.531441 
L 291.981449 42.433046 
L 292.210192 42.504331 
L 292.438935 42.194086 
L 292.496121 42.290835 
L 292.610493 42.089245 
L 292.724865 42.141715 
L 292.782051 42.091088 
L 292.839236 42.460055 
L 292.896422 42.362487 
L 293.239537 42.011614 
L 293.296723 42.144718 
L 293.353909 42.011908 
L 293.411095 42.07622 
L 293.468281 42.365056 
L 293.525466 42.285183 
L 293.697024 41.760361 
L 293.75421 41.802824 
L 293.925767 42.399688 
L 294.211697 42.813937 
L 294.554812 43.523211 
L 294.669183 43.829393 
L 294.955113 44.551159 
L 295.012298 44.598917 
L 295.12667 44.153528 
L 295.183856 44.277974 
L 295.241042 44.642869 
L 295.298228 44.453502 
L 295.469785 44.641658 
L 295.641343 44.320581 
L 295.698529 44.360739 
L 295.8129 44.61355 
L 295.927272 44.231149 
L 295.984458 44.252969 
L 296.156015 44.390888 
L 296.270387 44.514511 
L 296.49913 43.727531 
L 296.556316 43.945958 
L 296.613502 43.898693 
L 296.78506 43.74518 
L 296.842245 43.866909 
L 296.956617 44.148407 
L 297.013803 44.098781 
L 297.242546 44.295245 
L 297.299732 44.419341 
L 297.356918 44.320012 
L 297.528476 44.037876 
L 297.585661 44.197887 
L 297.700033 44.344811 
L 297.814405 44.16479 
L 297.871591 44.205695 
L 298.271892 45.396324 
L 298.443449 45.921485 
L 298.500635 45.767237 
L 298.729378 45.063377 
L 298.900936 45.288771 
L 299.015308 45.045575 
L 299.072493 45.370249 
L 299.129679 45.231108 
L 299.244051 45.291655 
L 299.358423 45.102726 
L 299.52998 45.193085 
L 299.701538 45.092366 
L 299.758724 45.321245 
L 299.815909 45.169989 
L 299.873095 45.245623 
L 299.930281 45.136125 
L 300.101839 45.400209 
L 300.159024 45.334665 
L 300.21621 45.398443 
L 300.273396 45.406086 
L 300.330582 45.669563 
L 300.387768 45.554164 
L 300.616511 45.866276 
L 300.673697 45.709414 
L 300.730883 45.545935 
L 300.788069 45.604531 
L 301.016812 45.608972 
L 301.131184 45.39775 
L 301.302741 45.628654 
L 301.359927 45.587982 
L 301.703042 46.807912 
L 301.817414 46.580031 
L 301.931786 46.656546 
L 302.046157 46.673276 
L 302.103343 46.830542 
L 302.160529 46.551098 
L 302.217715 46.704536 
L 302.274901 46.632954 
L 302.389272 46.723929 
L 302.446458 46.614173 
L 302.503644 46.700931 
L 302.56083 46.769946 
L 302.618016 47.033705 
L 302.675202 46.842472 
L 302.846759 46.762475 
L 303.018317 46.517315 
L 303.075502 46.544518 
L 303.24706 46.005122 
L 303.304246 46.027858 
L 303.418618 46.027414 
L 303.532989 45.756445 
L 303.590175 45.893377 
L 303.761733 46.227735 
L 303.818918 45.951109 
L 303.990476 46.356549 
L 304.390777 46.111442 
L 304.505149 46.340877 
L 304.962635 45.162009 
L 305.134193 45.725973 
L 305.191379 45.70669 
L 305.30575 45.162567 
L 305.362936 45.26978 
L 305.477308 45.412981 
L 305.534494 45.567696 
L 305.59168 45.524859 
L 306.27791 43.750407 
L 306.392281 43.39803 
L 306.678211 42.716943 
L 306.735397 42.652664 
L 307.078512 43.616087 
L 307.192883 43.556534 
L 307.307255 43.328058 
L 307.364441 43.43854 
L 307.478812 43.461644 
L 307.65037 43.880225 
L 307.821928 43.502906 
L 307.879113 43.530159 
L 307.936299 43.406243 
L 307.993485 43.003803 
L 308.050671 43.182106 
L 308.107857 43.116023 
L 308.222228 43.304646 
L 308.3366 43.049069 
L 308.393786 43.07196 
L 308.565344 43.550939 
L 308.622529 43.190528 
L 308.679715 43.25816 
L 308.794087 43.280002 
L 308.965644 43.681096 
L 309.02283 43.731439 
L 309.137202 43.56447 
L 309.194388 43.603023 
L 309.251574 43.805762 
L 309.308759 43.628271 
L 309.537503 43.128813 
L 309.594689 43.17667 
L 309.823432 42.486428 
L 309.880618 42.298414 
L 310.223733 43.476872 
L 310.338105 43.336644 
L 310.452476 43.800307 
L 310.566848 43.528475 
L 310.624034 43.557299 
L 310.68122 43.448604 
L 310.738406 43.54379 
L 310.795591 43.798951 
L 310.852777 43.551312 
L 310.909963 43.239696 
L 310.967149 43.255837 
L 311.081521 43.49524 
L 311.138707 43.381745 
L 311.253078 43.390464 
L 311.424636 42.967278 
L 311.596193 42.94415 
L 311.710565 42.804404 
L 311.939308 42.005209 
L 312.110866 42.235861 
L 312.339609 42.598196 
L 312.568353 41.950306 
L 312.682724 42.100737 
L 312.854282 41.67142 
L 312.911468 41.866294 
L 312.968654 41.842587 
L 313.197397 41.175365 
L 313.311769 41.010874 
L 313.368954 40.704749 
L 313.42614 40.857246 
L 313.540512 40.778932 
L 313.769255 41.120936 
L 313.997999 40.957066 
L 314.512671 40.957735 
L 314.741415 41.622183 
L 314.855786 41.215398 
L 314.912972 41.317561 
L 314.970158 41.393717 
L 315.141716 41.000409 
L 315.198901 41.115242 
L 315.370459 41.485706 
L 315.542017 41.125366 
L 315.77076 41.396524 
L 315.827946 41.394264 
L 315.942317 41.047469 
L 316.171061 41.715208 
L 316.399804 42.35054 
L 316.45699 42.244111 
L 316.514176 42.348553 
L 316.628548 42.150567 
L 316.742919 42.278441 
L 316.857291 42.330645 
L 317.14322 41.977772 
L 317.314778 42.387608 
L 317.486335 42.145501 
L 317.657893 42.531224 
L 317.82945 42.751029 
L 318.058194 43.461603 
L 318.172565 43.821503 
L 318.229751 43.646493 
L 318.344123 43.63534 
L 318.51568 43.332335 
L 318.80161 43.789939 
L 318.858795 43.803985 
L 318.973167 43.631404 
L 319.373468 44.465489 
L 319.545026 45.045324 
L 319.716583 44.993728 
L 319.773769 45.235005 
L 319.888141 44.617987 
L 319.945327 44.636574 
L 320.231256 44.637107 
L 320.402813 44.05853 
L 320.459999 43.748536 
L 320.517185 43.931341 
L 320.631557 43.975502 
L 320.688743 43.797113 
L 320.745928 43.914106 
L 320.803114 43.817897 
L 320.917486 44.401828 
L 320.974672 44.138832 
L 321.031858 44.047492 
L 321.203415 44.280596 
L 321.260601 44.209005 
L 321.374973 44.434841 
L 321.489344 44.049685 
L 321.54653 44.127186 
L 321.660902 43.983658 
L 321.832459 44.296434 
L 321.889645 44.148793 
L 321.946831 44.221652 
L 322.118389 44.563681 
L 322.347132 44.85633 
L 322.461504 44.825523 
L 322.633061 45.124163 
L 322.804619 44.750216 
L 322.91899 44.871442 
L 323.147734 45.750688 
L 323.20492 45.69964 
L 323.376477 46.175493 
L 323.490849 46.114198 
L 323.605221 46.006758 
L 323.662406 45.893076 
L 323.948336 46.636127 
L 324.062707 46.544568 
L 324.119893 46.399899 
L 324.291451 46.859628 
L 324.405822 46.149717 
L 324.463008 46.252942 
L 324.520194 46.285995 
L 324.57738 46.142479 
L 324.634566 46.189328 
L 324.691752 46.163881 
L 324.806123 46.4526 
L 324.920495 46.313277 
L 324.977681 46.689373 
L 325.034867 46.512278 
" clip-path="url(#pc2e6ce37c2)" style="fill: none; stroke: #0000ff; stroke-width: 1.5; stroke-linecap: square"/>
   </g>
   <g id="patch_3">
    <path d="M 50.6 171.16 
L 50.6 10.8 
" style="fill: none; stroke: #000000; stroke-width: 0.8; stroke-linejoin: miter; stroke-linecap: square"/>
   </g>
   <g id="patch_4">
    <path d="M 338.75661 171.16 
L 338.75661 10.8 
" style="fill: none; stroke: #000000; stroke-width: 0.8; stroke-linejoin: miter; stroke-linecap: square"/>
   </g>
   <g id="patch_5">
    <path d="M 50.6 171.16 
L 338.75661 171.16 
" style="fill: none; stroke: #000000; stroke-width: 0.8; stroke-linejoin: miter; stroke-linecap: square"/>
   </g>
   <g id="patch_6">
    <path d="M 50.6 10.8 
L 338.75661 10.8 
" style="fill: none; stroke: #000000; stroke-width: 0.8; stroke-linejoin: miter; stroke-linecap: square"/>
   </g>
  </g>
 </g>
 <defs>
  <clipPath id="pc2e6ce37c2">
   <rect x="50.6" y="10.8" width="288.15661" height="160.36"/>
  </clipPath>
 </defs>
</svg>
