<?xml version="1.0" encoding="utf-8" standalone="no"?>
<!DOCTYPE svg PUBLIC "-//W3C//DTD SVG 1.1//EN"
  "http://www.w3.org/Graphics/SVG/1.1/DTD/svg11.dtd">
<svg xmlns:xlink="http://www.w3.org/1999/xlink" width="360pt" height="216pt" viewBox="0 0 360 216" xmlns="http://www.w3.org/2000/svg" version="1.1">
 <metadata>
  <rdf:RDF xmlns:dc="http://purl.org/dc/elements/1.1/" xmlns:cc="http://creativecommons.org/ns#" xmlns:rdf="http://www.w3.org/1999/02/22-rdf-syntax-ns#">
   <cc:Work>
    <dc:type rdf:resource="http://purl.org/dc/dcmitype/StillImage"/>
    <dc:date>2024-01-07T08:22:53.666573</dc:date>
    <dc:format>image/svg+xml</dc:format>
    <dc:creator>
     <cc:Agent>
      <dc:title>Matplotlib v3.7.4, https://matplotlib.org/</dc:title>
     </cc:Agent>
    </dc:creator>
   </cc:Work>
  </rdf:RDF>
 </metadata>
 <defs>
  <style type="text/css">*{stroke-linejoin: round; stroke-linecap: butt}</style>
 </defs>
 <g id="figure_1">
  <g id="patch_1">
   <path d="M 0 216 
L 360 216 
L 360 0 
L 0 0 
z
" style="fill: #ffffff"/>
  </g>
  <g id="axes_1">
   <g id="patch_2">
    <path d="M 41.15 171.16 
L 338.75661 171.16 
L 338.75661 10.8 
L 41.15 10.8 
z
" style="fill: #ffffff"/>
   </g>
   <g id="matplotlib.axis_1">
    <g id="xtick_1">
     <g id="line2d_1">
      <defs>
       <path id="md2da4a30d0" d="M 0 0 
L 0 3.5 
" style="stroke: #000000; stroke-width: 0.8"/>
      </defs>
      <g>
       <use xlink:href="#md2da4a30d0" x="41.15" y="171.16" style="stroke: #000000; stroke-width: 0.8"/>
      </g>
     </g>
     <g id="text_1">
      <!-- 0 -->
      <g transform="translate(37.96875 185.758437) scale(0.1 -0.1)">
       <defs>
        <path id="DejaVuSans-30" d="M 2034 4250 
Q 1547 4250 1301 3770 
Q 1056 3291 1056 2328 
Q 1056 1369 1301 889 
Q 1547 409 2034 409 
Q 2525 409 2770 889 
Q 3016 1369 3016 2328 
Q 3016 3291 2770 3770 
Q 2525 4250 2034 4250 
z
M 2034 4750 
Q 2819 4750 3233 4129 
Q 3647 3509 3647 2328 
Q 3647 1150 3233 529 
Q 2819 -91 2034 -91 
Q 1250 -91 836 529 
Q 422 1150 422 2328 
Q 422 3509 836 4129 
Q 1250 4750 2034 4750 
z
" transform="scale(0.015625)"/>
       </defs>
       <use xlink:href="#DejaVuSans-30"/>
      </g>
     </g>
    </g>
    <g id="xtick_2">
     <g id="line2d_2">
      <g>
       <use xlink:href="#md2da4a30d0" x="100.211235" y="171.16" style="stroke: #000000; stroke-width: 0.8"/>
      </g>
     </g>
     <g id="text_2">
      <!-- 1000 -->
      <g transform="translate(87.486235 185.758437) scale(0.1 -0.1)">
       <defs>
        <path id="DejaVuSans-31" d="M 794 531 
L 1825 531 
L 1825 4091 
L 703 3866 
L 703 4441 
L 1819 4666 
L 2450 4666 
L 2450 531 
L 3481 531 
L 3481 0 
L 794 0 
L 794 531 
z
" transform="scale(0.015625)"/>
       </defs>
       <use xlink:href="#DejaVuSans-31"/>
       <use xlink:href="#DejaVuSans-30" x="63.623047"/>
       <use xlink:href="#DejaVuSans-30" x="127.246094"/>
       <use xlink:href="#DejaVuSans-30" x="190.869141"/>
      </g>
     </g>
    </g>
    <g id="xtick_3">
     <g id="line2d_3">
      <g>
       <use xlink:href="#md2da4a30d0" x="159.27247" y="171.16" style="stroke: #000000; stroke-width: 0.8"/>
      </g>
     </g>
     <g id="text_3">
      <!-- 2000 -->
      <g transform="translate(146.54747 185.758437) scale(0.1 -0.1)">
       <defs>
        <path id="DejaVuSans-32" d="M 1228 531 
L 3431 531 
L 3431 0 
L 469 0 
L 469 531 
Q 828 903 1448 1529 
Q 2069 2156 2228 2338 
Q 2531 2678 2651 2914 
Q 2772 3150 2772 3378 
Q 2772 3750 2511 3984 
Q 2250 4219 1831 4219 
Q 1534 4219 1204 4116 
Q 875 4013 500 3803 
L 500 4441 
Q 881 4594 1212 4672 
Q 1544 4750 1819 4750 
Q 2544 4750 2975 4387 
Q 3406 4025 3406 3419 
Q 3406 3131 3298 2873 
Q 3191 2616 2906 2266 
Q 2828 2175 2409 1742 
Q 1991 1309 1228 531 
z
" transform="scale(0.015625)"/>
       </defs>
       <use xlink:href="#DejaVuSans-32"/>
       <use xlink:href="#DejaVuSans-30" x="63.623047"/>
       <use xlink:href="#DejaVuSans-30" x="127.246094"/>
       <use xlink:href="#DejaVuSans-30" x="190.869141"/>
      </g>
     </g>
    </g>
    <g id="xtick_4">
     <g id="line2d_4">
      <g>
       <use xlink:href="#md2da4a30d0" x="218.333705" y="171.16" style="stroke: #000000; stroke-width: 0.8"/>
      </g>
     </g>
     <g id="text_4">
      <!-- 3000 -->
      <g transform="translate(205.608705 185.758437) scale(0.1 -0.1)">
       <defs>
        <path id="DejaVuSans-33" d="M 2597 2516 
Q 3050 2419 3304 2112 
Q 3559 1806 3559 1356 
Q 3559 666 3084 287 
Q 2609 -91 1734 -91 
Q 1441 -91 1130 -33 
Q 819 25 488 141 
L 488 750 
Q 750 597 1062 519 
Q 1375 441 1716 441 
Q 2309 441 2620 675 
Q 2931 909 2931 1356 
Q 2931 1769 2642 2001 
Q 2353 2234 1838 2234 
L 1294 2234 
L 1294 2753 
L 1863 2753 
Q 2328 2753 2575 2939 
Q 2822 3125 2822 3475 
Q 2822 3834 2567 4026 
Q 2313 4219 1838 4219 
Q 1578 4219 1281 4162 
Q 984 4106 628 3988 
L 628 4550 
Q 988 4650 1302 4700 
Q 1616 4750 1894 4750 
Q 2613 4750 3031 4423 
Q 3450 4097 3450 3541 
Q 3450 3153 3228 2886 
Q 3006 2619 2597 2516 
z
" transform="scale(0.015625)"/>
       </defs>
       <use xlink:href="#DejaVuSans-33"/>
       <use xlink:href="#DejaVuSans-30" x="63.623047"/>
       <use xlink:href="#DejaVuSans-30" x="127.246094"/>
       <use xlink:href="#DejaVuSans-30" x="190.869141"/>
      </g>
     </g>
    </g>
    <g id="xtick_5">
     <g id="line2d_5">
      <g>
       <use xlink:href="#md2da4a30d0" x="277.39494" y="171.16" style="stroke: #000000; stroke-width: 0.8"/>
      </g>
     </g>
     <g id="text_5">
      <!-- 4000 -->
      <g transform="translate(264.66994 185.758437) scale(0.1 -0.1)">
       <defs>
        <path id="DejaVuSans-34" d="M 2419 4116 
L 825 1625 
L 2419 1625 
L 2419 4116 
z
M 2253 4666 
L 3047 4666 
L 3047 1625 
L 3713 1625 
L 3713 1100 
L 3047 1100 
L 3047 0 
L 2419 0 
L 2419 1100 
L 313 1100 
L 313 1709 
L 2253 4666 
z
" transform="scale(0.015625)"/>
       </defs>
       <use xlink:href="#DejaVuSans-34"/>
       <use xlink:href="#DejaVuSans-30" x="63.623047"/>
       <use xlink:href="#DejaVuSans-30" x="127.246094"/>
       <use xlink:href="#DejaVuSans-30" x="190.869141"/>
      </g>
     </g>
    </g>
    <g id="xtick_6">
     <g id="line2d_6">
      <g>
       <use xlink:href="#md2da4a30d0" x="336.456175" y="171.16" style="stroke: #000000; stroke-width: 0.8"/>
      </g>
     </g>
     <g id="text_6">
      <!-- 5000 -->
      <g transform="translate(323.731175 185.758437) scale(0.1 -0.1)">
       <defs>
        <path id="DejaVuSans-35" d="M 691 4666 
L 3169 4666 
L 3169 4134 
L 1269 4134 
L 1269 2991 
Q 1406 3038 1543 3061 
Q 1681 3084 1819 3084 
Q 2600 3084 3056 2656 
Q 3513 2228 3513 1497 
Q 3513 744 3044 326 
Q 2575 -91 1722 -91 
Q 1428 -91 1123 -41 
Q 819 9 494 109 
L 494 744 
Q 775 591 1075 516 
Q 1375 441 1709 441 
Q 2250 441 2565 725 
Q 2881 1009 2881 1497 
Q 2881 1984 2565 2268 
Q 2250 2553 1709 2553 
Q 1456 2553 1204 2497 
Q 953 2441 691 2322 
L 691 4666 
z
" transform="scale(0.015625)"/>
       </defs>
       <use xlink:href="#DejaVuSans-35"/>
       <use xlink:href="#DejaVuSans-30" x="63.623047"/>
       <use xlink:href="#DejaVuSans-30" x="127.246094"/>
       <use xlink:href="#DejaVuSans-30" x="190.869141"/>
      </g>
     </g>
    </g>
    <g id="text_7">
     <!-- Episode -->
     <g transform="translate(166.388305 200.95625) scale(0.12 -0.12)">
      <defs>
       <path id="DejaVuSans-45" d="M 628 4666 
L 3578 4666 
L 3578 4134 
L 1259 4134 
L 1259 2753 
L 3481 2753 
L 3481 2222 
L 1259 2222 
L 1259 531 
L 3634 531 
L 3634 0 
L 628 0 
L 628 4666 
z
" transform="scale(0.015625)"/>
       <path id="DejaVuSans-70" d="M 1159 525 
L 1159 -1331 
L 581 -1331 
L 581 3500 
L 1159 3500 
L 1159 2969 
Q 1341 3281 1617 3432 
Q 1894 3584 2278 3584 
Q 2916 3584 3314 3078 
Q 3713 2572 3713 1747 
Q 3713 922 3314 415 
Q 2916 -91 2278 -91 
Q 1894 -91 1617 61 
Q 1341 213 1159 525 
z
M 3116 1747 
Q 3116 2381 2855 2742 
Q 2594 3103 2138 3103 
Q 1681 3103 1420 2742 
Q 1159 2381 1159 1747 
Q 1159 1113 1420 752 
Q 1681 391 2138 391 
Q 2594 391 2855 752 
Q 3116 1113 3116 1747 
z
" transform="scale(0.015625)"/>
       <path id="DejaVuSans-69" d="M 603 3500 
L 1178 3500 
L 1178 0 
L 603 0 
L 603 3500 
z
M 603 4863 
L 1178 4863 
L 1178 4134 
L 603 4134 
L 603 4863 
z
" transform="scale(0.015625)"/>
       <path id="DejaVuSans-73" d="M 2834 3397 
L 2834 2853 
Q 2591 2978 2328 3040 
Q 2066 3103 1784 3103 
Q 1356 3103 1142 2972 
Q 928 2841 928 2578 
Q 928 2378 1081 2264 
Q 1234 2150 1697 2047 
L 1894 2003 
Q 2506 1872 2764 1633 
Q 3022 1394 3022 966 
Q 3022 478 2636 193 
Q 2250 -91 1575 -91 
Q 1294 -91 989 -36 
Q 684 19 347 128 
L 347 722 
Q 666 556 975 473 
Q 1284 391 1588 391 
Q 1994 391 2212 530 
Q 2431 669 2431 922 
Q 2431 1156 2273 1281 
Q 2116 1406 1581 1522 
L 1381 1569 
Q 847 1681 609 1914 
Q 372 2147 372 2553 
Q 372 3047 722 3315 
Q 1072 3584 1716 3584 
Q 2034 3584 2315 3537 
Q 2597 3491 2834 3397 
z
" transform="scale(0.015625)"/>
       <path id="DejaVuSans-6f" d="M 1959 3097 
Q 1497 3097 1228 2736 
Q 959 2375 959 1747 
Q 959 1119 1226 758 
Q 1494 397 1959 397 
Q 2419 397 2687 759 
Q 2956 1122 2956 1747 
Q 2956 2369 2687 2733 
Q 2419 3097 1959 3097 
z
M 1959 3584 
Q 2709 3584 3137 3096 
Q 3566 2609 3566 1747 
Q 3566 888 3137 398 
Q 2709 -91 1959 -91 
Q 1206 -91 779 398 
Q 353 888 353 1747 
Q 353 2609 779 3096 
Q 1206 3584 1959 3584 
z
" transform="scale(0.015625)"/>
       <path id="DejaVuSans-64" d="M 2906 2969 
L 2906 4863 
L 3481 4863 
L 3481 0 
L 2906 0 
L 2906 525 
Q 2725 213 2448 61 
Q 2172 -91 1784 -91 
Q 1150 -91 751 415 
Q 353 922 353 1747 
Q 353 2572 751 3078 
Q 1150 3584 1784 3584 
Q 2172 3584 2448 3432 
Q 2725 3281 2906 2969 
z
M 947 1747 
Q 947 1113 1208 752 
Q 1469 391 1925 391 
Q 2381 391 2643 752 
Q 2906 1113 2906 1747 
Q 2906 2381 2643 2742 
Q 2381 3103 1925 3103 
Q 1469 3103 1208 2742 
Q 947 2381 947 1747 
z
" transform="scale(0.015625)"/>
       <path id="DejaVuSans-65" d="M 3597 1894 
L 3597 1613 
L 953 1613 
Q 991 1019 1311 708 
Q 1631 397 2203 397 
Q 2534 397 2845 478 
Q 3156 559 3463 722 
L 3463 178 
Q 3153 47 2828 -22 
Q 2503 -91 2169 -91 
Q 1331 -91 842 396 
Q 353 884 353 1716 
Q 353 2575 817 3079 
Q 1281 3584 2069 3584 
Q 2775 3584 3186 3129 
Q 3597 2675 3597 1894 
z
M 3022 2063 
Q 3016 2534 2758 2815 
Q 2500 3097 2075 3097 
Q 1594 3097 1305 2825 
Q 1016 2553 972 2059 
L 3022 2063 
z
" transform="scale(0.015625)"/>
      </defs>
      <use xlink:href="#DejaVuSans-45"/>
      <use xlink:href="#DejaVuSans-70" x="63.183594"/>
      <use xlink:href="#DejaVuSans-69" x="126.660156"/>
      <use xlink:href="#DejaVuSans-73" x="154.443359"/>
      <use xlink:href="#DejaVuSans-6f" x="206.542969"/>
      <use xlink:href="#DejaVuSans-64" x="267.724609"/>
      <use xlink:href="#DejaVuSans-65" x="331.201172"/>
     </g>
    </g>
   </g>
   <g id="matplotlib.axis_2">
    <g id="ytick_1">
     <g id="line2d_7">
      <defs>
       <path id="m810ec7887d" d="M 0 0 
L -3.5 0 
" style="stroke: #000000; stroke-width: 0.8"/>
      </defs>
      <g>
       <use xlink:href="#m810ec7887d" x="41.15" y="171.16" style="stroke: #000000; stroke-width: 0.8"/>
      </g>
     </g>
     <g id="text_8">
      <!-- 0 -->
      <g transform="translate(27.7875 174.959219) scale(0.1 -0.1)">
       <use xlink:href="#DejaVuSans-30"/>
      </g>
     </g>
    </g>
    <g id="ytick_2">
     <g id="line2d_8">
      <g>
       <use xlink:href="#m810ec7887d" x="41.15" y="136.765838" style="stroke: #000000; stroke-width: 0.8"/>
      </g>
     </g>
     <g id="text_9">
      <!-- 1 -->
      <g transform="translate(27.7875 140.565057) scale(0.1 -0.1)">
       <use xlink:href="#DejaVuSans-31"/>
      </g>
     </g>
    </g>
    <g id="ytick_3">
     <g id="line2d_9">
      <g>
       <use xlink:href="#m810ec7887d" x="41.15" y="102.371676" style="stroke: #000000; stroke-width: 0.8"/>
      </g>
     </g>
     <g id="text_10">
      <!-- 2 -->
      <g transform="translate(27.7875 106.170895) scale(0.1 -0.1)">
       <use xlink:href="#DejaVuSans-32"/>
      </g>
     </g>
    </g>
    <g id="ytick_4">
     <g id="line2d_10">
      <g>
       <use xlink:href="#m810ec7887d" x="41.15" y="67.977514" style="stroke: #000000; stroke-width: 0.8"/>
      </g>
     </g>
     <g id="text_11">
      <!-- 3 -->
      <g transform="translate(27.7875 71.776733) scale(0.1 -0.1)">
       <use xlink:href="#DejaVuSans-33"/>
      </g>
     </g>
    </g>
    <g id="ytick_5">
     <g id="line2d_11">
      <g>
       <use xlink:href="#m810ec7887d" x="41.15" y="33.583352" style="stroke: #000000; stroke-width: 0.8"/>
      </g>
     </g>
     <g id="text_12">
      <!-- 4 -->
      <g transform="translate(27.7875 37.382571) scale(0.1 -0.1)">
       <use xlink:href="#DejaVuSans-34"/>
      </g>
     </g>
    </g>
    <g id="text_13">
     <!-- Peacefulness (P) -->
     <g transform="translate(21.291875 140.27375) rotate(-90) scale(0.12 -0.12)">
      <defs>
       <path id="DejaVuSans-50" d="M 1259 4147 
L 1259 2394 
L 2053 2394 
Q 2494 2394 2734 2622 
Q 2975 2850 2975 3272 
Q 2975 3691 2734 3919 
Q 2494 4147 2053 4147 
L 1259 4147 
z
M 628 4666 
L 2053 4666 
Q 2838 4666 3239 4311 
Q 3641 3956 3641 3272 
Q 3641 2581 3239 2228 
Q 2838 1875 2053 1875 
L 1259 1875 
L 1259 0 
L 628 0 
L 628 4666 
z
" transform="scale(0.015625)"/>
       <path id="DejaVuSans-61" d="M 2194 1759 
Q 1497 1759 1228 1600 
Q 959 1441 959 1056 
Q 959 750 1161 570 
Q 1363 391 1709 391 
Q 2188 391 2477 730 
Q 2766 1069 2766 1631 
L 2766 1759 
L 2194 1759 
z
M 3341 1997 
L 3341 0 
L 2766 0 
L 2766 531 
Q 2569 213 2275 61 
Q 1981 -91 1556 -91 
Q 1019 -91 701 211 
Q 384 513 384 1019 
Q 384 1609 779 1909 
Q 1175 2209 1959 2209 
L 2766 2209 
L 2766 2266 
Q 2766 2663 2505 2880 
Q 2244 3097 1772 3097 
Q 1472 3097 1187 3025 
Q 903 2953 641 2809 
L 641 3341 
Q 956 3463 1253 3523 
Q 1550 3584 1831 3584 
Q 2591 3584 2966 3190 
Q 3341 2797 3341 1997 
z
" transform="scale(0.015625)"/>
       <path id="DejaVuSans-63" d="M 3122 3366 
L 3122 2828 
Q 2878 2963 2633 3030 
Q 2388 3097 2138 3097 
Q 1578 3097 1268 2742 
Q 959 2388 959 1747 
Q 959 1106 1268 751 
Q 1578 397 2138 397 
Q 2388 397 2633 464 
Q 2878 531 3122 666 
L 3122 134 
Q 2881 22 2623 -34 
Q 2366 -91 2075 -91 
Q 1284 -91 818 406 
Q 353 903 353 1747 
Q 353 2603 823 3093 
Q 1294 3584 2113 3584 
Q 2378 3584 2631 3529 
Q 2884 3475 3122 3366 
z
" transform="scale(0.015625)"/>
       <path id="DejaVuSans-66" d="M 2375 4863 
L 2375 4384 
L 1825 4384 
Q 1516 4384 1395 4259 
Q 1275 4134 1275 3809 
L 1275 3500 
L 2222 3500 
L 2222 3053 
L 1275 3053 
L 1275 0 
L 697 0 
L 697 3053 
L 147 3053 
L 147 3500 
L 697 3500 
L 697 3744 
Q 697 4328 969 4595 
Q 1241 4863 1831 4863 
L 2375 4863 
z
" transform="scale(0.015625)"/>
       <path id="DejaVuSans-75" d="M 544 1381 
L 544 3500 
L 1119 3500 
L 1119 1403 
Q 1119 906 1312 657 
Q 1506 409 1894 409 
Q 2359 409 2629 706 
Q 2900 1003 2900 1516 
L 2900 3500 
L 3475 3500 
L 3475 0 
L 2900 0 
L 2900 538 
Q 2691 219 2414 64 
Q 2138 -91 1772 -91 
Q 1169 -91 856 284 
Q 544 659 544 1381 
z
M 1991 3584 
L 1991 3584 
z
" transform="scale(0.015625)"/>
       <path id="DejaVuSans-6c" d="M 603 4863 
L 1178 4863 
L 1178 0 
L 603 0 
L 603 4863 
z
" transform="scale(0.015625)"/>
       <path id="DejaVuSans-6e" d="M 3513 2113 
L 3513 0 
L 2938 0 
L 2938 2094 
Q 2938 2591 2744 2837 
Q 2550 3084 2163 3084 
Q 1697 3084 1428 2787 
Q 1159 2491 1159 1978 
L 1159 0 
L 581 0 
L 581 3500 
L 1159 3500 
L 1159 2956 
Q 1366 3272 1645 3428 
Q 1925 3584 2291 3584 
Q 2894 3584 3203 3211 
Q 3513 2838 3513 2113 
z
" transform="scale(0.015625)"/>
       <path id="DejaVuSans-20" transform="scale(0.015625)"/>
       <path id="DejaVuSans-28" d="M 1984 4856 
Q 1566 4138 1362 3434 
Q 1159 2731 1159 2009 
Q 1159 1288 1364 580 
Q 1569 -128 1984 -844 
L 1484 -844 
Q 1016 -109 783 600 
Q 550 1309 550 2009 
Q 550 2706 781 3412 
Q 1013 4119 1484 4856 
L 1984 4856 
z
" transform="scale(0.015625)"/>
       <path id="DejaVuSans-29" d="M 513 4856 
L 1013 4856 
Q 1481 4119 1714 3412 
Q 1947 2706 1947 2009 
Q 1947 1309 1714 600 
Q 1481 -109 1013 -844 
L 513 -844 
Q 928 -128 1133 580 
Q 1338 1288 1338 2009 
Q 1338 2731 1133 3434 
Q 928 4138 513 4856 
z
" transform="scale(0.015625)"/>
      </defs>
      <use xlink:href="#DejaVuSans-50"/>
      <use xlink:href="#DejaVuSans-65" x="56.677734"/>
      <use xlink:href="#DejaVuSans-61" x="118.201172"/>
      <use xlink:href="#DejaVuSans-63" x="179.480469"/>
      <use xlink:href="#DejaVuSans-65" x="234.460938"/>
      <use xlink:href="#DejaVuSans-66" x="295.984375"/>
      <use xlink:href="#DejaVuSans-75" x="331.189453"/>
      <use xlink:href="#DejaVuSans-6c" x="394.568359"/>
      <use xlink:href="#DejaVuSans-6e" x="422.351562"/>
      <use xlink:href="#DejaVuSans-65" x="485.730469"/>
      <use xlink:href="#DejaVuSans-73" x="547.253906"/>
      <use xlink:href="#DejaVuSans-73" x="599.353516"/>
      <use xlink:href="#DejaVuSans-20" x="651.453125"/>
      <use xlink:href="#DejaVuSans-28" x="683.240234"/>
      <use xlink:href="#DejaVuSans-50" x="722.253906"/>
      <use xlink:href="#DejaVuSans-29" x="782.556641"/>
     </g>
    </g>
   </g>
   <g id="line2d_12">
    <path d="M 41.15 39.362395 
L 41.740612 39.087104 
L 41.976857 39.509308 
L 42.09498 39.580362 
L 42.154041 39.519606 
L 42.213102 39.605076 
L 42.331225 39.891351 
L 42.390286 39.727275 
L 42.56747 39.663086 
L 42.744653 39.8838 
L 42.862776 39.78048 
L 43.03996 39.942153 
L 43.099021 39.934945 
L 43.335266 39.611598 
L 43.453388 39.446492 
L 43.689633 39.810686 
L 43.866817 39.692263 
L 44.103062 39.840549 
L 44.398368 39.828535 
L 44.457429 39.957256 
L 44.51649 39.928766 
L 44.811797 39.905425 
L 44.98898 39.5886 
L 45.048042 39.679219 
L 45.166164 39.356216 
L 45.225225 39.45576 
L 45.284286 39.513084 
L 45.46147 39.382304 
L 45.697715 39.664459 
L 45.756776 39.584481 
L 46.052083 39.534366 
L 46.288327 39.247748 
L 46.40645 39.176351 
L 46.642695 39.225779 
L 46.701756 39.181843 
L 46.87894 39.565602 
L 46.938001 39.455074 
L 47.115185 39.834028 
L 47.35143 40.031742 
L 47.528613 39.663086 
L 48.001103 40.105542 
L 48.473593 39.295804 
L 48.532654 39.386423 
L 48.650777 39.1204 
L 48.709838 39.203125 
L 48.827961 39.053809 
L 49.005144 39.333905 
L 49.123267 39.392258 
L 49.477634 38.974173 
L 49.536695 38.871197 
L 49.595757 38.934013 
L 49.654818 38.963876 
L 49.713879 39.156442 
L 49.77294 38.990993 
L 49.891063 38.91685 
L 50.186369 39.153009 
L 50.71792 39.238137 
L 50.776981 39.315712 
L 50.836043 39.22166 
L 51.072287 38.882524 
L 51.131349 39.027035 
L 51.308532 39.205871 
L 51.426655 38.993396 
L 51.485716 39.026005 
L 51.603839 39.029781 
L 51.6629 38.875659 
L 51.721961 38.908955 
L 52.194451 39.293401 
L 52.253512 39.532306 
L 52.312573 39.464685 
L 52.371635 39.240539 
L 52.430696 39.42624 
L 52.666941 39.514457 
L 53.080369 39.244315 
L 53.257553 39.001291 
L 53.375676 39.612285 
L 53.434737 39.583795 
L 53.670982 39.391915 
L 53.730043 39.433792 
L 53.789104 39.29649 
L 53.848166 39.362052 
L 53.966288 39.446836 
L 54.143472 38.970398 
L 54.202533 39.075434 
L 54.438778 39.334248 
L 54.5569 39.306444 
L 54.615962 39.390885 
L 54.675023 39.322921 
L 54.911268 39.008156 
L 55.206574 39.172918 
L 55.442819 38.782294 
L 55.560941 38.713986 
L 55.620003 38.803919 
L 55.856248 38.544418 
L 56.033431 38.596936 
L 56.092492 38.673825 
L 56.151554 38.613412 
L 56.210615 38.517644 
L 56.269676 38.577714 
L 56.860289 39.132071 
L 56.91935 39.419032 
L 56.978411 39.372693 
L 57.273717 39.290311 
L 57.569023 38.939848 
L 57.805268 38.814217 
L 57.982452 38.91788 
L 58.159636 38.714673 
L 58.336819 38.852661 
L 58.454942 38.793278 
L 58.809309 38.787786 
L 59.104615 38.293155 
L 59.163677 38.412265 
L 59.222738 38.640186 
L 59.281799 38.606204 
L 59.458983 38.377253 
L 59.81335 38.078278 
L 59.931473 38.144869 
L 60.167718 38.724284 
L 60.226779 38.692361 
L 60.344901 38.674512 
L 60.522085 38.512839 
L 60.640208 38.627486 
L 60.75833 38.453112 
L 60.994575 38.284231 
L 61.112697 38.15757 
L 61.171759 38.216266 
L 61.467065 38.346703 
L 61.526126 38.233086 
L 61.70331 38.552656 
L 61.939555 38.529315 
L 61.998616 38.396132 
L 62.234861 38.884927 
L 62.352983 38.754833 
L 62.530167 38.966279 
L 62.766412 39.061017 
L 62.825473 38.941221 
L 62.884534 39.069255 
L 63.061718 38.863989 
L 63.238902 38.831379 
L 63.297963 38.752087 
L 63.475147 38.922342 
L 63.652331 38.904149 
L 63.947637 38.535493 
L 64.006698 38.598652 
L 64.065759 38.443501 
L 64.12482 38.539612 
L 64.242943 38.654946 
L 64.361065 38.582863 
L 64.420127 38.570849 
L 64.656372 39.039049 
L 64.833555 38.792248 
L 65.010739 39.125549 
L 65.0698 38.947056 
L 65.601351 39.075777 
L 65.837596 38.703002 
L 65.955719 38.662155 
L 66.132902 38.526912 
L 66.310086 38.543388 
L 66.369147 38.339152 
L 66.428209 38.367642 
L 66.48727 38.34533 
L 66.664454 38.568446 
L 66.841637 38.489154 
L 67.018821 38.524853 
L 67.196005 38.879435 
L 67.373188 38.947056 
L 67.786617 39.278641 
L 68.140984 39.006783 
L 68.259107 38.959757 
L 68.377229 38.800143 
L 68.436291 38.928864 
L 68.613474 38.763415 
L 68.90878 38.496706 
L 68.967842 38.560208 
L 69.026903 38.493273 
L 69.085964 38.382402 
L 69.145025 38.415354 
L 69.204087 38.619591 
L 69.263148 38.528972 
L 69.38127 38.396475 
L 69.440332 38.559865 
L 69.499393 38.612383 
L 69.676576 38.355971 
L 69.85376 38.625426 
L 70.149066 38.468559 
L 70.208128 38.571535 
L 70.267189 38.466499 
L 70.444373 38.402654 
L 70.562495 38.630232 
L 70.621556 38.524853 
L 70.79874 38.759639 
L 71.212169 38.686869 
L 71.448414 38.804949 
L 71.507475 38.811814 
L 71.684658 39.057584 
L 71.861842 38.963533 
L 71.920903 38.999574 
L 72.039026 38.728746 
L 72.098087 38.787786 
L 72.570577 38.906552 
L 72.747761 38.977263 
L 73.043067 39.147174 
L 73.220251 38.898657 
L 73.69274 38.44659 
L 73.810863 38.504257 
L 73.928985 38.324735 
L 73.988047 38.401281 
L 74.224292 38.126677 
L 74.342414 38.039833 
L 74.460537 37.840402 
L 74.519598 37.929648 
L 74.578659 37.691429 
L 74.63772 37.837999 
L 75.11021 38.058712 
L 75.169271 37.896696 
L 75.228333 37.950587 
L 75.405516 38.017521 
L 75.464578 37.882622 
L 75.523639 37.988688 
L 75.5827 37.933424 
L 75.878006 38.361463 
L 76.05519 38.28835 
L 76.232374 38.396132 
L 76.291435 38.211461 
L 76.350496 38.250935 
L 76.52768 38.249562 
L 76.704863 38.415697 
L 76.882047 38.673139 
L 76.941108 38.539956 
L 77.00017 38.519017 
L 77.059231 38.31684 
L 77.118292 38.339152 
L 77.295476 38.360777 
L 77.708904 38.396132 
L 77.767966 38.418443 
L 77.827027 38.650827 
L 77.886088 38.632635 
L 78.122333 38.554372 
L 78.358578 38.978293 
L 78.476701 38.942937 
L 78.653884 39.156099 
L 78.772007 39.051749 
L 78.831068 39.179783 
L 78.890129 39.063077 
L 79.008252 39.218914 
L 79.126374 39.098775 
L 79.185435 39.150263 
L 79.244497 39.026348 
L 79.303558 39.200379 
L 79.362619 39.172575 
L 79.657925 39.334935 
L 79.835109 39.588257 
L 80.130415 39.464342 
L 80.248538 39.490429 
L 80.425721 39.6751 
L 80.484782 39.643864 
L 80.602905 39.877278 
L 80.661966 39.824073 
L 80.83915 39.758511 
L 80.957272 39.856682 
L 81.134456 39.827506 
L 81.252579 40.035862 
L 81.31164 39.903022 
L 81.370701 40.004282 
L 81.488823 40.046846 
L 81.666007 39.978538 
L 82.079436 40.073276 
L 82.25662 40.111721 
L 82.433803 39.973046 
L 82.847232 39.697412 
L 82.906293 39.765033 
L 82.965354 39.699815 
L 83.142538 39.494205 
L 83.260661 39.653475 
L 83.319722 39.601301 
L 83.496905 39.418689 
L 83.555967 39.463999 
L 83.73315 39.213422 
L 83.851273 39.468461 
L 83.910334 39.366171 
L 84.028457 39.474296 
L 84.087518 39.395347 
L 84.382824 39.320518 
L 84.560008 39.414227 
L 84.914375 39.160561 
L 84.973436 39.220287 
L 85.209681 39.793523 
L 85.268743 39.631164 
L 85.327804 39.72041 
L 85.445926 39.807597 
L 85.564049 39.64661 
L 85.800294 39.97133 
L 85.918416 39.859428 
L 86.0956 40.184148 
L 86.213722 40.100393 
L 86.390906 40.393877 
L 86.686212 40.252799 
L 86.863396 40.375341 
L 86.981518 40.45017 
L 87.099641 40.40692 
L 87.158702 40.514016 
L 87.217763 40.43541 
L 87.276825 40.479004 
L 87.513069 40.183461 
L 87.926498 40.222592 
L 88.044621 40.085977 
L 88.103682 40.175566 
L 88.162743 40.119959 
L 88.339927 39.985746 
L 100.211235 40.203027 
L 100.329357 39.938034 
L 100.506541 40.150165 
L 100.565602 40.01252 
L 100.624664 40.055084 
L 100.683725 40.022818 
L 100.979031 40.613903 
L 101.274337 40.244217 
L 101.333398 40.089409 
L 101.39246 40.177969 
L 101.510582 40.240442 
L 101.924011 40.516419 
L 102.101195 40.389071 
L 102.691807 40.410696 
L 102.750868 40.557953 
L 102.809929 40.484153 
L 102.928052 40.412412 
L 103.046174 40.6853 
L 103.105235 40.562072 
L 103.577725 40.366416 
L 103.636787 40.4385 
L 103.695848 40.368819 
L 103.932093 40.285751 
L 104.109276 40.316301 
L 104.345521 40.229114 
L 104.463644 40.284035 
L 104.818011 39.923274 
L 104.936134 39.945585 
L 104.995195 39.8227 
L 105.054256 39.853593 
L 105.526746 39.961375 
L 105.585807 39.827162 
L 105.644869 39.870069 
L 105.70393 40.030713 
L 105.762991 39.93975 
L 105.881114 39.908514 
L 105.999236 39.908857 
L 106.17642 39.890665 
L 106.412665 40.180029 
L 106.471726 40.268588 
L 106.707971 39.99879 
L 106.826093 40.042727 
L 106.885155 40.045473 
L 106.944216 39.898559 
L 107.003277 40.004282 
L 107.062338 40.028653 
L 107.121399 39.923617 
L 107.180461 39.957943 
L 107.239522 40.009774 
L 107.298583 39.918468 
L 107.416706 39.921901 
L 107.593889 40.018012 
L 107.712012 39.982657 
L 107.771073 40.076709 
L 107.830134 39.984717 
L 108.007318 39.992268 
L 108.243563 39.437911 
L 108.302624 39.506219 
L 108.420747 39.408048 
L 108.59793 39.57384 
L 108.656992 39.550156 
L 108.716053 39.773615 
L 108.775114 39.64764 
L 109.188543 39.614001 
L 109.483849 39.693293 
L 109.601971 39.661027 
L 109.661033 39.860801 
L 109.720094 39.695009 
L 109.897278 39.654848 
L 110.192584 40.008058 
L 110.606012 39.474639 
L 110.783196 39.699815 
L 110.96038 39.517546 
L 111.019441 39.561826 
L 111.078502 39.468118 
L 111.43287 39.117311 
L 111.491931 39.2807 
L 111.550992 39.13413 
L 111.728176 38.786413 
L 112.082543 39.271089 
L 112.259727 39.529217 
L 112.377849 39.719724 
L 112.436911 39.623612 
L 112.791278 38.966965 
L 113.145645 39.384707 
L 113.263768 39.271776 
L 113.38189 39.053809 
L 113.440952 39.09088 
L 113.677197 39.056211 
L 113.736258 39.160218 
L 113.795319 39.110789 
L 113.913441 39.052779 
L 114.090625 39.162277 
L 114.149686 38.98962 
L 114.208748 39.059987 
L 114.385931 39.316056 
L 114.976544 39.269373 
L 115.094666 39.55908 
L 115.153727 39.523725 
L 115.508095 39.506562 
L 115.626217 39.510681 
L 115.74434 39.434135 
L 116.098707 39.732767 
L 116.275891 39.456447 
L 116.334952 39.541574 
L 116.394013 39.648327 
L 116.453075 39.608509 
L 116.68932 39.528187 
L 116.748381 39.429673 
L 116.925564 39.582422 
L 117.102748 39.32395 
L 117.457116 39.535739 
L 117.516177 39.393974 
L 117.752422 39.714918 
L 117.811483 39.634596 
L 117.870544 39.682652 
L 117.988667 39.76366 
L 118.047728 39.57384 
L 118.106789 39.669952 
L 118.283973 39.524755 
L 118.402095 39.663086 
L 118.520218 39.47361 
L 118.697402 39.300266 
L 118.756463 39.396034 
L 118.933646 39.22269 
L 119.878626 39.129668 
L 120.173932 39.627388 
L 120.410177 39.279671 
L 120.587361 39.474983 
L 120.823606 39.686428 
L 121.00079 39.529903 
L 121.118912 39.722813 
L 121.177973 39.580362 
L 121.237035 39.560453 
L 121.296096 39.729335 
L 121.355157 39.652789 
L 121.414218 39.608852 
L 121.47328 39.354157 
L 121.532341 39.562513 
L 121.886708 39.289282 
L 122.004831 38.953578 
L 122.063892 39.139622 
L 122.300137 39.42727 
L 122.418259 39.446149 
L 122.595443 39.431046 
L 123.126994 39.957256 
L 123.304178 39.770869 
L 123.363239 39.700158 
L 123.481362 39.878651 
L 123.717607 39.697755 
L 123.835729 39.537112 
L 123.89479 39.604733 
L 124.190096 38.986874 
L 124.249158 38.967652 
L 124.36728 39.184932 
L 124.426341 39.085045 
L 125.016954 38.967308 
L 125.194137 38.887673 
L 125.371321 38.942251 
L 125.725688 38.91582 
L 125.843811 38.784697 
L 126.198178 38.845453 
L 126.552546 38.796024 
L 126.611607 38.696137 
L 126.670668 38.742476 
L 126.729729 38.766504 
L 126.847852 38.448993 
L 126.906913 38.47611 
L 126.965974 38.532404 
L 127.025036 38.452769 
L 127.438464 38.423936 
L 127.556587 38.585952 
L 127.792832 38.262262 
L 127.970015 38.359404 
L 128.029077 38.60792 
L 128.088138 38.591787 
L 128.265322 38.727716 
L 128.501567 38.924058 
L 128.619689 38.972457 
L 128.796873 39.308504 
L 128.974056 39.20896 
L 129.15124 39.143055 
L 129.269363 39.060674 
L 129.328424 39.127265 
L 129.387485 39.03184 
L 129.564669 38.997172 
L 129.682791 39.131728 
L 129.741852 39.082642 
L 130.09622 38.694764 
L 130.214342 38.717419 
L 130.273404 38.617531 
L 130.332465 38.701972 
L 130.864016 38.761355 
L 130.923077 38.75655 
L 131.0412 38.959413 
L 131.277445 38.684466 
L 131.572751 38.992023 
L 131.631812 38.90106 
L 131.868057 38.454485 
L 131.986179 38.15654 
L 132.222424 38.52348 
L 132.576792 38.102305 
L 132.694914 38.132512 
L 132.813037 38.101276 
L 132.931159 37.951273 
L 133.049282 38.093038 
L 133.108343 38.018894 
L 133.876139 37.982509 
L 133.9352 38.062831 
L 134.112384 37.902531 
L 134.171445 37.92038 
L 134.230506 38.064891 
L 134.289568 37.98148 
L 134.584874 37.592228 
L 134.643935 37.526667 
L 134.702996 37.626211 
L 134.762057 37.655731 
L 134.88018 37.532502 
L 134.998302 37.797152 
L 135.057364 37.717517 
L 135.116425 37.631703 
L 135.175486 37.716143 
L 135.411731 37.789257 
L 135.470792 37.660536 
L 135.529853 37.709965 
L 135.707037 37.896352 
L 136.356711 38.363179 
L 136.592956 38.042236 
L 136.829201 38.251965 
L 137.006384 38.672795 
L 137.419813 38.606547 
L 137.77418 38.738014 
L 137.892303 38.516271 
L 137.951364 38.56467 
L 138.24667 38.839961 
L 138.364793 38.964906 
L 138.423854 39.070285 
L 138.541976 38.94637 
L 138.601038 39.086075 
L 138.660099 38.974173 
L 138.778221 38.924745 
L 139.250711 39.561826 
L 139.309773 39.430016 
L 139.427895 39.372006 
L 139.486956 39.483221 
L 139.841324 38.877719 
L 140.018507 39.028408 
L 140.254752 38.72497 
L 140.372875 39.053809 
L 140.431936 38.943281 
L 140.60912 38.769937 
L 140.845365 38.883897 
L 140.904426 38.71021 
L 140.963487 38.799457 
L 141.022548 38.890762 
L 141.08161 38.767877 
L 141.140671 38.90106 
L 141.317855 39.023259 
L 141.554099 38.706434 
L 141.790344 38.977606 
L 141.849406 38.913417 
L 141.908467 39.073031 
L 141.967528 39.041108 
L 142.026589 39.029094 
L 142.203773 39.405302 
L 142.262834 39.375095 
L 142.380957 39.430016 
L 142.55814 39.626358 
L 142.735324 39.566975 
L 142.971569 39.487683 
L 143.148753 39.608852 
L 143.207814 39.692263 
L 143.266875 39.606449 
L 143.444059 39.523382 
L 143.916549 39.871099 
L 143.97561 39.658281 
L 144.034671 39.692263 
L 144.270916 40.006342 
L 144.329978 39.920871 
L 144.389039 39.963435 
L 144.684345 40.074649 
L 144.92059 39.788718 
L 145.215896 40.125794 
L 145.688386 40.357835 
L 145.86557 40.069844 
L 145.924631 40.290214 
L 145.983692 40.207146 
L 146.160876 39.956226 
L 146.515243 39.832311 
L 146.574304 39.782539 
L 146.751488 40.168701 
L 146.810549 40.153941 
L 147.105856 40.472825 
L 147.401162 40.362984 
L 159.27247 40.53976 
L 159.331531 40.317674 
L 159.390592 40.475571 
L 159.685899 40.322136 
L 159.804021 40.550401 
L 159.863082 40.433351 
L 160.099327 40.33312 
L 160.276511 40.577175 
L 160.335572 40.534268 
L 160.68994 40.364013 
L 160.926185 40.24765 
L 161.162429 39.912633 
L 161.280552 39.8965 
L 161.516797 39.764347 
L 161.693981 39.724186 
L 161.812103 39.54432 
L 161.930226 39.63494 
L 162.16647 39.15198 
L 162.284593 39.162964 
L 162.402715 39.024289 
L 162.461777 39.06033 
L 162.63896 39.438254 
L 162.698022 39.393631 
L 162.993328 39.356216 
L 163.170511 39.640432 
L 163.347695 39.982657 
L 163.643001 40.262067 
L 163.879246 40.08735 
L 164.351736 40.530492 
L 164.587981 40.39525 
L 165.355777 40.839078 
L 165.592022 40.479347 
L 166.537002 39.360335 
L 166.596063 39.473953 
L 166.655124 39.387796 
L 166.832308 39.440657 
L 167.009492 39.670295 
L 167.186675 39.757825 
L 167.304798 39.567662 
L 167.600104 39.916752 
L 167.718227 40.011147 
L 167.777288 39.805881 
L 167.836349 39.888262 
L 168.486023 39.593749 
L 168.781329 39.652102 
L 168.958512 40.078082 
L 169.017574 40.046502 
L 169.371941 39.749587 
L 169.667247 39.548783 
L 169.844431 39.585168 
L 169.962553 39.495921 
L 170.021615 39.485967 
L 170.139737 39.769839 
L 170.316921 39.428643 
L 170.435043 39.457133 
L 170.553166 39.288938 
L 170.848472 39.56114 
L 171.025656 39.283446 
L 171.084717 39.348665 
L 171.380023 39.861145 
L 171.557207 39.953137 
L 171.616268 39.827506 
L 171.793452 40.199251 
L 171.852513 40.251426 
L 171.911574 40.170418 
L 172.088758 40.192043 
L 172.147819 40.129913 
L 172.20688 40.188953 
L 172.265942 40.264469 
L 172.325003 40.163552 
L 172.384064 40.074306 
L 172.443125 40.134376 
L 172.797493 40.475571 
L 173.447166 40.573742 
L 173.62435 40.813334 
L 173.919656 40.756011 
L 174.09684 41.145262 
L 174.274024 41.084506 
L 174.510269 40.614246 
L 174.805575 40.560699 
L 174.923697 40.716193 
L 175.337126 40.404174 
L 175.51431 40.249023 
L 175.809616 40.241815 
L 175.868677 40.038264 
L 175.927738 40.175223 
L 176.045861 40.017326 
L 176.104922 40.110691 
L 176.163983 39.946958 
L 176.341167 40.167328 
L 176.695534 40.193072 
L 176.931779 39.849131 
L 177.286147 40.019729 
L 177.404269 39.99982 
L 177.46333 40.300854 
L 177.522392 40.222249 
L 177.994881 40.500972 
L 178.172065 40.338956 
L 178.290188 40.292616 
L 178.762678 40.186551 
L 178.8808 40.092155 
L 179.057984 40.031056 
L 179.235167 40.011834 
L 179.412351 39.943183 
L 179.530474 39.738259 
L 179.589535 40.000506 
L 179.648596 39.817551 
L 179.766719 39.743065 
L 180.239208 40.231517 
L 180.357331 39.99673 
L 180.416392 40.061949 
L 180.475453 40.184834 
L 180.534515 40.07362 
L 180.711698 39.725902 
L 181.125127 39.916065 
L 181.243249 39.891694 
L 181.302311 40.025564 
L 181.361372 39.93872 
L 181.479494 40.119959 
L 181.538556 39.883113 
L 181.597617 39.919155 
L 181.656678 39.898559 
L 181.715739 40.012863 
L 181.892923 39.737916 
L 182.129168 39.736543 
L 182.306352 39.791464 
L 182.483535 39.861145 
L 182.778841 39.867667 
L 182.956025 39.916409 
L 183.015086 39.898903 
L 183.251331 39.417316 
L 183.546638 39.229555 
L 183.723821 39.384363 
L 183.782882 39.304728 
L 183.841944 39.407705 
L 184.019127 39.333905 
L 184.196311 39.474639 
L 184.60974 39.111132 
L 184.845985 39.252553 
L 185.023168 39.381617 
L 185.141291 39.086418 
L 185.200352 39.234018 
L 185.436597 39.264224 
L 185.613781 38.926461 
L 185.790964 38.998545 
L 185.850026 38.980352 
L 185.968148 38.79877 
L 186.263454 39.241912 
L 186.381577 39.29443 
L 186.499699 39.225436 
L 186.617822 39.350038 
L 186.795005 39.144085 
L 187.03125 39.253926 
L 187.149373 39.232645 
L 187.267495 39.41251 
L 187.385618 39.343859 
L 187.739985 39.068912 
L 187.97623 38.985501 
L 188.094353 38.798427 
L 188.389659 39.055868 
L 188.44872 38.995799 
L 188.507781 39.070628 
L 188.803087 39.285849 
L 188.92121 39.217198 
L 189.098394 39.223033 
L 189.216516 39.469834 
L 189.3937 39.20896 
L 189.452761 39.215139 
L 189.629945 39.441344 
L 189.689006 39.449239 
L 189.807128 39.131041 
L 189.86619 39.223033 
L 190.043373 39.345575 
L 190.574925 39.753019 
L 190.633986 39.609882 
L 190.693047 39.64661 
L 190.870231 40.077052 
L 190.988353 40.003252 
L 191.165537 40.176253 
L 191.224598 40.20543 
L 191.401782 40.009431 
L 191.578965 40.224652 
L 191.756149 40.132659 
L 191.81521 40.254515 
L 191.933333 39.926363 
L 191.992394 40.007715 
L 192.405823 40.496167 
L 192.464884 40.425456 
L 192.642068 40.119273 
L 192.701129 40.157717 
L 192.819251 40.097647 
L 192.878313 40.153941 
L 193.114558 39.817895 
L 193.173619 39.98197 
L 193.23268 39.958972 
L 193.291741 39.741692 
L 193.350803 39.962748 
L 193.409864 39.83643 
L 193.70517 39.998103 
L 193.823292 40.004282 
L 194.059537 40.241128 
L 194.472966 40.154971 
L 194.709211 40.2782 
L 194.768272 40.295706 
L 194.945456 40.120646 
L 195.063578 40.142614 
L 195.240762 40.442276 
L 195.358885 40.399025 
L 195.595129 40.440559 
L 195.654191 40.338956 
L 195.831374 40.564131 
L 196.008558 40.260007 
L 196.303864 40.590219 
L 196.362926 40.433351 
L 196.421987 40.518478 
L 196.540109 40.361611 
L 196.59917 40.519508 
L 196.658232 40.542506 
L 196.835415 40.046502 
L 196.894477 40.087693 
L 197.130722 40.371222 
L 197.189783 40.270648 
L 197.248844 40.374311 
L 197.426028 40.718596 
L 197.54415 40.614246 
L 197.662273 40.72958 
L 197.780395 40.925236 
L 197.839456 40.844914 
L 198.01664 40.624201 
L 198.252885 40.887477 
L 198.311946 41.022033 
L 198.371008 40.900178 
L 198.430069 40.81608 
L 198.48913 40.880612 
L 198.725375 41.013452 
L 198.784436 41.12604 
L 198.96162 40.86036 
L 199.256926 40.735072 
L 199.375049 40.881642 
L 199.552232 40.71379 
L 199.670355 40.712074 
L 199.788477 40.713104 
L 199.9066 40.766652 
L 199.965661 40.716193 
L 200.083783 40.796172 
L 200.320028 40.48278 
L 200.37909 40.55246 
L 200.674396 40.571683 
L 200.792518 40.358865 
L 200.910641 40.529119 
L 200.969702 40.39525 
L 201.028763 40.471452 
L 201.146886 40.672256 
L 201.265008 40.864136 
L 201.324069 40.643423 
L 201.383131 40.707955 
L 201.501253 40.756011 
L 201.560314 40.821572 
L 201.796559 41.307622 
L 201.973743 41.146978 
L 202.209988 41.311398 
L 202.32811 40.930041 
L 202.387171 40.951666 
L 202.505294 41.135308 
L 202.682478 40.793082 
L 202.741539 40.919743 
L 202.8006 40.791023 
L 203.27309 41.058762 
L 203.332151 40.982902 
L 203.391212 41.032331 
L 203.568396 40.948234 
L 203.686519 40.741594 
L 203.804641 40.690792 
L 203.981825 40.611844 
L 204.040886 40.475915 
L 204.099947 40.5123 
L 204.277131 40.520194 
L 204.395253 40.56928 
L 204.513376 40.462528 
L 204.69056 40.338613 
L 204.749621 40.374311 
L 204.926805 40.565504 
L 205.044927 40.456006 
L 205.222111 40.79068 
L 205.281172 40.695941 
L 205.340233 40.601203 
L 205.399294 40.747429 
L 205.458356 40.648572 
L 205.635539 40.660586 
L 205.753662 40.808529 
L 205.812723 40.776263 
L 206.048968 40.431291 
L 206.108029 40.561728 
L 206.226152 40.65578 
L 206.403335 40.447768 
L 206.462397 40.459438 
L 218.510889 38.563984 
L 218.688072 38.381715 
L 218.865256 38.460321 
L 218.924317 38.314094 
L 218.983379 38.384461 
L 219.160562 38.597966 
L 219.573991 38.222102 
L 219.633052 38.315124 
L 219.810236 37.942005 
L 219.98742 38.073815 
L 220.046481 38.061801 
L 220.105542 38.175762 
L 220.164603 38.070726 
L 220.223664 38.120155 
L 220.282726 38.046012 
L 220.341787 38.016492 
L 220.459909 38.112603 
L 220.518971 37.998299 
L 220.578032 38.17233 
L 220.637093 38.043952 
L 220.814277 37.880219 
L 221.050522 37.564081 
L 221.168644 37.722665 
L 221.227705 37.650239 
L 221.286767 37.753215 
L 221.345828 37.743261 
L 221.523012 37.860654 
L 221.641134 37.938573 
L 221.818318 37.898755 
L 221.877379 37.822209 
L 221.93644 37.874041 
L 222.172685 38.196014 
L 222.290808 38.119811 
L 222.40893 38.425995 
L 222.704236 38.06695 
L 222.822359 37.902531 
L 222.999543 38.005851 
L 223.117665 38.104022 
L 223.176726 37.973585 
L 223.472032 38.471991 
L 223.708277 38.313407 
L 223.767339 38.434576 
L 223.8264 38.345673 
L 224.003584 38.369701 
L 224.062645 38.221758 
L 224.121706 38.294872 
L 224.180767 38.41913 
L 224.239828 38.278739 
L 224.29889 38.349106 
L 224.417012 38.386177 
L 224.535135 38.461694 
L 224.712318 38.374507 
L 224.948563 38.017865 
L 225.007624 38.067293 
L 225.125747 38.089262 
L 225.243869 38.217982 
L 225.302931 38.14281 
L 225.539176 38.543732 
L 225.598237 38.476797 
L 225.657298 38.554372 
L 225.775421 38.410205 
L 225.834482 38.303796 
L 225.893543 38.399908 
L 226.24791 38.330227 
L 226.306972 38.328854 
L 226.484155 38.195328 
L 226.543217 38.199103 
L 226.602278 38.386521 
L 226.661339 38.326451 
L 226.779462 38.252994 
L 226.838523 38.31581 
L 226.897584 38.2578 
L 226.956645 38.173016 
L 227.015706 38.265352 
L 227.133829 38.363523 
L 227.19289 38.290066 
L 227.251951 38.390297 
L 227.311013 38.375537 
L 227.606319 38.792592 
L 227.783503 38.532061 
L 228.019747 38.583206 
L 228.078809 38.646022 
L 228.13787 38.577027 
L 228.255992 38.395102 
L 228.492237 37.942692 
L 228.551299 37.865803 
L 228.669421 38.027819 
L 228.787544 37.886055 
L 228.846605 37.955049 
L 228.905666 37.902874 
L 229.378156 37.604929 
L 229.437217 37.779302 
L 229.496278 37.671177 
L 229.614401 37.726784 
L 229.732523 37.982853 
L 229.791585 37.957795 
L 230.086891 38.264665 
L 230.323136 38.349449 
L 230.441258 38.385148 
L 230.500319 38.559521 
L 230.559381 38.40437 
L 230.795626 38.427711 
L 231.03187 38.190522 
L 231.149993 38.194641 
L 231.327177 38.419816 
L 231.386238 38.49293 
L 231.445299 38.425995 
L 231.740605 38.312378 
L 231.858728 38.355971 
L 232.331218 38.647395 
L 232.44934 38.396475 
L 232.567463 38.430114 
L 232.626524 38.323705 
L 232.803708 38.492587 
L 233.099014 38.38858 
L 233.276197 38.700599 
L 233.453381 38.655633 
L 233.925871 38.583206 
L 234.162116 38.218669 
L 234.752728 38.985501 
L 234.988973 38.595563 
L 235.166157 38.459634 
L 235.284279 38.491557 
L 235.638647 38.544075 
L 236.111137 37.954019 
L 236.170198 38.015805 
L 236.229259 38.031938 
L 236.406443 37.861684 
L 236.878933 38.331943 
L 236.937994 38.240637 
L 237.115178 38.556775 
L 237.292361 38.429771 
L 237.351423 38.286633 
L 237.410484 38.334689 
L 237.528606 38.278395 
L 237.646729 38.516958 
L 238.001096 38.427025 
L 238.060157 38.529315 
L 238.119219 38.278739 
L 238.17828 38.471991 
L 238.296402 38.487094 
L 238.414525 38.27359 
L 238.473586 38.330227 
L 238.65077 38.471991 
L 238.709831 38.480916 
L 238.887015 38.716046 
L 239.300443 38.82726 
L 239.59575 39.334591 
L 239.654811 39.281387 
L 239.950117 39.555304 
L 240.009178 39.446149 
L 240.186362 39.624985 
L 240.304484 39.63082 
L 240.481668 39.875218 
L 240.776974 39.983 
L 240.895097 39.98609 
L 241.131342 40.151195 
L 241.249464 39.944899 
L 241.308525 39.970986 
L 241.485709 39.759541 
L 241.54477 39.818924 
L 241.603832 39.758855 
L 241.721954 39.577616 
L 241.781015 39.607822 
L 241.840076 39.470177 
L 241.899138 39.561483 
L 242.135383 39.796613 
L 242.312566 39.676473 
L 242.96224 40.142271 
L 243.139424 39.782539 
L 243.257546 39.865264 
L 243.493791 39.689517 
L 243.611914 39.71938 
L 243.789097 39.348322 
L 243.848158 39.55908 
L 243.90722 39.48837 
L 244.143465 39.549126 
L 244.37971 40.02934 
L 244.438771 40.194445 
L 244.497832 40.152568 
L 244.675016 40.303257 
L 244.793138 40.118243 
L 244.911261 40.295362 
L 245.088444 39.980941 
L 245.265628 39.755079 
L 245.324689 39.771212 
L 245.383751 39.665146 
L 245.560934 39.832998 
L 245.85624 39.872129 
L 246.033424 39.63082 
L 246.151547 39.889978 
L 246.210608 39.847758 
L 246.269669 39.91229 
L 246.387792 39.757482 
L 246.505914 39.913663 
L 246.564975 39.759198 
L 246.624036 39.815492 
L 246.742159 39.926363 
L 246.80122 40.125108 
L 246.860281 40.040667 
L 247.096526 40.249709 
L 247.391833 39.934601 
L 247.687139 40.446395 
L 248.21869 40.20234 
L 248.454935 39.77739 
L 248.513996 39.83643 
L 248.750241 39.847758 
L 248.927425 39.589287 
L 249.281792 39.47258 
L 249.340853 39.639745 
L 249.399915 39.484251 
L 249.518037 39.496608 
L 249.754282 39.629791 
L 249.872404 39.596838 
L 249.931466 39.895127 
L 249.990527 39.850504 
L 250.285833 40.134376 
L 250.463017 39.932885 
L 250.522078 40.019729 
L 251.407997 38.435949 
L 251.58518 38.583549 
L 251.703303 38.519017 
L 251.880486 38.410549 
L 252.05767 38.692704 
L 252.116731 38.656319 
L 252.175793 38.709867 
L 252.234854 38.624397 
L 252.352976 38.672452 
L 252.53016 38.518331 
L 252.648282 38.481259 
L 252.707344 38.688928 
L 252.766405 38.617188 
L 252.943589 38.641903 
L 253.120772 38.862272 
L 253.179834 38.961473 
L 253.416079 38.588355 
L 253.47514 38.833439 
L 253.534201 38.724627 
L 253.711385 38.880122 
L 254.301997 38.60998 
L 254.774487 38.525196 
L 254.951671 38.692704 
L 255.010732 38.540299 
L 255.069793 38.57943 
L 255.128854 38.703002 
L 255.187916 38.621994 
L 255.601344 38.620621 
L 255.719467 38.35906 
L 255.778528 38.424279 
L 255.955712 38.281141 
L 256.36914 37.752185 
L 256.487263 37.61248 
L 256.605385 37.860311 
L 256.664446 37.835596 
L 256.900691 37.846924 
L 257.077875 37.945095 
L 257.136936 37.888801 
L 257.195998 38.020954 
L 257.255059 37.922783 
L 257.432243 37.832164 
L 257.609426 37.880906 
L 257.727549 38.082053 
L 257.78661 38.31478 
L 257.845671 38.177478 
L 258.081916 38.044982 
L 258.200039 38.152421 
L 258.318161 38.051847 
L 258.495345 38.311691 
L 258.613467 38.239264 
L 258.672528 38.388237 
L 258.73159 38.350479 
L 258.908773 38.049101 
L 259.263141 38.181254 
L 259.322202 38.035714 
L 259.381263 38.115692 
L 259.912814 38.766161 
L 259.971876 38.644305 
L 260.030937 38.770966 
L 260.68061 39.089164 
L 260.739672 39.258389 
L 260.798733 39.157128 
L 260.857794 39.213422 
L 260.916855 39.060674 
L 260.975917 39.094656 
L 261.034978 39.082299 
L 261.094039 39.214109 
L 261.1531 39.077837 
L 261.448406 39.085731 
L 261.507468 39.180813 
L 261.566529 39.069598 
L 261.62559 39.114222 
L 261.743713 39.020856 
L 261.861835 39.00438 
L 262.039019 38.892479 
L 262.275264 39.122116 
L 262.511509 38.950832 
L 262.57057 38.94534 
L 262.629631 39.113535 
L 262.688692 39.001977 
L 262.747754 38.872913 
L 262.806815 39.004723 
L 262.865876 38.997515 
L 263.161182 39.559423 
L 263.338366 39.225779 
L 263.397427 39.35656 
L 263.692733 39.565602 
L 263.869917 39.503816 
L 263.928978 39.634596 
L 264.047101 39.430016 
L 264.224285 39.479788 
L 264.401468 39.568691 
L 264.460529 39.717664 
L 264.519591 39.628074 
L 264.755836 39.586197 
L 264.933019 39.686428 
L 264.992081 39.70462 
L 265.228326 40.048562 
L 265.523632 39.640432 
L 277.572124 38.814903 
L 277.690246 38.978979 
L 278.044614 38.726343 
L 278.221797 38.799457 
L 278.280858 38.615472 
L 278.33992 38.695794 
L 278.576165 38.776802 
L 278.635226 38.734925 
L 278.753348 38.814217 
L 278.871471 38.646022 
L 279.048655 39.068569 
L 279.166777 38.883211 
L 279.343961 39.059301 
L 279.698328 38.678974 
L 279.757389 38.74076 
L 279.816451 38.792248 
L 279.875512 38.701972 
L 279.993634 38.50769 
L 280.052695 38.581833 
L 280.348002 38.774399 
L 280.466124 38.663871 
L 280.525185 38.765818 
L 280.584247 38.681377 
L 280.76143 38.657006 
L 280.820492 38.615472 
L 281.056736 38.989277 
L 281.23392 38.7387 
L 281.352043 39.025662 
L 281.411104 38.79877 
L 281.470165 38.842364 
L 281.529226 38.947056 
L 281.70641 38.755177 
L 281.765471 38.880808 
L 281.824533 38.788816 
L 281.942655 38.833096 
L 282.237961 38.756893 
L 282.533267 39.235047 
L 282.592329 39.297863 
L 282.65139 39.232988 
L 282.828574 39.112505 
L 282.887635 39.198662 
L 283.005757 38.924401 
L 283.064818 38.947743 
L 283.182941 38.888703 
L 283.419186 38.737671 
L 283.832615 38.90209 
L 284.423227 39.018453 
L 284.541349 39.04969 
L 284.659472 38.985844 
L 284.836656 39.146144 
L 285.0729 39.181843 
L 285.309145 38.982068 
L 285.722574 39.344202 
L 285.840697 39.363768 
L 286.136003 39.914692 
L 286.195064 39.808283 
L 286.372248 39.773615 
L 286.608493 39.684025 
L 286.667554 39.837803 
L 286.726615 39.744095 
L 286.785676 39.776361 
L 286.903799 39.647297 
L 286.96286 39.683339 
L 287.021921 39.958972 
L 287.080982 39.890665 
L 287.317227 39.685398 
L 287.671595 39.54329 
L 287.730656 39.830595 
L 287.789717 39.816522 
L 287.848779 39.833341 
L 288.025962 39.580362 
L 288.203146 39.655878 
L 288.557513 39.761257 
L 288.616575 39.650386 
L 288.793758 39.85325 
L 288.85282 39.8227 
L 288.970942 40.083574 
L 289.030003 39.9703 
L 289.089064 40.07053 
L 289.502493 39.970643 
L 289.620616 39.830595 
L 289.856861 40.04204 
L 290.034044 39.64764 
L 290.093105 39.863547 
L 290.152167 39.759884 
L 290.211228 39.748557 
L 290.270289 39.583108 
L 290.32935 39.644207 
L 290.447473 39.423151 
L 290.624657 39.2807 
L 290.683718 39.426584 
L 290.742779 39.340083 
L 290.80184 39.376468 
L 290.860902 39.250494 
L 290.919963 39.37029 
L 291.038085 39.569035 
L 291.156208 39.302325 
L 291.215269 39.425897 
L 291.392453 39.600614 
L 291.510575 39.623612 
L 291.687759 39.764347 
L 291.805881 39.79318 
L 292.21931 40.024191 
L 292.455555 39.769839 
L 292.632739 39.839176 
L 292.809922 39.651416 
L 292.928045 39.535739 
L 293.046167 39.803135 
L 293.577718 39.262508 
L 293.695841 39.363768 
L 293.813963 39.168113 
L 293.873024 39.242256 
L 293.991147 39.168456 
L 294.345514 38.756893 
L 294.404576 38.81559 
L 294.640821 39.003693 
L 294.699882 38.998201 
L 294.818004 39.145458 
L 294.877065 38.986531 
L 295.054249 39.169142 
L 295.526739 39.242599 
L 295.5858 39.087448 
L 295.644862 39.162621 
L 295.822045 39.257016 
L 296.05829 39.056555 
L 296.471719 39.041795 
L 296.53078 39.211706 
L 296.589841 39.170515 
L 296.707964 39.115938 
L 296.826086 39.021543 
L 296.944209 38.716732 
L 297.062331 38.926118 
L 297.121392 38.76822 
L 297.180454 38.90312 
L 297.298576 39.074404 
L 297.357637 39.041795 
L 297.416699 39.100835 
L 297.47576 39.02017 
L 297.534821 39.059987 
L 297.771066 38.815246 
L 297.94825 38.684123 
L 298.302617 39.07921 
L 298.479801 38.775772 
L 298.656985 39.054152 
L 298.775107 39.026691 
L 298.834168 38.717419 
L 298.893229 38.876346 
L 299.070413 38.802889 
L 299.247597 38.822455 
L 299.542903 38.767534 
L 299.838209 38.980352 
L 300.074454 38.65323 
L 300.133515 38.774742 
L 300.192577 38.665587 
L 300.428822 38.361463 
L 300.606005 38.111917 
L 300.84225 37.78857 
L 301.078495 37.852416 
L 301.432863 37.756648 
L 301.78723 37.899098 
L 301.846291 38.129423 
L 301.905352 37.972212 
L 302.25972 38.144183 
L 302.614087 37.997613 
L 302.909393 37.748753 
L 303.145638 37.986285 
L 303.263761 37.927932 
L 303.440945 37.676669 
L 303.559067 37.916948 
L 303.618128 37.84967 
L 303.854373 37.863057 
L 304.031557 37.611107 
L 304.208741 37.879533 
L 304.326863 37.853102 
L 304.563108 37.929648 
L 304.858414 37.835596 
L 305.389965 38.712956 
L 305.685271 39.042138 
L 305.744333 38.94431 
L 306.039639 38.884241 
L 306.157761 38.958384 
L 306.512129 38.967308 
L 306.57119 38.834469 
L 306.630251 38.939161 
L 306.807435 39.144771 
L 306.925557 39.17944 
L 306.984619 39.25427 
L 307.102741 39.12246 
L 307.279925 39.249121 
L 307.338986 39.232301 
L 307.398047 39.383677 
L 307.457109 39.319145 
L 307.634292 38.976576 
L 307.870537 39.059644 
L 308.46115 38.603458 
L 308.579272 38.670736 
L 308.815517 39.066509 
L 308.874578 39.017767 
L 308.933639 39.182529 
L 308.992701 39.070971 
L 309.347068 38.776802 
L 309.406129 38.932983 
L 309.465191 38.84305 
L 309.583313 38.584922 
L 309.642374 38.608264 
L 309.760497 38.737327 
L 309.878619 38.558835 
L 309.93768 38.650827 
L 309.996742 38.562954 
L 310.173925 38.250592 
L 310.292048 38.621994 
L 310.351109 38.543388 
L 310.587354 38.461007 
L 310.646415 38.662498 
L 310.705476 38.604488 
L 310.764538 38.606547 
L 310.88266 38.762042 
L 310.941721 38.606547 
L 311.000783 38.65117 
L 311.118905 38.744536 
L 311.296089 38.898657 
L 311.591395 38.807008 
L 311.886701 38.873943 
L 312.004824 38.693734 
L 312.595436 39.606793 
L 313.008865 39.296833 
L 313.599477 39.530247 
L 313.835722 39.150607 
L 314.012906 39.212736 
L 314.131028 39.28276 
L 314.308212 39.50004 
L 314.367273 39.448552 
L 314.426334 39.294774 
L 314.485395 39.439627 
L 314.544457 39.336994 
L 314.603518 39.375782 
L 314.662579 39.384707 
L 314.72164 39.615374 
L 314.780702 39.495921 
L 314.957885 39.317772 
L 315.253192 39.714231 
L 315.312253 39.66034 
L 315.430375 39.728305 
L 315.548498 39.493862 
L 315.843804 39.777047 
L 316.020988 39.716291 
L 316.316294 39.294774 
L 316.434416 39.414227 
L 316.670661 39.647297 
L 316.729722 39.57384 
L 316.788784 39.724529 
L 317.025029 39.324294 
L 317.202212 38.992023 
L 317.261274 39.04969 
L 317.379396 38.866048 
L 317.792825 39.274865 
L 317.910947 38.886987 
L 317.970008 38.953921 
L 318.206253 38.883897 
L 318.265315 38.951862 
L 318.324376 38.884927 
L 318.383437 38.908612 
L 318.560621 38.393386 
L 318.678743 38.613756 
L 319.033111 38.05322 
L 319.210294 38.19979 
L 319.387478 38.28938 
L 320.214335 39.064106 
L 320.332458 38.916163 
L 320.391519 39.016737 
L 320.45058 38.856437 
L 320.509641 38.906895 
L 320.864009 38.852318 
L 320.92307 38.900717 
L 320.982131 38.815933 
L 321.100254 38.746595 
L 321.218376 38.539956 
L 321.454621 38.958384 
L 321.572744 38.708151 
L 321.631805 38.780578 
L 321.690866 38.796367 
L 321.749927 38.53618 
L 321.808989 38.591101 
L 321.927111 38.752774 
L 322.104295 38.444874 
L 322.281479 38.869824 
L 322.458662 38.798084 
L 322.635846 38.499795 
L 322.753968 38.729089 
L 323.108336 38.387894 
L 323.344581 38.322675 
L 323.521764 38.091665 
L 323.935193 38.43492 
L 324.053316 38.328854 
L 324.171438 38.377939 
L 324.407683 38.058026 
L 324.584867 38.291439 
L 324.584867 38.291439 
" clip-path="url(#pa8a814bda8)" style="fill: none; stroke: #0000ff; stroke-width: 1.5; stroke-linecap: square"/>
   </g>
   <g id="patch_3">
    <path d="M 41.15 171.16 
L 41.15 10.8 
" style="fill: none; stroke: #000000; stroke-width: 0.8; stroke-linejoin: miter; stroke-linecap: square"/>
   </g>
   <g id="patch_4">
    <path d="M 338.75661 171.16 
L 338.75661 10.8 
" style="fill: none; stroke: #000000; stroke-width: 0.8; stroke-linejoin: miter; stroke-linecap: square"/>
   </g>
   <g id="patch_5">
    <path d="M 41.15 171.16 
L 338.75661 171.16 
" style="fill: none; stroke: #000000; stroke-width: 0.8; stroke-linejoin: miter; stroke-linecap: square"/>
   </g>
   <g id="patch_6">
    <path d="M 41.15 10.8 
L 338.75661 10.8 
" style="fill: none; stroke: #000000; stroke-width: 0.8; stroke-linejoin: miter; stroke-linecap: square"/>
   </g>
  </g>
 </g>
 <defs>
  <clipPath id="pa8a814bda8">
   <rect x="41.15" y="10.8" width="297.60661" height="160.36"/>
  </clipPath>
 </defs>
</svg>
