<?xml version="1.0" encoding="utf-8" standalone="no"?>
<!DOCTYPE svg PUBLIC "-//W3C//DTD SVG 1.1//EN"
  "http://www.w3.org/Graphics/SVG/1.1/DTD/svg11.dtd">
<svg xmlns:xlink="http://www.w3.org/1999/xlink" width="360pt" height="216pt" viewBox="0 0 360 216" xmlns="http://www.w3.org/2000/svg" version="1.1">
 <metadata>
  <rdf:RDF xmlns:dc="http://purl.org/dc/elements/1.1/" xmlns:cc="http://creativecommons.org/ns#" xmlns:rdf="http://www.w3.org/1999/02/22-rdf-syntax-ns#">
   <cc:Work>
    <dc:type rdf:resource="http://purl.org/dc/dcmitype/StillImage"/>
    <dc:date>2024-01-07T08:22:53.494295</dc:date>
    <dc:format>image/svg+xml</dc:format>
    <dc:creator>
     <cc:Agent>
      <dc:title>Matplotlib v3.7.4, https://matplotlib.org/</dc:title>
     </cc:Agent>
    </dc:creator>
   </cc:Work>
  </rdf:RDF>
 </metadata>
 <defs>
  <style type="text/css">*{stroke-linejoin: round; stroke-linecap: butt}</style>
 </defs>
 <g id="figure_1">
  <g id="patch_1">
   <path d="M 0 216 
L 360 216 
L 360 0 
L 0 0 
z
" style="fill: #ffffff"/>
  </g>
  <g id="axes_1">
   <g id="patch_2">
    <path d="M 53.75 171.16 
L 338.75661 171.16 
L 338.75661 10.8 
L 53.75 10.8 
z
" style="fill: #ffffff"/>
   </g>
   <g id="matplotlib.axis_1">
    <g id="xtick_1">
     <g id="line2d_1">
      <defs>
       <path id="m65cf5d8d53" d="M 0 0 
L 0 3.5 
" style="stroke: #000000; stroke-width: 0.8"/>
      </defs>
      <g>
       <use xlink:href="#m65cf5d8d53" x="53.75" y="171.16" style="stroke: #000000; stroke-width: 0.8"/>
      </g>
     </g>
     <g id="text_1">
      <!-- 0 -->
      <g transform="translate(50.56875 185.758437) scale(0.1 -0.1)">
       <defs>
        <path id="DejaVuSans-30" d="M 2034 4250 
Q 1547 4250 1301 3770 
Q 1056 3291 1056 2328 
Q 1056 1369 1301 889 
Q 1547 409 2034 409 
Q 2525 409 2770 889 
Q 3016 1369 3016 2328 
Q 3016 3291 2770 3770 
Q 2525 4250 2034 4250 
z
M 2034 4750 
Q 2819 4750 3233 4129 
Q 3647 3509 3647 2328 
Q 3647 1150 3233 529 
Q 2819 -91 2034 -91 
Q 1250 -91 836 529 
Q 422 1150 422 2328 
Q 422 3509 836 4129 
Q 1250 4750 2034 4750 
z
" transform="scale(0.015625)"/>
       </defs>
       <use xlink:href="#DejaVuSans-30"/>
      </g>
     </g>
    </g>
    <g id="xtick_2">
     <g id="line2d_2">
      <g>
       <use xlink:href="#m65cf5d8d53" x="110.310714" y="171.16" style="stroke: #000000; stroke-width: 0.8"/>
      </g>
     </g>
     <g id="text_2">
      <!-- 1000 -->
      <g transform="translate(97.585714 185.758437) scale(0.1 -0.1)">
       <defs>
        <path id="DejaVuSans-31" d="M 794 531 
L 1825 531 
L 1825 4091 
L 703 3866 
L 703 4441 
L 1819 4666 
L 2450 4666 
L 2450 531 
L 3481 531 
L 3481 0 
L 794 0 
L 794 531 
z
" transform="scale(0.015625)"/>
       </defs>
       <use xlink:href="#DejaVuSans-31"/>
       <use xlink:href="#DejaVuSans-30" x="63.623047"/>
       <use xlink:href="#DejaVuSans-30" x="127.246094"/>
       <use xlink:href="#DejaVuSans-30" x="190.869141"/>
      </g>
     </g>
    </g>
    <g id="xtick_3">
     <g id="line2d_3">
      <g>
       <use xlink:href="#m65cf5d8d53" x="166.871428" y="171.16" style="stroke: #000000; stroke-width: 0.8"/>
      </g>
     </g>
     <g id="text_3">
      <!-- 2000 -->
      <g transform="translate(154.146428 185.758437) scale(0.1 -0.1)">
       <defs>
        <path id="DejaVuSans-32" d="M 1228 531 
L 3431 531 
L 3431 0 
L 469 0 
L 469 531 
Q 828 903 1448 1529 
Q 2069 2156 2228 2338 
Q 2531 2678 2651 2914 
Q 2772 3150 2772 3378 
Q 2772 3750 2511 3984 
Q 2250 4219 1831 4219 
Q 1534 4219 1204 4116 
Q 875 4013 500 3803 
L 500 4441 
Q 881 4594 1212 4672 
Q 1544 4750 1819 4750 
Q 2544 4750 2975 4387 
Q 3406 4025 3406 3419 
Q 3406 3131 3298 2873 
Q 3191 2616 2906 2266 
Q 2828 2175 2409 1742 
Q 1991 1309 1228 531 
z
" transform="scale(0.015625)"/>
       </defs>
       <use xlink:href="#DejaVuSans-32"/>
       <use xlink:href="#DejaVuSans-30" x="63.623047"/>
       <use xlink:href="#DejaVuSans-30" x="127.246094"/>
       <use xlink:href="#DejaVuSans-30" x="190.869141"/>
      </g>
     </g>
    </g>
    <g id="xtick_4">
     <g id="line2d_4">
      <g>
       <use xlink:href="#m65cf5d8d53" x="223.432142" y="171.16" style="stroke: #000000; stroke-width: 0.8"/>
      </g>
     </g>
     <g id="text_4">
      <!-- 3000 -->
      <g transform="translate(210.707142 185.758437) scale(0.1 -0.1)">
       <defs>
        <path id="DejaVuSans-33" d="M 2597 2516 
Q 3050 2419 3304 2112 
Q 3559 1806 3559 1356 
Q 3559 666 3084 287 
Q 2609 -91 1734 -91 
Q 1441 -91 1130 -33 
Q 819 25 488 141 
L 488 750 
Q 750 597 1062 519 
Q 1375 441 1716 441 
Q 2309 441 2620 675 
Q 2931 909 2931 1356 
Q 2931 1769 2642 2001 
Q 2353 2234 1838 2234 
L 1294 2234 
L 1294 2753 
L 1863 2753 
Q 2328 2753 2575 2939 
Q 2822 3125 2822 3475 
Q 2822 3834 2567 4026 
Q 2313 4219 1838 4219 
Q 1578 4219 1281 4162 
Q 984 4106 628 3988 
L 628 4550 
Q 988 4650 1302 4700 
Q 1616 4750 1894 4750 
Q 2613 4750 3031 4423 
Q 3450 4097 3450 3541 
Q 3450 3153 3228 2886 
Q 3006 2619 2597 2516 
z
" transform="scale(0.015625)"/>
       </defs>
       <use xlink:href="#DejaVuSans-33"/>
       <use xlink:href="#DejaVuSans-30" x="63.623047"/>
       <use xlink:href="#DejaVuSans-30" x="127.246094"/>
       <use xlink:href="#DejaVuSans-30" x="190.869141"/>
      </g>
     </g>
    </g>
    <g id="xtick_5">
     <g id="line2d_5">
      <g>
       <use xlink:href="#m65cf5d8d53" x="279.992856" y="171.16" style="stroke: #000000; stroke-width: 0.8"/>
      </g>
     </g>
     <g id="text_5">
      <!-- 4000 -->
      <g transform="translate(267.267856 185.758437) scale(0.1 -0.1)">
       <defs>
        <path id="DejaVuSans-34" d="M 2419 4116 
L 825 1625 
L 2419 1625 
L 2419 4116 
z
M 2253 4666 
L 3047 4666 
L 3047 1625 
L 3713 1625 
L 3713 1100 
L 3047 1100 
L 3047 0 
L 2419 0 
L 2419 1100 
L 313 1100 
L 313 1709 
L 2253 4666 
z
" transform="scale(0.015625)"/>
       </defs>
       <use xlink:href="#DejaVuSans-34"/>
       <use xlink:href="#DejaVuSans-30" x="63.623047"/>
       <use xlink:href="#DejaVuSans-30" x="127.246094"/>
       <use xlink:href="#DejaVuSans-30" x="190.869141"/>
      </g>
     </g>
    </g>
    <g id="xtick_6">
     <g id="line2d_6">
      <g>
       <use xlink:href="#m65cf5d8d53" x="336.55357" y="171.16" style="stroke: #000000; stroke-width: 0.8"/>
      </g>
     </g>
     <g id="text_6">
      <!-- 5000 -->
      <g transform="translate(323.82857 185.758437) scale(0.1 -0.1)">
       <defs>
        <path id="DejaVuSans-35" d="M 691 4666 
L 3169 4666 
L 3169 4134 
L 1269 4134 
L 1269 2991 
Q 1406 3038 1543 3061 
Q 1681 3084 1819 3084 
Q 2600 3084 3056 2656 
Q 3513 2228 3513 1497 
Q 3513 744 3044 326 
Q 2575 -91 1722 -91 
Q 1428 -91 1123 -41 
Q 819 9 494 109 
L 494 744 
Q 775 591 1075 516 
Q 1375 441 1709 441 
Q 2250 441 2565 725 
Q 2881 1009 2881 1497 
Q 2881 1984 2565 2268 
Q 2250 2553 1709 2553 
Q 1456 2553 1204 2497 
Q 953 2441 691 2322 
L 691 4666 
z
" transform="scale(0.015625)"/>
       </defs>
       <use xlink:href="#DejaVuSans-35"/>
       <use xlink:href="#DejaVuSans-30" x="63.623047"/>
       <use xlink:href="#DejaVuSans-30" x="127.246094"/>
       <use xlink:href="#DejaVuSans-30" x="190.869141"/>
      </g>
     </g>
    </g>
    <g id="text_7">
     <!-- Episode -->
     <g transform="translate(172.688305 200.95625) scale(0.12 -0.12)">
      <defs>
       <path id="DejaVuSans-45" d="M 628 4666 
L 3578 4666 
L 3578 4134 
L 1259 4134 
L 1259 2753 
L 3481 2753 
L 3481 2222 
L 1259 2222 
L 1259 531 
L 3634 531 
L 3634 0 
L 628 0 
L 628 4666 
z
" transform="scale(0.015625)"/>
       <path id="DejaVuSans-70" d="M 1159 525 
L 1159 -1331 
L 581 -1331 
L 581 3500 
L 1159 3500 
L 1159 2969 
Q 1341 3281 1617 3432 
Q 1894 3584 2278 3584 
Q 2916 3584 3314 3078 
Q 3713 2572 3713 1747 
Q 3713 922 3314 415 
Q 2916 -91 2278 -91 
Q 1894 -91 1617 61 
Q 1341 213 1159 525 
z
M 3116 1747 
Q 3116 2381 2855 2742 
Q 2594 3103 2138 3103 
Q 1681 3103 1420 2742 
Q 1159 2381 1159 1747 
Q 1159 1113 1420 752 
Q 1681 391 2138 391 
Q 2594 391 2855 752 
Q 3116 1113 3116 1747 
z
" transform="scale(0.015625)"/>
       <path id="DejaVuSans-69" d="M 603 3500 
L 1178 3500 
L 1178 0 
L 603 0 
L 603 3500 
z
M 603 4863 
L 1178 4863 
L 1178 4134 
L 603 4134 
L 603 4863 
z
" transform="scale(0.015625)"/>
       <path id="DejaVuSans-73" d="M 2834 3397 
L 2834 2853 
Q 2591 2978 2328 3040 
Q 2066 3103 1784 3103 
Q 1356 3103 1142 2972 
Q 928 2841 928 2578 
Q 928 2378 1081 2264 
Q 1234 2150 1697 2047 
L 1894 2003 
Q 2506 1872 2764 1633 
Q 3022 1394 3022 966 
Q 3022 478 2636 193 
Q 2250 -91 1575 -91 
Q 1294 -91 989 -36 
Q 684 19 347 128 
L 347 722 
Q 666 556 975 473 
Q 1284 391 1588 391 
Q 1994 391 2212 530 
Q 2431 669 2431 922 
Q 2431 1156 2273 1281 
Q 2116 1406 1581 1522 
L 1381 1569 
Q 847 1681 609 1914 
Q 372 2147 372 2553 
Q 372 3047 722 3315 
Q 1072 3584 1716 3584 
Q 2034 3584 2315 3537 
Q 2597 3491 2834 3397 
z
" transform="scale(0.015625)"/>
       <path id="DejaVuSans-6f" d="M 1959 3097 
Q 1497 3097 1228 2736 
Q 959 2375 959 1747 
Q 959 1119 1226 758 
Q 1494 397 1959 397 
Q 2419 397 2687 759 
Q 2956 1122 2956 1747 
Q 2956 2369 2687 2733 
Q 2419 3097 1959 3097 
z
M 1959 3584 
Q 2709 3584 3137 3096 
Q 3566 2609 3566 1747 
Q 3566 888 3137 398 
Q 2709 -91 1959 -91 
Q 1206 -91 779 398 
Q 353 888 353 1747 
Q 353 2609 779 3096 
Q 1206 3584 1959 3584 
z
" transform="scale(0.015625)"/>
       <path id="DejaVuSans-64" d="M 2906 2969 
L 2906 4863 
L 3481 4863 
L 3481 0 
L 2906 0 
L 2906 525 
Q 2725 213 2448 61 
Q 2172 -91 1784 -91 
Q 1150 -91 751 415 
Q 353 922 353 1747 
Q 353 2572 751 3078 
Q 1150 3584 1784 3584 
Q 2172 3584 2448 3432 
Q 2725 3281 2906 2969 
z
M 947 1747 
Q 947 1113 1208 752 
Q 1469 391 1925 391 
Q 2381 391 2643 752 
Q 2906 1113 2906 1747 
Q 2906 2381 2643 2742 
Q 2381 3103 1925 3103 
Q 1469 3103 1208 2742 
Q 947 2381 947 1747 
z
" transform="scale(0.015625)"/>
       <path id="DejaVuSans-65" d="M 3597 1894 
L 3597 1613 
L 953 1613 
Q 991 1019 1311 708 
Q 1631 397 2203 397 
Q 2534 397 2845 478 
Q 3156 559 3463 722 
L 3463 178 
Q 3153 47 2828 -22 
Q 2503 -91 2169 -91 
Q 1331 -91 842 396 
Q 353 884 353 1716 
Q 353 2575 817 3079 
Q 1281 3584 2069 3584 
Q 2775 3584 3186 3129 
Q 3597 2675 3597 1894 
z
M 3022 2063 
Q 3016 2534 2758 2815 
Q 2500 3097 2075 3097 
Q 1594 3097 1305 2825 
Q 1016 2553 972 2059 
L 3022 2063 
z
" transform="scale(0.015625)"/>
      </defs>
      <use xlink:href="#DejaVuSans-45"/>
      <use xlink:href="#DejaVuSans-70" x="63.183594"/>
      <use xlink:href="#DejaVuSans-69" x="126.660156"/>
      <use xlink:href="#DejaVuSans-73" x="154.443359"/>
      <use xlink:href="#DejaVuSans-6f" x="206.542969"/>
      <use xlink:href="#DejaVuSans-64" x="267.724609"/>
      <use xlink:href="#DejaVuSans-65" x="331.201172"/>
     </g>
    </g>
   </g>
   <g id="matplotlib.axis_2">
    <g id="ytick_1">
     <g id="line2d_7">
      <defs>
       <path id="m0811a6c98c" d="M 0 0 
L -3.5 0 
" style="stroke: #000000; stroke-width: 0.8"/>
      </defs>
      <g>
       <use xlink:href="#m0811a6c98c" x="53.75" y="171.16" style="stroke: #000000; stroke-width: 0.8"/>
      </g>
     </g>
     <g id="text_8">
      <!-- 0 -->
      <g transform="translate(40.3875 174.959219) scale(0.1 -0.1)">
       <use xlink:href="#DejaVuSans-30"/>
      </g>
     </g>
    </g>
    <g id="ytick_2">
     <g id="line2d_8">
      <g>
       <use xlink:href="#m0811a6c98c" x="53.75" y="150.810969" style="stroke: #000000; stroke-width: 0.8"/>
      </g>
     </g>
     <g id="text_9">
      <!-- 50 -->
      <g transform="translate(34.025 154.610188) scale(0.1 -0.1)">
       <use xlink:href="#DejaVuSans-35"/>
       <use xlink:href="#DejaVuSans-30" x="63.623047"/>
      </g>
     </g>
    </g>
    <g id="ytick_3">
     <g id="line2d_9">
      <g>
       <use xlink:href="#m0811a6c98c" x="53.75" y="130.461938" style="stroke: #000000; stroke-width: 0.8"/>
      </g>
     </g>
     <g id="text_10">
      <!-- 100 -->
      <g transform="translate(27.6625 134.261156) scale(0.1 -0.1)">
       <use xlink:href="#DejaVuSans-31"/>
       <use xlink:href="#DejaVuSans-30" x="63.623047"/>
       <use xlink:href="#DejaVuSans-30" x="127.246094"/>
      </g>
     </g>
    </g>
    <g id="ytick_4">
     <g id="line2d_10">
      <g>
       <use xlink:href="#m0811a6c98c" x="53.75" y="110.112906" style="stroke: #000000; stroke-width: 0.8"/>
      </g>
     </g>
     <g id="text_11">
      <!-- 150 -->
      <g transform="translate(27.6625 113.912125) scale(0.1 -0.1)">
       <use xlink:href="#DejaVuSans-31"/>
       <use xlink:href="#DejaVuSans-35" x="63.623047"/>
       <use xlink:href="#DejaVuSans-30" x="127.246094"/>
      </g>
     </g>
    </g>
    <g id="ytick_5">
     <g id="line2d_11">
      <g>
       <use xlink:href="#m0811a6c98c" x="53.75" y="89.763875" style="stroke: #000000; stroke-width: 0.8"/>
      </g>
     </g>
     <g id="text_12">
      <!-- 200 -->
      <g transform="translate(27.6625 93.563094) scale(0.1 -0.1)">
       <use xlink:href="#DejaVuSans-32"/>
       <use xlink:href="#DejaVuSans-30" x="63.623047"/>
       <use xlink:href="#DejaVuSans-30" x="127.246094"/>
      </g>
     </g>
    </g>
    <g id="ytick_6">
     <g id="line2d_12">
      <g>
       <use xlink:href="#m0811a6c98c" x="53.75" y="69.414844" style="stroke: #000000; stroke-width: 0.8"/>
      </g>
     </g>
     <g id="text_13">
      <!-- 250 -->
      <g transform="translate(27.6625 73.214063) scale(0.1 -0.1)">
       <use xlink:href="#DejaVuSans-32"/>
       <use xlink:href="#DejaVuSans-35" x="63.623047"/>
       <use xlink:href="#DejaVuSans-30" x="127.246094"/>
      </g>
     </g>
    </g>
    <g id="ytick_7">
     <g id="line2d_13">
      <g>
       <use xlink:href="#m0811a6c98c" x="53.75" y="49.065813" style="stroke: #000000; stroke-width: 0.8"/>
      </g>
     </g>
     <g id="text_14">
      <!-- 300 -->
      <g transform="translate(27.6625 52.865032) scale(0.1 -0.1)">
       <use xlink:href="#DejaVuSans-33"/>
       <use xlink:href="#DejaVuSans-30" x="63.623047"/>
       <use xlink:href="#DejaVuSans-30" x="127.246094"/>
      </g>
     </g>
    </g>
    <g id="ytick_8">
     <g id="line2d_14">
      <g>
       <use xlink:href="#m0811a6c98c" x="53.75" y="28.716782" style="stroke: #000000; stroke-width: 0.8"/>
      </g>
     </g>
     <g id="text_15">
      <!-- 350 -->
      <g transform="translate(27.6625 32.516) scale(0.1 -0.1)">
       <use xlink:href="#DejaVuSans-33"/>
       <use xlink:href="#DejaVuSans-35" x="63.623047"/>
       <use xlink:href="#DejaVuSans-30" x="127.246094"/>
      </g>
     </g>
    </g>
    <g id="text_16">
     <!-- Sustainability (S) -->
     <g transform="translate(21.166875 142.003438) rotate(-90) scale(0.12 -0.12)">
      <defs>
       <path id="DejaVuSans-53" d="M 3425 4513 
L 3425 3897 
Q 3066 4069 2747 4153 
Q 2428 4238 2131 4238 
Q 1616 4238 1336 4038 
Q 1056 3838 1056 3469 
Q 1056 3159 1242 3001 
Q 1428 2844 1947 2747 
L 2328 2669 
Q 3034 2534 3370 2195 
Q 3706 1856 3706 1288 
Q 3706 609 3251 259 
Q 2797 -91 1919 -91 
Q 1588 -91 1214 -16 
Q 841 59 441 206 
L 441 856 
Q 825 641 1194 531 
Q 1563 422 1919 422 
Q 2459 422 2753 634 
Q 3047 847 3047 1241 
Q 3047 1584 2836 1778 
Q 2625 1972 2144 2069 
L 1759 2144 
Q 1053 2284 737 2584 
Q 422 2884 422 3419 
Q 422 4038 858 4394 
Q 1294 4750 2059 4750 
Q 2388 4750 2728 4690 
Q 3069 4631 3425 4513 
z
" transform="scale(0.015625)"/>
       <path id="DejaVuSans-75" d="M 544 1381 
L 544 3500 
L 1119 3500 
L 1119 1403 
Q 1119 906 1312 657 
Q 1506 409 1894 409 
Q 2359 409 2629 706 
Q 2900 1003 2900 1516 
L 2900 3500 
L 3475 3500 
L 3475 0 
L 2900 0 
L 2900 538 
Q 2691 219 2414 64 
Q 2138 -91 1772 -91 
Q 1169 -91 856 284 
Q 544 659 544 1381 
z
M 1991 3584 
L 1991 3584 
z
" transform="scale(0.015625)"/>
       <path id="DejaVuSans-74" d="M 1172 4494 
L 1172 3500 
L 2356 3500 
L 2356 3053 
L 1172 3053 
L 1172 1153 
Q 1172 725 1289 603 
Q 1406 481 1766 481 
L 2356 481 
L 2356 0 
L 1766 0 
Q 1100 0 847 248 
Q 594 497 594 1153 
L 594 3053 
L 172 3053 
L 172 3500 
L 594 3500 
L 594 4494 
L 1172 4494 
z
" transform="scale(0.015625)"/>
       <path id="DejaVuSans-61" d="M 2194 1759 
Q 1497 1759 1228 1600 
Q 959 1441 959 1056 
Q 959 750 1161 570 
Q 1363 391 1709 391 
Q 2188 391 2477 730 
Q 2766 1069 2766 1631 
L 2766 1759 
L 2194 1759 
z
M 3341 1997 
L 3341 0 
L 2766 0 
L 2766 531 
Q 2569 213 2275 61 
Q 1981 -91 1556 -91 
Q 1019 -91 701 211 
Q 384 513 384 1019 
Q 384 1609 779 1909 
Q 1175 2209 1959 2209 
L 2766 2209 
L 2766 2266 
Q 2766 2663 2505 2880 
Q 2244 3097 1772 3097 
Q 1472 3097 1187 3025 
Q 903 2953 641 2809 
L 641 3341 
Q 956 3463 1253 3523 
Q 1550 3584 1831 3584 
Q 2591 3584 2966 3190 
Q 3341 2797 3341 1997 
z
" transform="scale(0.015625)"/>
       <path id="DejaVuSans-6e" d="M 3513 2113 
L 3513 0 
L 2938 0 
L 2938 2094 
Q 2938 2591 2744 2837 
Q 2550 3084 2163 3084 
Q 1697 3084 1428 2787 
Q 1159 2491 1159 1978 
L 1159 0 
L 581 0 
L 581 3500 
L 1159 3500 
L 1159 2956 
Q 1366 3272 1645 3428 
Q 1925 3584 2291 3584 
Q 2894 3584 3203 3211 
Q 3513 2838 3513 2113 
z
" transform="scale(0.015625)"/>
       <path id="DejaVuSans-62" d="M 3116 1747 
Q 3116 2381 2855 2742 
Q 2594 3103 2138 3103 
Q 1681 3103 1420 2742 
Q 1159 2381 1159 1747 
Q 1159 1113 1420 752 
Q 1681 391 2138 391 
Q 2594 391 2855 752 
Q 3116 1113 3116 1747 
z
M 1159 2969 
Q 1341 3281 1617 3432 
Q 1894 3584 2278 3584 
Q 2916 3584 3314 3078 
Q 3713 2572 3713 1747 
Q 3713 922 3314 415 
Q 2916 -91 2278 -91 
Q 1894 -91 1617 61 
Q 1341 213 1159 525 
L 1159 0 
L 581 0 
L 581 4863 
L 1159 4863 
L 1159 2969 
z
" transform="scale(0.015625)"/>
       <path id="DejaVuSans-6c" d="M 603 4863 
L 1178 4863 
L 1178 0 
L 603 0 
L 603 4863 
z
" transform="scale(0.015625)"/>
       <path id="DejaVuSans-79" d="M 2059 -325 
Q 1816 -950 1584 -1140 
Q 1353 -1331 966 -1331 
L 506 -1331 
L 506 -850 
L 844 -850 
Q 1081 -850 1212 -737 
Q 1344 -625 1503 -206 
L 1606 56 
L 191 3500 
L 800 3500 
L 1894 763 
L 2988 3500 
L 3597 3500 
L 2059 -325 
z
" transform="scale(0.015625)"/>
       <path id="DejaVuSans-20" transform="scale(0.015625)"/>
       <path id="DejaVuSans-28" d="M 1984 4856 
Q 1566 4138 1362 3434 
Q 1159 2731 1159 2009 
Q 1159 1288 1364 580 
Q 1569 -128 1984 -844 
L 1484 -844 
Q 1016 -109 783 600 
Q 550 1309 550 2009 
Q 550 2706 781 3412 
Q 1013 4119 1484 4856 
L 1984 4856 
z
" transform="scale(0.015625)"/>
       <path id="DejaVuSans-29" d="M 513 4856 
L 1013 4856 
Q 1481 4119 1714 3412 
Q 1947 2706 1947 2009 
Q 1947 1309 1714 600 
Q 1481 -109 1013 -844 
L 513 -844 
Q 928 -128 1133 580 
Q 1338 1288 1338 2009 
Q 1338 2731 1133 3434 
Q 928 4138 513 4856 
z
" transform="scale(0.015625)"/>
      </defs>
      <use xlink:href="#DejaVuSans-53"/>
      <use xlink:href="#DejaVuSans-75" x="63.476562"/>
      <use xlink:href="#DejaVuSans-73" x="126.855469"/>
      <use xlink:href="#DejaVuSans-74" x="178.955078"/>
      <use xlink:href="#DejaVuSans-61" x="218.164062"/>
      <use xlink:href="#DejaVuSans-69" x="279.443359"/>
      <use xlink:href="#DejaVuSans-6e" x="307.226562"/>
      <use xlink:href="#DejaVuSans-61" x="370.605469"/>
      <use xlink:href="#DejaVuSans-62" x="431.884766"/>
      <use xlink:href="#DejaVuSans-69" x="495.361328"/>
      <use xlink:href="#DejaVuSans-6c" x="523.144531"/>
      <use xlink:href="#DejaVuSans-69" x="550.927734"/>
      <use xlink:href="#DejaVuSans-74" x="578.710938"/>
      <use xlink:href="#DejaVuSans-79" x="617.919922"/>
      <use xlink:href="#DejaVuSans-20" x="677.099609"/>
      <use xlink:href="#DejaVuSans-28" x="708.886719"/>
      <use xlink:href="#DejaVuSans-53" x="747.900391"/>
      <use xlink:href="#DejaVuSans-29" x="811.376953"/>
     </g>
    </g>
   </g>
   <g id="line2d_15">
    <path d="M 53.75 38.103636 
L 53.919682 38.364767 
L 54.089364 38.571044 
L 54.145925 38.63586 
L 54.315607 38.483088 
L 54.654971 38.266859 
L 54.768093 37.930539 
L 54.824654 37.955486 
L 54.881214 38.03623 
L 54.994336 37.913398 
L 55.220579 38.587154 
L 55.3337 38.405315 
L 56.691157 39.934817 
L 56.747718 39.666606 
L 56.804279 39.74123 
L 56.860839 39.755226 
L 57.087082 39.497189 
L 57.143643 39.633238 
L 57.200204 39.579661 
L 57.822371 39.588291 
L 57.992054 39.539821 
L 58.105175 39.712112 
L 58.331418 40.057878 
L 58.387979 39.970747 
L 58.557661 39.832283 
L 58.614221 40.187534 
L 58.670782 40.078763 
L 58.840464 40.030364 
L 59.066707 40.431192 
L 59.236389 40.408614 
L 59.29295 40.456848 
L 59.349511 40.309159 
L 59.462632 40.61962 
L 59.519193 40.498601 
L 59.688875 40.531379 
L 59.745436 40.75544 
L 59.801996 40.705442 
L 59.971679 40.544465 
L 60.028239 40.611305 
L 60.0848 40.523249 
L 60.367604 40.527189 
L 60.480725 40.653203 
L 60.650407 40.530134 
L 60.763529 40.466589 
L 60.87665 40.669218 
L 60.933211 40.638451 
L 61.046332 40.741976 
L 61.102893 40.64749 
L 61.385696 41.166931 
L 61.555379 40.811376 
L 61.6685 40.828122 
L 61.725061 40.953914 
L 61.951304 40.476128 
L 62.007864 40.458713 
L 62.064425 40.314285 
L 62.120986 40.41105 
L 62.234107 40.357081 
L 62.290668 40.438552 
L 62.347229 40.34367 
L 62.46035 40.29523 
L 62.516911 40.227501 
L 62.630032 40.325566 
L 62.743154 40.321185 
L 62.799714 40.17445 
L 62.856275 40.260313 
L 62.912836 40.304681 
L 63.025957 40.183553 
L 63.365321 40.800798 
L 63.421882 40.724419 
L 63.478443 40.7819 
L 63.704686 41.091003 
L 63.761246 40.990512 
L 63.987489 40.74637 
L 64.213732 40.79227 
L 64.270293 40.757556 
L 64.439975 40.524504 
L 64.496536 40.559945 
L 64.553096 40.389475 
L 64.722779 40.716285 
L 64.8359 40.597828 
L 65.005582 40.691646 
L 65.118704 40.697885 
L 65.401507 40.243089 
L 65.967114 40.457872 
L 66.023675 40.390013 
L 66.136796 40.734191 
L 66.193357 40.60022 
L 66.306479 40.874816 
L 66.532721 40.365115 
L 66.645843 40.561571 
L 66.702404 40.539992 
L 66.758964 40.58649 
L 66.872086 40.155543 
L 66.928646 40.220676 
L 67.041768 40.265419 
L 67.21145 39.992582 
L 67.437693 39.541664 
L 67.607375 39.750918 
L 67.663936 39.777301 
L 67.833618 39.570737 
L 67.946739 39.756669 
L 68.0033 39.607513 
L 68.059861 39.663177 
L 68.116421 39.631026 
L 68.172982 39.727962 
L 68.229543 39.681353 
L 68.342664 39.773262 
L 68.399225 39.91067 
L 68.455786 39.780568 
L 68.568907 39.674742 
L 68.738589 39.840665 
L 68.908271 39.414486 
L 69.021393 39.477626 
L 69.191075 39.589995 
L 69.360757 39.686253 
L 69.417318 39.501325 
L 69.473879 39.577931 
L 69.700121 39.774021 
L 70.265728 39.093949 
L 70.322289 39.2196 
L 70.37885 39.160994 
L 70.435411 39.116607 
L 70.661653 39.492802 
L 71.057578 38.914742 
L 71.396943 39.372302 
L 71.453503 39.583693 
L 71.510064 39.519544 
L 71.566625 39.512965 
L 71.623186 39.715637 
L 71.679746 39.699165 
L 71.792868 39.570442 
L 72.019111 39.900878 
L 72.188793 39.756572 
L 72.301914 39.909898 
L 72.415036 39.772072 
L 72.471596 39.943917 
L 72.584718 39.745346 
L 72.641278 39.776843 
L 72.697839 39.633636 
L 72.7544 39.697857 
L 72.810961 39.692595 
L 72.867521 39.824633 
L 72.924082 39.701724 
L 72.980643 39.66459 
L 73.263446 40.038108 
L 73.320007 39.9965 
L 73.54625 40.630182 
L 73.602811 40.586963 
L 73.659371 40.672955 
L 73.942175 40.741516 
L 73.998736 40.522449 
L 74.055296 40.572545 
L 74.111857 40.659444 
L 74.224978 40.341643 
L 74.281539 40.413854 
L 74.507782 40.621613 
L 74.677464 40.303606 
L 74.903707 40.52047 
L 75.186511 39.978896 
L 75.243071 40.092963 
L 75.299632 40.02266 
L 75.525875 39.895073 
L 75.695557 39.961764 
L 75.752118 39.870141 
L 75.865239 40.176348 
L 75.9218 40.154092 
L 75.978361 40.085614 
L 76.204603 40.433992 
L 76.261164 40.200281 
L 76.317725 40.240214 
L 76.430846 40.36 
L 76.600528 40.358413 
L 76.939893 40.731296 
L 76.996453 40.666135 
L 77.222696 40.744789 
L 77.279257 40.67273 
L 77.335818 40.795191 
L 77.392378 40.734729 
L 77.562061 40.695666 
L 77.675182 40.956502 
L 77.731743 40.84406 
L 77.788303 40.904158 
L 77.844864 41.01435 
L 77.901425 40.980601 
L 78.014546 40.874191 
L 78.071107 40.977757 
L 78.184228 41.266186 
L 78.240789 41.227454 
L 78.410471 41.113957 
L 78.749836 41.305473 
L 78.919518 40.744278 
L 79.032639 40.930036 
L 79.0892 40.861775 
L 79.258882 40.469602 
L 79.315443 40.699291 
L 79.372003 40.677209 
L 79.541686 40.701884 
L 79.598246 40.918268 
L 79.654807 40.878457 
L 79.711368 40.899279 
L 79.88105 41.292381 
L 80.050732 41.17255 
L 80.220414 41.560274 
L 80.276975 41.37613 
L 80.333536 41.431497 
L 80.503218 41.31254 
L 80.6729 41.101403 
L 80.786021 41.289106 
L 80.842582 41.184296 
L 80.955703 40.968791 
L 81.012264 41.024145 
L 81.238507 41.33046 
L 81.408189 41.319995 
L 81.690993 41.789481 
L 81.804114 41.783056 
L 81.973796 41.551476 
L 82.313161 42.032679 
L 82.482843 42.748661 
L 82.539403 42.517797 
L 82.878768 42.81242 
L 83.04845 42.487297 
L 83.105011 42.50503 
L 83.274693 42.164726 
L 83.331253 42.278043 
L 83.500936 42.501559 
L 83.614057 42.333565 
L 83.670618 42.385039 
L 83.727178 42.423574 
L 83.783739 42.195315 
L 83.8403 42.283362 
L 83.896861 42.365142 
L 84.123103 42.066004 
L 84.236225 41.991774 
L 84.292786 42.17059 
L 84.349346 41.953573 
L 84.405907 42.042423 
L 84.63215 42.180547 
L 84.801832 41.353095 
L 85.028075 41.377458 
L 85.254318 41.111651 
L 85.763364 41.517652 
L 85.819925 41.378403 
L 85.876486 41.491542 
L 86.046168 41.873737 
L 86.272411 41.446088 
L 86.498653 42.077794 
L 86.838018 42.469706 
L 87.064261 42.67218 
L 87.233943 42.416111 
L 87.290503 42.466283 
L 87.516746 41.784661 
L 87.573307 42.087355 
L 87.629868 42.020995 
L 87.856111 41.971301 
L 88.025793 41.90021 
L 88.421718 41.68154 
L 88.761082 42.146891 
L 88.874203 41.939944 
L 89.043886 41.638081 
L 89.722614 42.272505 
L 89.892296 42.164669 
L 89.948857 42.296179 
L 90.005418 42.19395 
L 90.118539 42.034131 
L 90.1751 42.099821 
L 90.231661 42.373817 
L 90.288221 42.271549 
L 90.514464 42.066131 
L 90.571025 42.141315 
L 90.684146 41.948239 
L 90.740707 42.009911 
L 90.797268 41.937777 
L 90.853828 42.084089 
L 91.023511 41.732549 
L 91.080071 41.760938 
L 91.193193 41.495902 
L 91.249753 41.597401 
L 91.306314 41.542119 
L 91.419436 41.696735 
L 91.475996 41.573943 
L 91.702239 42.115929 
L 91.871921 42.146649 
L 91.985043 42.301378 
L 92.211286 42.036669 
L 92.380968 42.048351 
L 92.55065 41.983564 
L 92.720332 42.196639 
L 92.890014 41.833714 
L 93.003136 41.606706 
L 93.059696 41.731642 
L 93.229378 41.83573 
L 93.285939 42.096296 
L 93.3425 41.883781 
L 93.455621 41.860297 
L 93.738425 41.529424 
L 93.794986 41.099903 
L 93.851546 41.306239 
L 94.417153 40.936144 
L 94.586836 41.254908 
L 94.699957 41.119853 
L 94.813078 40.902628 
L 94.869639 40.924728 
L 95.039321 40.724868 
L 95.209003 40.848961 
L 95.265564 40.880424 
L 95.435246 41.056506 
L 95.491807 41.013263 
L 95.661489 41.152589 
L 95.831171 40.58204 
L 95.887732 40.68243 
L 95.944293 40.473762 
L 96.000853 40.679431 
L 96.113975 40.689961 
L 96.283657 40.467789 
L 96.340218 40.517823 
L 96.5099 40.930785 
L 96.566461 40.821689 
L 96.623021 40.880309 
L 96.679582 40.898536 
L 96.849264 40.748196 
L 96.905825 40.739352 
L 96.962386 40.604024 
L 97.018946 40.728573 
L 97.075507 40.64699 
L 97.132068 40.817398 
L 97.188628 40.795507 
L 97.358311 40.502314 
L 97.414871 40.61693 
L 97.471432 40.584081 
L 97.527993 40.568786 
L 97.584553 40.702473 
L 97.641114 40.654613 
L 97.867357 40.342021 
L 97.923918 40.383256 
L 97.980478 40.543163 
L 98.037039 40.410209 
L 98.150161 40.287311 
L 98.263282 40.333658 
L 98.376403 40.04024 
L 98.546086 40.270255 
L 98.602646 40.253406 
L 98.659207 40.36684 
L 98.715768 40.195135 
L 98.828889 40.706717 
L 98.88545 40.63207 
L 98.942011 40.683736 
L 110.423835 39.920744 
L 110.593518 39.794193 
L 110.650078 39.884846 
L 110.876321 39.617543 
L 110.932882 39.71222 
L 110.989443 39.561316 
L 111.046003 39.659591 
L 111.272246 39.479682 
L 111.328807 39.601542 
L 111.385368 39.502496 
L 111.441928 39.49873 
L 111.498489 39.632933 
L 111.55505 39.573408 
L 111.668171 39.542519 
L 111.837853 39.910557 
L 111.950975 39.977867 
L 112.007535 40.098587 
L 112.233778 39.665613 
L 112.290339 39.805137 
L 112.3469 39.664341 
L 112.629703 39.914067 
L 112.742825 39.648333 
L 112.969068 40.107101 
L 113.082189 39.88734 
L 113.251871 40.118232 
L 113.308432 39.932475 
L 113.364993 40.055107 
L 113.817478 39.638048 
L 114.213403 40.109657 
L 114.383085 39.662684 
L 114.552768 39.668589 
L 114.835571 39.429768 
L 115.118375 39.629488 
L 115.231496 39.339884 
L 115.288057 39.402035 
L 115.401178 39.32885 
L 115.5143 39.494896 
L 115.627421 39.248812 
L 115.853664 39.618208 
L 116.079907 39.533388 
L 116.30615 39.878748 
L 116.645514 39.416632 
L 116.702075 39.529097 
L 116.984878 38.98223 
L 117.098 39.062563 
L 117.437364 39.533234 
L 117.720168 39.078323 
L 117.776728 39.068924 
L 117.94641 39.560599 
L 118.116093 39.398403 
L 118.398896 39.92215 
L 118.455457 39.827746 
L 118.512018 40.097596 
L 118.568578 39.949124 
L 118.625139 39.913255 
L 118.794821 40.401825 
L 118.851382 40.390232 
L 119.077625 40.660907 
L 119.247307 40.732278 
L 119.47355 40.349911 
L 119.53011 40.3784 
L 119.982596 39.911339 
L 120.208839 40.041426 
L 120.435082 39.560218 
L 120.604764 39.704075 
L 120.661325 39.64522 
L 120.717885 39.73747 
L 120.831007 39.800505 
L 121.05725 39.712624 
L 121.11381 39.596824 
L 121.226932 39.814731 
L 121.509735 38.97792 
L 121.566296 39.004265 
L 121.962221 38.511896 
L 122.018782 38.573493 
L 122.584389 39.331498 
L 122.64095 39.112117 
L 122.69751 39.13659 
L 122.754071 39.310549 
L 122.810632 39.228938 
L 122.980314 38.949116 
L 123.149996 38.681884 
L 123.319678 38.736978 
L 123.48936 39.143944 
L 123.602482 39.040561 
L 123.659043 39.136951 
L 123.828725 39.412119 
L 123.941846 39.197037 
L 123.998407 39.215525 
L 124.054968 39.263894 
L 124.28121 38.820157 
L 124.394332 38.937307 
L 124.564014 38.614825 
L 124.733696 38.719443 
L 124.846818 38.765345 
L 124.903378 38.885266 
L 125.07306 38.576653 
L 125.129621 38.697587 
L 125.186182 38.658768 
L 125.299303 38.302446 
L 125.468985 38.509513 
L 125.582107 38.408923 
L 125.80835 38.431854 
L 126.034593 38.049757 
L 126.147714 38.166263 
L 126.204275 38.123726 
L 126.430518 37.737518 
L 126.543639 37.927857 
L 126.6002 37.798154 
L 126.65676 37.86364 
L 126.713321 37.840687 
L 126.769882 37.691944 
L 126.826443 37.803889 
L 126.883003 37.767038 
L 126.939564 37.891765 
L 126.996125 37.845102 
L 127.052685 37.827595 
L 127.165807 37.536088 
L 127.278928 37.703532 
L 127.335489 37.660008 
L 127.44861 37.748137 
L 127.505171 37.853581 
L 127.618293 37.526667 
L 127.844535 38.31505 
L 127.901096 38.292303 
L 128.24046 38.211022 
L 128.353582 38.396545 
L 128.410143 38.33744 
L 128.806068 37.788251 
L 129.03231 38.189876 
L 129.088871 38.279923 
L 129.145432 38.058009 
L 129.201993 38.11721 
L 129.258553 38.285722 
L 129.315114 38.114088 
L 129.428235 38.179002 
L 129.541357 37.952272 
L 129.597918 38.101909 
L 129.654478 38.037991 
L 129.82416 37.697652 
L 129.880721 37.695581 
L 129.937282 37.874752 
L 129.993843 37.756408 
L 130.220085 37.803932 
L 130.276646 37.69932 
L 130.333207 37.84003 
L 130.389768 37.734111 
L 130.446328 37.721643 
L 130.729132 38.232841 
L 130.955375 38.210493 
L 131.011935 38.228115 
L 131.181618 38.624715 
L 131.238178 38.302997 
L 131.294739 38.320098 
L 131.634103 38.430941 
L 131.860346 38.760556 
L 132.030028 38.749027 
L 132.595635 39.2864 
L 133.048121 40.289276 
L 133.104682 40.14294 
L 133.161243 40.283309 
L 133.274364 40.446005 
L 133.330925 40.376181 
L 133.387485 40.341977 
L 133.444046 40.446792 
L 133.500607 40.35067 
L 133.557168 40.316208 
L 133.72685 40.641353 
L 133.839971 40.480946 
L 133.896532 40.559697 
L 133.953093 40.649995 
L 134.179335 40.381165 
L 134.349018 40.664869 
L 134.405578 40.484987 
L 134.5187 40.865213 
L 134.57526 40.779154 
L 134.631821 40.791172 
L 134.688382 40.615046 
L 134.744943 40.76198 
L 134.858064 40.957952 
L 134.914625 41.213033 
L 134.971185 41.1432 
L 135.253989 40.770303 
L 135.31055 40.925792 
L 135.36711 40.850756 
L 135.423671 40.766919 
L 135.480232 40.832406 
L 135.763035 41.15937 
L 135.932717 41.210375 
L 136.045839 41.08147 
L 136.328642 41.474996 
L 136.498325 41.254514 
L 136.668007 41.438252 
L 136.724567 41.453614 
L 136.837689 41.197727 
L 136.89425 41.241566 
L 137.177053 41.383184 
L 137.290175 41.268554 
L 137.403296 41.353949 
L 137.572978 41.129692 
L 137.629539 41.094159 
L 137.74266 41.545956 
L 137.968903 41.059277 
L 138.082025 41.03981 
L 138.251707 40.683466 
L 138.53451 40.702211 
L 138.647632 40.682572 
L 138.704192 40.727636 
L 138.760753 40.62232 
L 138.817314 40.739257 
L 138.873875 40.646926 
L 138.930435 40.826766 
L 138.986996 40.709951 
L 139.2698 40.578323 
L 139.496042 41.071594 
L 139.609164 41.163273 
L 139.778846 40.916747 
L 139.835407 40.782983 
L 139.891967 40.86411 
L 140.06165 40.966512 
L 140.231332 40.730526 
L 140.401014 40.642271 
L 140.514135 40.694453 
L 140.570696 40.528135 
L 140.683817 40.835132 
L 140.740378 40.795579 
L 140.8535 40.944536 
L 140.966621 40.922618 
L 141.192864 41.423465 
L 141.419107 40.849134 
L 141.588789 41.139634 
L 141.64535 41.051746 
L 141.815032 40.819484 
L 141.871592 40.875517 
L 141.928153 40.980574 
L 142.041275 40.632152 
L 142.097835 40.703484 
L 142.210957 40.616008 
L 142.267517 40.692078 
L 142.324078 40.692649 
L 142.49376 40.420836 
L 142.550321 40.713159 
L 142.606882 40.611031 
L 142.776564 40.744793 
L 142.946246 40.362784 
L 143.002807 40.4762 
L 143.115928 40.205898 
L 143.22905 40.284399 
L 143.398732 39.86067 
L 143.455292 39.925548 
L 143.511853 39.863406 
L 143.681535 39.666026 
L 143.794657 39.721165 
L 143.851217 39.796763 
L 144.07746 39.257192 
L 144.134021 39.222455 
L 144.190582 39.356604 
L 144.247142 39.297819 
L 144.473385 38.982888 
L 144.586507 39.04362 
L 144.86931 39.312852 
L 145.038992 39.039273 
L 145.152114 39.370618 
L 145.208675 39.331635 
L 145.378357 39.307961 
L 145.434917 39.461493 
L 145.491478 39.357768 
L 145.548039 39.206391 
L 145.6046 39.27568 
L 145.66116 39.227053 
L 145.717721 39.318991 
L 145.830842 39.273245 
L 146.000525 39.615256 
L 146.283328 39.008137 
L 146.45301 39.246577 
L 146.566132 39.400376 
L 146.735814 39.175968 
L 146.792375 39.185807 
L 146.848935 38.942296 
L 146.905496 38.977246 
L 147.301421 39.632641 
L 147.471103 39.300913 
L 147.753907 39.563174 
L 147.923589 39.796153 
L 147.98015 39.731705 
L 148.262953 40.21778 
L 148.489196 40.418224 
L 148.602317 40.425747 
L 148.658878 40.494712 
L 148.82856 40.306792 
L 148.885121 40.421194 
L 148.941682 40.373719 
L 149.054803 39.906778 
L 149.111364 39.937019 
L 149.450728 40.470999 
L 149.507289 40.414243 
L 149.56385 40.419233 
L 149.733532 40.244613 
L 149.790092 40.179634 
L 149.846653 40.274558 
L 149.903214 40.267569 
L 149.959775 40.461956 
L 150.016335 40.149827 
L 150.072896 40.275189 
L 150.129457 40.236322 
L 150.186017 40.411242 
L 150.242578 40.375483 
L 150.3557 40.442417 
L 150.41226 40.53047 
L 150.638503 40.05836 
L 150.695064 40.265591 
L 150.751625 40.042512 
L 150.808185 40.157027 
L 150.921307 40.113854 
L 150.977867 40.331682 
L 151.034428 40.282364 
L 151.090989 40.312262 
L 151.430353 41.050068 
L 151.486914 40.967016 
L 151.543475 41.076627 
L 151.769717 41.065563 
L 151.882839 40.94494 
L 151.99596 41.03292 
L 152.165642 41.233945 
L 152.505007 40.839491 
L 152.618128 40.964148 
L 152.73125 41.30415 
L 152.78781 41.284767 
L 152.900932 41.118797 
L 152.957492 40.96748 
L 153.014053 41.062242 
L 153.070614 41.01885 
L 153.183735 41.350086 
L 153.240296 41.282991 
L 153.353417 41.358798 
L 153.409978 41.225035 
L 153.466539 41.369 
L 153.5231 41.499311 
L 153.57966 41.461419 
L 153.749342 41.399976 
L 153.919025 41.616868 
L 154.032146 41.589213 
L 154.145267 41.977001 
L 154.201828 41.863024 
L 154.37151 42.155624 
L 154.541192 42.093934 
L 154.937117 42.817111 
L 154.993678 42.794205 
L 155.16336 43.100695 
L 155.389603 43.335891 
L 155.446164 43.297841 
L 155.502725 43.037266 
L 166.871428 38.495979 
L 167.154232 38.053999 
L 167.323914 37.983532 
L 167.437035 37.966082 
L 167.550157 38.227816 
L 167.606717 38.107635 
L 167.663278 38.093255 
L 167.7764 38.293099 
L 167.946082 38.195338 
L 168.002642 38.145142 
L 168.228885 38.651165 
L 168.342007 38.744679 
L 168.455128 38.646122 
L 168.568249 38.421082 
L 168.681371 38.710525 
L 168.737932 38.65415 
L 168.794492 38.5223 
L 168.851053 38.578615 
L 168.907614 38.633784 
L 168.964174 38.494854 
L 169.020735 38.594131 
L 169.133857 38.93835 
L 169.190417 38.785724 
L 169.246978 38.994731 
L 169.303539 38.947832 
L 169.529782 38.413788 
L 169.699464 38.689714 
L 169.812585 39.025829 
L 169.925707 38.954128 
L 170.095389 38.5015 
L 170.265071 38.482427 
L 170.321632 38.310264 
L 170.434753 38.594859 
L 170.547874 38.195968 
L 170.604435 38.355001 
L 170.717557 38.232394 
L 170.943799 38.467102 
L 171.00036 38.395475 
L 171.056921 38.631616 
L 171.113482 38.591022 
L 171.170042 38.528022 
L 171.565967 39.296408 
L 171.622528 39.21701 
L 171.735649 38.989511 
L 171.848771 39.160353 
L 172.018453 38.915021 
L 172.075014 38.954925 
L 172.131574 39.108171 
L 172.188135 38.968525 
L 172.357817 38.835715 
L 172.527499 39.03345 
L 172.697182 38.679172 
L 172.753742 38.673083 
L 172.810303 38.87249 
L 172.866864 38.796882 
L 172.923424 38.734724 
L 172.979985 38.822788 
L 173.093107 38.806958 
L 173.262789 38.698539 
L 173.37591 38.604785 
L 173.489032 38.550049 
L 173.884957 38.940589 
L 174.054639 38.694431 
L 174.224321 38.889679 
L 174.337442 39.13052 
L 174.394003 38.972146 
L 174.450564 39.017153 
L 174.507124 38.927009 
L 174.903049 38.335626 
L 175.355535 38.615014 
L 175.468657 38.12989 
L 175.525217 38.195259 
L 175.694899 38.379862 
L 175.808021 38.41533 
L 175.921142 38.543648 
L 175.977703 38.331757 
L 176.034264 38.54449 
L 176.090824 38.382451 
L 176.317067 38.900179 
L 176.373628 38.963455 
L 176.54331 39.253598 
L 176.769553 39.491728 
L 176.939235 39.359739 
L 177.222039 40.005839 
L 177.278599 39.946177 
L 177.33516 40.023278 
L 177.504842 40.507034 
L 177.561403 40.497935 
L 177.617964 40.688448 
L 177.674524 40.535838 
L 177.787646 40.573834 
L 177.900767 40.58892 
L 178.070449 40.92763 
L 178.12701 40.877431 
L 178.183571 40.844343 
L 178.353253 41.015048 
L 178.636057 40.793548 
L 178.749178 40.682678 
L 178.91886 40.471468 
L 178.975421 40.523362 
L 179.031982 40.367724 
L 179.088542 40.477932 
L 179.201664 40.613358 
L 179.541028 40.206286 
L 179.597589 40.260266 
L 179.654149 40.115565 
L 179.71071 40.262012 
L 179.993514 40.324584 
L 180.050074 40.248078 
L 180.219757 40.486087 
L 180.332878 40.841805 
L 180.389439 40.700148 
L 180.50256 40.944201 
L 180.615682 40.621286 
L 180.841924 40.994529 
L 180.898485 40.863066 
L 180.955046 40.924417 
L 181.237849 40.833565 
L 181.407532 41.11325 
L 182.08626 41.607138 
L 182.142821 41.518836 
L 182.255942 41.386077 
L 182.425624 41.43778 
L 182.538746 41.729611 
L 182.87811 41.08708 
L 182.991232 41.200385 
L 183.104353 41.216734 
L 183.217474 40.953013 
L 183.387157 41.197297 
L 183.500278 41.196965 
L 183.726521 41.452606 
L 183.839642 41.504346 
L 184.065885 41.902161 
L 184.235567 41.779578 
L 184.518371 42.263555 
L 184.688053 42.302601 
L 184.801174 42.435315 
L 185.479903 41.887163 
L 185.536464 42.016023 
L 185.593024 41.927906 
L 185.706146 41.787246 
L 185.932389 42.001502 
L 185.988949 41.898577 
L 186.271753 41.86708 
L 186.554557 41.615777 
L 186.667678 41.524107 
L 186.724239 41.709005 
L 186.780799 41.515635 
L 187.402967 41.641619 
L 187.572649 41.096971 
L 187.685771 41.045748 
L 187.855453 40.877427 
L 188.251378 41.432996 
L 188.364499 41.249361 
L 188.534182 40.941786 
L 188.590742 41.081227 
L 188.647303 41.072816 
L 188.816985 40.840771 
L 189.382592 40.118537 
L 189.495714 40.30331 
L 189.608835 40.184711 
L 189.778517 40.500326 
L 189.835078 40.381941 
L 190.00476 40.392504 
L 190.344124 41.107522 
L 190.400685 40.943776 
L 190.457246 41.01948 
L 190.626928 41.059699 
L 190.79661 40.832663 
L 190.966292 41.24502 
L 191.192535 40.863328 
L 191.362217 41.282875 
L 191.531899 41.053947 
L 191.701582 41.019274 
L 191.814703 40.677253 
L 192.040946 41.102439 
L 192.210628 40.845123 
L 192.267189 40.618734 
L 192.323749 40.760102 
L 192.549992 40.499531 
L 192.663114 40.58282 
L 192.832796 40.247381 
L 192.945917 40.380513 
L 193.115599 40.077362 
L 193.285282 40.474519 
L 193.341842 40.296694 
L 193.398403 40.321056 
L 193.511524 40.471473 
L 193.624646 40.359852 
L 193.737767 40.178091 
L 194.190253 40.250886 
L 194.359935 40.444128 
L 194.586178 40.498847 
L 194.699299 40.687943 
L 194.75586 40.50893 
L 194.812421 40.65885 
L 194.868982 40.803653 
L 194.925542 40.76803 
L 195.264907 40.659228 
L 195.378028 40.871664 
L 195.434589 40.849919 
L 195.54771 40.901397 
L 195.660832 40.631988 
L 195.717392 40.734659 
L 195.773953 40.739033 
L 195.943635 40.61912 
L 196.000196 40.563067 
L 196.056757 40.670556 
L 196.113317 40.589907 
L 196.282999 40.567779 
L 196.452682 40.914086 
L 196.792046 41.385119 
L 196.961728 41.333245 
L 197.018289 41.331702 
L 197.074849 41.116317 
L 197.13141 41.254504 
L 197.187971 41.355866 
L 197.244532 41.188266 
L 197.301092 41.273189 
L 197.979821 42.317198 
L 198.036382 42.16453 
L 198.092942 42.337803 
L 198.149503 42.256799 
L 198.432307 41.785038 
L 198.601989 41.72435 
L 198.71511 41.541435 
L 198.884792 41.943824 
L 199.054474 41.971703 
L 199.393839 41.651049 
L 199.450399 41.636234 
L 199.563521 41.31322 
L 199.620082 41.377293 
L 199.676642 41.258514 
L 199.733203 41.31162 
L 199.789764 41.428427 
L 200.016007 40.967054 
L 200.185689 40.854257 
L 200.355371 40.796379 
L 200.525053 40.836041 
L 200.638174 40.544962 
L 200.807857 40.744362 
L 200.864417 40.696302 
L 201.034099 40.941529 
L 201.09066 40.851705 
L 201.147221 41.028967 
L 201.203782 40.953194 
L 201.486585 40.509611 
L 201.769389 39.818741 
L 201.939071 39.987139 
L 202.108753 40.215975 
L 202.334996 39.747343 
L 202.391556 39.972091 
L 202.448117 39.871986 
L 202.67436 39.375101 
L 202.730921 39.603929 
L 202.787481 39.75536 
L 203.013724 39.219849 
L 203.070285 39.275316 
L 203.183406 39.070726 
L 203.239967 39.261171 
L 203.296528 39.092606 
L 203.409649 39.073329 
L 203.579331 39.317173 
L 203.635892 39.032622 
L 203.692453 39.130171 
L 203.749014 39.176675 
L 203.862135 39.414749 
L 203.918696 39.346374 
L 204.088378 39.752462 
L 204.25806 39.498868 
L 204.427742 39.60116 
L 204.597424 39.276205 
L 204.767106 38.950611 
L 204.936789 39.147645 
L 205.445835 39.091588 
L 205.502396 39.301799 
L 205.558956 39.19217 
L 205.728639 38.896478 
L 205.785199 38.72107 
L 205.84176 38.82059 
L 206.237685 38.670481 
L 206.350806 38.729466 
L 206.407367 38.689417 
L 206.577049 38.957153 
L 206.690171 38.635215 
L 206.803292 38.896021 
L 206.859853 38.792841 
L 206.916414 38.840536 
L 207.199217 39.042492 
L 207.482021 39.513631 
L 207.651703 39.224754 
L 207.708264 39.287253 
L 207.821385 39.291532 
L 207.934506 38.922928 
L 207.991067 39.110752 
L 208.21731 38.564201 
L 208.330431 38.64105 
L 208.386992 38.857911 
L 208.443553 38.712267 
L 208.500114 38.686173 
L 208.556674 38.852883 
L 208.613235 38.752576 
L 208.669796 38.811597 
L 208.726356 38.73939 
L 208.896039 38.445111 
L 209.065721 38.745912 
L 209.291964 38.288269 
L 209.518206 38.592217 
L 209.914131 38.836819 
L 210.027253 39.07717 
L 210.196935 38.919448 
L 210.479739 38.925639 
L 210.649421 39.234782 
L 210.819103 39.210033 
L 210.875664 39.369486 
L 210.932224 39.343669 
L 211.101906 39.279743 
L 211.158467 39.442276 
L 211.215028 39.417586 
L 211.271589 39.303986 
L 211.497831 39.656532 
L 211.667514 39.852497 
L 211.724074 39.815861 
L 211.893756 40.09391 
L 212.063439 40.178142 
L 223.432142 38.443802 
L 223.488703 38.296545 
L 223.545264 38.404981 
L 223.601824 38.38725 
L 223.828067 38.689656 
L 223.997749 38.802408 
L 224.223992 38.070284 
L 224.337114 38.334001 
L 224.393674 38.265566 
L 224.450235 38.115461 
L 224.506796 38.218205 
L 224.619917 38.730564 
L 224.733039 38.602159 
L 224.789599 38.475642 
L 224.959281 38.694362 
L 225.015842 38.753051 
L 225.072403 38.656319 
L 225.128964 38.56661 
L 225.355206 38.943827 
L 225.411767 38.718638 
L 225.468328 38.940382 
L 225.63801 39.104205 
L 225.694571 38.980728 
L 225.751131 39.055646 
L 225.864253 38.989217 
L 226.147056 39.545618 
L 226.316739 39.449075 
L 226.542981 39.780453 
L 226.712664 39.296817 
L 226.825785 39.4452 
L 227.052028 39.001077 
L 227.108589 39.270156 
L 227.165149 39.230159 
L 227.278271 39.197947 
L 227.334831 39.103701 
L 227.391392 39.144837 
L 227.674196 39.443699 
L 227.843878 39.057635 
L 227.900439 39.126455 
L 228.01356 39.086218 
L 228.126681 39.431784 
L 228.183242 39.383259 
L 228.466046 39.154841 
L 228.522606 39.268929 
L 228.692289 39.737164 
L 228.748849 39.794621 
L 228.80541 39.713007 
L 229.031653 39.397076 
L 229.201335 39.62316 
L 229.371017 39.30528 
L 229.653821 39.255866 
L 229.766942 39.475486 
L 229.936624 38.989484 
L 230.106306 39.142733 
L 230.219428 38.972612 
L 230.275989 38.770927 
L 230.332549 38.806122 
L 230.558792 38.615029 
L 231.011278 38.348156 
L 231.18096 38.392527 
L 231.294081 38.319969 
L 231.350642 38.506617 
L 231.576885 37.821857 
L 231.633446 37.800372 
L 231.803128 38.034555 
L 231.97281 38.171927 
L 232.029371 38.025909 
L 232.085931 38.052353 
L 232.199053 38.174625 
L 232.255614 38.298442 
L 232.368735 38.09394 
L 232.481856 38.243489 
L 232.538417 38.080989 
L 232.594978 38.232101 
L 232.76466 38.353154 
L 232.821221 38.419797 
L 232.934342 38.098899 
L 232.990903 38.178419 
L 233.104024 38.526701 
L 233.160585 38.340973 
L 233.217146 38.372523 
L 233.726192 38.355715 
L 234.122117 38.257154 
L 234.178678 38.301913 
L 234.235238 38.533696 
L 234.291799 38.44242 
L 234.404921 38.478883 
L 234.518042 38.851252 
L 234.574603 38.820757 
L 234.687724 38.746113 
L 234.913967 39.353513 
L 235.083649 39.054534 
L 235.196771 38.940146 
L 235.253331 39.03769 
L 235.309892 39.063916 
L 235.536135 39.560999 
L 235.705817 39.208571 
L 235.93206 38.898462 
L 236.101742 39.026075 
L 236.158303 38.979565 
L 236.214863 39.104412 
L 236.327985 38.863704 
L 236.384546 38.945665 
L 236.497667 39.219806 
L 236.554228 39.186208 
L 236.780471 39.358793 
L 236.837031 39.252955 
L 236.893592 39.381951 
L 237.232956 39.68862 
L 237.402638 39.308594 
L 237.51576 39.609172 
L 237.572321 39.372372 
L 237.628881 39.669147 
L 237.685442 39.62864 
L 237.855124 39.403547 
L 237.968246 39.87366 
L 238.081367 39.731752 
L 238.364171 40.211477 
L 238.420731 40.068401 
L 238.477292 40.176006 
L 238.816656 40.326147 
L 238.986338 40.102905 
L 239.042899 40.19105 
L 239.156021 40.353227 
L 239.495385 40.0343 
L 239.608506 40.304902 
L 239.665067 40.215664 
L 239.721628 40.125017 
L 239.778188 40.235841 
L 239.834749 40.235642 
L 239.947871 39.873001 
L 240.004431 39.957426 
L 240.060992 39.926305 
L 240.343796 40.273828 
L 240.513478 40.028306 
L 240.739721 40.553287 
L 240.852842 40.346486 
L 240.909403 40.398305 
L 241.079085 40.283822 
L 241.418449 40.635906 
L 241.531571 40.595608 
L 241.757813 40.834806 
L 241.814374 40.72657 
L 241.870935 40.778247 
L 242.097178 40.887427 
L 242.379981 40.886459 
L 242.493103 40.923437 
L 242.549663 40.769227 
L 242.606224 40.826516 
L 242.719346 40.837546 
L 242.832467 41.003968 
L 243.002149 41.44203 
L 243.05871 41.442009 
L 243.284953 41.04673 
L 243.454635 41.28701 
L 243.511196 41.132893 
L 243.567756 41.03788 
L 243.737438 41.469147 
L 243.85056 41.510675 
L 243.963681 41.257196 
L 244.020242 41.502627 
L 244.076803 41.272182 
L 244.133363 41.23186 
L 244.189924 41.336515 
L 244.359606 41.16361 
L 244.529288 41.299777 
L 244.812092 40.904679 
L 245.151456 40.94389 
L 245.377699 40.864971 
L 245.490821 40.878236 
L 245.547381 40.765662 
L 245.603942 40.899636 
L 245.660503 40.870275 
L 245.717063 41.02709 
L 245.773624 40.959907 
L 245.830185 40.858512 
L 245.886746 40.894914 
L 245.999867 41.124555 
L 246.169549 40.888644 
L 246.22611 40.853566 
L 246.395792 41.080684 
L 246.565474 41.132435 
L 246.678596 41.122837 
L 246.791717 41.155563 
L 246.904838 40.906384 
L 247.074521 41.45755 
L 247.131081 41.384019 
L 247.187642 41.482392 
L 247.357324 41.094343 
L 247.413885 41.243684 
L 247.470446 41.109172 
L 247.527006 41.073681 
L 247.640128 41.400466 
L 247.80981 41.130053 
L 247.866371 41.311463 
L 247.922931 41.227971 
L 247.979492 41.034003 
L 248.036053 41.079707 
L 248.205735 41.208433 
L 248.431978 40.954742 
L 248.545099 40.879515 
L 248.60166 41.110713 
L 248.658221 41.000478 
L 248.884463 40.76107 
L 249.054146 40.482618 
L 249.167267 40.653429 
L 249.223828 40.456288 
L 249.280388 40.484084 
L 249.336949 40.739809 
L 249.39351 40.672464 
L 249.506631 40.427681 
L 249.563192 40.582685 
L 249.619753 40.534792 
L 250.128799 40.21214 
L 250.298481 40.425392 
L 250.468163 40.287077 
L 250.581285 40.186972 
L 250.807528 40.527434 
L 251.090331 41.010828 
L 251.146892 40.934786 
L 251.542817 40.529569 
L 251.655938 40.649211 
L 251.825621 41.356339 
L 251.882181 41.305134 
L 252.278106 40.973388 
L 252.447788 41.1503 
L 252.504349 41.172587 
L 252.674031 40.755223 
L 252.843713 40.600098 
L 253.069956 40.688516 
L 253.35276 40.522863 
L 253.522442 40.694045 
L 253.748685 40.533004 
L 253.918367 40.771668 
L 254.088049 40.500996 
L 254.14461 40.558437 
L 254.314292 40.124184 
L 254.653656 40.263369 
L 254.766778 39.945821 
L 254.823338 39.98481 
L 254.993021 39.946405 
L 255.106142 39.730351 
L 255.275824 40.092148 
L 255.445506 39.947632 
L 256.180796 40.536121 
L 256.237356 40.44256 
L 256.407038 40.724618 
L 256.463599 40.594939 
L 256.802963 41.317676 
L 257.029206 41.189415 
L 257.085767 41.095722 
L 257.142328 41.14062 
L 257.198888 41.182452 
L 257.425131 40.922475 
L 257.594813 40.845282 
L 257.764496 40.63047 
L 258.047299 40.360155 
L 258.10386 40.44444 
L 258.160421 40.560951 
L 258.273542 40.300097 
L 258.330103 40.3945 
L 258.556346 40.272986 
L 258.612906 40.34321 
L 258.669467 40.294359 
L 258.726028 40.212056 
L 258.782588 40.307112 
L 258.839149 40.325972 
L 258.952271 40.132601 
L 259.008831 40.190833 
L 259.178513 39.768134 
L 259.235074 39.798533 
L 259.291635 39.999157 
L 259.348196 39.975531 
L 259.404756 39.768418 
L 259.461317 39.890329 
L 259.857242 40.622623 
L 259.913803 40.588793 
L 259.970363 40.779884 
L 260.026924 40.677022 
L 260.083485 40.623482 
L 260.253167 40.97347 
L 260.366288 41.136192 
L 260.422849 40.984479 
L 260.592531 40.926483 
L 260.705653 40.773943 
L 260.818774 41.011766 
L 260.931896 40.786118 
L 260.988456 40.868927 
L 261.045017 40.804483 
L 261.101578 40.788755 
L 261.440942 41.22601 
L 261.610624 40.995454 
L 261.780306 41.20255 
L 262.006549 41.155483 
L 262.176231 40.941729 
L 262.232792 40.944536 
L 262.402474 40.540519 
L 262.572156 40.529308 
L 262.628717 40.801071 
L 262.685278 40.741694 
L 262.741838 40.745893 
L 262.798399 40.913784 
L 262.85496 40.887527 
L 263.081203 40.384928 
L 263.194324 40.327963 
L 263.533688 40.776928 
L 263.590249 40.663423 
L 263.759931 40.388643 
L 263.816492 40.438406 
L 264.155856 40.838351 
L 264.325538 40.652696 
L 264.495221 40.881864 
L 264.551781 40.789067 
L 264.664903 40.976566 
L 265.117388 40.447191 
L 265.173949 40.510964 
L 265.287071 40.548856 
L 265.456753 40.432076 
L 265.513313 40.352562 
L 265.796117 40.747299 
L 265.852678 40.406612 
L 265.909238 40.49735 
L 266.192042 40.759124 
L 266.361724 40.419796 
L 266.418285 40.553148 
L 266.644528 40.093865 
L 266.87077 40.383029 
L 267.040453 40.181335 
L 267.266695 40.534081 
L 267.323256 40.576614 
L 267.549499 40.123944 
L 267.719181 40.001215 
L 267.832303 40.320786 
L 268.001985 39.871426 
L 268.058545 39.873728 
L 268.115106 39.754951 
L 268.228228 39.911931 
L 268.39791 39.831144 
L 268.624153 40.17467 
L 280.162538 40.81028 
L 280.27566 41.003263 
L 280.33222 40.926662 
L 280.388781 40.755334 
L 280.445342 40.848684 
L 280.615024 41.072476 
L 280.671585 40.812941 
L 280.728145 40.98788 
L 280.784706 41.059503 
L 280.841267 40.941785 
L 281.06751 41.233521 
L 281.237192 41.134165 
L 281.746238 41.700408 
L 281.802799 41.652996 
L 281.91592 41.412931 
L 281.972481 41.441347 
L 282.255285 41.879291 
L 282.538088 41.510589 
L 282.594649 41.667189 
L 282.65121 41.603568 
L 282.990574 41.514465 
L 283.160256 41.39779 
L 283.216817 41.400897 
L 283.49962 40.828295 
L 283.556181 40.771226 
L 283.669303 40.903367 
L 283.895545 40.728224 
L 284.065228 41.214146 
L 284.121788 41.076459 
L 284.178349 41.273279 
L 284.23491 41.225705 
L 284.630835 40.98783 
L 284.800517 41.098381 
L 284.913638 41.325756 
L 285.02676 41.171436 
L 285.08332 41.352628 
L 285.139881 41.238017 
L 285.196442 41.071971 
L 285.253003 41.17369 
L 285.366124 41.232359 
L 285.422685 41.26758 
L 285.648928 40.813127 
L 285.81861 40.748876 
L 286.157974 41.033785 
L 286.327656 40.71895 
L 286.440778 40.672012 
L 286.553899 40.501081 
L 286.66702 40.905159 
L 286.723581 40.701932 
L 286.836703 40.885867 
L 286.893263 40.850493 
L 287.062945 40.73145 
L 287.232628 40.372776 
L 287.289188 40.436429 
L 287.685113 41.176953 
L 287.741674 41.152684 
L 287.911356 40.765095 
L 288.081038 41.124143 
L 288.307281 40.752499 
L 288.533524 40.872917 
L 289.04257 40.081087 
L 289.212253 40.275228 
L 289.268813 40.153022 
L 289.325374 40.250989 
L 289.495056 40.162964 
L 289.664738 40.220657 
L 289.947542 39.784024 
L 290.004103 39.866369 
L 290.060663 39.754789 
L 290.117224 39.790715 
L 290.173785 39.698001 
L 290.343467 39.652607 
L 290.456588 39.842172 
L 290.513149 39.766115 
L 290.56971 39.77535 
L 290.682831 39.543349 
L 291.248438 40.26217 
L 291.644363 39.742035 
L 291.814045 39.56821 
L 292.266531 38.688084 
L 292.436213 38.965985 
L 292.492774 38.884859 
L 292.549335 38.94258 
L 292.719017 38.932792 
L 292.775578 39.098471 
L 292.94526 38.810575 
L 293.171503 38.670042 
L 293.228063 38.870629 
L 293.284624 38.786145 
L 293.454306 38.749056 
L 293.79367 38.467531 
L 293.850231 38.527053 
L 293.906792 38.327307 
L 293.963353 38.454409 
L 294.019913 38.522325 
L 294.076474 38.382437 
L 294.359278 39.049684 
L 294.58552 39.063437 
L 294.868324 39.587716 
L 295.038006 39.372361 
L 295.094567 39.628486 
L 295.151128 39.472531 
L 295.207688 39.58984 
L 295.32081 39.426565 
L 295.433931 39.689973 
L 295.490492 39.619756 
L 295.603613 39.829038 
L 295.660174 40.022948 
L 295.716735 39.986652 
L 295.829856 39.793322 
L 295.999538 39.80444 
L 296.11266 39.716986 
L 296.508585 39.726506 
L 296.791388 39.32239 
L 296.847949 39.396317 
L 297.017631 39.680988 
L 297.130753 39.469012 
L 297.243874 39.923715 
L 297.300435 39.863509 
L 297.470117 39.720243 
L 297.639799 39.857555 
L 297.866042 39.646581 
L 298.035724 39.861029 
L 298.261967 39.512089 
L 298.54477 40.060561 
L 298.657892 39.869265 
L 298.714453 39.984336 
L 298.884135 40.049547 
L 299.053817 39.594955 
L 299.110378 39.659003 
L 299.166938 39.70989 
L 299.223499 39.929051 
L 299.28006 39.867661 
L 299.449742 39.83444 
L 299.732545 39.703626 
L 299.845667 39.854226 
L 299.902227 39.823699 
L 300.241592 40.251582 
L 300.298152 40.208637 
L 300.354713 40.195452 
L 300.524395 39.921951 
L 300.580956 40.111654 
L 300.637517 39.922279 
L 300.750638 39.973082 
L 300.86376 39.907552 
L 301.033442 39.995922 
L 301.203124 40.509852 
L 301.599049 40.110628 
L 301.71217 40.134009 
L 302.108095 40.878384 
L 302.164656 40.676165 
L 302.221217 40.793313 
L 302.390899 40.833017 
L 302.44746 40.907298 
L 302.50402 40.820764 
L 302.560581 40.689958 
L 302.786824 41.063198 
L 302.956506 40.862329 
L 303.408992 41.897096 
L 303.465552 41.831648 
L 303.635235 41.96684 
L 303.804917 41.889744 
L 304.08772 41.542164 
L 304.144281 41.609822 
L 304.483645 41.797295 
L 304.540206 41.63166 
L 304.596767 41.731182 
L 304.766449 41.602974 
L 304.936131 41.912352 
L 305.105813 41.614114 
L 305.162374 41.72505 
L 305.218935 41.686302 
L 305.332056 41.521276 
L 305.388617 41.688454 
L 305.501738 41.678723 
L 305.727981 41.465357 
L 305.784542 41.315005 
L 305.841102 41.391149 
L 306.010785 41.55534 
L 306.067345 41.57655 
L 306.237027 41.139468 
L 306.293588 41.172347 
L 306.350149 41.201255 
L 306.519831 40.843759 
L 306.632952 40.755381 
L 306.859195 40.384676 
L 307.028877 40.191992 
L 307.25512 40.524181 
L 307.707606 40.466364 
L 307.877288 40.703959 
L 307.933849 40.902335 
L 307.99041 40.690798 
L 308.04697 40.741021 
L 308.273213 41.404408 
L 308.329774 41.211156 
L 308.386335 41.359361 
L 308.442895 41.410031 
L 308.556017 41.206993 
L 308.612577 41.290039 
L 308.669138 41.278716 
L 308.725699 41.111106 
L 308.78226 41.157108 
L 309.291306 41.267402 
L 309.404427 41.417639 
L 309.913474 40.740474 
L 310.139717 41.058551 
L 310.309399 40.902923 
L 310.42252 41.112455 
L 310.479081 40.983724 
L 310.535642 41.019861 
L 310.648763 41.049471 
L 310.761885 41.076001 
L 310.875006 41.153428 
L 310.931567 41.075742 
L 310.988127 41.210569 
L 311.044688 41.148833 
L 311.384052 40.644174 
L 311.893099 40.175518 
L 312.119342 40.623021 
L 312.345585 40.569825 
L 312.515267 40.216771 
L 312.684949 40.259867 
L 312.74151 40.050258 
L 312.79807 40.087792 
L 313.024313 40.16164 
L 313.420238 39.456478 
L 313.58992 39.788589 
L 313.646481 39.837358 
L 313.703042 39.77171 
L 313.929285 39.710431 
L 314.042406 39.643011 
L 314.268649 39.869639 
L 314.664574 39.211209 
L 314.890817 39.432461 
L 315.060499 39.213339 
L 315.11706 39.111391 
L 315.286742 39.366411 
L 315.456424 39.567073 
L 315.569545 39.500209 
L 315.739227 39.713809 
L 315.795788 39.655261 
L 315.90891 39.940015 
L 315.96547 39.831903 
L 316.078592 39.830943 
L 316.135152 39.630337 
L 316.191713 39.693295 
L 316.248274 39.695433 
L 316.304835 39.894729 
L 316.361395 39.764733 
L 316.474517 39.675267 
L 316.644199 39.900818 
L 316.870442 39.87968 
L 317.096685 40.026327 
L 317.153245 40.079028 
L 317.379488 39.683335 
L 317.54917 39.94086 
L 317.662292 39.803916 
L 317.718852 39.846983 
L 317.775413 39.979221 
L 317.831974 39.860665 
L 318.171338 39.538869 
L 318.227899 39.592707 
L 318.34102 39.627438 
L 318.567263 39.937274 
L 318.850067 39.668145 
L 319.07631 39.655783 
L 319.245992 39.249901 
L 319.359113 39.506834 
L 319.698477 39.21209 
L 319.755038 39.274611 
L 319.92472 39.088779 
L 320.094402 39.410629 
L 320.150963 39.339217 
L 320.377206 39.248469 
L 320.490327 39.136376 
L 320.66001 38.792195 
L 320.829692 38.862306 
L 320.886252 38.87126 
L 320.999374 38.76328 
L 321.225617 38.876999 
L 321.45186 38.576218 
L 321.621542 38.884181 
L 321.904345 38.774497 
L 322.074027 38.655868 
L 322.130588 38.503103 
L 322.187149 38.591873 
L 322.356831 38.566894 
L 322.639635 39.106502 
L 322.696195 39.122669 
L 322.752756 39.018871 
L 322.809317 39.13307 
L 323.03556 39.183266 
L 323.205242 39.266004 
L 323.261802 39.136957 
L 323.318363 39.177567 
L 323.374924 39.175868 
L 323.544606 38.919975 
L 323.657727 38.853444 
L 323.770849 38.9656 
L 323.88397 38.775104 
L 324.110213 39.392279 
L 324.279895 39.143713 
L 324.336456 39.260134 
L 324.393017 39.149498 
L 324.506138 39.074642 
L 324.562699 39.145605 
L 324.61926 39.045321 
L 324.67582 39.10687 
L 324.902063 38.698157 
L 324.958624 38.733292 
L 325.128306 38.848634 
L 325.184867 38.704045 
L 325.184867 38.704045 
" clip-path="url(#p87eddf5b42)" style="fill: none; stroke: #0000ff; stroke-width: 1.5; stroke-linecap: square"/>
   </g>
   <g id="patch_3">
    <path d="M 53.75 171.16 
L 53.75 10.8 
" style="fill: none; stroke: #000000; stroke-width: 0.8; stroke-linejoin: miter; stroke-linecap: square"/>
   </g>
   <g id="patch_4">
    <path d="M 338.75661 171.16 
L 338.75661 10.8 
" style="fill: none; stroke: #000000; stroke-width: 0.8; stroke-linejoin: miter; stroke-linecap: square"/>
   </g>
   <g id="patch_5">
    <path d="M 53.75 171.16 
L 338.75661 171.16 
" style="fill: none; stroke: #000000; stroke-width: 0.8; stroke-linejoin: miter; stroke-linecap: square"/>
   </g>
   <g id="patch_6">
    <path d="M 53.75 10.8 
L 338.75661 10.8 
" style="fill: none; stroke: #000000; stroke-width: 0.8; stroke-linejoin: miter; stroke-linecap: square"/>
   </g>
  </g>
 </g>
 <defs>
  <clipPath id="p87eddf5b42">
   <rect x="53.75" y="10.8" width="285.00661" height="160.36"/>
  </clipPath>
 </defs>
</svg>
