<?xml version="1.0" encoding="utf-8" standalone="no"?>
<!DOCTYPE svg PUBLIC "-//W3C//DTD SVG 1.1//EN"
  "http://www.w3.org/Graphics/SVG/1.1/DTD/svg11.dtd">
<svg xmlns:xlink="http://www.w3.org/1999/xlink" width="360pt" height="216pt" viewBox="0 0 360 216" xmlns="http://www.w3.org/2000/svg" version="1.1">
 <metadata>
  <rdf:RDF xmlns:dc="http://purl.org/dc/elements/1.1/" xmlns:cc="http://creativecommons.org/ns#" xmlns:rdf="http://www.w3.org/1999/02/22-rdf-syntax-ns#">
   <cc:Work>
    <dc:type rdf:resource="http://purl.org/dc/dcmitype/StillImage"/>
    <dc:date>2024-01-07T08:22:53.997694</dc:date>
    <dc:format>image/svg+xml</dc:format>
    <dc:creator>
     <cc:Agent>
      <dc:title>Matplotlib v3.7.4, https://matplotlib.org/</dc:title>
     </cc:Agent>
    </dc:creator>
   </cc:Work>
  </rdf:RDF>
 </metadata>
 <defs>
  <style type="text/css">*{stroke-linejoin: round; stroke-linecap: butt}</style>
 </defs>
 <g id="figure_1">
  <g id="patch_1">
   <path d="M 0 216 
L 360 216 
L 360 0 
L 0 0 
z
" style="fill: #ffffff"/>
  </g>
  <g id="axes_1">
   <g id="patch_2">
    <path d="M 50.6 171.16 
L 338.75661 171.16 
L 338.75661 10.8 
L 50.6 10.8 
z
" style="fill: #ffffff"/>
   </g>
   <g id="matplotlib.axis_1">
    <g id="xtick_1">
     <g id="line2d_1">
      <defs>
       <path id="maeed5d3e16" d="M 0 0 
L 0 3.5 
" style="stroke: #000000; stroke-width: 0.8"/>
      </defs>
      <g>
       <use xlink:href="#maeed5d3e16" x="50.6" y="171.16" style="stroke: #000000; stroke-width: 0.8"/>
      </g>
     </g>
     <g id="text_1">
      <!-- 0 -->
      <g transform="translate(47.41875 185.758437) scale(0.1 -0.1)">
       <defs>
        <path id="DejaVuSans-30" d="M 2034 4250 
Q 1547 4250 1301 3770 
Q 1056 3291 1056 2328 
Q 1056 1369 1301 889 
Q 1547 409 2034 409 
Q 2525 409 2770 889 
Q 3016 1369 3016 2328 
Q 3016 3291 2770 3770 
Q 2525 4250 2034 4250 
z
M 2034 4750 
Q 2819 4750 3233 4129 
Q 3647 3509 3647 2328 
Q 3647 1150 3233 529 
Q 2819 -91 2034 -91 
Q 1250 -91 836 529 
Q 422 1150 422 2328 
Q 422 3509 836 4129 
Q 1250 4750 2034 4750 
z
" transform="scale(0.015625)"/>
       </defs>
       <use xlink:href="#DejaVuSans-30"/>
      </g>
     </g>
    </g>
    <g id="xtick_2">
     <g id="line2d_2">
      <g>
       <use xlink:href="#maeed5d3e16" x="107.785844" y="171.16" style="stroke: #000000; stroke-width: 0.8"/>
      </g>
     </g>
     <g id="text_2">
      <!-- 1000 -->
      <g transform="translate(95.060844 185.758437) scale(0.1 -0.1)">
       <defs>
        <path id="DejaVuSans-31" d="M 794 531 
L 1825 531 
L 1825 4091 
L 703 3866 
L 703 4441 
L 1819 4666 
L 2450 4666 
L 2450 531 
L 3481 531 
L 3481 0 
L 794 0 
L 794 531 
z
" transform="scale(0.015625)"/>
       </defs>
       <use xlink:href="#DejaVuSans-31"/>
       <use xlink:href="#DejaVuSans-30" x="63.623047"/>
       <use xlink:href="#DejaVuSans-30" x="127.246094"/>
       <use xlink:href="#DejaVuSans-30" x="190.869141"/>
      </g>
     </g>
    </g>
    <g id="xtick_3">
     <g id="line2d_3">
      <g>
       <use xlink:href="#maeed5d3e16" x="164.971689" y="171.16" style="stroke: #000000; stroke-width: 0.8"/>
      </g>
     </g>
     <g id="text_3">
      <!-- 2000 -->
      <g transform="translate(152.246689 185.758437) scale(0.1 -0.1)">
       <defs>
        <path id="DejaVuSans-32" d="M 1228 531 
L 3431 531 
L 3431 0 
L 469 0 
L 469 531 
Q 828 903 1448 1529 
Q 2069 2156 2228 2338 
Q 2531 2678 2651 2914 
Q 2772 3150 2772 3378 
Q 2772 3750 2511 3984 
Q 2250 4219 1831 4219 
Q 1534 4219 1204 4116 
Q 875 4013 500 3803 
L 500 4441 
Q 881 4594 1212 4672 
Q 1544 4750 1819 4750 
Q 2544 4750 2975 4387 
Q 3406 4025 3406 3419 
Q 3406 3131 3298 2873 
Q 3191 2616 2906 2266 
Q 2828 2175 2409 1742 
Q 1991 1309 1228 531 
z
" transform="scale(0.015625)"/>
       </defs>
       <use xlink:href="#DejaVuSans-32"/>
       <use xlink:href="#DejaVuSans-30" x="63.623047"/>
       <use xlink:href="#DejaVuSans-30" x="127.246094"/>
       <use xlink:href="#DejaVuSans-30" x="190.869141"/>
      </g>
     </g>
    </g>
    <g id="xtick_4">
     <g id="line2d_4">
      <g>
       <use xlink:href="#maeed5d3e16" x="222.157533" y="171.16" style="stroke: #000000; stroke-width: 0.8"/>
      </g>
     </g>
     <g id="text_4">
      <!-- 3000 -->
      <g transform="translate(209.432533 185.758437) scale(0.1 -0.1)">
       <defs>
        <path id="DejaVuSans-33" d="M 2597 2516 
Q 3050 2419 3304 2112 
Q 3559 1806 3559 1356 
Q 3559 666 3084 287 
Q 2609 -91 1734 -91 
Q 1441 -91 1130 -33 
Q 819 25 488 141 
L 488 750 
Q 750 597 1062 519 
Q 1375 441 1716 441 
Q 2309 441 2620 675 
Q 2931 909 2931 1356 
Q 2931 1769 2642 2001 
Q 2353 2234 1838 2234 
L 1294 2234 
L 1294 2753 
L 1863 2753 
Q 2328 2753 2575 2939 
Q 2822 3125 2822 3475 
Q 2822 3834 2567 4026 
Q 2313 4219 1838 4219 
Q 1578 4219 1281 4162 
Q 984 4106 628 3988 
L 628 4550 
Q 988 4650 1302 4700 
Q 1616 4750 1894 4750 
Q 2613 4750 3031 4423 
Q 3450 4097 3450 3541 
Q 3450 3153 3228 2886 
Q 3006 2619 2597 2516 
z
" transform="scale(0.015625)"/>
       </defs>
       <use xlink:href="#DejaVuSans-33"/>
       <use xlink:href="#DejaVuSans-30" x="63.623047"/>
       <use xlink:href="#DejaVuSans-30" x="127.246094"/>
       <use xlink:href="#DejaVuSans-30" x="190.869141"/>
      </g>
     </g>
    </g>
    <g id="xtick_5">
     <g id="line2d_5">
      <g>
       <use xlink:href="#maeed5d3e16" x="279.343377" y="171.16" style="stroke: #000000; stroke-width: 0.8"/>
      </g>
     </g>
     <g id="text_5">
      <!-- 4000 -->
      <g transform="translate(266.618377 185.758437) scale(0.1 -0.1)">
       <defs>
        <path id="DejaVuSans-34" d="M 2419 4116 
L 825 1625 
L 2419 1625 
L 2419 4116 
z
M 2253 4666 
L 3047 4666 
L 3047 1625 
L 3713 1625 
L 3713 1100 
L 3047 1100 
L 3047 0 
L 2419 0 
L 2419 1100 
L 313 1100 
L 313 1709 
L 2253 4666 
z
" transform="scale(0.015625)"/>
       </defs>
       <use xlink:href="#DejaVuSans-34"/>
       <use xlink:href="#DejaVuSans-30" x="63.623047"/>
       <use xlink:href="#DejaVuSans-30" x="127.246094"/>
       <use xlink:href="#DejaVuSans-30" x="190.869141"/>
      </g>
     </g>
    </g>
    <g id="xtick_6">
     <g id="line2d_6">
      <g>
       <use xlink:href="#maeed5d3e16" x="336.529221" y="171.16" style="stroke: #000000; stroke-width: 0.8"/>
      </g>
     </g>
     <g id="text_6">
      <!-- 5000 -->
      <g transform="translate(323.804221 185.758437) scale(0.1 -0.1)">
       <defs>
        <path id="DejaVuSans-35" d="M 691 4666 
L 3169 4666 
L 3169 4134 
L 1269 4134 
L 1269 2991 
Q 1406 3038 1543 3061 
Q 1681 3084 1819 3084 
Q 2600 3084 3056 2656 
Q 3513 2228 3513 1497 
Q 3513 744 3044 326 
Q 2575 -91 1722 -91 
Q 1428 -91 1123 -41 
Q 819 9 494 109 
L 494 744 
Q 775 591 1075 516 
Q 1375 441 1709 441 
Q 2250 441 2565 725 
Q 2881 1009 2881 1497 
Q 2881 1984 2565 2268 
Q 2250 2553 1709 2553 
Q 1456 2553 1204 2497 
Q 953 2441 691 2322 
L 691 4666 
z
" transform="scale(0.015625)"/>
       </defs>
       <use xlink:href="#DejaVuSans-35"/>
       <use xlink:href="#DejaVuSans-30" x="63.623047"/>
       <use xlink:href="#DejaVuSans-30" x="127.246094"/>
       <use xlink:href="#DejaVuSans-30" x="190.869141"/>
      </g>
     </g>
    </g>
    <g id="text_7">
     <!-- Episode -->
     <g transform="translate(171.113305 200.95625) scale(0.12 -0.12)">
      <defs>
       <path id="DejaVuSans-45" d="M 628 4666 
L 3578 4666 
L 3578 4134 
L 1259 4134 
L 1259 2753 
L 3481 2753 
L 3481 2222 
L 1259 2222 
L 1259 531 
L 3634 531 
L 3634 0 
L 628 0 
L 628 4666 
z
" transform="scale(0.015625)"/>
       <path id="DejaVuSans-70" d="M 1159 525 
L 1159 -1331 
L 581 -1331 
L 581 3500 
L 1159 3500 
L 1159 2969 
Q 1341 3281 1617 3432 
Q 1894 3584 2278 3584 
Q 2916 3584 3314 3078 
Q 3713 2572 3713 1747 
Q 3713 922 3314 415 
Q 2916 -91 2278 -91 
Q 1894 -91 1617 61 
Q 1341 213 1159 525 
z
M 3116 1747 
Q 3116 2381 2855 2742 
Q 2594 3103 2138 3103 
Q 1681 3103 1420 2742 
Q 1159 2381 1159 1747 
Q 1159 1113 1420 752 
Q 1681 391 2138 391 
Q 2594 391 2855 752 
Q 3116 1113 3116 1747 
z
" transform="scale(0.015625)"/>
       <path id="DejaVuSans-69" d="M 603 3500 
L 1178 3500 
L 1178 0 
L 603 0 
L 603 3500 
z
M 603 4863 
L 1178 4863 
L 1178 4134 
L 603 4134 
L 603 4863 
z
" transform="scale(0.015625)"/>
       <path id="DejaVuSans-73" d="M 2834 3397 
L 2834 2853 
Q 2591 2978 2328 3040 
Q 2066 3103 1784 3103 
Q 1356 3103 1142 2972 
Q 928 2841 928 2578 
Q 928 2378 1081 2264 
Q 1234 2150 1697 2047 
L 1894 2003 
Q 2506 1872 2764 1633 
Q 3022 1394 3022 966 
Q 3022 478 2636 193 
Q 2250 -91 1575 -91 
Q 1294 -91 989 -36 
Q 684 19 347 128 
L 347 722 
Q 666 556 975 473 
Q 1284 391 1588 391 
Q 1994 391 2212 530 
Q 2431 669 2431 922 
Q 2431 1156 2273 1281 
Q 2116 1406 1581 1522 
L 1381 1569 
Q 847 1681 609 1914 
Q 372 2147 372 2553 
Q 372 3047 722 3315 
Q 1072 3584 1716 3584 
Q 2034 3584 2315 3537 
Q 2597 3491 2834 3397 
z
" transform="scale(0.015625)"/>
       <path id="DejaVuSans-6f" d="M 1959 3097 
Q 1497 3097 1228 2736 
Q 959 2375 959 1747 
Q 959 1119 1226 758 
Q 1494 397 1959 397 
Q 2419 397 2687 759 
Q 2956 1122 2956 1747 
Q 2956 2369 2687 2733 
Q 2419 3097 1959 3097 
z
M 1959 3584 
Q 2709 3584 3137 3096 
Q 3566 2609 3566 1747 
Q 3566 888 3137 398 
Q 2709 -91 1959 -91 
Q 1206 -91 779 398 
Q 353 888 353 1747 
Q 353 2609 779 3096 
Q 1206 3584 1959 3584 
z
" transform="scale(0.015625)"/>
       <path id="DejaVuSans-64" d="M 2906 2969 
L 2906 4863 
L 3481 4863 
L 3481 0 
L 2906 0 
L 2906 525 
Q 2725 213 2448 61 
Q 2172 -91 1784 -91 
Q 1150 -91 751 415 
Q 353 922 353 1747 
Q 353 2572 751 3078 
Q 1150 3584 1784 3584 
Q 2172 3584 2448 3432 
Q 2725 3281 2906 2969 
z
M 947 1747 
Q 947 1113 1208 752 
Q 1469 391 1925 391 
Q 2381 391 2643 752 
Q 2906 1113 2906 1747 
Q 2906 2381 2643 2742 
Q 2381 3103 1925 3103 
Q 1469 3103 1208 2742 
Q 947 2381 947 1747 
z
" transform="scale(0.015625)"/>
       <path id="DejaVuSans-65" d="M 3597 1894 
L 3597 1613 
L 953 1613 
Q 991 1019 1311 708 
Q 1631 397 2203 397 
Q 2534 397 2845 478 
Q 3156 559 3463 722 
L 3463 178 
Q 3153 47 2828 -22 
Q 2503 -91 2169 -91 
Q 1331 -91 842 396 
Q 353 884 353 1716 
Q 353 2575 817 3079 
Q 1281 3584 2069 3584 
Q 2775 3584 3186 3129 
Q 3597 2675 3597 1894 
z
M 3022 2063 
Q 3016 2534 2758 2815 
Q 2500 3097 2075 3097 
Q 1594 3097 1305 2825 
Q 1016 2553 972 2059 
L 3022 2063 
z
" transform="scale(0.015625)"/>
      </defs>
      <use xlink:href="#DejaVuSans-45"/>
      <use xlink:href="#DejaVuSans-70" x="63.183594"/>
      <use xlink:href="#DejaVuSans-69" x="126.660156"/>
      <use xlink:href="#DejaVuSans-73" x="154.443359"/>
      <use xlink:href="#DejaVuSans-6f" x="206.542969"/>
      <use xlink:href="#DejaVuSans-64" x="267.724609"/>
      <use xlink:href="#DejaVuSans-65" x="331.201172"/>
     </g>
    </g>
   </g>
   <g id="matplotlib.axis_2">
    <g id="ytick_1">
     <g id="line2d_7">
      <defs>
       <path id="m6de75db0a8" d="M 0 0 
L -3.5 0 
" style="stroke: #000000; stroke-width: 0.8"/>
      </defs>
      <g>
       <use xlink:href="#m6de75db0a8" x="50.6" y="171.16" style="stroke: #000000; stroke-width: 0.8"/>
      </g>
     </g>
     <g id="text_8">
      <!-- 0.0 -->
      <g transform="translate(27.696875 174.959219) scale(0.1 -0.1)">
       <defs>
        <path id="DejaVuSans-2e" d="M 684 794 
L 1344 794 
L 1344 0 
L 684 0 
L 684 794 
z
" transform="scale(0.015625)"/>
       </defs>
       <use xlink:href="#DejaVuSans-30"/>
       <use xlink:href="#DejaVuSans-2e" x="63.623047"/>
       <use xlink:href="#DejaVuSans-30" x="95.410156"/>
      </g>
     </g>
    </g>
    <g id="ytick_2">
     <g id="line2d_8">
      <g>
       <use xlink:href="#m6de75db0a8" x="50.6" y="149.629215" style="stroke: #000000; stroke-width: 0.8"/>
      </g>
     </g>
     <g id="text_9">
      <!-- 0.1 -->
      <g transform="translate(27.696875 153.428434) scale(0.1 -0.1)">
       <use xlink:href="#DejaVuSans-30"/>
       <use xlink:href="#DejaVuSans-2e" x="63.623047"/>
       <use xlink:href="#DejaVuSans-31" x="95.410156"/>
      </g>
     </g>
    </g>
    <g id="ytick_3">
     <g id="line2d_9">
      <g>
       <use xlink:href="#m6de75db0a8" x="50.6" y="128.098431" style="stroke: #000000; stroke-width: 0.8"/>
      </g>
     </g>
     <g id="text_10">
      <!-- 0.2 -->
      <g transform="translate(27.696875 131.89765) scale(0.1 -0.1)">
       <use xlink:href="#DejaVuSans-30"/>
       <use xlink:href="#DejaVuSans-2e" x="63.623047"/>
       <use xlink:href="#DejaVuSans-32" x="95.410156"/>
      </g>
     </g>
    </g>
    <g id="ytick_4">
     <g id="line2d_10">
      <g>
       <use xlink:href="#m6de75db0a8" x="50.6" y="106.567646" style="stroke: #000000; stroke-width: 0.8"/>
      </g>
     </g>
     <g id="text_11">
      <!-- 0.3 -->
      <g transform="translate(27.696875 110.366865) scale(0.1 -0.1)">
       <use xlink:href="#DejaVuSans-30"/>
       <use xlink:href="#DejaVuSans-2e" x="63.623047"/>
       <use xlink:href="#DejaVuSans-33" x="95.410156"/>
      </g>
     </g>
    </g>
    <g id="ytick_5">
     <g id="line2d_11">
      <g>
       <use xlink:href="#m6de75db0a8" x="50.6" y="85.036862" style="stroke: #000000; stroke-width: 0.8"/>
      </g>
     </g>
     <g id="text_12">
      <!-- 0.4 -->
      <g transform="translate(27.696875 88.83608) scale(0.1 -0.1)">
       <use xlink:href="#DejaVuSans-30"/>
       <use xlink:href="#DejaVuSans-2e" x="63.623047"/>
       <use xlink:href="#DejaVuSans-34" x="95.410156"/>
      </g>
     </g>
    </g>
    <g id="ytick_6">
     <g id="line2d_12">
      <g>
       <use xlink:href="#m6de75db0a8" x="50.6" y="63.506077" style="stroke: #000000; stroke-width: 0.8"/>
      </g>
     </g>
     <g id="text_13">
      <!-- 0.5 -->
      <g transform="translate(27.696875 67.305296) scale(0.1 -0.1)">
       <use xlink:href="#DejaVuSans-30"/>
       <use xlink:href="#DejaVuSans-2e" x="63.623047"/>
       <use xlink:href="#DejaVuSans-35" x="95.410156"/>
      </g>
     </g>
    </g>
    <g id="ytick_7">
     <g id="line2d_13">
      <g>
       <use xlink:href="#m6de75db0a8" x="50.6" y="41.975292" style="stroke: #000000; stroke-width: 0.8"/>
      </g>
     </g>
     <g id="text_14">
      <!-- 0.6 -->
      <g transform="translate(27.696875 45.774511) scale(0.1 -0.1)">
       <defs>
        <path id="DejaVuSans-36" d="M 2113 2584 
Q 1688 2584 1439 2293 
Q 1191 2003 1191 1497 
Q 1191 994 1439 701 
Q 1688 409 2113 409 
Q 2538 409 2786 701 
Q 3034 994 3034 1497 
Q 3034 2003 2786 2293 
Q 2538 2584 2113 2584 
z
M 3366 4563 
L 3366 3988 
Q 3128 4100 2886 4159 
Q 2644 4219 2406 4219 
Q 1781 4219 1451 3797 
Q 1122 3375 1075 2522 
Q 1259 2794 1537 2939 
Q 1816 3084 2150 3084 
Q 2853 3084 3261 2657 
Q 3669 2231 3669 1497 
Q 3669 778 3244 343 
Q 2819 -91 2113 -91 
Q 1303 -91 875 529 
Q 447 1150 447 2328 
Q 447 3434 972 4092 
Q 1497 4750 2381 4750 
Q 2619 4750 2861 4703 
Q 3103 4656 3366 4563 
z
" transform="scale(0.015625)"/>
       </defs>
       <use xlink:href="#DejaVuSans-30"/>
       <use xlink:href="#DejaVuSans-2e" x="63.623047"/>
       <use xlink:href="#DejaVuSans-36" x="95.410156"/>
      </g>
     </g>
    </g>
    <g id="ytick_8">
     <g id="line2d_14">
      <g>
       <use xlink:href="#m6de75db0a8" x="50.6" y="20.444508" style="stroke: #000000; stroke-width: 0.8"/>
      </g>
     </g>
     <g id="text_15">
      <!-- 0.7 -->
      <g transform="translate(27.696875 24.243727) scale(0.1 -0.1)">
       <defs>
        <path id="DejaVuSans-37" d="M 525 4666 
L 3525 4666 
L 3525 4397 
L 1831 0 
L 1172 0 
L 2766 4134 
L 525 4134 
L 525 4666 
z
" transform="scale(0.015625)"/>
       </defs>
       <use xlink:href="#DejaVuSans-30"/>
       <use xlink:href="#DejaVuSans-2e" x="63.623047"/>
       <use xlink:href="#DejaVuSans-37" x="95.410156"/>
      </g>
     </g>
    </g>
    <g id="text_16">
     <!-- Equality (E) -->
     <g transform="translate(21.20125 125.676875) rotate(-90) scale(0.12 -0.12)">
      <defs>
       <path id="DejaVuSans-71" d="M 947 1747 
Q 947 1113 1208 752 
Q 1469 391 1925 391 
Q 2381 391 2643 752 
Q 2906 1113 2906 1747 
Q 2906 2381 2643 2742 
Q 2381 3103 1925 3103 
Q 1469 3103 1208 2742 
Q 947 2381 947 1747 
z
M 2906 525 
Q 2725 213 2448 61 
Q 2172 -91 1784 -91 
Q 1150 -91 751 415 
Q 353 922 353 1747 
Q 353 2572 751 3078 
Q 1150 3584 1784 3584 
Q 2172 3584 2448 3432 
Q 2725 3281 2906 2969 
L 2906 3500 
L 3481 3500 
L 3481 -1331 
L 2906 -1331 
L 2906 525 
z
" transform="scale(0.015625)"/>
       <path id="DejaVuSans-75" d="M 544 1381 
L 544 3500 
L 1119 3500 
L 1119 1403 
Q 1119 906 1312 657 
Q 1506 409 1894 409 
Q 2359 409 2629 706 
Q 2900 1003 2900 1516 
L 2900 3500 
L 3475 3500 
L 3475 0 
L 2900 0 
L 2900 538 
Q 2691 219 2414 64 
Q 2138 -91 1772 -91 
Q 1169 -91 856 284 
Q 544 659 544 1381 
z
M 1991 3584 
L 1991 3584 
z
" transform="scale(0.015625)"/>
       <path id="DejaVuSans-61" d="M 2194 1759 
Q 1497 1759 1228 1600 
Q 959 1441 959 1056 
Q 959 750 1161 570 
Q 1363 391 1709 391 
Q 2188 391 2477 730 
Q 2766 1069 2766 1631 
L 2766 1759 
L 2194 1759 
z
M 3341 1997 
L 3341 0 
L 2766 0 
L 2766 531 
Q 2569 213 2275 61 
Q 1981 -91 1556 -91 
Q 1019 -91 701 211 
Q 384 513 384 1019 
Q 384 1609 779 1909 
Q 1175 2209 1959 2209 
L 2766 2209 
L 2766 2266 
Q 2766 2663 2505 2880 
Q 2244 3097 1772 3097 
Q 1472 3097 1187 3025 
Q 903 2953 641 2809 
L 641 3341 
Q 956 3463 1253 3523 
Q 1550 3584 1831 3584 
Q 2591 3584 2966 3190 
Q 3341 2797 3341 1997 
z
" transform="scale(0.015625)"/>
       <path id="DejaVuSans-6c" d="M 603 4863 
L 1178 4863 
L 1178 0 
L 603 0 
L 603 4863 
z
" transform="scale(0.015625)"/>
       <path id="DejaVuSans-74" d="M 1172 4494 
L 1172 3500 
L 2356 3500 
L 2356 3053 
L 1172 3053 
L 1172 1153 
Q 1172 725 1289 603 
Q 1406 481 1766 481 
L 2356 481 
L 2356 0 
L 1766 0 
Q 1100 0 847 248 
Q 594 497 594 1153 
L 594 3053 
L 172 3053 
L 172 3500 
L 594 3500 
L 594 4494 
L 1172 4494 
z
" transform="scale(0.015625)"/>
       <path id="DejaVuSans-79" d="M 2059 -325 
Q 1816 -950 1584 -1140 
Q 1353 -1331 966 -1331 
L 506 -1331 
L 506 -850 
L 844 -850 
Q 1081 -850 1212 -737 
Q 1344 -625 1503 -206 
L 1606 56 
L 191 3500 
L 800 3500 
L 1894 763 
L 2988 3500 
L 3597 3500 
L 2059 -325 
z
" transform="scale(0.015625)"/>
       <path id="DejaVuSans-20" transform="scale(0.015625)"/>
       <path id="DejaVuSans-28" d="M 1984 4856 
Q 1566 4138 1362 3434 
Q 1159 2731 1159 2009 
Q 1159 1288 1364 580 
Q 1569 -128 1984 -844 
L 1484 -844 
Q 1016 -109 783 600 
Q 550 1309 550 2009 
Q 550 2706 781 3412 
Q 1013 4119 1484 4856 
L 1984 4856 
z
" transform="scale(0.015625)"/>
       <path id="DejaVuSans-29" d="M 513 4856 
L 1013 4856 
Q 1481 4119 1714 3412 
Q 1947 2706 1947 2009 
Q 1947 1309 1714 600 
Q 1481 -109 1013 -844 
L 513 -844 
Q 928 -128 1133 580 
Q 1338 1288 1338 2009 
Q 1338 2731 1133 3434 
Q 928 4138 513 4856 
z
" transform="scale(0.015625)"/>
      </defs>
      <use xlink:href="#DejaVuSans-45"/>
      <use xlink:href="#DejaVuSans-71" x="63.183594"/>
      <use xlink:href="#DejaVuSans-75" x="126.660156"/>
      <use xlink:href="#DejaVuSans-61" x="190.039062"/>
      <use xlink:href="#DejaVuSans-6c" x="251.318359"/>
      <use xlink:href="#DejaVuSans-69" x="279.101562"/>
      <use xlink:href="#DejaVuSans-74" x="306.884766"/>
      <use xlink:href="#DejaVuSans-79" x="346.09375"/>
      <use xlink:href="#DejaVuSans-20" x="405.273438"/>
      <use xlink:href="#DejaVuSans-28" x="437.060547"/>
      <use xlink:href="#DejaVuSans-45" x="476.074219"/>
      <use xlink:href="#DejaVuSans-29" x="539.257812"/>
     </g>
    </g>
   </g>
   <g id="line2d_15">
    <path d="M 50.6 42.56225 
L 50.657186 42.491925 
L 51.000301 43.633331 
L 51.057487 43.720193 
L 51.114673 43.565098 
L 51.171858 43.732868 
L 51.229044 43.664627 
L 51.400602 43.324472 
L 51.514974 43.42399 
L 51.629345 43.323656 
L 51.686531 43.47575 
L 51.743717 43.237201 
L 51.800903 43.269412 
L 51.858089 43.286739 
L 51.915274 43.138744 
L 51.97246 43.481403 
L 52.029646 43.287759 
L 52.086832 43.099784 
L 52.144018 43.196574 
L 52.201204 43.162185 
L 52.372761 43.472135 
L 52.429947 43.458731 
L 52.601505 42.924958 
L 52.65869 42.945107 
L 52.715876 42.846827 
L 52.773062 43.031848 
L 52.830248 42.884532 
L 52.94462 42.654338 
L 53.173363 42.146869 
L 53.287735 42.352853 
L 53.63085 41.735424 
L 53.859593 41.673336 
L 53.916779 41.605448 
L 53.973965 41.77875 
L 54.031151 41.569455 
L 54.088337 41.799653 
L 54.145522 41.749616 
L 54.202708 41.658824 
L 54.31708 41.07354 
L 54.374266 41.178074 
L 54.431452 41.256278 
L 54.488637 41.203222 
L 54.545823 41.186112 
L 54.660195 40.946865 
L 54.717381 41.042428 
L 54.774567 40.905518 
L 54.831752 40.94414 
L 55.117682 40.866641 
L 55.174868 41.033058 
L 55.289239 40.773446 
L 55.346425 40.818238 
L 55.403611 41.05165 
L 55.460797 40.972524 
L 55.68954 40.98827 
L 55.803912 41.260054 
L 55.975469 40.832005 
L 56.089841 40.829389 
L 56.37577 40.319256 
L 56.661699 41.014971 
L 56.718885 41.145285 
L 56.776071 41.038719 
L 56.890443 41.076477 
L 57.062 40.389473 
L 57.176372 40.533849 
L 57.290744 40.804135 
L 57.34793 40.647547 
L 57.405115 40.795367 
L 57.576673 41.231437 
L 57.633859 41.10421 
L 57.691045 40.531217 
L 57.748231 40.652893 
L 57.862602 40.525868 
L 58.03416 40.70334 
L 58.148531 40.564073 
L 58.205717 40.759194 
L 58.262903 40.646536 
L 58.377275 40.466348 
L 58.548832 41.056939 
L 58.834762 41.309927 
L 59.063505 41.844867 
L 59.120691 42.035086 
L 59.177877 41.99089 
L 59.349434 41.795691 
L 59.520992 41.862464 
L 59.749735 41.096889 
L 59.864107 41.287403 
L 60.435965 40.225564 
L 60.493151 39.964483 
L 60.550337 40.144686 
L 60.77908 40.283524 
L 60.893452 39.928595 
L 60.950638 40.168573 
L 61.007824 40.028834 
L 61.06501 40.007253 
L 61.122195 40.209964 
L 61.179381 40.038154 
L 61.350939 40.423355 
L 61.408125 40.156669 
L 61.46531 40.219516 
L 61.522496 40.182399 
L 61.75124 40.440703 
L 61.922797 40.36787 
L 62.094355 40.529964 
L 62.208726 40.43079 
L 62.265912 40.116609 
L 62.323098 40.496377 
L 62.380284 40.188759 
L 62.494656 39.879833 
L 62.551841 40.170525 
L 62.609027 40.077566 
L 62.952142 39.641496 
L 63.009328 39.870591 
L 63.066514 39.685561 
L 63.180886 39.736762 
L 63.238072 39.780928 
L 63.295257 39.511845 
L 63.352443 39.787997 
L 63.409629 39.566081 
L 63.524001 39.796516 
L 63.80993 39.225947 
L 63.981488 39.442208 
L 64.095859 39.354319 
L 64.267417 39.450588 
L 64.381788 39.442021 
L 64.438974 39.601445 
L 64.49616 39.500952 
L 64.553346 39.410467 
L 64.610532 39.670081 
L 64.667718 39.533746 
L 64.724904 39.434002 
L 64.896461 39.701392 
L 64.953647 39.607693 
L 65.068019 39.742224 
L 65.125204 39.421341 
L 65.18239 39.56327 
L 65.296762 39.772241 
L 65.697063 39.539149 
L 65.754249 39.922392 
L 65.811435 39.773818 
L 65.982992 39.247513 
L 66.326107 39.705346 
L 66.383293 39.489193 
L 66.612036 40.254858 
L 66.783594 40.309882 
L 66.84078 40.176512 
L 66.897966 40.320296 
L 66.955151 40.527358 
L 67.012337 40.493754 
L 67.069523 40.519026 
L 67.126709 40.821831 
L 67.183895 40.691876 
L 67.355452 40.689966 
L 67.584196 40.501949 
L 67.870125 41.728458 
L 67.927311 41.591989 
L 68.098868 41.977726 
L 68.156054 41.876213 
L 68.21324 41.9646 
L 68.270426 41.988538 
L 68.327612 41.641654 
L 68.499169 42.367631 
L 68.556355 42.437603 
L 68.842284 41.444652 
L 68.89947 41.650257 
L 68.956656 41.566526 
L 69.013842 41.259887 
L 69.071028 41.328563 
L 69.242585 41.870885 
L 69.356957 41.554142 
L 69.414143 41.648468 
L 69.471329 41.600884 
L 69.642886 41.727556 
L 69.814444 42.041972 
L 70.043187 41.320683 
L 70.157559 41.086772 
L 70.214745 41.183292 
L 70.27193 41.299925 
L 70.329116 41.203504 
L 70.386302 41.239932 
L 70.615045 40.875236 
L 70.786603 40.596572 
L 70.843789 40.736409 
L 70.958161 40.733638 
L 71.015346 40.879908 
L 71.072532 40.64321 
L 71.129718 40.710263 
L 71.186904 40.999907 
L 71.24409 40.829183 
L 71.472833 41.401282 
L 71.644391 41.034832 
L 71.815948 41.424063 
L 72.044692 40.565725 
L 72.216249 40.468503 
L 72.330621 40.714302 
L 72.387807 40.60394 
L 72.444993 40.306908 
L 72.502178 40.410698 
L 72.559364 40.334248 
L 72.61655 40.448938 
L 72.673736 40.345167 
L 72.730922 40.308298 
L 72.788108 40.076894 
L 72.845293 40.186382 
L 72.902479 40.133971 
L 73.016851 40.31868 
L 73.074037 40.152601 
L 73.131223 40.195 
L 73.359966 40.790732 
L 73.588709 40.127628 
L 73.760267 39.618037 
L 73.874639 39.987118 
L 73.931824 39.917604 
L 74.046196 39.780286 
L 74.103382 39.831422 
L 74.446497 39.720957 
L 74.618055 40.138499 
L 74.67524 39.999101 
L 74.846798 40.263218 
L 74.96117 39.939035 
L 75.018356 39.996598 
L 75.247099 40.59098 
L 75.6474 40.091911 
L 75.761771 40.230307 
L 75.876143 40.029439 
L 75.933329 40.062445 
L 75.990515 40.225333 
L 76.047701 39.910349 
L 76.104887 40.005194 
L 76.162072 40.430491 
L 76.219258 40.281122 
L 76.33363 40.436931 
L 76.505187 40.261217 
L 76.619559 40.773775 
L 76.676745 40.613524 
L 76.733931 40.701242 
L 76.791117 40.621039 
L 76.848303 40.65009 
L 77.01986 40.969304 
L 77.305789 41.434895 
L 77.362975 41.45913 
L 77.534533 41.804987 
L 77.648904 41.512668 
L 77.70609 41.605531 
L 77.763276 41.573062 
L 77.820462 41.806197 
L 77.934834 41.050964 
L 77.992019 41.22388 
L 78.049205 41.084688 
L 78.106391 41.16202 
L 78.163577 41.431849 
L 78.220763 41.191746 
L 78.449506 41.097142 
L 78.506692 41.132979 
L 78.563878 40.98122 
L 78.621064 41.118368 
L 78.735435 40.884109 
L 78.792621 40.932186 
L 78.964179 40.945924 
L 79.021365 41.096545 
L 79.07855 40.902122 
L 79.135736 41.102475 
L 79.192922 40.999779 
L 79.421666 40.249688 
L 79.478851 40.073619 
L 79.536037 40.188661 
L 79.650409 40.359832 
L 79.821966 40.138675 
L 79.879152 40.283615 
L 80.107896 39.54105 
L 80.165081 39.587013 
L 80.279453 40.082009 
L 80.336639 39.75867 
L 80.393825 39.815281 
L 80.451011 39.865166 
L 80.508197 40.225677 
L 80.565382 39.992091 
L 80.679754 39.799495 
L 80.73694 39.936298 
L 80.851312 39.446561 
L 81.022869 39.927111 
L 81.194427 39.559343 
L 81.308798 39.756384 
L 81.365984 39.99213 
L 81.42317 39.794162 
L 81.537542 39.87594 
L 81.594728 39.840871 
L 81.766285 39.353167 
L 81.823471 39.404547 
L 81.937843 39.151826 
L 82.1094 39.45562 
L 82.280958 39.22271 
L 82.338144 39.214293 
L 82.452515 38.700994 
L 82.509701 38.902025 
L 82.681259 38.623284 
L 82.738444 38.730048 
L 82.910002 38.11549 
L 82.967188 38.256633 
L 83.195931 37.800736 
L 83.48186 38.575754 
L 83.653418 38.311382 
L 83.710604 38.378202 
L 83.824976 38.26706 
L 83.882161 38.491044 
L 83.939347 38.412905 
L 83.996533 38.323531 
L 84.053719 38.383937 
L 84.110905 38.3534 
L 84.339648 39.007894 
L 84.396834 38.922587 
L 84.45402 39.033503 
L 84.625577 39.413332 
L 84.797135 39.155065 
L 84.968692 39.692219 
L 85.368993 40.494408 
L 85.426179 40.450869 
L 85.597737 40.783879 
L 85.883666 41.334712 
L 85.940852 41.087826 
L 85.998038 41.108952 
L 86.169595 41.297376 
L 86.455524 40.844946 
L 86.51271 41.027945 
L 86.569896 40.987981 
L 86.684268 40.699711 
L 86.798639 40.478479 
L 86.855825 40.532893 
L 87.084569 40.809662 
L 87.141754 40.710237 
L 87.19894 40.755007 
L 87.370498 41.162488 
L 87.427684 41.230228 
L 87.48487 41.163267 
L 87.770799 40.266252 
L 87.942356 40.602747 
L 87.999542 40.552433 
L 88.1711 40.161293 
L 88.228286 40.258352 
L 88.285471 40.168861 
L 88.342657 40.192852 
L 88.399843 40.439148 
L 88.457029 40.323497 
L 88.514215 40.309348 
L 88.685772 39.919576 
L 88.800144 39.718151 
L 89.028887 39.104399 
L 89.257631 38.413375 
L 89.314817 38.533069 
L 89.372002 38.725997 
L 89.429188 38.529288 
L 89.54356 38.737365 
L 89.600746 38.545714 
L 89.772303 38.834787 
L 89.943861 38.425869 
L 90.001047 38.401685 
L 90.22979 38.032344 
L 90.458533 38.418141 
L 90.515719 38.530819 
L 90.630091 38.010219 
L 90.858834 38.229837 
L 90.91602 38.312199 
L 91.030392 38.006978 
L 91.087578 38.048132 
L 91.316321 38.705188 
L 91.430693 38.899271 
L 91.487879 38.782483 
L 91.60225 39.176585 
L 91.716622 38.770468 
L 91.88818 39.335178 
L 92.059737 38.992208 
L 92.231295 39.122616 
L 92.28848 39.271625 
L 92.402852 38.842731 
L 92.517224 39.251016 
L 92.57441 39.125933 
L 92.688781 38.989333 
L 92.860339 39.271098 
L 92.917525 39.154659 
L 92.974711 39.228824 
L 93.031896 39.227542 
L 93.203454 39.827362 
L 93.489383 39.98727 
L 93.546569 39.735052 
L 93.718127 40.252258 
L 93.775312 40.223741 
L 93.889684 40.673226 
L 93.94687 40.648534 
L 94.118427 40.983324 
L 94.175613 40.67927 
L 94.232799 40.740946 
L 94.461543 41.003659 
L 94.518728 40.928724 
L 94.575914 40.889296 
L 94.6331 40.979008 
L 94.690286 40.990193 
L 94.861843 41.36827 
L 94.919029 41.284354 
L 95.033401 41.116687 
L 95.090587 41.24007 
L 95.147773 41.194198 
L 95.31933 41.033586 
L 95.376516 41.095812 
L 95.548074 41.339442 
L 95.834003 40.73441 
L 95.891189 40.806179 
L 95.948375 40.744628 
L 96.119932 40.387431 
L 96.177118 40.141425 
L 96.234304 40.385879 
L 96.29149 40.143237 
L 107.785844 43.002151 
L 107.84303 43.155019 
L 107.900216 42.992684 
L 108.014588 42.892581 
L 108.186145 43.224674 
L 108.243331 43.263024 
L 108.357703 43.160442 
L 108.815189 44.014006 
L 108.872375 43.949269 
L 109.272676 43.23672 
L 109.329862 43.277343 
L 109.558605 42.795891 
L 109.615791 42.864578 
L 109.672977 42.769204 
L 109.730163 42.682228 
L 109.787349 42.85245 
L 109.844535 42.675411 
L 109.901721 42.428694 
L 109.958906 42.496649 
L 110.016092 42.83871 
L 110.073278 42.783934 
L 110.130464 42.71452 
L 110.359207 43.406697 
L 110.473579 43.249795 
L 110.530765 43.013313 
L 110.645136 43.463262 
L 110.816694 43.083403 
L 110.87388 43.307707 
L 111.045437 42.665254 
L 111.102623 42.80215 
L 111.159809 42.612418 
L 111.216995 42.646125 
L 111.331367 42.643232 
L 111.502924 42.344524 
L 111.674482 42.502619 
L 111.903225 42.019614 
L 112.017597 42.288251 
L 112.074783 42.205843 
L 112.189154 42.052274 
L 112.360712 42.266655 
L 112.532269 41.771934 
L 112.589455 42.059556 
L 112.646641 41.709344 
L 112.703827 41.809341 
L 112.818199 41.816746 
L 112.875384 41.79058 
L 113.046942 41.333434 
L 113.161314 41.8528 
L 113.332871 41.307329 
L 113.390057 41.563866 
L 113.447243 41.427299 
L 113.561615 41.177077 
L 113.6188 41.277489 
L 113.733172 41.6629 
L 114.019101 41.133301 
L 114.247845 41.936538 
L 114.305031 41.845908 
L 114.476588 42.313412 
L 114.648146 41.7361 
L 114.819703 42.05797 
L 114.876889 41.77039 
L 114.934075 41.88821 
L 115.048446 41.828636 
L 115.162818 41.569527 
L 115.220004 41.647629 
L 115.334376 41.239589 
L 115.391562 41.327307 
L 115.448747 41.426726 
L 115.505933 41.265832 
L 115.563119 41.398538 
L 115.734677 41.678127 
L 115.906234 41.487515 
L 116.249349 40.64776 
L 116.363721 40.671931 
L 116.420907 40.621046 
L 116.706836 41.171171 
L 116.764022 40.972575 
L 116.821208 41.045345 
L 116.992765 41.155239 
L 117.278694 40.600416 
L 117.564624 40.670759 
L 117.621809 40.822618 
L 117.678995 40.709154 
L 117.736181 40.785508 
L 117.850553 40.649455 
L 118.136482 40.929657 
L 118.30804 40.666911 
L 118.536783 40.986574 
L 118.593969 40.828074 
L 118.651155 40.952929 
L 118.822712 40.779953 
L 118.879898 40.888224 
L 118.99427 40.701263 
L 119.223013 41.201418 
L 119.280199 41.050181 
L 119.337385 41.182224 
L 119.451757 41.293985 
L 119.566128 41.010101 
L 119.852057 41.66927 
L 119.909243 41.553189 
L 119.966429 41.661528 
L 120.023615 41.596821 
L 120.080801 41.413617 
L 120.137987 41.481713 
L 120.252358 41.451886 
L 120.309544 41.249367 
L 120.36673 41.426453 
L 120.481102 41.754172 
L 120.538288 41.505548 
L 120.595473 41.55145 
L 120.881403 41.476393 
L 120.995774 42.059528 
L 121.05296 41.927726 
L 121.110146 41.86777 
L 121.338889 42.285459 
L 121.453261 41.495655 
L 121.567633 41.583256 
L 121.796376 40.976199 
L 121.967934 41.5788 
L 122.025119 41.211934 
L 122.082305 41.289684 
L 122.253863 41.54169 
L 122.311049 41.473569 
L 122.482606 41.709542 
L 122.539792 41.699096 
L 122.71135 41.92686 
L 122.768535 41.906675 
L 122.997279 42.413832 
L 123.054465 42.394724 
L 123.226022 41.765295 
L 123.283208 41.812558 
L 123.340394 42.083517 
L 123.39758 41.868832 
L 123.569137 41.451764 
L 123.626323 41.531167 
L 123.683509 41.291744 
L 123.740695 41.512387 
L 123.855067 41.64478 
L 123.912252 41.469165 
L 123.969438 41.520537 
L 124.140996 41.507259 
L 124.312553 41.796355 
L 124.484111 42.204424 
L 124.598482 42.074415 
L 124.655668 42.138051 
L 124.77004 42.018555 
L 124.998783 41.891835 
L 125.055969 42.003866 
L 125.170341 41.751482 
L 125.399084 42.054277 
L 125.45627 42.054073 
L 125.570642 41.844145 
L 125.627828 41.984184 
L 125.913757 41.18089 
L 126.085314 41.585464 
L 126.199686 41.560753 
L 126.256872 41.281751 
L 126.314058 41.477605 
L 126.42843 41.375307 
L 126.485615 41.470378 
L 126.771545 42.422516 
L 126.82873 42.316687 
L 126.885916 42.294792 
L 127.000288 42.379914 
L 127.171845 41.765815 
L 127.343403 41.948018 
L 127.400589 41.81168 
L 127.457775 42.102144 
L 127.514961 42.037812 
L 127.572146 41.821088 
L 127.629332 42.00711 
L 128.315562 40.498242 
L 128.48712 40.831295 
L 128.658677 40.540833 
L 128.715863 40.589309 
L 128.887421 40.626819 
L 129.001793 40.787018 
L 129.058978 40.626998 
L 129.230536 41.189409 
L 129.344908 40.927991 
L 129.573651 40.364317 
L 129.630837 40.652797 
L 129.802394 40.211774 
L 129.85958 40.056332 
L 130.031138 40.572043 
L 130.317067 39.757004 
L 130.374253 39.783783 
L 130.54581 39.423262 
L 130.602996 39.559987 
L 130.660182 39.505832 
L 130.717368 39.598236 
L 130.946111 39.68803 
L 131.003297 40.08604 
L 131.060483 39.762411 
L 131.174855 39.856122 
L 131.403598 39.436077 
L 131.689527 38.978408 
L 131.746713 39.173753 
L 131.803899 39.152765 
L 131.861085 39.089786 
L 132.032642 39.520854 
L 132.2042 39.096794 
L 132.432943 39.309645 
L 132.547315 39.8804 
L 132.604501 39.848788 
L 132.718872 39.511234 
L 132.776058 39.599193 
L 132.89043 39.864787 
L 132.947616 39.760721 
L 133.119173 39.924666 
L 133.233545 40.420825 
L 133.347917 40.296047 
L 133.405103 40.184756 
L 133.57666 40.549531 
L 133.748218 40.349834 
L 133.805403 40.462277 
L 133.862589 40.402716 
L 134.148518 40.44519 
L 134.205704 40.509324 
L 134.434448 40.020927 
L 134.548819 40.276835 
L 134.606005 40.244845 
L 134.834749 40.902854 
L 134.891934 40.838096 
L 135.006306 41.237501 
L 135.063492 40.928448 
L 135.120678 41.27852 
L 135.177864 41.020489 
L 135.349421 41.356042 
L 135.520979 41.078749 
L 135.806908 40.222741 
L 135.864094 40.262043 
L 135.978466 39.971379 
L 136.035651 40.186687 
L 136.092837 40.056748 
L 136.150023 39.93706 
L 136.207209 40.303135 
L 136.264395 40.034576 
L 136.435952 40.159795 
L 136.550324 40.267969 
L 136.664696 40.328202 
L 136.836253 39.98385 
L 136.893439 40.103893 
L 137.007811 39.843964 
L 137.236554 40.162251 
L 137.350926 39.85518 
L 137.408112 39.909897 
L 137.465297 39.834071 
L 137.579669 39.850015 
L 137.636855 39.664417 
L 137.694041 39.746014 
L 137.808413 39.780291 
L 137.922784 39.956136 
L 137.97997 39.857011 
L 138.151528 39.598301 
L 138.208713 39.834519 
L 138.265899 39.63696 
L 138.380271 39.676923 
L 138.437457 39.459597 
L 138.494643 39.569591 
L 138.723386 39.585986 
L 138.780572 39.314568 
L 138.837758 39.534321 
L 138.952129 39.158166 
L 139.009315 39.252744 
L 139.180873 39.407268 
L 139.238059 39.273169 
L 139.409616 39.511379 
L 139.466802 39.51072 
L 139.752731 40.059764 
L 139.924289 39.67036 
L 140.095846 40.077103 
L 140.32459 40.236583 
L 140.381776 39.985749 
L 140.438961 40.146455 
L 140.496147 40.169745 
L 140.724891 39.476051 
L 140.839262 39.530307 
L 140.896448 39.269785 
L 140.953634 39.432051 
L 141.239563 40.316065 
L 141.296749 40.270461 
L 141.468307 39.768936 
L 141.525492 39.802561 
L 141.582678 39.626056 
L 141.639864 39.689689 
L 141.811422 40.039347 
L 142.268908 39.064136 
L 142.38328 39.41845 
L 142.554838 38.852405 
L 142.612023 38.867272 
L 142.840767 38.395797 
L 142.955139 38.902255 
L 143.012324 38.782358 
L 143.06951 38.524264 
L 143.126696 38.665453 
L 143.355439 38.573403 
L 143.412625 38.838397 
L 143.469811 38.682027 
L 143.526997 38.63532 
L 143.584183 38.371911 
L 143.641369 38.57679 
L 143.812926 38.337518 
L 143.870112 38.444169 
L 143.927298 38.066588 
L 143.984484 38.205752 
L 144.04167 38.157741 
L 144.270413 39.018897 
L 144.499156 39.151739 
L 144.556342 39.10626 
L 144.7279 38.276385 
L 144.842271 38.398699 
L 144.956643 38.447409 
L 145.013829 38.146802 
L 145.071015 38.429265 
L 145.242572 38.177992 
L 145.299758 38.444691 
L 145.356944 38.232604 
L 145.642873 38.972637 
L 145.814431 38.530719 
L 146.043174 38.973336 
L 146.10036 39.05569 
L 146.271917 38.823769 
L 146.329103 38.930221 
L 146.386289 38.886347 
L 146.443475 38.773573 
L 146.500661 39.130945 
L 146.557847 38.891348 
L 146.615033 38.828412 
L 146.78659 38.060059 
L 146.900962 38.096872 
L 147.301263 38.936371 
L 147.530006 38.650658 
L 147.758749 38.994108 
L 147.815935 38.860381 
L 147.873121 38.936918 
L 147.930307 38.894983 
L 148.044679 38.442866 
L 148.101864 38.548213 
L 148.273422 38.808857 
L 148.330608 38.544465 
L 148.387794 38.726435 
L 148.44498 38.705096 
L 148.502165 38.274818 
L 148.559351 38.457447 
L 148.616537 38.358278 
L 148.788095 38.751995 
L 149.016838 38.296216 
L 149.074024 38.408356 
L 149.417139 37.576956 
L 149.588696 37.671933 
L 149.645882 37.526667 
L 149.760254 37.886919 
L 149.874626 37.918911 
L 149.931812 37.955576 
L 150.103369 37.727017 
L 150.217741 37.792703 
L 150.274927 37.643448 
L 150.446484 37.897355 
L 150.618042 37.790397 
L 150.789599 38.147235 
L 150.903971 38.305956 
L 151.075528 37.886612 
L 151.361458 38.100645 
L 151.418643 38.057232 
L 151.475829 38.172714 
L 151.590201 37.831673 
L 151.647387 37.903718 
L 151.761759 38.103883 
L 151.818944 38.225836 
L 152.047688 37.648836 
L 152.333617 38.392331 
L 152.505174 38.096962 
L 152.676732 37.601894 
L 152.733918 37.813854 
L 152.791104 38.051958 
L 152.84829 37.84486 
L 152.905475 37.84593 
L 153.077033 38.352163 
L 153.134219 38.173655 
L 153.305776 38.615132 
L 153.362962 38.455464 
L 153.420148 38.476397 
L 153.477334 38.783523 
L 165.143246 40.689992 
L 165.200432 40.574123 
L 165.257618 40.649016 
L 165.371989 41.307721 
L 165.429175 41.053591 
L 165.486361 40.900703 
L 165.657919 41.474574 
L 165.715105 41.543951 
L 165.829476 41.095524 
L 165.943848 41.15381 
L 166.172591 41.36882 
L 166.401335 41.20222 
L 166.515706 41.455028 
L 166.630078 41.740705 
L 166.687264 41.644058 
L 166.74445 41.596892 
L 166.801636 41.677775 
L 166.858821 41.78868 
L 167.030379 41.43875 
L 167.087565 41.271133 
L 167.144751 41.471681 
L 167.201936 41.360011 
L 167.259122 41.283167 
L 167.43068 41.679822 
L 167.487866 41.673817 
L 167.602237 41.241668 
L 167.659423 41.302252 
L 167.830981 41.810936 
L 167.888167 41.574346 
L 168.059724 41.616595 
L 168.11691 41.696814 
L 168.174096 41.499881 
L 168.231282 41.654105 
L 168.402839 41.809191 
L 168.460025 42.209184 
L 168.517211 42.100447 
L 168.688768 41.414198 
L 168.974698 42.297507 
L 169.031883 42.441892 
L 169.089069 42.322276 
L 169.260627 41.600478 
L 169.546556 42.21757 
L 169.603742 42.128407 
L 169.832485 42.668208 
L 170.061229 42.365355 
L 170.118415 42.532909 
L 170.232786 42.221611 
L 170.289972 42.246586 
L 170.347158 42.237966 
L 170.575901 42.816337 
L 170.633087 42.719905 
L 170.804645 43.047506 
L 170.861831 42.890486 
L 170.919016 43.020022 
L 170.976202 42.991984 
L 171.033388 43.101661 
L 171.090574 43.066935 
L 171.262131 42.931147 
L 171.319317 43.023351 
L 171.548061 42.559981 
L 171.719618 42.853348 
L 171.891176 42.583741 
L 172.062733 42.405679 
L 172.291477 42.935191 
L 172.348662 42.9637 
L 172.463034 42.875279 
L 172.634592 42.896627 
L 172.691778 43.090133 
L 172.748963 43.017496 
L 172.863335 43.073832 
L 172.920521 43.356189 
L 172.977707 43.174808 
L 173.263636 42.727348 
L 173.435194 42.95683 
L 173.663937 42.362874 
L 173.721123 42.452992 
L 173.89268 42.453047 
L 174.007052 42.172565 
L 174.178609 42.676678 
L 174.235795 42.653171 
L 174.292981 42.784544 
L 174.350167 42.607891 
L 174.57891 43.256279 
L 174.636096 43.013205 
L 174.693282 43.10071 
L 174.750468 43.385177 
L 174.807654 43.042951 
L 174.86484 43.294911 
L 175.036397 43.241603 
L 175.379512 43.67417 
L 175.493884 42.890757 
L 175.55107 42.980861 
L 175.608256 43.042953 
L 175.722627 42.686589 
L 175.951371 41.97299 
L 176.122928 42.30797 
L 176.180114 42.337948 
L 176.351672 41.763992 
L 176.523229 41.843248 
L 176.637601 41.688599 
L 176.809158 40.855915 
L 176.866344 40.883014 
L 177.323831 40.602903 
L 177.381017 40.678699 
L 177.495388 40.385479 
L 177.552574 40.508769 
L 177.666946 40.915531 
L 177.724132 40.865813 
L 177.781318 40.780767 
L 177.952875 41.086406 
L 178.067247 40.921049 
L 178.181619 41.285883 
L 178.238804 41.206583 
L 178.29599 41.102266 
L 178.410362 41.313626 
L 178.467548 41.306093 
L 178.524734 41.45682 
L 178.581919 41.149192 
L 178.639105 41.190576 
L 178.696291 41.372796 
L 178.867849 40.986398 
L 178.925035 40.868999 
L 179.039406 41.210943 
L 179.210964 40.896042 
L 179.611265 41.864111 
L 179.668451 41.789898 
L 179.725636 42.026158 
L 179.95438 41.457126 
L 180.125937 41.909014 
L 180.354681 41.137561 
L 180.526238 41.078389 
L 180.583424 40.922303 
L 180.64061 40.993001 
L 180.754982 41.013816 
L 180.869353 40.670655 
L 180.983725 40.925672 
L 181.32684 40.279086 
L 181.441212 40.80915 
L 181.555583 40.410595 
L 181.612769 40.604096 
L 181.669955 40.633752 
L 181.841513 40.318534 
L 181.898698 40.637264 
L 181.955884 40.357221 
L 182.01307 40.253736 
L 182.070256 40.440779 
L 182.241814 40.113124 
L 182.356185 40.323215 
L 182.527743 40.084617 
L 182.584929 40.186356 
L 182.642114 40.248956 
L 182.6993 40.612939 
L 182.756486 40.408646 
L 183.042415 41.008317 
L 183.156787 40.70234 
L 183.271159 41.051427 
L 183.442716 40.79826 
L 183.499902 40.955259 
L 183.67146 40.489858 
L 183.728645 40.319133 
L 183.785831 40.35288 
L 183.843017 40.516338 
L 183.900203 40.441989 
L 183.957389 40.489574 
L 184.014575 40.355572 
L 184.186132 40.88531 
L 184.35769 40.566558 
L 184.586433 40.823867 
L 184.757991 40.550576 
L 184.815177 40.530237 
L 184.986734 40.171494 
L 185.101106 40.486012 
L 185.158292 40.462143 
L 185.329849 40.573664 
L 185.558592 40.127557 
L 185.615778 40.20211 
L 185.672964 40.261502 
L 185.901708 39.65746 
L 185.958893 39.89433 
L 186.016079 39.755473 
L 186.130451 39.815844 
L 186.187637 39.5139 
L 186.244823 39.813787 
L 186.302008 39.665566 
L 186.530752 39.932767 
L 186.645124 39.585338 
L 187.10261 40.344694 
L 187.159796 40.254717 
L 187.216982 40.333955 
L 187.38854 40.846228 
L 187.903212 41.420751 
L 187.960398 41.330896 
L 188.017584 41.423108 
L 188.189141 41.830953 
L 188.303513 41.511186 
L 188.360699 41.669329 
L 188.417885 41.594986 
L 188.532256 41.870794 
L 188.589442 41.722312 
L 188.646628 41.642386 
L 188.703814 41.870277 
L 188.761 41.649892 
L 188.875371 41.661902 
L 188.932557 41.556903 
L 188.989743 41.73218 
L 189.046929 41.7045 
L 189.104115 41.668717 
L 189.275672 41.388942 
L 189.390044 41.41918 
L 189.561602 41.584108 
L 189.733159 41.283562 
L 189.847531 41.306357 
L 190.019088 41.452707 
L 190.076274 41.467394 
L 190.13346 41.347157 
L 190.190646 41.930199 
L 190.247832 41.797323 
L 190.305018 41.763576 
L 190.362203 41.908471 
L 190.476575 41.501212 
L 190.648133 41.88327 
L 190.705318 41.855873 
L 190.81969 41.656912 
L 190.934062 41.710487 
L 191.105619 41.50747 
L 191.219991 41.266564 
L 191.277177 41.363973 
L 191.620292 41.78295 
L 191.79185 42.51843 
L 192.077779 42.062235 
L 192.363708 42.389376 
L 192.420894 42.018701 
L 192.47808 42.198645 
L 192.592451 42.642894 
L 192.649637 42.390195 
L 192.706823 42.523481 
L 192.764009 42.518916 
L 192.878381 42.024629 
L 193.16431 42.800664 
L 193.335867 42.391821 
L 193.450239 42.875758 
L 193.564611 42.737273 
L 193.793354 42.434965 
L 194.079283 42.542314 
L 194.193655 42.361916 
L 194.250841 42.415757 
L 194.53677 41.768565 
L 194.593956 41.802528 
L 194.822699 41.376781 
L 194.879885 41.411971 
L 195.223 41.570668 
L 195.337372 41.287182 
L 195.508929 41.882069 
L 195.623301 41.733864 
L 195.737673 41.910898 
L 195.966416 41.875723 
L 196.137974 42.372624 
L 196.19516 42.377824 
L 196.423903 42.796681 
L 196.59546 42.438603 
L 196.652646 42.369727 
L 196.709832 42.600875 
L 196.767018 42.399331 
L 196.824204 42.581618 
L 196.88139 42.495233 
L 197.052947 42.547059 
L 197.110133 42.595089 
L 197.167319 42.299948 
L 197.224505 42.346655 
L 197.281691 42.377311 
L 197.338876 42.59049 
L 197.396062 42.55528 
L 197.681991 42.202855 
L 197.796363 42.360698 
L 197.910735 42.427121 
L 197.967921 42.314483 
L 198.082292 42.748438 
L 198.311036 41.932227 
L 198.368222 42.095388 
L 198.425407 41.935818 
L 198.539779 41.675845 
L 198.596965 41.822972 
L 198.654151 41.929595 
L 199.111638 41.016517 
L 199.569124 40.429739 
L 199.740682 40.442284 
L 199.855054 40.474058 
L 199.912239 40.36097 
L 199.969425 40.480952 
L 200.083797 40.764963 
L 200.140983 40.556995 
L 200.198169 40.595926 
L 200.369726 40.640049 
L 200.484098 40.21775 
L 200.541284 40.24971 
L 200.655655 40.50287 
L 200.712841 40.465422 
L 200.99877 39.909335 
L 201.113142 40.224853 
L 201.227514 40.090345 
L 201.2847 40.13843 
L 201.341886 40.060054 
L 201.456257 40.198034 
L 201.513443 40.074945 
L 201.570629 40.251823 
L 201.742186 39.87256 
L 201.913744 40.361844 
L 202.028116 40.22512 
L 202.199673 40.044261 
L 202.256859 40.12112 
L 202.314045 40.11012 
L 202.542788 40.558715 
L 202.599974 40.527328 
L 202.65716 40.580271 
L 202.714346 40.428443 
L 202.771532 40.489999 
L 202.885903 40.507282 
L 202.943089 40.332357 
L 203.000275 40.436992 
L 203.114647 40.233985 
L 203.286204 39.750761 
L 203.457762 40.247592 
L 203.514948 40.117476 
L 203.572133 40.329913 
L 203.629319 40.233701 
L 203.686505 40.299525 
L 203.743691 40.22861 
L 203.800877 40.237025 
L 203.858063 40.466763 
L 203.915249 40.282161 
L 204.02962 39.87171 
L 204.086806 40.378072 
L 204.143992 40.243132 
L 204.258364 40.482039 
L 204.315549 40.416163 
L 204.487107 39.960496 
L 204.544293 40.080449 
L 204.71585 40.691926 
L 204.773036 40.675635 
L 204.944594 40.174914 
L 205.00178 40.222734 
L 205.230523 40.749708 
L 205.287709 40.739354 
L 205.459266 40.924633 
L 205.630824 40.634461 
L 205.745196 40.908151 
L 205.859567 41.552447 
L 205.916753 41.516562 
L 206.088311 41.663134 
L 206.317054 42.034452 
L 206.37424 41.825474 
L 206.545797 42.171784 
L 206.660169 42.180355 
L 206.774541 42.588337 
L 206.888912 41.963122 
L 206.946098 41.996773 
L 207.003284 42.183933 
L 207.117656 41.796222 
L 207.232027 42.145463 
L 207.289213 42.04265 
L 207.403585 42.072107 
L 207.632328 41.393097 
L 207.689514 41.434127 
L 207.803886 42.053068 
L 207.861072 41.961475 
L 207.975443 42.059898 
L 208.147001 42.449433 
L 208.204187 42.336824 
L 208.547302 41.855182 
L 208.604488 42.132006 
L 208.661674 42.108338 
L 208.833231 41.414631 
L 209.11916 42.256966 
L 209.176346 42.260972 
L 209.290718 42.688101 
L 209.347904 42.620233 
L 209.40509 42.655519 
L 209.519461 42.256287 
L 209.748205 42.755884 
L 209.919762 42.099402 
L 209.976948 42.167898 
L 210.148506 42.205609 
L 210.320063 42.879575 
L 210.377249 42.869502 
L 210.434435 42.643238 
L 210.605992 43.203805 
L 210.663178 43.195562 
L 222.157533 42.088204 
L 222.32909 42.553105 
L 222.386276 42.59497 
L 222.500648 42.820033 
L 222.557834 42.614978 
L 222.61502 42.784576 
L 222.786577 43.315139 
L 222.843763 43.276494 
L 222.900949 43.143016 
L 223.072506 43.53595 
L 223.186878 43.396559 
L 223.472807 43.673349 
L 223.930294 43.057981 
L 224.330595 43.768591 
L 224.444967 43.504415 
L 224.502152 43.637439 
L 224.616524 43.876046 
L 224.67371 43.7134 
L 224.730896 43.835806 
L 224.788082 43.894703 
L 224.845268 43.776717 
L 225.131197 44.306483 
L 225.588683 42.605838 
L 225.645869 42.725125 
L 225.874613 43.283979 
L 225.931799 43.239641 
L 226.04617 43.447837 
L 226.103356 43.384378 
L 226.160542 43.408456 
L 226.332099 43.026123 
L 226.389285 43.224461 
L 226.503657 43.020927 
L 226.846772 43.658161 
L 226.961144 43.710654 
L 227.01833 43.941847 
L 227.075515 43.920449 
L 227.304259 43.45683 
L 227.361445 43.864199 
L 227.41863 43.836898 
L 227.590188 43.948259 
L 227.761746 44.345336 
L 228.104861 43.928017 
L 228.276418 44.203006 
L 228.447976 43.63505 
L 228.733905 44.21229 
L 228.905462 44.048887 
L 229.07702 44.243555 
L 229.191392 44.029036 
L 229.248578 43.831388 
L 229.305763 43.869544 
L 229.477321 44.213769 
L 229.706064 43.785368 
L 229.76325 44.069691 
L 229.820436 43.965777 
L 229.991993 43.999723 
L 230.049179 44.142972 
L 230.277923 43.512107 
L 230.335109 43.548426 
L 230.44948 43.935183 
L 230.506666 43.697196 
L 230.563852 43.906888 
L 230.621038 43.876817 
L 230.678224 43.650971 
L 230.735409 43.837855 
L 230.792595 43.948165 
L 230.849781 43.858705 
L 230.906967 43.680294 
L 230.964153 43.738155 
L 231.021339 43.782095 
L 231.13571 43.59299 
L 231.192896 43.641613 
L 231.250082 43.563076 
L 231.307268 43.720969 
L 231.364454 43.63076 
L 231.478825 43.778629 
L 231.593197 44.138307 
L 231.821941 43.63321 
L 231.936312 44.036433 
L 231.993498 43.899537 
L 232.050684 43.837679 
L 232.10787 44.025881 
L 232.222241 43.741672 
L 232.279427 43.76516 
L 232.450985 44.051386 
L 232.508171 43.886081 
L 232.565356 44.103629 
L 232.622542 44.077614 
L 232.736914 44.050723 
L 232.851286 44.164143 
L 232.908472 44.060289 
L 233.194401 43.437071 
L 233.365958 43.731785 
L 233.423144 44.060993 
L 233.48033 43.870581 
L 233.537516 43.870642 
L 233.594702 44.097382 
L 233.651888 44.0682 
L 233.766259 43.908016 
L 233.937817 43.23424 
L 233.995003 43.399363 
L 234.16656 42.915777 
L 234.338118 43.190499 
L 234.509675 43.09694 
L 234.681233 43.773335 
L 234.738419 43.863675 
L 234.795604 43.747011 
L 234.967162 43.471937 
L 235.138719 44.036985 
L 235.367463 44.593983 
L 235.424649 44.542214 
L 235.653392 43.991298 
L 235.710578 44.329987 
L 235.767764 44.261338 
L 235.82495 44.234028 
L 235.996507 44.683516 
L 236.053693 44.623627 
L 236.110879 44.842186 
L 236.168065 44.52057 
L 236.225251 44.562702 
L 236.282436 44.72106 
L 236.339622 44.687111 
L 236.51118 44.270269 
L 236.568366 44.324457 
L 236.739923 44.485339 
L 236.854295 44.255264 
L 236.911481 44.293961 
L 236.968666 44.271518 
L 237.025852 44.460936 
L 237.083038 44.403558 
L 237.140224 44.206145 
L 237.19741 44.284408 
L 237.311782 44.188954 
L 237.368967 44.397051 
L 237.426153 44.1952 
L 237.540525 43.985851 
L 237.597711 43.629415 
L 237.654897 43.75124 
L 237.712082 43.704285 
L 237.769268 43.846935 
L 237.88364 43.557678 
L 237.940826 43.672225 
L 238.226755 42.683856 
L 238.283941 42.822185 
L 238.398313 43.087475 
L 238.455498 42.97483 
L 238.512684 42.880292 
L 238.627056 43.604809 
L 238.684242 43.564151 
L 238.741428 43.662163 
L 238.912985 43.155032 
L 239.027357 43.321709 
L 239.2561 43.015313 
L 239.313286 43.211165 
L 239.370472 43.168019 
L 239.427658 43.066674 
L 239.542029 43.409288 
L 239.599215 43.284768 
L 239.656401 43.604025 
L 239.713587 43.467576 
L 239.827959 43.412749 
L 239.885145 43.617886 
L 239.94233 43.446451 
L 239.999516 43.270278 
L 240.056702 43.389408 
L 240.22826 43.364103 
L 240.342631 43.614166 
L 240.514189 43.363215 
L 240.685746 43.761388 
L 240.742932 43.693841 
L 240.800118 43.620822 
L 240.91449 44.097184 
L 241.086047 43.658072 
L 241.257605 44.010025 
L 241.429162 43.627368 
L 241.486348 43.504131 
L 241.543534 43.834007 
L 241.60072 43.722199 
L 241.772277 43.745872 
L 242.229764 43.062609 
L 242.401322 42.798258 
L 242.458508 43.075966 
L 242.515693 43.016934 
L 242.630065 42.944713 
L 242.801623 43.346372 
L 242.858808 43.106269 
L 243.316295 42.003983 
L 243.373481 42.043272 
L 243.65941 42.684758 
L 243.716596 42.587326 
L 243.773782 42.262579 
L 243.830968 42.388576 
L 243.888154 42.256059 
L 244.059711 42.557083 
L 244.231269 42.190608 
L 244.34564 41.862282 
L 244.402826 41.89401 
L 244.460012 42.17405 
L 244.517198 42.087909 
L 244.688755 41.986662 
L 245.031871 41.307814 
L 245.089056 41.29304 
L 245.374986 41.99147 
L 245.546543 41.571502 
L 245.603729 41.669972 
L 245.660915 41.582538 
L 245.718101 41.594733 
L 245.832472 41.189573 
L 246.00403 41.398087 
L 246.175587 40.944981 
L 246.633074 41.397196 
L 246.747446 40.99351 
L 246.919003 41.26729 
L 246.976189 41.30766 
L 247.147747 40.949798 
L 247.204933 40.974185 
L 247.262118 40.976428 
L 247.319304 40.5425 
L 247.37649 40.563399 
L 247.548048 40.904567 
L 247.662419 40.964296 
L 247.719605 40.950037 
L 247.891163 41.249141 
L 247.948349 41.24452 
L 248.234278 41.670973 
L 248.463021 41.482127 
L 248.634579 40.815796 
L 248.691765 40.733234 
L 248.74895 40.897388 
L 248.806136 40.740186 
L 248.863322 40.647212 
L 248.920508 40.697792 
L 249.263623 41.557411 
L 249.377995 41.397831 
L 249.492366 41.662835 
L 249.549552 41.500291 
L 249.606738 41.611881 
L 249.72111 41.476711 
L 249.892667 40.888442 
L 249.949853 40.986554 
L 250.064225 40.469178 
L 250.121411 40.686441 
L 250.235782 40.568862 
L 250.350154 40.691168 
L 250.578897 40.406785 
L 250.693269 40.65088 
L 250.750455 40.485012 
L 250.864827 40.883274 
L 250.979198 40.571069 
L 251.036384 40.697193 
L 251.09357 40.324303 
L 251.150756 40.466048 
L 251.265128 40.613721 
L 251.322313 40.24271 
L 251.379499 40.254387 
L 251.436685 40.372414 
L 251.608243 40.037225 
L 251.722614 40.232147 
L 251.894172 39.88597 
L 252.065729 39.845082 
L 252.180101 39.973504 
L 252.237287 39.927098 
L 252.351659 39.153139 
L 252.523216 39.958885 
L 252.580402 39.9363 
L 252.694774 39.778033 
L 252.866331 40.007791 
L 252.923517 40.149767 
L 252.980703 39.786293 
L 253.037889 39.873556 
L 253.15226 39.935132 
L 253.266632 40.155851 
L 253.323818 40.053084 
L 253.552561 40.876259 
L 253.609747 40.954835 
L 253.666933 40.798825 
L 253.724119 40.927036 
L 253.838491 41.288345 
L 253.952862 40.830071 
L 254.010048 40.84375 
L 254.181606 41.076371 
L 254.353163 40.64134 
L 254.696278 41.090279 
L 254.753464 41.432438 
L 254.81065 41.179912 
L 254.982207 40.651457 
L 255.039393 40.712704 
L 255.096579 40.339879 
L 255.153765 40.630637 
L 255.325323 40.770363 
L 255.49688 40.404529 
L 255.554066 40.43705 
L 255.725623 40.420458 
L 255.897181 40.97698 
L 256.18311 40.713321 
L 256.240296 40.73992 
L 256.297482 40.453747 
L 256.354668 40.72845 
L 256.411854 40.873044 
L 256.469039 40.805037 
L 256.697783 39.845316 
L 256.754969 40.097105 
L 256.812154 39.829973 
L 256.86934 40.026791 
L 257.212455 40.743379 
L 257.326827 40.758061 
L 257.384013 40.829202 
L 257.441199 40.56513 
L 257.498385 40.695902 
L 257.784314 40.761226 
L 258.356172 39.448525 
L 258.584916 39.884443 
L 258.699287 39.99446 
L 258.813659 40.333823 
L 258.985217 39.934681 
L 259.156774 40.106111 
L 259.21396 40.035786 
L 259.271146 40.139168 
L 259.385517 40.292717 
L 259.499889 40.516131 
L 259.614261 40.247925 
L 259.671447 40.33226 
L 259.843004 40.699706 
L 259.957376 41.002448 
L 260.014562 41.190152 
L 260.071748 41.139674 
L 260.128933 41.099868 
L 260.186119 40.905018 
L 260.243305 40.982556 
L 260.300491 41.154552 
L 260.357677 40.991031 
L 260.529234 40.784189 
L 260.58642 40.821338 
L 260.700792 40.649571 
L 260.872349 40.747001 
L 261.215464 41.097306 
L 261.329836 41.468949 
L 261.387022 41.448419 
L 261.501394 41.70081 
L 261.55858 41.687979 
L 261.672951 42.165814 
L 261.844509 41.613109 
L 261.95888 41.260523 
L 262.187624 41.813092 
L 262.24481 41.668225 
L 262.301996 41.870152 
L 262.359181 41.707947 
L 262.416367 41.710803 
L 262.645111 41.32412 
L 262.988226 41.067034 
L 263.045411 41.420361 
L 263.102597 41.254096 
L 263.216969 41.294734 
L 263.274155 41.246915 
L 263.445712 41.642109 
L 263.560084 41.490262 
L 263.61727 41.386523 
L 263.674456 41.464709 
L 263.731642 41.516837 
L 263.788827 41.83618 
L 263.846013 41.710121 
L 264.017571 41.354349 
L 264.131943 41.95546 
L 264.3035 41.491876 
L 264.417872 41.760182 
L 264.589429 42.089229 
L 264.646615 41.93184 
L 264.703801 41.985405 
L 264.760987 41.950446 
L 264.932544 41.493021 
L 264.98973 41.457636 
L 265.046916 41.259681 
L 265.104102 41.310231 
L 265.161288 41.321264 
L 265.332845 40.751743 
L 265.390031 40.972206 
L 265.447217 41.084123 
L 265.504403 41.02187 
L 265.618774 40.655465 
L 265.67596 40.88266 
L 266.019075 41.333551 
L 266.076261 41.239853 
L 266.133447 41.361598 
L 266.190633 41.111058 
L 266.247819 41.1386 
L 266.36219 41.226491 
L 266.876863 40.865509 
L 267.105606 41.794275 
L 267.162792 41.667681 
L 267.219978 41.902569 
L 267.277164 41.731666 
L 267.391536 41.641458 
L 267.448721 41.627726 
L 267.734651 43.083599 
L 267.791837 43.207068 
L 267.849022 43.138549 
L 279.343377 43.58073 
L 279.457749 44.098771 
L 279.514935 44.050327 
L 279.629306 43.999027 
L 279.686492 43.83743 
L 279.743678 43.977197 
L 279.972421 44.061212 
L 280.201165 44.593632 
L 280.315536 44.618794 
L 280.601466 45.162731 
L 280.944581 44.477731 
L 281.001767 44.597375 
L 281.058952 44.514067 
L 281.23051 43.929477 
L 281.287696 44.023439 
L 281.402067 44.371277 
L 281.459253 44.303082 
L 281.516439 44.456561 
L 281.573625 44.409429 
L 281.802368 44.116507 
L 281.859554 44.090073 
L 282.031112 44.528693 
L 282.088298 44.477709 
L 282.259855 44.32671 
L 282.60297 44.289145 
L 282.717342 44.453171 
L 282.888899 43.885772 
L 282.946085 44.137354 
L 283.060457 44.35724 
L 283.117643 44.330753 
L 283.232015 44.435199 
L 283.2892 44.680533 
L 283.517944 43.711895 
L 283.632315 43.634993 
L 283.689501 43.421815 
L 283.746687 43.74971 
L 283.803873 43.670593 
L 283.861059 43.518611 
L 283.918245 43.665215 
L 283.97543 43.657504 
L 284.204174 44.200686 
L 284.26136 44.131805 
L 284.432917 43.753415 
L 284.547289 44.055658 
L 284.604475 43.974365 
L 285.004776 43.186172 
L 285.176333 43.340943 
L 285.233519 43.601219 
L 285.290705 43.4899 
L 285.347891 43.462712 
L 285.405077 42.976177 
L 285.462262 43.249648 
L 285.519448 43.26492 
L 285.576634 42.903428 
L 285.63382 42.984372 
L 285.748192 43.040999 
L 285.919749 43.645977 
L 285.976935 43.445145 
L 286.034121 43.376665 
L 286.205678 43.699479 
L 286.377236 43.33082 
L 286.605979 42.645133 
L 286.663165 42.714082 
L 286.777537 42.84193 
L 286.834723 43.138794 
L 286.891909 42.994122 
L 287.063466 43.109657 
L 287.120652 42.873683 
L 287.177838 43.156989 
L 287.235024 42.997325 
L 287.292209 42.829002 
L 287.349395 43.095574 
L 287.406581 42.906556 
L 287.520953 43.001309 
L 287.635325 42.725895 
L 287.749696 43.083514 
L 287.921254 43.538294 
L 288.149997 43.539582 
L 288.321555 43.302367 
L 288.435926 43.610683 
L 288.493112 43.474955 
L 288.721856 42.973303 
L 288.779041 43.109069 
L 288.836227 43.004788 
L 289.007785 42.780674 
L 289.122156 43.146028 
L 289.179342 42.77087 
L 289.236528 42.808892 
L 289.293714 43.060084 
L 289.3509 42.96218 
L 289.465272 42.857715 
L 289.522457 42.999592 
L 289.579643 42.872202 
L 289.636829 42.757688 
L 289.751201 43.260898 
L 289.808387 43.118483 
L 289.922758 43.107144 
L 290.094316 43.389534 
L 290.265873 42.978498 
L 290.437431 43.277436 
L 290.551803 42.937615 
L 290.780546 43.585829 
L 290.837732 43.527285 
L 290.952103 43.148094 
L 291.009289 43.271962 
L 291.123661 43.362632 
L 291.180847 43.316879 
L 291.40959 43.75486 
L 291.523962 43.53192 
L 291.638334 43.689091 
L 291.695519 43.495802 
L 291.752705 43.66444 
L 291.924263 43.521984 
L 292.09582 43.547953 
L 292.210192 43.799277 
L 292.324564 43.546395 
L 292.38175 43.80188 
L 292.438935 43.552217 
L 292.667679 44.298335 
L 292.724865 44.273455 
L 292.782051 44.117457 
L 292.839236 44.261867 
L 293.010794 44.543213 
L 293.06798 44.416201 
L 293.182351 44.588834 
L 293.239537 44.545229 
L 293.411095 44.844487 
L 293.582652 44.77584 
L 293.639838 45.070622 
L 293.697024 44.949307 
L 293.811396 44.829777 
L 293.868582 45.062899 
L 293.925767 44.987837 
L 294.040139 44.702258 
L 294.097325 44.848904 
L 294.154511 44.543009 
L 294.211697 44.749074 
L 294.326068 45.403384 
L 294.383254 45.122288 
L 294.44044 45.171091 
L 294.497626 45.223726 
L 294.554812 45.436201 
L 294.611998 45.391538 
L 294.726369 45.025648 
L 294.783555 45.165985 
L 294.955113 45.148517 
L 295.183856 44.983847 
L 295.241042 44.933713 
L 295.298228 45.073733 
L 295.355413 44.990088 
L 295.698529 44.626779 
L 295.755714 44.730171 
L 295.984458 44.565831 
L 296.041644 44.709514 
L 296.098829 44.636481 
L 296.213201 44.395384 
L 296.384759 44.64893 
L 296.441945 44.615989 
L 296.670688 44.998121 
L 296.842245 45.085638 
L 296.956617 44.844329 
L 297.070989 45.377913 
L 297.128175 45.308827 
L 297.642847 43.360086 
L 297.700033 43.527739 
L 297.928776 43.979994 
L 298.043148 44.087593 
L 298.100334 44.241473 
L 298.386263 43.464565 
L 298.443449 43.525044 
L 298.615007 43.313101 
L 298.672192 43.172415 
L 298.729378 43.333372 
L 298.786564 43.121653 
L 298.84375 43.165901 
L 298.900936 43.263382 
L 299.072493 44.027966 
L 299.244051 43.635236 
L 299.301237 43.754913 
L 299.358423 43.643713 
L 299.873095 44.093543 
L 299.930281 43.988879 
L 300.159024 44.45181 
L 300.444954 43.947301 
L 300.502139 44.195732 
L 300.559325 44.112092 
L 300.788069 44.333849 
L 300.845255 44.232409 
L 301.073998 44.870079 
L 301.18837 44.539215 
L 301.359927 45.097073 
L 301.474299 44.699365 
L 301.645856 45.295597 
L 301.760228 45.007934 
L 301.817414 45.13585 
L 301.8746 45.064799 
L 301.988971 45.297387 
L 302.103343 45.190528 
L 302.160529 45.383915 
L 302.217715 45.190405 
L 302.332086 44.822184 
L 302.503644 45.295617 
L 302.56083 45.341333 
L 303.189874 43.833112 
L 303.24706 43.949901 
L 303.304246 43.861408 
L 303.361432 43.957011 
L 303.532989 44.477247 
L 303.590175 44.399414 
L 303.93329 43.792429 
L 304.104848 43.274938 
L 304.447963 42.420199 
L 304.505149 42.729716 
L 304.562334 42.529608 
L 304.61952 42.548477 
L 305.077007 41.182845 
L 305.191379 41.453527 
L 305.30575 41.486512 
L 305.362936 41.460078 
L 305.534494 41.945506 
L 305.59168 41.989129 
L 305.648865 41.91105 
L 305.706051 41.583508 
L 305.763237 41.66005 
L 305.820423 41.644216 
L 306.106352 40.930473 
L 306.163538 40.912465 
L 306.392281 41.456528 
L 306.563839 42.049523 
L 306.621025 41.979427 
L 306.678211 41.772681 
L 306.735397 41.942223 
L 306.792582 42.004944 
L 306.906954 42.424056 
L 307.078512 42.072632 
L 307.421627 41.67726 
L 307.478812 41.721218 
L 307.936299 42.376305 
L 307.993485 42.105514 
L 308.050671 42.246829 
L 308.107857 42.126246 
L 308.165043 42.24472 
L 308.393786 42.128367 
L 308.450972 42.316762 
L 308.508158 42.1349 
L 308.622529 41.889504 
L 308.736901 42.540651 
L 308.794087 42.389441 
L 308.851273 42.408876 
L 309.02283 42.675031 
L 309.080016 42.788905 
L 309.137202 42.71079 
L 309.251574 42.435023 
L 309.308759 42.493208 
L 309.365945 42.290566 
L 309.423131 42.490363 
L 309.480317 42.497825 
L 309.537503 42.168582 
L 309.594689 42.459565 
L 309.70906 42.400217 
L 309.823432 42.556815 
L 309.880618 42.430158 
L 309.937804 42.535961 
L 310.395291 42.986276 
L 310.452476 42.864737 
L 310.509662 42.610093 
L 310.566848 42.794164 
L 310.795591 42.504964 
L 311.081521 42.932887 
L 311.310264 42.315947 
L 311.36745 42.336259 
L 311.539007 41.901642 
L 311.653379 42.015329 
L 311.710565 42.04622 
L 311.882122 42.821066 
L 311.939308 42.681903 
L 312.110866 42.835717 
L 312.168052 42.614014 
L 312.225238 42.730999 
L 312.282423 42.692209 
L 312.339609 42.790076 
L 312.625538 42.050809 
L 312.682724 42.193726 
L 312.73991 42.09453 
L 312.854282 41.936341 
L 312.911468 41.964964 
L 313.025839 41.49288 
L 313.197397 41.566916 
L 313.368954 41.446521 
L 313.540512 41.618444 
L 313.654884 41.25563 
L 313.71207 41.328043 
L 313.883627 41.692815 
L 314.11237 41.442634 
L 314.169556 41.57826 
L 314.226742 41.244879 
L 314.283928 41.564335 
L 314.455485 41.908189 
L 314.512671 41.81802 
L 314.627043 42.260275 
L 314.684229 42.186221 
L 314.912972 41.743015 
L 315.08453 42.064711 
L 315.198901 42.025752 
L 315.484831 42.464603 
L 315.599202 42.427205 
L 315.827946 42.830948 
L 315.942317 42.600009 
L 315.999503 42.81057 
L 316.056689 42.699426 
L 316.113875 42.740096 
L 316.342618 43.214405 
L 316.399804 43.201523 
L 316.514176 43.381963 
L 316.742919 43.081628 
L 316.857291 43.076604 
L 316.914477 42.969135 
L 316.971663 43.002603 
L 317.028848 43.236335 
L 317.086034 43.018188 
L 317.14322 42.930239 
L 317.200406 42.986214 
L 317.429149 43.663928 
L 317.486335 43.606423 
L 317.600707 43.708722 
L 317.657893 43.555628 
L 317.715079 43.752303 
L 317.772264 43.678232 
L 318.344123 42.487771 
L 318.572866 43.223083 
L 318.630052 43.024401 
L 318.858795 43.581415 
L 318.973167 43.264717 
L 319.144725 43.515872 
L 319.201911 43.33033 
L 319.259096 43.348972 
L 319.316282 43.363375 
L 319.48784 42.815425 
L 319.545026 43.032221 
L 319.602211 42.998676 
L 319.716583 42.975473 
L 320.059698 43.479537 
L 320.116884 43.303355 
L 320.17407 43.113975 
L 320.231256 43.169889 
L 320.402813 43.314147 
L 320.517185 43.214415 
L 320.574371 43.34401 
L 320.631557 43.315617 
L 320.688743 43.132416 
L 320.745928 43.151457 
L 320.974672 43.623241 
L 321.031858 43.216505 
L 321.089043 43.32359 
L 321.146229 43.392047 
L 321.203415 43.310673 
L 321.260601 43.150433 
L 321.489344 43.628918 
L 321.718088 43.215875 
L 321.775274 43.213843 
L 322.004017 42.688307 
L 322.118389 43.168947 
L 322.175574 43.12059 
L 322.461504 43.2338 
L 322.51869 42.922702 
L 322.747433 43.750826 
L 322.804619 44.079606 
L 322.861805 43.903235 
L 322.91899 43.76995 
L 322.976176 44.086931 
L 323.033362 43.690455 
L 323.090548 43.989238 
L 323.319291 43.391364 
L 323.433663 43.398094 
L 323.662406 42.984682 
L 323.833964 43.110089 
L 323.89115 43.196449 
L 323.948336 43.048621 
L 324.005521 43.135998 
L 324.062707 43.200876 
L 324.119893 43.046681 
L 324.348637 43.415114 
L 324.463008 43.524237 
L 324.520194 43.1638 
L 324.57738 43.294746 
L 324.806123 43.454229 
L 324.863309 43.348387 
L 324.920495 43.466733 
L 325.034867 43.367032 
L 325.034867 43.367032 
" clip-path="url(#pfae1bf8e11)" style="fill: none; stroke: #0000ff; stroke-width: 1.5; stroke-linecap: square"/>
   </g>
   <g id="patch_3">
    <path d="M 50.6 171.16 
L 50.6 10.8 
" style="fill: none; stroke: #000000; stroke-width: 0.8; stroke-linejoin: miter; stroke-linecap: square"/>
   </g>
   <g id="patch_4">
    <path d="M 338.75661 171.16 
L 338.75661 10.8 
" style="fill: none; stroke: #000000; stroke-width: 0.8; stroke-linejoin: miter; stroke-linecap: square"/>
   </g>
   <g id="patch_5">
    <path d="M 50.6 171.16 
L 338.75661 171.16 
" style="fill: none; stroke: #000000; stroke-width: 0.8; stroke-linejoin: miter; stroke-linecap: square"/>
   </g>
   <g id="patch_6">
    <path d="M 50.6 10.8 
L 338.75661 10.8 
" style="fill: none; stroke: #000000; stroke-width: 0.8; stroke-linejoin: miter; stroke-linecap: square"/>
   </g>
  </g>
 </g>
 <defs>
  <clipPath id="pfae1bf8e11">
   <rect x="50.6" y="10.8" width="288.15661" height="160.36"/>
  </clipPath>
 </defs>
</svg>
