<?xml version="1.0" encoding="utf-8" standalone="no"?>
<!DOCTYPE svg PUBLIC "-//W3C//DTD SVG 1.1//EN"
  "http://www.w3.org/Graphics/SVG/1.1/DTD/svg11.dtd">
<svg xmlns:xlink="http://www.w3.org/1999/xlink" width="360pt" height="216pt" viewBox="0 0 360 216" xmlns="http://www.w3.org/2000/svg" version="1.1">
 <metadata>
  <rdf:RDF xmlns:dc="http://purl.org/dc/elements/1.1/" xmlns:cc="http://creativecommons.org/ns#" xmlns:rdf="http://www.w3.org/1999/02/22-rdf-syntax-ns#">
   <cc:Work>
    <dc:type rdf:resource="http://purl.org/dc/dcmitype/StillImage"/>
    <dc:date>2024-01-07T08:22:53.745960</dc:date>
    <dc:format>image/svg+xml</dc:format>
    <dc:creator>
     <cc:Agent>
      <dc:title>Matplotlib v3.7.4, https://matplotlib.org/</dc:title>
     </cc:Agent>
    </dc:creator>
   </cc:Work>
  </rdf:RDF>
 </metadata>
 <defs>
  <style type="text/css">*{stroke-linejoin: round; stroke-linecap: butt}</style>
 </defs>
 <g id="figure_1">
  <g id="patch_1">
   <path d="M 0 216 
L 360 216 
L 360 0 
L 0 0 
z
" style="fill: #ffffff"/>
  </g>
  <g id="axes_1">
   <g id="patch_2">
    <path d="M 63.2 171.16 
L 338.75661 171.16 
L 338.75661 10.8 
L 63.2 10.8 
z
" style="fill: #ffffff"/>
   </g>
   <g id="matplotlib.axis_1">
    <g id="xtick_1">
     <g id="line2d_1">
      <defs>
       <path id="m47f80259b6" d="M 0 0 
L 0 3.5 
" style="stroke: #000000; stroke-width: 0.8"/>
      </defs>
      <g>
       <use xlink:href="#m47f80259b6" x="63.2" y="171.16" style="stroke: #000000; stroke-width: 0.8"/>
      </g>
     </g>
     <g id="text_1">
      <!-- 0 -->
      <g transform="translate(60.01875 185.758437) scale(0.1 -0.1)">
       <defs>
        <path id="DejaVuSans-30" d="M 2034 4250 
Q 1547 4250 1301 3770 
Q 1056 3291 1056 2328 
Q 1056 1369 1301 889 
Q 1547 409 2034 409 
Q 2525 409 2770 889 
Q 3016 1369 3016 2328 
Q 3016 3291 2770 3770 
Q 2525 4250 2034 4250 
z
M 2034 4750 
Q 2819 4750 3233 4129 
Q 3647 3509 3647 2328 
Q 3647 1150 3233 529 
Q 2819 -91 2034 -91 
Q 1250 -91 836 529 
Q 422 1150 422 2328 
Q 422 3509 836 4129 
Q 1250 4750 2034 4750 
z
" transform="scale(0.015625)"/>
       </defs>
       <use xlink:href="#DejaVuSans-30"/>
      </g>
     </g>
    </g>
    <g id="xtick_2">
     <g id="line2d_2">
      <g>
       <use xlink:href="#m47f80259b6" x="117.885323" y="171.16" style="stroke: #000000; stroke-width: 0.8"/>
      </g>
     </g>
     <g id="text_2">
      <!-- 1000 -->
      <g transform="translate(105.160323 185.758437) scale(0.1 -0.1)">
       <defs>
        <path id="DejaVuSans-31" d="M 794 531 
L 1825 531 
L 1825 4091 
L 703 3866 
L 703 4441 
L 1819 4666 
L 2450 4666 
L 2450 531 
L 3481 531 
L 3481 0 
L 794 0 
L 794 531 
z
" transform="scale(0.015625)"/>
       </defs>
       <use xlink:href="#DejaVuSans-31"/>
       <use xlink:href="#DejaVuSans-30" x="63.623047"/>
       <use xlink:href="#DejaVuSans-30" x="127.246094"/>
       <use xlink:href="#DejaVuSans-30" x="190.869141"/>
      </g>
     </g>
    </g>
    <g id="xtick_3">
     <g id="line2d_3">
      <g>
       <use xlink:href="#m47f80259b6" x="172.570647" y="171.16" style="stroke: #000000; stroke-width: 0.8"/>
      </g>
     </g>
     <g id="text_3">
      <!-- 2000 -->
      <g transform="translate(159.845647 185.758437) scale(0.1 -0.1)">
       <defs>
        <path id="DejaVuSans-32" d="M 1228 531 
L 3431 531 
L 3431 0 
L 469 0 
L 469 531 
Q 828 903 1448 1529 
Q 2069 2156 2228 2338 
Q 2531 2678 2651 2914 
Q 2772 3150 2772 3378 
Q 2772 3750 2511 3984 
Q 2250 4219 1831 4219 
Q 1534 4219 1204 4116 
Q 875 4013 500 3803 
L 500 4441 
Q 881 4594 1212 4672 
Q 1544 4750 1819 4750 
Q 2544 4750 2975 4387 
Q 3406 4025 3406 3419 
Q 3406 3131 3298 2873 
Q 3191 2616 2906 2266 
Q 2828 2175 2409 1742 
Q 1991 1309 1228 531 
z
" transform="scale(0.015625)"/>
       </defs>
       <use xlink:href="#DejaVuSans-32"/>
       <use xlink:href="#DejaVuSans-30" x="63.623047"/>
       <use xlink:href="#DejaVuSans-30" x="127.246094"/>
       <use xlink:href="#DejaVuSans-30" x="190.869141"/>
      </g>
     </g>
    </g>
    <g id="xtick_4">
     <g id="line2d_4">
      <g>
       <use xlink:href="#m47f80259b6" x="227.25597" y="171.16" style="stroke: #000000; stroke-width: 0.8"/>
      </g>
     </g>
     <g id="text_4">
      <!-- 3000 -->
      <g transform="translate(214.53097 185.758437) scale(0.1 -0.1)">
       <defs>
        <path id="DejaVuSans-33" d="M 2597 2516 
Q 3050 2419 3304 2112 
Q 3559 1806 3559 1356 
Q 3559 666 3084 287 
Q 2609 -91 1734 -91 
Q 1441 -91 1130 -33 
Q 819 25 488 141 
L 488 750 
Q 750 597 1062 519 
Q 1375 441 1716 441 
Q 2309 441 2620 675 
Q 2931 909 2931 1356 
Q 2931 1769 2642 2001 
Q 2353 2234 1838 2234 
L 1294 2234 
L 1294 2753 
L 1863 2753 
Q 2328 2753 2575 2939 
Q 2822 3125 2822 3475 
Q 2822 3834 2567 4026 
Q 2313 4219 1838 4219 
Q 1578 4219 1281 4162 
Q 984 4106 628 3988 
L 628 4550 
Q 988 4650 1302 4700 
Q 1616 4750 1894 4750 
Q 2613 4750 3031 4423 
Q 3450 4097 3450 3541 
Q 3450 3153 3228 2886 
Q 3006 2619 2597 2516 
z
" transform="scale(0.015625)"/>
       </defs>
       <use xlink:href="#DejaVuSans-33"/>
       <use xlink:href="#DejaVuSans-30" x="63.623047"/>
       <use xlink:href="#DejaVuSans-30" x="127.246094"/>
       <use xlink:href="#DejaVuSans-30" x="190.869141"/>
      </g>
     </g>
    </g>
    <g id="xtick_5">
     <g id="line2d_5">
      <g>
       <use xlink:href="#m47f80259b6" x="281.941293" y="171.16" style="stroke: #000000; stroke-width: 0.8"/>
      </g>
     </g>
     <g id="text_5">
      <!-- 4000 -->
      <g transform="translate(269.216293 185.758437) scale(0.1 -0.1)">
       <defs>
        <path id="DejaVuSans-34" d="M 2419 4116 
L 825 1625 
L 2419 1625 
L 2419 4116 
z
M 2253 4666 
L 3047 4666 
L 3047 1625 
L 3713 1625 
L 3713 1100 
L 3047 1100 
L 3047 0 
L 2419 0 
L 2419 1100 
L 313 1100 
L 313 1709 
L 2253 4666 
z
" transform="scale(0.015625)"/>
       </defs>
       <use xlink:href="#DejaVuSans-34"/>
       <use xlink:href="#DejaVuSans-30" x="63.623047"/>
       <use xlink:href="#DejaVuSans-30" x="127.246094"/>
       <use xlink:href="#DejaVuSans-30" x="190.869141"/>
      </g>
     </g>
    </g>
    <g id="xtick_6">
     <g id="line2d_6">
      <g>
       <use xlink:href="#m47f80259b6" x="336.626617" y="171.16" style="stroke: #000000; stroke-width: 0.8"/>
      </g>
     </g>
     <g id="text_6">
      <!-- 5000 -->
      <g transform="translate(323.901617 185.758437) scale(0.1 -0.1)">
       <defs>
        <path id="DejaVuSans-35" d="M 691 4666 
L 3169 4666 
L 3169 4134 
L 1269 4134 
L 1269 2991 
Q 1406 3038 1543 3061 
Q 1681 3084 1819 3084 
Q 2600 3084 3056 2656 
Q 3513 2228 3513 1497 
Q 3513 744 3044 326 
Q 2575 -91 1722 -91 
Q 1428 -91 1123 -41 
Q 819 9 494 109 
L 494 744 
Q 775 591 1075 516 
Q 1375 441 1709 441 
Q 2250 441 2565 725 
Q 2881 1009 2881 1497 
Q 2881 1984 2565 2268 
Q 2250 2553 1709 2553 
Q 1456 2553 1204 2497 
Q 953 2441 691 2322 
L 691 4666 
z
" transform="scale(0.015625)"/>
       </defs>
       <use xlink:href="#DejaVuSans-35"/>
       <use xlink:href="#DejaVuSans-30" x="63.623047"/>
       <use xlink:href="#DejaVuSans-30" x="127.246094"/>
       <use xlink:href="#DejaVuSans-30" x="190.869141"/>
      </g>
     </g>
    </g>
    <g id="text_7">
     <!-- Episode -->
     <g transform="translate(177.413305 200.95625) scale(0.12 -0.12)">
      <defs>
       <path id="DejaVuSans-45" d="M 628 4666 
L 3578 4666 
L 3578 4134 
L 1259 4134 
L 1259 2753 
L 3481 2753 
L 3481 2222 
L 1259 2222 
L 1259 531 
L 3634 531 
L 3634 0 
L 628 0 
L 628 4666 
z
" transform="scale(0.015625)"/>
       <path id="DejaVuSans-70" d="M 1159 525 
L 1159 -1331 
L 581 -1331 
L 581 3500 
L 1159 3500 
L 1159 2969 
Q 1341 3281 1617 3432 
Q 1894 3584 2278 3584 
Q 2916 3584 3314 3078 
Q 3713 2572 3713 1747 
Q 3713 922 3314 415 
Q 2916 -91 2278 -91 
Q 1894 -91 1617 61 
Q 1341 213 1159 525 
z
M 3116 1747 
Q 3116 2381 2855 2742 
Q 2594 3103 2138 3103 
Q 1681 3103 1420 2742 
Q 1159 2381 1159 1747 
Q 1159 1113 1420 752 
Q 1681 391 2138 391 
Q 2594 391 2855 752 
Q 3116 1113 3116 1747 
z
" transform="scale(0.015625)"/>
       <path id="DejaVuSans-69" d="M 603 3500 
L 1178 3500 
L 1178 0 
L 603 0 
L 603 3500 
z
M 603 4863 
L 1178 4863 
L 1178 4134 
L 603 4134 
L 603 4863 
z
" transform="scale(0.015625)"/>
       <path id="DejaVuSans-73" d="M 2834 3397 
L 2834 2853 
Q 2591 2978 2328 3040 
Q 2066 3103 1784 3103 
Q 1356 3103 1142 2972 
Q 928 2841 928 2578 
Q 928 2378 1081 2264 
Q 1234 2150 1697 2047 
L 1894 2003 
Q 2506 1872 2764 1633 
Q 3022 1394 3022 966 
Q 3022 478 2636 193 
Q 2250 -91 1575 -91 
Q 1294 -91 989 -36 
Q 684 19 347 128 
L 347 722 
Q 666 556 975 473 
Q 1284 391 1588 391 
Q 1994 391 2212 530 
Q 2431 669 2431 922 
Q 2431 1156 2273 1281 
Q 2116 1406 1581 1522 
L 1381 1569 
Q 847 1681 609 1914 
Q 372 2147 372 2553 
Q 372 3047 722 3315 
Q 1072 3584 1716 3584 
Q 2034 3584 2315 3537 
Q 2597 3491 2834 3397 
z
" transform="scale(0.015625)"/>
       <path id="DejaVuSans-6f" d="M 1959 3097 
Q 1497 3097 1228 2736 
Q 959 2375 959 1747 
Q 959 1119 1226 758 
Q 1494 397 1959 397 
Q 2419 397 2687 759 
Q 2956 1122 2956 1747 
Q 2956 2369 2687 2733 
Q 2419 3097 1959 3097 
z
M 1959 3584 
Q 2709 3584 3137 3096 
Q 3566 2609 3566 1747 
Q 3566 888 3137 398 
Q 2709 -91 1959 -91 
Q 1206 -91 779 398 
Q 353 888 353 1747 
Q 353 2609 779 3096 
Q 1206 3584 1959 3584 
z
" transform="scale(0.015625)"/>
       <path id="DejaVuSans-64" d="M 2906 2969 
L 2906 4863 
L 3481 4863 
L 3481 0 
L 2906 0 
L 2906 525 
Q 2725 213 2448 61 
Q 2172 -91 1784 -91 
Q 1150 -91 751 415 
Q 353 922 353 1747 
Q 353 2572 751 3078 
Q 1150 3584 1784 3584 
Q 2172 3584 2448 3432 
Q 2725 3281 2906 2969 
z
M 947 1747 
Q 947 1113 1208 752 
Q 1469 391 1925 391 
Q 2381 391 2643 752 
Q 2906 1113 2906 1747 
Q 2906 2381 2643 2742 
Q 2381 3103 1925 3103 
Q 1469 3103 1208 2742 
Q 947 2381 947 1747 
z
" transform="scale(0.015625)"/>
       <path id="DejaVuSans-65" d="M 3597 1894 
L 3597 1613 
L 953 1613 
Q 991 1019 1311 708 
Q 1631 397 2203 397 
Q 2534 397 2845 478 
Q 3156 559 3463 722 
L 3463 178 
Q 3153 47 2828 -22 
Q 2503 -91 2169 -91 
Q 1331 -91 842 396 
Q 353 884 353 1716 
Q 353 2575 817 3079 
Q 1281 3584 2069 3584 
Q 2775 3584 3186 3129 
Q 3597 2675 3597 1894 
z
M 3022 2063 
Q 3016 2534 2758 2815 
Q 2500 3097 2075 3097 
Q 1594 3097 1305 2825 
Q 1016 2553 972 2059 
L 3022 2063 
z
" transform="scale(0.015625)"/>
      </defs>
      <use xlink:href="#DejaVuSans-45"/>
      <use xlink:href="#DejaVuSans-70" x="63.183594"/>
      <use xlink:href="#DejaVuSans-69" x="126.660156"/>
      <use xlink:href="#DejaVuSans-73" x="154.443359"/>
      <use xlink:href="#DejaVuSans-6f" x="206.542969"/>
      <use xlink:href="#DejaVuSans-64" x="267.724609"/>
      <use xlink:href="#DejaVuSans-65" x="331.201172"/>
     </g>
    </g>
   </g>
   <g id="matplotlib.axis_2">
    <g id="ytick_1">
     <g id="line2d_7">
      <defs>
       <path id="m2fa009ac04" d="M 0 0 
L -3.5 0 
" style="stroke: #000000; stroke-width: 0.8"/>
      </defs>
      <g>
       <use xlink:href="#m2fa009ac04" x="63.2" y="171.16" style="stroke: #000000; stroke-width: 0.8"/>
      </g>
     </g>
     <g id="text_8">
      <!-- 0.000 -->
      <g transform="translate(27.571875 174.959219) scale(0.1 -0.1)">
       <defs>
        <path id="DejaVuSans-2e" d="M 684 794 
L 1344 794 
L 1344 0 
L 684 0 
L 684 794 
z
" transform="scale(0.015625)"/>
       </defs>
       <use xlink:href="#DejaVuSans-30"/>
       <use xlink:href="#DejaVuSans-2e" x="63.623047"/>
       <use xlink:href="#DejaVuSans-30" x="95.410156"/>
       <use xlink:href="#DejaVuSans-30" x="159.033203"/>
       <use xlink:href="#DejaVuSans-30" x="222.65625"/>
      </g>
     </g>
    </g>
    <g id="ytick_2">
     <g id="line2d_8">
      <g>
       <use xlink:href="#m2fa009ac04" x="63.2" y="132.874245" style="stroke: #000000; stroke-width: 0.8"/>
      </g>
     </g>
     <g id="text_9">
      <!-- 0.005 -->
      <g transform="translate(27.571875 136.673464) scale(0.1 -0.1)">
       <use xlink:href="#DejaVuSans-30"/>
       <use xlink:href="#DejaVuSans-2e" x="63.623047"/>
       <use xlink:href="#DejaVuSans-30" x="95.410156"/>
       <use xlink:href="#DejaVuSans-30" x="159.033203"/>
       <use xlink:href="#DejaVuSans-35" x="222.65625"/>
      </g>
     </g>
    </g>
    <g id="ytick_3">
     <g id="line2d_9">
      <g>
       <use xlink:href="#m2fa009ac04" x="63.2" y="94.58849" style="stroke: #000000; stroke-width: 0.8"/>
      </g>
     </g>
     <g id="text_10">
      <!-- 0.010 -->
      <g transform="translate(27.571875 98.387708) scale(0.1 -0.1)">
       <use xlink:href="#DejaVuSans-30"/>
       <use xlink:href="#DejaVuSans-2e" x="63.623047"/>
       <use xlink:href="#DejaVuSans-30" x="95.410156"/>
       <use xlink:href="#DejaVuSans-31" x="159.033203"/>
       <use xlink:href="#DejaVuSans-30" x="222.65625"/>
      </g>
     </g>
    </g>
    <g id="ytick_4">
     <g id="line2d_10">
      <g>
       <use xlink:href="#m2fa009ac04" x="63.2" y="56.302735" style="stroke: #000000; stroke-width: 0.8"/>
      </g>
     </g>
     <g id="text_11">
      <!-- 0.015 -->
      <g transform="translate(27.571875 60.101953) scale(0.1 -0.1)">
       <use xlink:href="#DejaVuSans-30"/>
       <use xlink:href="#DejaVuSans-2e" x="63.623047"/>
       <use xlink:href="#DejaVuSans-30" x="95.410156"/>
       <use xlink:href="#DejaVuSans-31" x="159.033203"/>
       <use xlink:href="#DejaVuSans-35" x="222.65625"/>
      </g>
     </g>
    </g>
    <g id="ytick_5">
     <g id="line2d_11">
      <g>
       <use xlink:href="#m2fa009ac04" x="63.2" y="18.016979" style="stroke: #000000; stroke-width: 0.8"/>
      </g>
     </g>
     <g id="text_12">
      <!-- 0.020 -->
      <g transform="translate(27.571875 21.816198) scale(0.1 -0.1)">
       <use xlink:href="#DejaVuSans-30"/>
       <use xlink:href="#DejaVuSans-2e" x="63.623047"/>
       <use xlink:href="#DejaVuSans-30" x="95.410156"/>
       <use xlink:href="#DejaVuSans-32" x="159.033203"/>
       <use xlink:href="#DejaVuSans-30" x="222.65625"/>
      </g>
     </g>
    </g>
    <g id="text_13">
     <!-- Expected reward -->
     <g transform="translate(21.07625 141.660313) rotate(-90) scale(0.12 -0.12)">
      <defs>
       <path id="DejaVuSans-78" d="M 3513 3500 
L 2247 1797 
L 3578 0 
L 2900 0 
L 1881 1375 
L 863 0 
L 184 0 
L 1544 1831 
L 300 3500 
L 978 3500 
L 1906 2253 
L 2834 3500 
L 3513 3500 
z
" transform="scale(0.015625)"/>
       <path id="DejaVuSans-63" d="M 3122 3366 
L 3122 2828 
Q 2878 2963 2633 3030 
Q 2388 3097 2138 3097 
Q 1578 3097 1268 2742 
Q 959 2388 959 1747 
Q 959 1106 1268 751 
Q 1578 397 2138 397 
Q 2388 397 2633 464 
Q 2878 531 3122 666 
L 3122 134 
Q 2881 22 2623 -34 
Q 2366 -91 2075 -91 
Q 1284 -91 818 406 
Q 353 903 353 1747 
Q 353 2603 823 3093 
Q 1294 3584 2113 3584 
Q 2378 3584 2631 3529 
Q 2884 3475 3122 3366 
z
" transform="scale(0.015625)"/>
       <path id="DejaVuSans-74" d="M 1172 4494 
L 1172 3500 
L 2356 3500 
L 2356 3053 
L 1172 3053 
L 1172 1153 
Q 1172 725 1289 603 
Q 1406 481 1766 481 
L 2356 481 
L 2356 0 
L 1766 0 
Q 1100 0 847 248 
Q 594 497 594 1153 
L 594 3053 
L 172 3053 
L 172 3500 
L 594 3500 
L 594 4494 
L 1172 4494 
z
" transform="scale(0.015625)"/>
       <path id="DejaVuSans-20" transform="scale(0.015625)"/>
       <path id="DejaVuSans-72" d="M 2631 2963 
Q 2534 3019 2420 3045 
Q 2306 3072 2169 3072 
Q 1681 3072 1420 2755 
Q 1159 2438 1159 1844 
L 1159 0 
L 581 0 
L 581 3500 
L 1159 3500 
L 1159 2956 
Q 1341 3275 1631 3429 
Q 1922 3584 2338 3584 
Q 2397 3584 2469 3576 
Q 2541 3569 2628 3553 
L 2631 2963 
z
" transform="scale(0.015625)"/>
       <path id="DejaVuSans-77" d="M 269 3500 
L 844 3500 
L 1563 769 
L 2278 3500 
L 2956 3500 
L 3675 769 
L 4391 3500 
L 4966 3500 
L 4050 0 
L 3372 0 
L 2619 2869 
L 1863 0 
L 1184 0 
L 269 3500 
z
" transform="scale(0.015625)"/>
       <path id="DejaVuSans-61" d="M 2194 1759 
Q 1497 1759 1228 1600 
Q 959 1441 959 1056 
Q 959 750 1161 570 
Q 1363 391 1709 391 
Q 2188 391 2477 730 
Q 2766 1069 2766 1631 
L 2766 1759 
L 2194 1759 
z
M 3341 1997 
L 3341 0 
L 2766 0 
L 2766 531 
Q 2569 213 2275 61 
Q 1981 -91 1556 -91 
Q 1019 -91 701 211 
Q 384 513 384 1019 
Q 384 1609 779 1909 
Q 1175 2209 1959 2209 
L 2766 2209 
L 2766 2266 
Q 2766 2663 2505 2880 
Q 2244 3097 1772 3097 
Q 1472 3097 1187 3025 
Q 903 2953 641 2809 
L 641 3341 
Q 956 3463 1253 3523 
Q 1550 3584 1831 3584 
Q 2591 3584 2966 3190 
Q 3341 2797 3341 1997 
z
" transform="scale(0.015625)"/>
      </defs>
      <use xlink:href="#DejaVuSans-45"/>
      <use xlink:href="#DejaVuSans-78" x="63.183594"/>
      <use xlink:href="#DejaVuSans-70" x="122.363281"/>
      <use xlink:href="#DejaVuSans-65" x="185.839844"/>
      <use xlink:href="#DejaVuSans-63" x="247.363281"/>
      <use xlink:href="#DejaVuSans-74" x="302.34375"/>
      <use xlink:href="#DejaVuSans-65" x="341.552734"/>
      <use xlink:href="#DejaVuSans-64" x="403.076172"/>
      <use xlink:href="#DejaVuSans-20" x="466.552734"/>
      <use xlink:href="#DejaVuSans-72" x="498.339844"/>
      <use xlink:href="#DejaVuSans-65" x="537.203125"/>
      <use xlink:href="#DejaVuSans-77" x="598.726562"/>
      <use xlink:href="#DejaVuSans-61" x="680.513672"/>
      <use xlink:href="#DejaVuSans-72" x="741.792969"/>
      <use xlink:href="#DejaVuSans-64" x="781.15625"/>
     </g>
    </g>
   </g>
   <g id="line2d_12">
    <path d="M 63.2 43.724221 
L 63.309371 43.112872 
L 63.582797 41.897815 
L 63.637483 41.83668 
L 63.801539 42.539732 
L 64.239021 41.22533 
L 64.457762 42.547373 
L 64.567133 42.234057 
L 64.731189 43.151081 
L 64.895245 42.501522 
L 64.94993 42.49388 
L 65.004616 42.341043 
L 65.223357 43.31156 
L 65.387413 42.646718 
L 65.77021 44.992771 
L 65.824896 44.839934 
L 65.988951 44.175091 
L 66.207693 44.778799 
L 66.262378 44.809366 
L 66.317063 45.053906 
L 66.535805 44.396705 
L 66.754546 45.458925 
L 66.809231 45.435999 
L 66.863917 45.535344 
L 66.918602 45.940363 
L 66.973287 45.458925 
L 67.027973 45.879228 
L 67.082658 46.169619 
L 67.137343 45.97093 
L 67.192029 45.856302 
L 67.520141 47.392317 
L 67.684197 46.398875 
L 67.738882 46.353023 
L 67.902938 45.03098 
L 67.957623 45.267878 
L 68.012308 45.160892 
L 68.066994 45.122683 
L 68.23105 44.58011 
L 68.449791 44.839934 
L 68.504476 44.679454 
L 68.723218 45.596479 
L 69.05133 43.907626 
L 69.106015 43.869417 
L 69.270071 44.243868 
L 69.324756 44.167449 
L 69.488812 44.94692 
L 69.871609 43.770072 
L 70.090351 45.168534 
L 70.145036 45.466567 
L 70.199721 45.260236 
L 70.473148 44.480766 
L 70.637204 45.023338 
L 70.746575 44.213301 
L 70.80126 44.327929 
L 71.62154 41.255898 
L 71.785596 41.997159 
L 71.949652 42.906541 
L 72.113708 42.363969 
L 72.277764 42.065936 
L 72.660561 43.670728 
L 72.769932 42.960034 
L 72.824617 43.120514 
L 72.879302 43.258067 
L 72.933988 43.235142 
L 72.988673 44.213301 
L 73.043358 43.999328 
L 73.098044 43.5561 
L 73.152729 43.869417 
L 73.207414 43.609593 
L 73.262099 43.701295 
L 73.480841 44.427273 
L 73.590211 44.480766 
L 73.644897 44.389063 
L 73.699582 44.442557 
L 73.918323 45.053906 
L 74.19175 43.999328 
L 74.355806 44.725306 
L 74.410491 43.968761 
L 74.465177 44.61832 
L 74.574547 45.329013 
L 74.629233 44.977487 
L 74.683918 45.130325 
L 74.738603 44.923994 
L 74.902659 46.154335 
L 74.957345 46.047349 
L 75.1214 46.375949 
L 75.176086 46.437084 
L 75.230771 46.368307 
L 75.285456 46.070274 
L 75.340142 46.383591 
L 75.394827 46.116126 
L 75.449512 46.192544 
L 75.558883 46.291888 
L 75.613568 46.7504 
L 75.668254 46.536428 
L 75.777624 46.842103 
L 75.94168 47.850829 
L 75.996366 47.751485 
L 76.051051 47.996025 
L 76.105736 47.751485 
L 76.160422 47.537513 
L 76.215107 48.01895 
L 76.269792 47.766769 
L 76.76196 45.695823 
L 76.926016 46.505861 
L 76.980701 46.322456 
L 77.090072 46.918522 
L 77.199443 45.925079 
L 77.254128 45.963288 
L 77.418184 46.842103 
L 77.58224 46.223112 
L 77.636925 46.161977 
L 77.746296 45.527702 
L 77.800981 45.634688 
L 78.019723 45.008055 
L 78.074408 45.19146 
L 78.129093 45.130325 
L 78.238464 45.122683 
L 78.457205 44.358496 
L 78.511891 44.534259 
L 78.730632 45.779883 
L 78.840002 45.948004 
L 78.894688 45.734032 
L 79.058744 46.100842 
L 79.113429 45.741674 
L 79.277485 46.230754 
L 79.441541 46.612847 
L 79.660282 45.053906 
L 79.714968 45.130325 
L 79.879024 45.428357 
L 80.097765 44.687096 
L 80.15245 45.145608 
L 80.207136 44.855217 
L 80.425877 43.815923 
L 80.644618 45.420716 
L 80.753989 44.931636 
L 80.808674 45.321371 
L 80.863359 45.306088 
L 81.027415 44.083389 
L 81.082101 44.266794 
L 81.246157 45.52006 
L 81.300842 45.428357 
L 81.410213 45.573553 
L 81.574269 45.053906 
L 81.957066 46.972015 
L 82.011751 46.926163 
L 82.285178 48.355193 
L 82.503919 48.966542 
L 82.558604 48.615016 
L 82.61329 48.821347 
L 82.886716 47.965457 
L 82.941402 48.370476 
L 82.996087 47.942532 
L 83.050772 48.324625 
L 83.160143 47.996025 
L 83.214828 48.240565 
L 83.269514 48.133578 
L 83.488255 48.362834 
L 83.652311 48.828988 
L 83.871052 49.088812 
L 83.925738 48.890123 
L 83.980423 48.9589 
L 84.089794 49.256933 
L 84.800703 46.7504 
L 84.964759 46.21547 
L 85.128815 47.285331 
L 85.292871 46.673982 
L 85.347556 47.499303 
L 85.402241 47.392317 
L 85.566297 46.322456 
L 85.620983 46.33774 
L 85.675668 46.398875 
L 85.894409 45.833376 
L 85.949095 45.7646 
L 86.00378 46.100842 
L 86.058465 46.016781 
L 86.167836 45.657613 
L 86.222521 46.154335 
L 86.277206 45.833376 
L 86.331892 45.787525 
L 86.386577 45.871586 
L 86.441262 46.307172 
L 86.82406 43.915268 
L 86.988116 44.94692 
L 87.042801 44.878143 
L 87.097486 45.176176 
L 87.152172 45.06919 
L 87.206857 45.053906 
L 87.370913 46.46001 
L 87.425598 46.513503 
L 87.64434 44.794082 
L 87.699025 44.878143 
L 87.75371 44.847576 
L 87.808395 44.396705 
L 87.863081 44.648887 
L 87.972451 44.801724 
L 88.027137 44.603036 
L 88.081822 44.786441 
L 88.136507 45.046264 
L 88.191193 44.90871 
L 88.355249 43.953477 
L 88.409934 44.45784 
L 88.57399 43.510249 
L 88.738046 44.121598 
L 88.792731 44.282077 
L 88.902102 43.579026 
L 88.956787 43.640161 
L 89.066158 44.427273 
L 89.175529 43.594309 
L 89.230214 43.601951 
L 89.339585 43.747147 
L 89.558326 42.845406 
L 89.667696 43.273351 
L 89.722382 43.051737 
L 89.777067 43.792998 
L 89.831752 43.686012 
L 89.995808 42.914183 
L 90.050494 43.571384 
L 90.105179 43.044095 
L 90.21455 42.723136 
L 90.269235 42.960034 
L 90.378606 42.302834 
L 90.433291 42.524448 
L 90.487976 42.478597 
L 90.542662 42.249341 
L 90.761403 43.112872 
L 90.816088 43.196932 
L 90.925459 42.65436 
L 90.980144 42.707853 
L 91.03483 42.944751 
L 91.089515 42.509164 
L 91.1442 42.677285 
L 91.198886 42.875974 
L 91.253571 42.639076 
L 91.417627 43.128155 
L 91.581683 42.027727 
L 91.691053 42.172922 
L 91.800424 41.416377 
L 91.909795 42.04301 
L 92.019165 41.339958 
L 92.073851 41.477512 
L 92.128536 41.699126 
L 92.292592 40.827953 
L 92.347277 41.294107 
L 92.401963 41.22533 
L 92.511333 41.003716 
L 92.620704 40.552846 
L 92.675389 40.675116 
L 92.894131 41.607424 
L 93.003501 42.272266 
L 93.058187 41.936024 
L 93.167557 42.310476 
L 93.222243 42.249341 
L 93.276928 42.08122 
L 93.331613 42.180564 
L 93.495669 42.944751 
L 93.550354 42.677285 
L 93.769096 43.831207 
L 93.878466 43.899984 
L 93.987837 43.494965 
L 94.042522 43.76243 
L 94.097208 43.548458 
L 94.206578 43.326844 
L 94.370634 43.563742 
L 94.53469 43.426188 
L 94.589376 43.67837 
L 94.644061 43.663086 
L 94.698746 43.31156 
L 94.753432 43.938193 
L 94.808117 43.831207 
L 94.862802 43.831207 
L 95.190914 42.61615 
L 95.300285 43.158723 
L 95.464341 42.547373 
L 95.573711 43.196932 
L 95.737767 42.432745 
L 95.901823 43.021169 
L 96.120565 41.217689 
L 96.339306 40.484069 
L 96.503362 40.988433 
L 96.667418 40.613981 
L 96.99553 39.291938 
L 97.050215 40.109618 
L 97.1049 39.704599 
L 97.159586 39.597613 
L 97.323642 40.186036 
L 97.378327 39.674031 
L 97.433012 40.056125 
L 97.597068 41.210047 
L 97.651754 41.355242 
L 97.706439 41.332317 
L 98.089236 40.010274 
L 98.143922 40.040841 
L 98.307978 39.207877 
L 98.362663 39.077966 
L 98.581404 40.698042 
L 98.63609 40.591055 
L 98.690775 40.461144 
L 98.74546 41.026642 
L 98.800145 40.820311 
L 98.854831 40.766818 
L 98.909516 40.552846 
L 98.964201 40.598697 
L 99.018887 40.644549 
L 99.073572 40.980791 
L 99.128257 40.782102 
L 99.237628 40.858521 
L 99.292313 41.087777 
L 99.346999 40.476427 
L 99.511055 41.569214 
L 99.675111 41.622708 
L 100.057908 43.632519 
L 100.112593 43.594309 
L 100.221964 43.296276 
L 100.38602 42.707853 
L 100.440705 42.753704 
L 100.495391 42.662001 
L 100.714132 41.867247 
L 100.932873 42.830123 
L 100.987558 42.463313 
L 101.042244 42.677285 
L 101.096929 43.013527 
L 101.151614 42.98296 
L 101.370356 42.111787 
L 101.534412 43.617235 
L 101.698468 43.517891 
L 101.753153 43.418546 
L 101.862524 43.976403 
L 101.917209 43.945835 
L 102.081265 43.517891 
L 102.13595 43.663086 
L 102.190636 44.091031 
L 102.245321 43.953477 
L 102.300006 43.869417 
L 102.354692 43.34977 
L 102.409377 43.716579 
L 102.628118 44.098673 
L 102.792174 43.8847 
L 102.846859 44.022254 
L 102.95623 44.282077 
L 103.065601 43.517891 
L 103.174971 44.259152 
L 103.284342 43.242783 
L 103.339027 43.472039 
L 103.393713 43.540816 
L 103.503083 44.297361 
L 103.557769 44.175091 
L 103.612454 44.236226 
L 103.667139 44.220942 
L 103.831195 43.43383 
L 103.885881 43.502607 
L 104.104622 42.814839 
L 104.213992 43.021169 
L 104.432734 42.180564 
L 104.487419 42.677285 
L 104.542104 42.211131 
L 104.70616 41.71441 
L 104.760846 41.783187 
L 104.815531 41.462228 
L 104.979587 42.08122 
L 105.034272 42.16528 
L 105.088958 42.04301 
L 105.253014 42.371611 
L 105.52644 40.44586 
L 105.635811 40.988433 
L 105.745182 40.797386 
L 105.799867 40.81267 
L 105.963923 41.744977 
L 106.073293 41.431661 
L 106.401405 42.776629 
L 106.510776 41.683842 
L 106.565461 41.851964 
L 106.893573 42.868332 
L 117.885323 41.913098 
L 117.940009 41.515721 
L 117.994694 41.676201 
L 118.104065 41.615066 
L 118.15875 41.3476 
L 118.213435 41.462228 
L 118.268121 41.538647 
L 118.377491 41.003716 
L 118.486862 41.164195 
L 118.541547 41.439303 
L 118.596233 41.271182 
L 118.705603 40.81267 
L 118.814974 41.110702 
L 118.869659 41.034284 
L 119.0884 41.401093 
L 119.252456 40.843237 
L 119.307142 40.81267 
L 119.361827 40.438218 
L 119.416512 40.81267 
L 119.471198 40.843237 
L 119.525883 40.491711 
L 119.689939 41.38581 
L 119.79931 40.468786 
L 119.90868 40.743893 
L 119.963366 40.698042 
L 120.072736 39.964422 
L 120.127422 40.101976 
L 120.346163 38.588886 
L 120.400848 38.695872 
L 120.510219 38.8105 
L 120.564904 38.703514 
L 120.619589 38.772291 
L 120.72896 39.490627 
L 120.783645 39.444775 
L 120.838331 39.452417 
L 120.947701 40.216604 
L 121.002387 40.20132 
L 121.057072 40.247171 
L 121.330499 41.46987 
L 121.385184 41.087777 
L 121.439869 41.393452 
L 121.494555 41.630349 
L 121.603925 41.118344 
L 121.822667 42.715495 
L 121.932037 42.639076 
L 121.986723 43.036453 
L 122.041408 42.998244 
L 122.260149 41.737336 
L 122.36952 41.806112 
L 122.533576 42.49388 
L 122.588261 42.08122 
L 122.642946 42.142355 
L 122.697632 42.203489 
L 122.916373 43.456756 
L 123.025744 42.53209 
L 123.080429 42.593225 
L 123.1898 42.960034 
L 123.244485 42.776629 
L 123.408541 43.494965 
L 123.517912 43.487323 
L 123.627282 43.792998 
L 123.681968 43.265709 
L 123.736653 43.617235 
L 123.791338 43.594309 
L 123.846024 44.022254 
L 123.900709 43.80064 
L 124.01008 43.380337 
L 124.064765 43.831207 
L 124.11945 43.701295 
L 124.283506 43.143439 
L 124.556933 43.991686 
L 124.611618 43.770072 
L 124.830359 44.740589 
L 124.885045 44.901069 
L 124.994415 44.427273 
L 125.267842 45.672897 
L 125.431898 44.732948 
L 125.486583 44.992771 
L 125.541269 44.49605 
L 125.595954 44.687096 
L 125.814695 44.526617 
L 125.924066 45.130325 
L 126.142807 44.526617 
L 126.416234 43.854133 
L 126.470919 44.175091 
L 126.525604 44.00697 
L 126.58029 43.617235 
L 126.634975 43.777714 
L 126.68966 44.022254 
L 126.744346 43.861775 
L 126.799031 43.533174 
L 126.908402 43.915268 
L 126.963087 43.831207 
L 127.017772 44.113956 
L 127.072458 43.663086 
L 127.127143 43.670728 
L 127.291199 44.228584 
L 127.50994 43.663086 
L 127.892738 42.960034 
L 128.056793 43.365053 
L 128.111479 43.258067 
L 128.275535 42.478597 
L 128.603647 43.930551 
L 128.713017 42.715495 
L 128.767703 42.906541 
L 129.095815 44.075747 
L 129.1505 43.92291 
L 129.259871 42.967676 
L 129.314556 43.334486 
L 129.533297 43.013527 
L 129.697353 43.426188 
L 129.97078 42.142355 
L 130.025465 42.180564 
L 130.189521 42.524448 
L 130.244206 42.318117 
L 130.298892 42.646718 
L 130.517633 41.699126 
L 130.736374 41.867247 
L 130.845745 41.653275 
L 131.009801 43.250425 
L 131.064486 43.204574 
L 131.283228 44.794082 
L 131.447284 44.098673 
L 131.611339 44.159807 
L 131.666025 43.892342 
L 131.72071 43.968761 
L 131.884766 44.182733 
L 132.048822 44.068105 
L 132.376934 42.539732 
L 132.54099 43.43383 
L 132.595675 43.10523 
L 132.650361 43.280993 
L 132.814417 42.455671 
L 132.869102 42.73842 
L 133.033158 42.814839 
L 133.142529 43.624877 
L 133.197214 43.456756 
L 133.251899 43.647802 
L 133.306585 44.091031 
L 133.36127 43.8847 
L 133.634696 43.219858 
L 133.744067 42.111787 
L 133.798752 42.234057 
L 133.853438 42.096503 
L 133.908123 42.631434 
L 133.962808 42.417462 
L 134.017494 42.16528 
L 134.18155 42.730778 
L 134.400291 42.28755 
L 134.619032 42.906541 
L 134.673718 42.715495 
L 134.728403 42.937109 
L 134.783088 42.807197 
L 134.837774 42.318117 
L 134.892459 42.692569 
L 135.00183 42.333401 
L 135.220571 43.288635 
L 135.329941 42.830123 
L 135.384627 43.028811 
L 135.439312 42.937109 
L 135.658053 42.371611 
L 135.712739 42.28755 
L 135.822109 41.653275 
L 135.876795 42.04301 
L 136.040851 41.187121 
L 136.095536 41.110702 
L 136.314277 41.844322 
L 136.368963 41.737336 
L 136.423648 41.706768 
L 136.478333 41.951308 
L 136.587704 41.553931 
L 136.642389 41.622708 
L 136.697075 41.378168 
L 136.806445 42.363969 
L 136.861131 42.058294 
L 136.915816 42.088861 
L 137.189242 42.883616 
L 137.243928 42.853048 
L 137.517354 44.25151 
L 137.57204 43.854133 
L 137.68141 43.701295 
L 137.845466 43.984045 
L 137.954837 43.410904 
L 138.009522 43.441472 
L 138.064208 43.785356 
L 138.173578 43.357411 
L 138.228264 43.731863 
L 138.282949 43.303918 
L 138.337634 43.747147 
L 138.39232 43.670728 
L 138.556376 43.961119 
L 138.611061 43.838849 
L 138.720432 44.45784 
L 138.775117 43.999328 
L 138.993858 45.306088 
L 139.157914 45.023338 
L 139.212599 45.565911 
L 139.267285 45.229669 
L 139.486026 45.825735 
L 139.540711 45.596479 
L 139.650082 46.620489 
L 139.704767 46.513503 
L 140.087565 44.94692 
L 140.251621 46.54407 
L 140.306306 46.437084 
L 140.579733 47.529871 
L 140.634418 47.399959 
L 140.853159 48.645584 
L 140.907844 49.050603 
L 140.96253 48.760212 
L 141.0719 48.500388 
L 141.290642 49.363919 
L 141.345327 49.08117 
L 141.400012 49.57025 
L 141.454698 49.104096 
L 141.564068 48.706719 
L 141.618754 48.851914 
L 141.728124 49.348635 
L 141.78281 49.226365 
L 141.837495 48.890123 
L 141.89218 49.073528 
L 141.946866 49.088812 
L 142.165607 47.804978 
L 142.220292 47.881397 
L 142.274978 47.889039 
L 142.329663 48.187072 
L 142.384348 48.133578 
L 142.439034 48.080085 
L 142.548404 47.461094 
L 142.603089 47.919606 
L 142.657775 47.858471 
L 142.767145 47.208913 
L 142.821831 47.514587 
L 143.040572 48.393402 
L 143.368684 49.914134 
L 143.423369 49.562608 
L 143.53274 49.944701 
L 143.696796 48.790779 
L 143.751481 48.951258 
L 143.806167 49.058244 
L 143.860852 48.974184 
L 143.915537 48.989468 
L 144.079593 49.470905 
L 144.243649 48.851914 
L 144.407705 49.715445 
L 144.517076 50.196883 
L 144.571761 49.738371 
L 144.681132 50.433781 
L 144.735817 50.311511 
L 144.954558 51.243818 
L 145.009244 50.80059 
L 145.063929 50.082255 
L 145.118614 50.288585 
L 145.1733 50.135748 
L 145.227985 50.342078 
L 145.28267 50.235092 
L 145.337356 50.280943 
L 145.392041 50.189241 
L 145.501412 49.89885 
L 145.665468 50.540767 
L 145.720153 50.632469 
L 145.884209 51.992721 
L 145.938894 51.939228 
L 145.99358 52.19141 
L 146.048265 51.70233 
L 146.10295 51.992721 
L 146.267006 52.818043 
L 146.321691 52.474159 
L 146.376377 52.474159 
L 146.431062 52.756908 
L 146.485747 52.458875 
L 146.704489 51.809317 
L 146.813859 51.748182 
L 146.868545 51.94687 
L 146.92323 51.404298 
L 146.977915 51.41194 
L 147.141971 51.679405 
L 147.196657 51.885735 
L 147.251342 51.709972 
L 147.306027 51.694689 
L 147.360713 51.190325 
L 147.415398 51.389014 
L 147.634139 52.52001 
L 147.798195 51.878093 
L 148.016936 52.298396 
L 148.126307 52.451233 
L 148.180992 52.856252 
L 148.399734 51.679405 
L 148.56379 51.41194 
L 148.618475 51.541851 
L 148.782531 50.754739 
L 148.946587 51.106265 
L 149.165328 50.258018 
L 149.329384 51.068056 
L 149.38407 51.152116 
L 149.548126 52.19141 
L 149.930923 49.845357 
L 150.094979 50.494915 
L 150.149664 50.151031 
L 150.204349 50.617185 
L 150.259035 50.311511 
L 150.423091 50.036403 
L 150.532461 50.273301 
L 150.587147 50.10518 
L 150.641832 50.342078 
L 150.696517 50.044045 
L 150.751203 50.357362 
L 150.969944 49.53204 
L 151.024629 49.738371 
L 151.134 49.921775 
L 151.188685 49.700161 
L 151.243371 50.456706 
L 151.298056 50.403213 
L 151.352741 50.357362 
L 151.407427 50.510199 
L 151.735538 49.211082 
L 151.790224 49.577891 
L 151.844909 49.539682 
L 151.95428 49.432696 
L 152.282392 50.838799 
L 152.337077 50.670678 
L 152.446448 51.022204 
L 152.665189 50.280943 
L 152.88393 48.859556 
L 152.938616 49.058244 
L 153.102672 49.852999 
L 153.157357 49.516756 
L 153.321413 50.296227 
L 153.376098 50.273301 
L 153.485469 50.724171 
L 153.594839 50.334436 
L 153.70421 51.068056 
L 154.087007 48.034234 
L 154.360434 48.607374 
L 154.52449 47.873755 
L 154.688546 48.240565 
L 154.907287 47.430527 
L 155.126029 48.6303 
L 155.180714 48.431611 
L 155.399455 47.124852 
L 155.45414 46.727475 
L 155.508826 47.063717 
L 155.563511 46.811535 
L 155.618196 46.964373 
L 155.727567 47.017866 
L 155.891623 47.422885 
L 155.946308 47.384675 
L 156.000994 47.797336 
L 156.16505 47.254764 
L 156.329106 46.796252 
L 156.383791 47.132494 
L 156.438476 46.811535 
L 156.602532 46.146693 
L 156.657218 46.108484 
L 156.711903 45.772241 
L 156.766588 45.802809 
L 156.821274 46.077916 
L 156.875959 45.97093 
L 157.0947 45.435999 
L 157.149385 45.252594 
L 157.204071 45.298446 
L 157.696239 47.950174 
L 157.750924 47.81262 
L 157.805609 47.835546 
L 157.860295 48.156504 
L 157.91498 47.881397 
L 158.079036 47.010224 
L 158.133721 47.079001 
L 158.188407 46.887954 
L 158.243092 47.03315 
L 158.407148 47.315899 
L 158.516519 47.178345 
L 158.680575 46.87267 
L 158.844631 47.292973 
L 159.008686 46.597563 
L 159.118057 46.696907 
L 159.336798 47.720918 
L 159.391484 47.438169 
L 159.446169 47.522229 
L 159.500854 47.499303 
L 159.66491 47.017866 
L 159.828966 47.881397 
L 159.883652 47.774411 
L 159.993022 47.667425 
L 160.102393 48.423969 
L 160.157078 48.324625 
L 160.211764 48.500388 
L 160.48519 47.178345 
L 160.594561 47.69035 
L 160.649246 47.346466 
L 160.703932 47.44581 
L 160.813302 48.431611 
L 161.141414 47.155419 
L 161.196099 47.178345 
L 161.250785 47.438169 
L 161.30547 47.308257 
L 161.414841 47.002582 
L 161.469526 47.109568 
L 161.524211 47.178345 
L 161.578897 46.704549 
L 172.680017 44.450198 
L 172.789388 44.526617 
L 173.008129 42.226415 
L 173.062815 42.547373 
L 173.1175 42.547373 
L 173.281556 43.128155 
L 173.390927 43.739505 
L 173.500297 43.609593 
L 173.554982 43.18929 
L 173.609668 43.387979 
L 173.773724 43.976403 
L 173.828409 44.205659 
L 173.883094 44.167449 
L 174.539318 42.058294 
L 174.594004 42.723136 
L 174.648689 42.600867 
L 174.703374 42.539732 
L 174.75806 42.906541 
L 174.812745 42.799555 
L 174.86743 42.883616 
L 174.976801 42.341043 
L 175.031486 42.417462 
L 175.086172 42.600867 
L 175.140857 42.432745 
L 175.304913 41.584498 
L 175.359598 41.630349 
L 175.523654 41.783187 
L 175.578339 41.752619 
L 175.633025 42.020085 
L 175.68771 41.767903 
L 175.742395 41.630349 
L 175.797081 41.890173 
L 175.851766 41.653275 
L 175.961137 40.606339 
L 176.125193 42.28755 
L 176.289249 41.439303 
L 176.343934 41.393452 
L 176.453305 40.461144 
L 176.50799 40.720967 
L 176.672046 41.210047 
L 176.781417 40.659832 
L 176.945473 41.523363 
L 177.164214 41.248256 
L 177.32827 42.127071 
L 177.547011 42.677285 
L 177.601696 42.40982 
L 177.656382 42.707853 
L 177.711067 42.448029 
L 177.929808 41.607424 
L 178.039179 40.77446 
L 178.093864 41.232972 
L 178.14855 41.217689 
L 178.312606 40.6904 
L 178.367291 40.728609 
L 178.531347 39.903287 
L 178.695403 40.682758 
L 178.750088 40.675116 
L 178.859459 41.981875 
L 178.968829 41.859605 
L 179.023515 41.691484 
L 179.0782 41.874889 
L 179.187571 41.844322 
L 179.242256 41.584498 
L 179.296941 41.615066 
L 179.351627 41.783187 
L 179.625053 40.759177 
L 179.734424 41.041926 
L 179.953165 40.11726 
L 180.117221 40.973149 
L 180.171907 41.064851 
L 180.226592 40.682758 
L 180.281277 40.820311 
L 180.390648 41.737336 
L 180.445333 41.309391 
L 180.500019 41.531005 
L 180.554704 41.446945 
L 180.609389 40.950223 
L 180.664075 41.072493 
L 180.71876 41.026642 
L 180.882816 42.211131 
L 180.992186 42.180564 
L 181.046872 42.088861 
L 181.210928 42.570299 
L 181.320298 41.210047 
L 181.429669 41.286465 
L 181.53904 40.950223 
L 181.593725 41.255898 
L 181.64841 40.751535 
L 181.703096 40.927298 
L 181.757781 40.827953 
L 181.812466 41.240614 
L 181.867152 41.095419 
L 181.921837 40.743893 
L 181.976522 41.179479 
L 182.031208 40.904372 
L 182.085893 40.927298 
L 182.249949 41.729694 
L 182.414005 41.332317 
L 182.46869 41.401093 
L 182.851487 43.219858 
L 182.906173 43.082304 
L 183.015543 43.571384 
L 183.070229 43.968761 
L 183.124914 43.502607 
L 183.343655 44.977487 
L 183.398341 44.732948 
L 183.453026 44.977487 
L 183.507711 44.870501 
L 183.562397 45.084473 
L 183.617082 44.94692 
L 183.726453 44.878143 
L 183.999879 46.933805 
L 184.054565 46.865028 
L 184.273306 46.062632 
L 184.382677 45.802809 
L 184.492047 45.963288 
L 184.92953 43.731863 
L 184.984215 43.76243 
L 185.093586 44.33557 
L 185.148271 43.915268 
L 185.202956 43.92291 
L 185.367012 44.763515 
L 185.476383 44.564826 
L 185.531068 44.297361 
L 185.585754 44.778799 
L 185.640439 44.603036 
L 185.695124 44.213301 
L 185.74981 44.587752 
L 186.023236 43.686012 
L 186.241977 44.923994 
L 186.406033 44.473124 
L 187.062257 42.149996 
L 187.280999 43.120514 
L 187.663796 42.417462 
L 187.991908 41.118344 
L 188.046593 41.79847 
L 188.101278 41.50808 
L 188.155964 41.706768 
L 188.210649 41.431661 
L 188.265334 41.477512 
L 188.42939 41.882531 
L 188.648132 41.3476 
L 188.702817 41.446945 
L 188.757502 41.477512 
L 188.812188 41.248256 
L 188.976244 42.379252 
L 189.030929 41.997159 
L 189.085614 42.134713 
L 189.194985 42.333401 
L 189.24967 42.172922 
L 189.304356 42.295192 
L 189.468412 42.960034 
L 190.06995 40.89673 
L 190.124635 40.934939 
L 190.343377 41.645633 
L 190.398062 41.561573 
L 190.452747 41.683842 
L 190.562118 42.440387 
L 190.616803 42.333401 
L 190.780859 41.92074 
L 190.89023 42.04301 
L 190.944915 41.271182 
L 190.999601 41.515721 
L 191.054286 41.301749 
L 191.108971 41.416377 
L 191.163657 41.813754 
L 191.218342 41.454586 
L 191.327713 40.720967 
L 191.382398 41.248256 
L 191.437083 41.148912 
L 191.71051 41.706768 
L 191.81988 41.278824 
L 191.983936 41.485154 
L 192.038622 41.133628 
L 192.093307 41.148912 
L 192.257363 42.944751 
L 192.312048 42.218773 
L 192.858902 43.34977 
L 192.968272 43.051737 
L 193.022958 43.258067 
L 193.187014 42.203489 
L 193.35107 43.059379 
L 193.46044 42.341043 
L 193.733867 41.210047 
L 193.788552 41.370526 
L 193.843237 41.324675 
L 194.007293 40.728609 
L 194.061979 41.156554 
L 194.116664 41.049567 
L 194.390091 39.567045 
L 194.444776 39.62818 
L 194.608832 39.146743 
L 194.772888 39.735166 
L 194.827573 39.215519 
L 194.882259 39.75045 
L 194.936944 39.696957 
L 194.991629 39.781018 
L 195.046315 39.796301 
L 195.101 39.093249 
L 195.155685 39.75045 
L 195.319741 40.247171 
L 195.374426 40.147827 
L 195.483797 40.789744 
L 195.593168 39.910929 
L 195.811909 41.729694 
L 195.866594 41.790829 
L 196.03065 40.835595 
L 196.140021 41.446945 
L 196.194706 41.324675 
L 196.249392 41.232972 
L 196.304077 41.46987 
L 196.358762 41.401093 
L 196.413448 41.446945 
L 196.522818 41.118344 
L 196.577504 41.14127 
L 196.632189 41.446945 
L 196.686874 40.560488 
L 196.74156 40.81267 
L 196.960301 41.546289 
L 197.124357 40.285381 
L 197.179042 40.216604 
L 197.452469 41.133628 
L 197.507154 40.675116 
L 197.561839 41.011358 
L 197.725895 40.598697 
L 197.835266 41.232972 
L 197.944637 41.156554 
L 198.108693 39.811585 
L 198.163378 40.300664 
L 198.218063 40.086692 
L 198.272749 40.285381 
L 198.436805 41.446945 
L 198.546175 41.072493 
L 198.655546 41.913098 
L 198.710231 41.607424 
L 198.764917 41.500438 
L 198.874287 41.981875 
L 198.928973 41.95895 
L 198.983658 41.569214 
L 199.038343 42.04301 
L 199.093028 41.775545 
L 199.202399 41.981875 
L 199.257084 41.928382 
L 199.530511 41.026642 
L 199.639882 41.59214 
L 199.803938 40.675116 
L 200.022679 41.492796 
L 200.13205 40.919656 
L 200.24142 41.576856 
L 200.296106 41.50808 
L 200.405476 41.637991 
L 200.569532 41.362884 
L 200.842959 42.539732 
L 200.897644 42.730778 
L 200.952329 42.639076 
L 201.007015 42.631434 
L 201.389812 43.899984 
L 201.553868 42.937109 
L 201.608553 43.204574 
L 201.663239 42.98296 
L 201.717924 43.174007 
L 201.772609 42.784271 
L 201.827295 43.143439 
L 201.88198 43.693654 
L 201.936665 43.06702 
L 201.991351 43.303918 
L 202.100721 42.768988 
L 202.319463 43.647802 
L 202.374148 43.365053 
L 202.428833 43.854133 
L 202.483519 43.418546 
L 202.647574 42.883616 
L 202.70226 43.158723 
L 202.921001 42.096503 
L 203.030372 42.562657 
L 203.194428 42.149996 
L 203.358484 43.655444 
L 203.467854 43.624877 
L 203.52254 43.051737 
L 203.577225 43.097588 
L 203.686596 43.303918 
L 203.741281 43.280993 
L 203.905337 43.2275 
L 204.069393 42.501522 
L 204.124078 42.776629 
L 204.178764 42.723136 
L 204.233449 42.073578 
L 204.288134 42.371611 
L 204.834987 44.526617 
L 204.889673 44.198017 
L 204.944358 44.503692 
L 205.053729 44.870501 
L 205.108414 44.480766 
L 205.163099 44.595394 
L 205.491211 46.605205 
L 205.545897 46.704549 
L 205.655267 46.452368 
L 205.764638 46.857387 
L 205.819323 46.574638 
L 205.983379 45.940363 
L 206.038065 46.429442 
L 206.09275 46.100842 
L 206.202121 45.841018 
L 206.256806 46.024423 
L 206.311491 45.917437 
L 206.420862 46.230754 
L 206.530232 47.720918 
L 206.584918 47.231838 
L 206.694288 46.903238 
L 206.858344 47.858471 
L 207.077086 47.017866 
L 207.131771 46.956731 
L 207.186456 47.017866 
L 207.241142 46.429442 
L 207.295827 46.758042 
L 207.569254 48.072444 
L 207.623939 48.080085 
L 207.678624 47.713276 
L 207.73331 47.973099 
L 207.897366 47.621573 
L 208.116107 48.423969 
L 208.225477 48.668509 
L 208.334848 47.93489 
L 208.389533 48.255848 
L 208.553589 48.744928 
L 208.66296 48.935975 
L 208.827016 49.470905 
L 209.155128 51.022204 
L 209.209813 50.961069 
L 209.373869 50.196883 
L 209.537925 50.670678 
L 209.592611 50.693604 
L 209.647296 51.014562 
L 209.701981 50.815874 
L 209.756667 50.55605 
L 209.811352 50.731813 
L 209.866037 50.685962 
L 209.920723 51.182684 
L 209.975408 50.785306 
L 210.030093 50.899934 
L 210.084778 50.808232 
L 210.194149 50.80059 
L 210.522261 51.633554 
L 210.576946 50.92286 
L 210.631632 51.060414 
L 210.741002 51.870452 
L 210.795688 51.74054 
L 210.850373 51.794033 
L 210.959744 50.869367 
L 211.014429 50.991637 
L 211.069114 51.786391 
L 211.1238 51.327879 
L 211.23317 51.037488 
L 211.287856 51.090981 
L 211.451912 51.771107 
L 211.506597 51.633554 
L 211.780023 50.036403 
L 211.834709 50.128106 
L 211.944079 50.869367 
L 211.998765 50.80059 
L 212.05345 50.433781 
L 212.108135 50.47199 
L 212.162821 50.59426 
L 212.326877 49.386845 
L 212.490933 49.998194 
L 212.600303 49.585533 
L 212.654989 49.684878 
L 212.709674 49.89885 
L 212.819045 49.516756 
L 212.87373 50.242734 
L 212.928415 49.830073 
L 212.983101 49.593175 
L 213.037786 49.799506 
L 213.092471 49.784222 
L 213.147157 49.478547 
L 213.201842 49.799506 
L 213.256527 49.600817 
L 213.311213 50.089896 
L 213.365898 49.516756 
L 213.420583 49.799506 
L 213.584639 49.40977 
L 213.748695 49.08117 
L 213.967436 49.799506 
L 214.022122 49.768938 
L 214.186178 50.173957 
L 214.295548 49.2875 
L 214.350234 49.318068 
L 214.51429 50.265659 
L 214.568975 49.929417 
L 214.787716 49.249291 
L 214.897087 49.639026 
L 214.951772 49.279859 
L 215.006458 49.524398 
L 215.061143 49.616101 
L 215.170514 50.166315 
L 215.33457 49.226365 
L 215.389255 49.585533 
L 215.44394 49.32571 
L 215.553311 49.753654 
L 215.662681 48.806063 
L 215.826737 47.751485 
L 215.936108 47.60629 
L 215.990793 47.140136 
L 216.100164 47.980741 
L 216.26422 47.407601 
L 227.25597 41.362884 
L 227.420026 40.20132 
L 227.474711 40.124902 
L 227.748138 38.581244 
L 227.802823 38.634737 
L 227.857509 38.535393 
L 227.912194 38.4819 
L 228.021565 38.787575 
L 228.07625 38.741724 
L 228.18562 38.222077 
L 228.240306 38.405481 
L 228.294991 38.313779 
L 228.404362 37.694788 
L 228.459047 37.916402 
L 228.568418 37.526667 
L 228.732474 37.847625 
L 228.787159 37.572518 
L 228.951215 38.099807 
L 229.0059 37.839983 
L 229.060586 37.992821 
L 229.115271 38.329063 
L 229.169956 38.076881 
L 229.279327 38.321421 
L 229.334012 37.992821 
L 229.388698 38.23736 
L 229.552754 37.939328 
L 229.607439 37.648937 
L 229.771495 38.260286 
L 229.880866 38.099807 
L 229.935551 38.336705 
L 229.990236 38.145658 
L 230.099607 37.641295 
L 230.154292 38.000462 
L 230.427719 39.696957 
L 230.537089 39.674031 
L 230.755831 38.902203 
L 230.865201 39.398924 
L 230.919887 38.779933 
L 230.974572 39.100891 
L 231.029257 39.100891 
L 231.083943 38.841068 
L 231.138628 39.100891 
L 231.247999 39.918571 
L 231.302684 39.742808 
L 231.357369 39.933855 
L 231.412055 39.635822 
L 231.46674 39.826869 
L 231.576111 39.987348 
L 231.630796 39.460059 
L 231.685481 39.528836 
L 231.740167 39.551761 
L 231.849537 39.826869 
L 231.904222 39.54412 
L 231.958908 39.719883 
L 232.013593 39.773376 
L 232.177649 40.606339 
L 232.560446 39.009189 
L 232.615132 38.8105 
L 232.669817 38.841068 
L 232.997929 39.941497 
L 233.052614 39.910929 
L 233.1073 39.735166 
L 233.161985 39.811585 
L 233.21667 39.880362 
L 233.271356 40.208962 
L 233.326041 40.048483 
L 233.380726 40.07905 
L 233.435412 39.87272 
L 233.490097 40.308306 
L 233.544782 39.773376 
L 233.599468 39.95678 
L 233.708838 40.247171 
L 233.763523 39.826869 
L 233.818209 40.124902 
L 233.982265 39.742808 
L 234.03695 40.254813 
L 234.146321 39.643464 
L 234.201006 40.002632 
L 234.255691 39.803943 
L 234.310377 39.719883 
L 234.365062 40.430576 
L 234.419747 39.849794 
L 234.529118 39.910929 
L 234.693174 41.011358 
L 234.747859 40.904372 
L 234.802545 40.140185 
L 234.911915 40.163111 
L 234.966601 40.109618 
L 235.130657 39.230803 
L 235.240027 39.903287 
L 235.294713 39.528836 
L 236.005622 41.699126 
L 236.169678 41.71441 
L 236.279048 40.208962 
L 236.333734 40.415293 
L 236.443104 39.842152 
L 236.49779 39.987348 
L 236.661846 39.406566 
L 236.935272 40.438218 
L 237.099328 39.826869 
L 237.263384 40.453502 
L 237.42744 41.408735 
L 237.482125 41.034284 
L 237.591496 40.866163 
L 237.646181 41.026642 
L 237.700867 40.736251 
L 237.810237 41.309391 
L 238.083664 40.086692 
L 238.193035 39.643464 
L 238.302405 39.788659 
L 238.521147 40.407651 
L 238.575832 40.300664 
L 238.630517 40.629265 
L 238.685203 40.361799 
L 238.794573 40.392367 
L 239.013315 40.934939 
L 239.068 41.003716 
L 239.232056 39.987348 
L 239.286741 40.086692 
L 239.450797 39.551761 
L 239.505482 39.635822 
L 239.669538 38.963338 
L 239.724224 39.169668 
L 239.88828 38.443691 
L 239.942965 38.405481 
L 239.99765 38.489542 
L 240.052336 38.695872 
L 240.107021 38.451333 
L 240.271077 38.833426 
L 240.435133 38.290853 
L 240.489818 38.336705 
L 240.653874 39.169668 
L 240.70856 38.97098 
L 240.81793 39.230803 
L 240.927301 38.565961 
L 240.981986 38.802859 
L 241.036671 38.940412 
L 241.091357 38.818142 
L 241.364783 38.191509 
L 241.583525 38.909845 
L 241.63821 39.024473 
L 241.692895 38.986263 
L 241.802266 38.863993 
L 242.021007 40.560488 
L 242.185063 39.589971 
L 242.622546 41.332317 
L 242.786602 39.796301 
L 242.841287 40.147827 
L 243.114714 37.862909 
L 243.333455 39.077966 
L 243.38814 39.047398 
L 243.552196 39.788659 
L 243.606882 39.781018 
L 243.716252 38.993905 
L 243.770938 39.184952 
L 243.880308 39.460059 
L 243.934994 39.38364 
L 243.989679 38.909845 
L 244.044364 39.085608 
L 244.09905 39.093249 
L 244.153735 39.460059 
L 244.20842 39.131459 
L 244.263106 39.429492 
L 244.372476 38.8105 
L 244.427162 38.902203 
L 244.481847 39.238445 
L 244.536532 39.146743 
L 244.974015 38.374914 
L 245.083385 39.016831 
L 245.138071 38.963338 
L 245.192756 38.963338 
L 245.356812 40.20132 
L 245.630239 38.000462 
L 245.739609 38.841068 
L 245.794295 38.436049 
L 246.122407 40.163111 
L 246.177092 40.224246 
L 246.341148 40.81267 
L 246.395833 40.728609 
L 246.614574 41.171837 
L 246.77863 40.063767 
L 247.052057 38.680589 
L 247.380169 39.926213 
L 247.434854 39.742808 
L 247.59891 40.81267 
L 247.708281 40.698042 
L 247.762966 40.827953 
L 247.817652 40.629265 
L 247.872337 40.705683 
L 247.927022 41.187121 
L 247.981708 40.728609 
L 248.036393 40.942581 
L 248.200449 40.07905 
L 248.41919 40.537562 
L 248.473875 40.843237 
L 248.528561 40.705683 
L 248.583246 40.713325 
L 248.637931 41.011358 
L 248.692617 40.698042 
L 248.801987 40.613981 
L 248.911358 40.850879 
L 248.966043 40.636907 
L 249.403526 42.234057 
L 249.458211 42.16528 
L 249.622267 42.837764 
L 249.676953 42.914183 
L 249.786323 41.997159 
L 249.841009 42.195848 
L 250.05975 41.294107 
L 250.16912 41.424019 
L 250.278491 42.188206 
L 250.333176 41.997159 
L 250.497232 42.700211 
L 250.606603 42.272266 
L 250.661288 42.295192 
L 250.715974 42.593225 
L 250.770659 42.562657 
L 250.9894 41.38581 
L 251.044086 41.737336 
L 251.098771 41.676201 
L 251.153456 41.699126 
L 251.208142 41.210047 
L 251.317512 41.905457 
L 251.372198 41.806112 
L 251.426883 41.615066 
L 251.481568 41.637991 
L 251.645624 41.867247 
L 251.70031 41.378168 
L 251.754995 41.477512 
L 251.864365 41.637991 
L 251.973736 41.148912 
L 252.028421 41.202405 
L 252.192477 40.927298 
L 252.301848 41.46987 
L 252.356533 41.087777 
L 252.411219 40.866163 
L 252.520589 41.974233 
L 252.575275 41.752619 
L 252.684645 41.966592 
L 252.958072 40.77446 
L 253.012757 41.202405 
L 253.067443 40.789744 
L 253.122128 41.133628 
L 253.395555 39.276654 
L 253.504925 38.802859 
L 253.559611 38.963338 
L 253.833037 41.821396 
L 253.942408 42.960034 
L 254.051778 42.791913 
L 254.161149 42.195848 
L 254.37989 43.181648 
L 254.489261 43.204574 
L 254.543946 43.059379 
L 254.598632 43.31156 
L 254.708002 42.379252 
L 254.762688 42.799555 
L 254.817373 42.623792 
L 255.036114 43.303918 
L 255.0908 42.746062 
L 255.145485 43.120514 
L 255.20017 43.06702 
L 255.309541 43.525532 
L 255.364226 43.18929 
L 255.418912 43.334486 
L 255.528282 43.036453 
L 255.801709 44.381422 
L 255.965765 44.00697 
L 256.02045 44.175091 
L 256.129821 45.260236 
L 256.184506 44.923994 
L 256.239191 44.832292 
L 256.293877 44.236226 
L 256.348562 44.809366 
L 256.567303 45.734032 
L 256.621989 45.382506 
L 256.676674 45.573553 
L 256.731359 46.139051 
L 256.786045 45.894511 
L 256.84073 46.085558 
L 256.895415 45.886869 
L 257.278213 42.814839 
L 257.387583 42.623792 
L 257.551639 42.241699 
L 257.66101 43.135797 
L 257.715695 42.914183 
L 257.934436 43.235142 
L 258.262548 44.366138 
L 258.317234 44.243868 
L 258.48129 44.61832 
L 258.59066 44.603036 
L 258.645346 44.312645 
L 258.754716 45.038622 
L 258.809402 44.885785 
L 258.864087 44.931636 
L 258.918772 45.672897 
L 258.973458 45.298446 
L 259.028143 45.298446 
L 259.192199 46.131409 
L 259.246884 46.054991 
L 259.301569 46.238395 
L 259.356255 46.047349 
L 259.520311 44.732948 
L 259.574996 44.755873 
L 259.629681 44.839934 
L 259.684367 44.710022 
L 259.739052 44.740589 
L 259.848423 45.023338 
L 259.903108 45.657613 
L 259.957793 45.03098 
L 260.067164 44.878143 
L 260.23122 45.672897 
L 260.340591 44.916352 
L 260.395276 45.329013 
L 260.449961 45.420716 
L 260.559332 45.137966 
L 260.614017 44.61832 
L 260.668703 44.771157 
L 260.723388 45.053906 
L 260.778073 44.564826 
L 260.832759 44.977487 
L 260.942129 44.671813 
L 261.0515 45.390148 
L 261.106185 45.344297 
L 261.270241 44.564826 
L 261.379612 45.053906 
L 261.434297 44.70238 
L 261.598353 45.7646 
L 261.707724 45.283162 
L 261.87178 46.528786 
L 261.926465 46.238395 
L 261.98115 46.284247 
L 262.090521 45.558269 
L 262.145206 45.833376 
L 262.254577 45.137966 
L 262.309262 45.435999 
L 262.363948 45.993856 
L 262.473318 45.97093 
L 262.69206 45.367223 
L 262.80143 45.986214 
L 262.856115 45.84866 
L 262.965486 45.329013 
L 263.074857 46.108484 
L 263.129542 45.787525 
L 263.238913 45.573553 
L 263.348283 46.184902 
L 263.457654 44.671813 
L 263.512339 44.90871 
L 263.840451 45.787525 
L 263.895137 45.795167 
L 263.949822 45.672897 
L 264.168563 46.521144 
L 264.223249 46.4218 
L 264.277934 46.536428 
L 264.496675 47.201271 
L 264.879472 44.305003 
L 264.934158 44.434915 
L 265.043528 44.113956 
L 265.207584 44.725306 
L 265.481011 45.015697 
L 265.645067 46.054991 
L 265.699752 45.825735 
L 265.918494 45.168534 
L 265.973179 45.199101 
L 266.027864 45.565911 
L 266.08255 45.542985 
L 266.137235 45.451283 
L 266.301291 46.108484 
L 266.520032 44.962204 
L 266.574717 45.39779 
L 266.738773 43.968761 
L 266.848144 44.259152 
L 267.066885 43.342128 
L 267.230941 43.708937 
L 267.285627 43.693654 
L 267.394997 42.837764 
L 267.559053 43.196932 
L 267.777795 41.676201 
L 267.83248 41.844322 
L 268.051221 43.510249 
L 268.269962 44.656529 
L 268.379333 44.419631 
L 268.434018 44.083389 
L 268.488704 44.434915 
L 268.816816 45.359581 
L 268.926186 45.115041 
L 268.980872 44.732948 
L 269.035557 44.801724 
L 269.144928 44.771157 
L 269.254298 44.901069 
L 269.308984 44.694738 
L 269.363669 44.94692 
L 269.47304 44.312645 
L 269.527725 44.603036 
L 269.691781 45.008055 
L 269.855837 44.633603 
L 269.965208 45.390148 
L 270.019893 44.94692 
L 270.348005 43.06702 
L 270.40269 43.273351 
L 270.512061 44.037538 
L 270.566746 43.815923 
L 270.730802 43.609593 
L 270.840173 43.181648 
L 270.949543 43.426188 
L 281.995979 43.571384 
L 282.21472 42.944751 
L 282.378776 43.43383 
L 282.433461 43.579026 
L 282.761573 41.966592 
L 282.816259 42.172922 
L 282.980314 40.881446 
L 283.035 41.087777 
L 283.14437 40.545204 
L 283.472482 41.38581 
L 283.527168 41.324675 
L 283.581853 41.424019 
L 283.636538 41.50808 
L 283.800594 42.256983 
L 283.909965 41.50808 
L 284.074021 42.241699 
L 284.238077 42.325759 
L 284.292762 42.86069 
L 284.347448 42.509164 
L 284.511504 41.95895 
L 284.566189 42.096503 
L 284.730245 41.110702 
L 284.78493 41.095419 
L 285.003671 39.987348 
L 285.058357 39.933855 
L 285.113042 40.063767 
L 285.167727 39.819227 
L 285.331783 41.179479 
L 285.386469 41.087777 
L 285.495839 40.980791 
L 285.878637 43.051737 
L 285.988007 42.86069 
L 286.042693 42.593225 
L 286.097378 43.028811 
L 286.152063 42.318117 
L 286.206749 42.707853 
L 286.261434 42.799555 
L 286.42549 41.446945 
L 286.480175 41.645633 
L 286.53486 41.546289 
L 286.753602 40.957865 
L 286.917658 40.56813 
L 287.191084 41.546289 
L 287.24577 41.370526 
L 287.300455 41.179479 
L 287.35514 41.324675 
L 287.464511 41.171837 
L 287.683252 40.675116 
L 287.901994 42.302834 
L 287.956679 42.65436 
L 288.011364 42.486239 
L 288.284791 41.553931 
L 288.339476 41.615066 
L 288.612903 42.990602 
L 288.9957 44.434915 
L 289.269127 43.479681 
L 289.433183 43.212216 
L 289.487868 43.854133 
L 289.542553 43.670728 
L 289.706609 42.868332 
L 289.761295 43.196932 
L 289.81598 42.967676 
L 290.034721 41.829038 
L 290.144092 42.142355 
L 290.308148 41.546289 
L 290.417518 40.934939 
L 290.472204 41.125986 
L 290.526889 40.950223 
L 290.63626 41.164195 
L 291.128428 42.952392 
L 291.183113 42.98296 
L 291.292484 42.318117 
L 291.347169 42.577941 
L 291.511225 42.302834 
L 291.56591 42.012443 
L 291.620596 42.157638 
L 291.784652 42.646718 
L 291.839337 42.845406 
L 291.894022 42.585583 
L 291.948708 42.853048 
L 292.003393 42.86069 
L 292.167449 42.348685 
L 292.222134 42.53209 
L 292.276819 42.157638 
L 292.331505 42.348685 
L 292.495561 42.371611 
L 292.550246 41.974233 
L 292.604931 42.058294 
L 292.659617 42.363969 
L 292.714302 42.180564 
L 292.878358 41.118344 
L 292.987729 41.523363 
L 293.151785 42.28755 
L 293.315841 41.775545 
L 293.370526 41.905457 
L 293.479897 40.782102 
L 293.534582 41.393452 
L 293.589267 41.744977 
L 293.643953 41.630349 
L 293.753323 41.645633 
L 293.862694 42.272266 
L 293.917379 42.035368 
L 293.972064 41.997159 
L 294.02675 42.279908 
L 294.081435 42.004801 
L 294.245491 41.905457 
L 294.300176 42.119429 
L 294.354862 41.92074 
L 294.464232 41.416377 
L 294.518918 41.630349 
L 294.573603 41.446945 
L 294.737659 40.973149 
L 294.792344 41.041926 
L 294.84703 41.3476 
L 295.011086 40.499353 
L 295.120456 40.453502 
L 295.229827 39.99499 
L 295.284512 40.147827 
L 295.339198 40.086692 
L 295.503254 39.727524 
L 295.721995 40.522279 
L 295.77668 40.65219 
L 295.831365 40.506995 
L 295.886051 40.591055 
L 295.995421 41.057209 
L 296.214163 39.949139 
L 296.268848 39.910929 
L 296.378219 40.155469 
L 296.432904 40.11726 
L 296.542275 39.758092 
L 296.59696 39.918571 
L 296.815701 38.749365 
L 296.979757 39.200236 
L 297.198499 38.680589 
L 297.362555 39.781018 
L 297.52661 39.291938 
L 297.745352 40.101976 
L 297.800037 40.048483 
L 297.854722 40.384725 
L 297.909408 40.124902 
L 297.964093 40.048483 
L 298.23752 40.866163 
L 298.292205 40.6904 
L 298.401576 39.589971 
L 298.456261 39.910929 
L 298.510946 39.704599 
L 298.565632 39.452417 
L 298.620317 39.482985 
L 298.784373 40.186036 
L 298.893744 39.460059 
L 298.948429 39.521194 
L 299.276541 41.622708 
L 299.331226 41.653275 
L 299.440597 42.539732 
L 299.714023 41.217689 
L 299.768709 41.439303 
L 299.823394 41.317033 
L 299.98745 40.988433 
L 300.206191 41.500438 
L 300.260877 41.622708 
L 300.315562 41.317033 
L 300.370247 41.951308 
L 300.424933 41.431661 
L 300.479618 41.760261 
L 300.534303 41.668559 
L 300.698359 40.32359 
L 300.753045 40.950223 
L 300.917101 40.81267 
L 301.081156 41.439303 
L 301.190527 41.492796 
L 301.299898 42.211131 
L 301.354583 41.905457 
L 301.409268 41.928382 
L 301.463954 42.478597 
L 301.518639 42.180564 
L 301.62801 41.989517 
L 301.792066 40.889088 
L 301.901436 40.644549 
L 302.120178 41.477512 
L 302.229548 41.309391 
L 302.393604 40.973149 
L 302.44829 40.797386 
L 302.502975 41.034284 
L 302.667031 40.056125 
L 302.721716 40.124902 
L 302.776402 40.048483 
L 302.831087 40.407651 
L 302.885772 40.331232 
L 302.995143 40.025557 
L 303.049828 40.071408 
L 303.104513 40.086692 
L 303.268569 38.963338 
L 303.323255 39.429492 
L 303.37794 39.184952 
L 303.432625 38.825784 
L 303.487311 39.169668 
L 303.541996 38.894561 
L 303.596681 38.986263 
L 303.760737 39.658748 
L 303.815423 39.139101 
L 303.870108 39.246087 
L 303.924793 39.50591 
L 304.088849 38.772291 
L 304.19822 39.108533 
L 304.252905 38.93277 
L 304.362276 39.146743 
L 304.471647 40.262455 
L 304.526332 40.048483 
L 304.581017 40.109618 
L 304.635703 39.979706 
L 304.745073 40.636907 
L 304.854444 40.400009 
L 305.237241 39.375999 
L 305.346612 39.918571 
L 305.620038 40.942581 
L 305.674724 40.965507 
L 305.729409 41.439303 
L 305.784094 40.835595 
L 305.83878 41.408735 
L 305.893465 41.339958 
L 305.94815 41.46987 
L 306.057521 40.957865 
L 306.112206 41.041926 
L 306.495004 42.868332 
L 306.549689 43.456756 
L 306.604374 43.303918 
L 306.76843 43.617235 
L 306.823115 43.808282 
L 306.877801 43.670728 
L 306.932486 43.747147 
L 306.987171 43.510249 
L 307.041857 43.5561 
L 307.096542 43.5561 
L 307.151227 44.198017 
L 307.205913 44.068105 
L 307.260598 44.152166 
L 307.369969 44.641245 
L 307.424654 44.572468 
L 307.698081 45.772241 
L 307.752766 45.649972 
L 307.862137 45.099757 
L 308.026193 45.749316 
L 308.190249 46.330098 
L 308.299619 45.405432 
L 308.354305 45.688181 
L 308.51836 46.444726 
L 308.573046 46.268963 
L 308.682416 46.54407 
L 308.737102 46.406516 
L 308.791787 46.490577 
L 308.846472 46.765684 
L 308.901158 46.513503 
L 308.955843 46.383591 
L 309.065214 46.551712 
L 309.22927 45.856302 
L 309.33864 47.140136 
L 309.393326 46.857387 
L 309.776123 44.90871 
L 309.830808 45.015697 
L 309.940179 45.596479 
L 310.104235 44.564826 
L 310.213605 44.091031 
L 310.268291 44.327929 
L 310.596403 44.205659 
L 310.651088 44.320287 
L 310.705773 44.259152 
L 310.760459 43.92291 
L 310.9792 44.847576 
L 311.033885 44.809366 
L 311.143256 44.526617 
L 311.197941 44.610678 
L 311.471368 45.787525 
L 311.580739 45.008055 
L 311.635424 45.015697 
L 311.690109 44.625961 
L 311.744795 44.755873 
L 311.854165 44.923994 
L 312.236962 43.540816 
L 312.291648 43.594309 
L 312.346333 43.739505 
L 312.401018 43.418546 
L 312.455704 43.831207 
L 312.510389 43.510249 
L 312.72913 44.679454 
L 313.002557 42.264624 
L 313.057242 42.295192 
L 313.221298 42.807197 
L 313.275984 42.608508 
L 313.330669 42.891258 
L 313.385354 42.608508 
L 313.44004 42.478597 
L 313.494725 42.608508 
L 313.54941 42.814839 
L 313.658781 43.617235 
L 313.713466 43.517891 
L 313.768152 43.701295 
L 313.822837 43.426188 
L 314.096263 44.45784 
L 314.205634 44.847576 
L 314.260319 44.648887 
L 314.424375 45.183818 
L 314.533746 45.130325 
L 314.588431 45.413074 
L 314.643117 45.145608 
L 314.697802 45.137966 
L 314.752487 45.72639 
L 314.807173 45.665255 
L 314.971229 45.321371 
L 315.135285 44.817008 
L 315.18997 45.443641 
L 315.244655 44.794082 
L 315.299341 45.183818 
L 315.354026 44.832292 
L 315.408711 44.518975 
L 315.463397 44.603036 
L 315.518082 44.549543 
L 315.572767 44.82465 
L 315.736823 43.838849 
L 315.846194 44.366138 
L 315.900879 44.289719 
L 316.064935 43.92291 
L 316.11962 43.984045 
L 316.338362 44.694738 
L 316.393047 44.557185 
L 316.611788 43.319202 
L 316.666474 43.235142 
L 316.83053 42.730778 
L 316.9399 42.791913 
L 316.994586 42.585583 
L 317.049271 42.662001 
L 317.158642 42.639076 
L 317.322698 41.011358 
L 317.377383 41.057209 
L 317.486753 41.011358 
L 317.650809 40.430576 
L 317.705495 40.308306 
L 317.76018 40.354158 
L 317.924236 40.430576 
L 317.978921 40.254813 
L 318.088292 40.736251 
L 318.197663 40.438218 
L 318.252348 39.788659 
L 318.307033 39.895646 
L 318.416404 40.155469 
L 318.471089 40.040841 
L 318.635145 39.811585 
L 318.689831 39.842152 
L 318.744516 40.300664 
L 318.799201 40.247171 
L 318.853887 39.87272 
L 318.908572 40.109618 
L 318.963257 40.81267 
L 319.017943 40.751535 
L 319.127313 40.44586 
L 319.236684 41.103061 
L 319.455425 39.933855 
L 319.51011 40.285381 
L 319.674166 38.833426 
L 319.783537 38.879277 
L 319.838222 39.246087 
L 320.002278 37.847625 
L 320.22102 39.05504 
L 320.385076 39.758092 
L 320.658502 41.59214 
L 320.767873 41.38581 
L 320.877244 40.629265 
L 320.931929 40.751535 
L 321.0413 40.904372 
L 321.260041 40.392367 
L 321.424097 40.32359 
L 321.478782 40.644549 
L 321.533467 40.56813 
L 321.588153 40.193678 
L 321.642838 40.254813 
L 321.806894 40.606339 
L 321.861579 40.377083 
L 321.916265 40.506995 
L 322.080321 41.722052 
L 322.135006 41.668559 
L 322.353747 40.835595 
L 322.408433 40.965507 
L 322.627174 42.08122 
L 322.845915 42.814839 
L 322.900601 42.898899 
L 323.009971 43.533174 
L 323.064656 43.410904 
L 323.119342 43.334486 
L 323.228712 43.785356 
L 323.392768 43.059379 
L 323.447454 43.051737 
L 323.556824 42.639076 
L 323.61151 42.944751 
L 323.666195 42.249341 
L 323.72088 42.791913 
L 323.830251 43.372695 
L 323.884936 43.319202 
L 323.939622 43.380337 
L 324.048992 43.143439 
L 324.267734 43.502607 
L 324.322419 43.387979 
L 324.377104 43.731863 
L 324.43179 43.43383 
L 324.486475 43.456756 
L 324.650531 43.938193 
L 324.869272 43.18929 
L 325.088013 42.700211 
L 325.252069 43.770072 
L 325.416125 44.37378 
L 325.470811 44.312645 
L 325.580181 43.624877 
L 325.634867 43.831207 
L 325.634867 43.831207 
" clip-path="url(#p89f3ab050b)" style="fill: none; stroke: #0000ff; stroke-width: 1.5; stroke-linecap: square"/>
   </g>
   <g id="patch_3">
    <path d="M 63.2 171.16 
L 63.2 10.8 
" style="fill: none; stroke: #000000; stroke-width: 0.8; stroke-linejoin: miter; stroke-linecap: square"/>
   </g>
   <g id="patch_4">
    <path d="M 338.75661 171.16 
L 338.75661 10.8 
" style="fill: none; stroke: #000000; stroke-width: 0.8; stroke-linejoin: miter; stroke-linecap: square"/>
   </g>
   <g id="patch_5">
    <path d="M 63.2 171.16 
L 338.75661 171.16 
" style="fill: none; stroke: #000000; stroke-width: 0.8; stroke-linejoin: miter; stroke-linecap: square"/>
   </g>
   <g id="patch_6">
    <path d="M 63.2 10.8 
L 338.75661 10.8 
" style="fill: none; stroke: #000000; stroke-width: 0.8; stroke-linejoin: miter; stroke-linecap: square"/>
   </g>
  </g>
 </g>
 <defs>
  <clipPath id="p89f3ab050b">
   <rect x="63.2" y="10.8" width="275.55661" height="160.36"/>
  </clipPath>
 </defs>
</svg>
