<?xml version="1.0" encoding="utf-8" standalone="no"?>
<!DOCTYPE svg PUBLIC "-//W3C//DTD SVG 1.1//EN"
  "http://www.w3.org/Graphics/SVG/1.1/DTD/svg11.dtd">
<svg xmlns:xlink="http://www.w3.org/1999/xlink" width="360pt" height="216pt" viewBox="0 0 360 216" xmlns="http://www.w3.org/2000/svg" version="1.1">
 <metadata>
  <rdf:RDF xmlns:dc="http://purl.org/dc/elements/1.1/" xmlns:cc="http://creativecommons.org/ns#" xmlns:rdf="http://www.w3.org/1999/02/22-rdf-syntax-ns#">
   <cc:Work>
    <dc:type rdf:resource="http://purl.org/dc/dcmitype/StillImage"/>
    <dc:date>2024-01-07T08:22:54.093397</dc:date>
    <dc:format>image/svg+xml</dc:format>
    <dc:creator>
     <cc:Agent>
      <dc:title>Matplotlib v3.7.4, https://matplotlib.org/</dc:title>
     </cc:Agent>
    </dc:creator>
   </cc:Work>
  </rdf:RDF>
 </metadata>
 <defs>
  <style type="text/css">*{stroke-linejoin: round; stroke-linecap: butt}</style>
 </defs>
 <g id="figure_1">
  <g id="patch_1">
   <path d="M 0 216 
L 360 216 
L 360 0 
L 0 0 
z
" style="fill: #ffffff"/>
  </g>
  <g id="axes_1">
   <g id="patch_2">
    <path d="M 41.15 171.16 
L 338.75661 171.16 
L 338.75661 10.8 
L 41.15 10.8 
z
" style="fill: #ffffff"/>
   </g>
   <g id="matplotlib.axis_1">
    <g id="xtick_1">
     <g id="line2d_1">
      <defs>
       <path id="md9571f005a" d="M 0 0 
L 0 3.5 
" style="stroke: #000000; stroke-width: 0.8"/>
      </defs>
      <g>
       <use xlink:href="#md9571f005a" x="41.15" y="171.16" style="stroke: #000000; stroke-width: 0.8"/>
      </g>
     </g>
     <g id="text_1">
      <!-- 0 -->
      <g transform="translate(37.96875 185.758437) scale(0.1 -0.1)">
       <defs>
        <path id="DejaVuSans-30" d="M 2034 4250 
Q 1547 4250 1301 3770 
Q 1056 3291 1056 2328 
Q 1056 1369 1301 889 
Q 1547 409 2034 409 
Q 2525 409 2770 889 
Q 3016 1369 3016 2328 
Q 3016 3291 2770 3770 
Q 2525 4250 2034 4250 
z
M 2034 4750 
Q 2819 4750 3233 4129 
Q 3647 3509 3647 2328 
Q 3647 1150 3233 529 
Q 2819 -91 2034 -91 
Q 1250 -91 836 529 
Q 422 1150 422 2328 
Q 422 3509 836 4129 
Q 1250 4750 2034 4750 
z
" transform="scale(0.015625)"/>
       </defs>
       <use xlink:href="#DejaVuSans-30"/>
      </g>
     </g>
    </g>
    <g id="xtick_2">
     <g id="line2d_2">
      <g>
       <use xlink:href="#md9571f005a" x="100.211235" y="171.16" style="stroke: #000000; stroke-width: 0.8"/>
      </g>
     </g>
     <g id="text_2">
      <!-- 1000 -->
      <g transform="translate(87.486235 185.758437) scale(0.1 -0.1)">
       <defs>
        <path id="DejaVuSans-31" d="M 794 531 
L 1825 531 
L 1825 4091 
L 703 3866 
L 703 4441 
L 1819 4666 
L 2450 4666 
L 2450 531 
L 3481 531 
L 3481 0 
L 794 0 
L 794 531 
z
" transform="scale(0.015625)"/>
       </defs>
       <use xlink:href="#DejaVuSans-31"/>
       <use xlink:href="#DejaVuSans-30" x="63.623047"/>
       <use xlink:href="#DejaVuSans-30" x="127.246094"/>
       <use xlink:href="#DejaVuSans-30" x="190.869141"/>
      </g>
     </g>
    </g>
    <g id="xtick_3">
     <g id="line2d_3">
      <g>
       <use xlink:href="#md9571f005a" x="159.27247" y="171.16" style="stroke: #000000; stroke-width: 0.8"/>
      </g>
     </g>
     <g id="text_3">
      <!-- 2000 -->
      <g transform="translate(146.54747 185.758437) scale(0.1 -0.1)">
       <defs>
        <path id="DejaVuSans-32" d="M 1228 531 
L 3431 531 
L 3431 0 
L 469 0 
L 469 531 
Q 828 903 1448 1529 
Q 2069 2156 2228 2338 
Q 2531 2678 2651 2914 
Q 2772 3150 2772 3378 
Q 2772 3750 2511 3984 
Q 2250 4219 1831 4219 
Q 1534 4219 1204 4116 
Q 875 4013 500 3803 
L 500 4441 
Q 881 4594 1212 4672 
Q 1544 4750 1819 4750 
Q 2544 4750 2975 4387 
Q 3406 4025 3406 3419 
Q 3406 3131 3298 2873 
Q 3191 2616 2906 2266 
Q 2828 2175 2409 1742 
Q 1991 1309 1228 531 
z
" transform="scale(0.015625)"/>
       </defs>
       <use xlink:href="#DejaVuSans-32"/>
       <use xlink:href="#DejaVuSans-30" x="63.623047"/>
       <use xlink:href="#DejaVuSans-30" x="127.246094"/>
       <use xlink:href="#DejaVuSans-30" x="190.869141"/>
      </g>
     </g>
    </g>
    <g id="xtick_4">
     <g id="line2d_4">
      <g>
       <use xlink:href="#md9571f005a" x="218.333705" y="171.16" style="stroke: #000000; stroke-width: 0.8"/>
      </g>
     </g>
     <g id="text_4">
      <!-- 3000 -->
      <g transform="translate(205.608705 185.758437) scale(0.1 -0.1)">
       <defs>
        <path id="DejaVuSans-33" d="M 2597 2516 
Q 3050 2419 3304 2112 
Q 3559 1806 3559 1356 
Q 3559 666 3084 287 
Q 2609 -91 1734 -91 
Q 1441 -91 1130 -33 
Q 819 25 488 141 
L 488 750 
Q 750 597 1062 519 
Q 1375 441 1716 441 
Q 2309 441 2620 675 
Q 2931 909 2931 1356 
Q 2931 1769 2642 2001 
Q 2353 2234 1838 2234 
L 1294 2234 
L 1294 2753 
L 1863 2753 
Q 2328 2753 2575 2939 
Q 2822 3125 2822 3475 
Q 2822 3834 2567 4026 
Q 2313 4219 1838 4219 
Q 1578 4219 1281 4162 
Q 984 4106 628 3988 
L 628 4550 
Q 988 4650 1302 4700 
Q 1616 4750 1894 4750 
Q 2613 4750 3031 4423 
Q 3450 4097 3450 3541 
Q 3450 3153 3228 2886 
Q 3006 2619 2597 2516 
z
" transform="scale(0.015625)"/>
       </defs>
       <use xlink:href="#DejaVuSans-33"/>
       <use xlink:href="#DejaVuSans-30" x="63.623047"/>
       <use xlink:href="#DejaVuSans-30" x="127.246094"/>
       <use xlink:href="#DejaVuSans-30" x="190.869141"/>
      </g>
     </g>
    </g>
    <g id="xtick_5">
     <g id="line2d_5">
      <g>
       <use xlink:href="#md9571f005a" x="277.39494" y="171.16" style="stroke: #000000; stroke-width: 0.8"/>
      </g>
     </g>
     <g id="text_5">
      <!-- 4000 -->
      <g transform="translate(264.66994 185.758437) scale(0.1 -0.1)">
       <defs>
        <path id="DejaVuSans-34" d="M 2419 4116 
L 825 1625 
L 2419 1625 
L 2419 4116 
z
M 2253 4666 
L 3047 4666 
L 3047 1625 
L 3713 1625 
L 3713 1100 
L 3047 1100 
L 3047 0 
L 2419 0 
L 2419 1100 
L 313 1100 
L 313 1709 
L 2253 4666 
z
" transform="scale(0.015625)"/>
       </defs>
       <use xlink:href="#DejaVuSans-34"/>
       <use xlink:href="#DejaVuSans-30" x="63.623047"/>
       <use xlink:href="#DejaVuSans-30" x="127.246094"/>
       <use xlink:href="#DejaVuSans-30" x="190.869141"/>
      </g>
     </g>
    </g>
    <g id="xtick_6">
     <g id="line2d_6">
      <g>
       <use xlink:href="#md9571f005a" x="336.456175" y="171.16" style="stroke: #000000; stroke-width: 0.8"/>
      </g>
     </g>
     <g id="text_6">
      <!-- 5000 -->
      <g transform="translate(323.731175 185.758437) scale(0.1 -0.1)">
       <defs>
        <path id="DejaVuSans-35" d="M 691 4666 
L 3169 4666 
L 3169 4134 
L 1269 4134 
L 1269 2991 
Q 1406 3038 1543 3061 
Q 1681 3084 1819 3084 
Q 2600 3084 3056 2656 
Q 3513 2228 3513 1497 
Q 3513 744 3044 326 
Q 2575 -91 1722 -91 
Q 1428 -91 1123 -41 
Q 819 9 494 109 
L 494 744 
Q 775 591 1075 516 
Q 1375 441 1709 441 
Q 2250 441 2565 725 
Q 2881 1009 2881 1497 
Q 2881 1984 2565 2268 
Q 2250 2553 1709 2553 
Q 1456 2553 1204 2497 
Q 953 2441 691 2322 
L 691 4666 
z
" transform="scale(0.015625)"/>
       </defs>
       <use xlink:href="#DejaVuSans-35"/>
       <use xlink:href="#DejaVuSans-30" x="63.623047"/>
       <use xlink:href="#DejaVuSans-30" x="127.246094"/>
       <use xlink:href="#DejaVuSans-30" x="190.869141"/>
      </g>
     </g>
    </g>
    <g id="text_7">
     <!-- Episode -->
     <g transform="translate(166.388305 200.95625) scale(0.12 -0.12)">
      <defs>
       <path id="DejaVuSans-45" d="M 628 4666 
L 3578 4666 
L 3578 4134 
L 1259 4134 
L 1259 2753 
L 3481 2753 
L 3481 2222 
L 1259 2222 
L 1259 531 
L 3634 531 
L 3634 0 
L 628 0 
L 628 4666 
z
" transform="scale(0.015625)"/>
       <path id="DejaVuSans-70" d="M 1159 525 
L 1159 -1331 
L 581 -1331 
L 581 3500 
L 1159 3500 
L 1159 2969 
Q 1341 3281 1617 3432 
Q 1894 3584 2278 3584 
Q 2916 3584 3314 3078 
Q 3713 2572 3713 1747 
Q 3713 922 3314 415 
Q 2916 -91 2278 -91 
Q 1894 -91 1617 61 
Q 1341 213 1159 525 
z
M 3116 1747 
Q 3116 2381 2855 2742 
Q 2594 3103 2138 3103 
Q 1681 3103 1420 2742 
Q 1159 2381 1159 1747 
Q 1159 1113 1420 752 
Q 1681 391 2138 391 
Q 2594 391 2855 752 
Q 3116 1113 3116 1747 
z
" transform="scale(0.015625)"/>
       <path id="DejaVuSans-69" d="M 603 3500 
L 1178 3500 
L 1178 0 
L 603 0 
L 603 3500 
z
M 603 4863 
L 1178 4863 
L 1178 4134 
L 603 4134 
L 603 4863 
z
" transform="scale(0.015625)"/>
       <path id="DejaVuSans-73" d="M 2834 3397 
L 2834 2853 
Q 2591 2978 2328 3040 
Q 2066 3103 1784 3103 
Q 1356 3103 1142 2972 
Q 928 2841 928 2578 
Q 928 2378 1081 2264 
Q 1234 2150 1697 2047 
L 1894 2003 
Q 2506 1872 2764 1633 
Q 3022 1394 3022 966 
Q 3022 478 2636 193 
Q 2250 -91 1575 -91 
Q 1294 -91 989 -36 
Q 684 19 347 128 
L 347 722 
Q 666 556 975 473 
Q 1284 391 1588 391 
Q 1994 391 2212 530 
Q 2431 669 2431 922 
Q 2431 1156 2273 1281 
Q 2116 1406 1581 1522 
L 1381 1569 
Q 847 1681 609 1914 
Q 372 2147 372 2553 
Q 372 3047 722 3315 
Q 1072 3584 1716 3584 
Q 2034 3584 2315 3537 
Q 2597 3491 2834 3397 
z
" transform="scale(0.015625)"/>
       <path id="DejaVuSans-6f" d="M 1959 3097 
Q 1497 3097 1228 2736 
Q 959 2375 959 1747 
Q 959 1119 1226 758 
Q 1494 397 1959 397 
Q 2419 397 2687 759 
Q 2956 1122 2956 1747 
Q 2956 2369 2687 2733 
Q 2419 3097 1959 3097 
z
M 1959 3584 
Q 2709 3584 3137 3096 
Q 3566 2609 3566 1747 
Q 3566 888 3137 398 
Q 2709 -91 1959 -91 
Q 1206 -91 779 398 
Q 353 888 353 1747 
Q 353 2609 779 3096 
Q 1206 3584 1959 3584 
z
" transform="scale(0.015625)"/>
       <path id="DejaVuSans-64" d="M 2906 2969 
L 2906 4863 
L 3481 4863 
L 3481 0 
L 2906 0 
L 2906 525 
Q 2725 213 2448 61 
Q 2172 -91 1784 -91 
Q 1150 -91 751 415 
Q 353 922 353 1747 
Q 353 2572 751 3078 
Q 1150 3584 1784 3584 
Q 2172 3584 2448 3432 
Q 2725 3281 2906 2969 
z
M 947 1747 
Q 947 1113 1208 752 
Q 1469 391 1925 391 
Q 2381 391 2643 752 
Q 2906 1113 2906 1747 
Q 2906 2381 2643 2742 
Q 2381 3103 1925 3103 
Q 1469 3103 1208 2742 
Q 947 2381 947 1747 
z
" transform="scale(0.015625)"/>
       <path id="DejaVuSans-65" d="M 3597 1894 
L 3597 1613 
L 953 1613 
Q 991 1019 1311 708 
Q 1631 397 2203 397 
Q 2534 397 2845 478 
Q 3156 559 3463 722 
L 3463 178 
Q 3153 47 2828 -22 
Q 2503 -91 2169 -91 
Q 1331 -91 842 396 
Q 353 884 353 1716 
Q 353 2575 817 3079 
Q 1281 3584 2069 3584 
Q 2775 3584 3186 3129 
Q 3597 2675 3597 1894 
z
M 3022 2063 
Q 3016 2534 2758 2815 
Q 2500 3097 2075 3097 
Q 1594 3097 1305 2825 
Q 1016 2553 972 2059 
L 3022 2063 
z
" transform="scale(0.015625)"/>
      </defs>
      <use xlink:href="#DejaVuSans-45"/>
      <use xlink:href="#DejaVuSans-70" x="63.183594"/>
      <use xlink:href="#DejaVuSans-69" x="126.660156"/>
      <use xlink:href="#DejaVuSans-73" x="154.443359"/>
      <use xlink:href="#DejaVuSans-6f" x="206.542969"/>
      <use xlink:href="#DejaVuSans-64" x="267.724609"/>
      <use xlink:href="#DejaVuSans-65" x="331.201172"/>
     </g>
    </g>
   </g>
   <g id="matplotlib.axis_2">
    <g id="ytick_1">
     <g id="line2d_7">
      <defs>
       <path id="m4116862fcf" d="M 0 0 
L -3.5 0 
" style="stroke: #000000; stroke-width: 0.8"/>
      </defs>
      <g>
       <use xlink:href="#m4116862fcf" x="41.15" y="171.16" style="stroke: #000000; stroke-width: 0.8"/>
      </g>
     </g>
     <g id="text_8">
      <!-- 0 -->
      <g transform="translate(27.7875 174.959219) scale(0.1 -0.1)">
       <use xlink:href="#DejaVuSans-30"/>
      </g>
     </g>
    </g>
    <g id="ytick_2">
     <g id="line2d_8">
      <g>
       <use xlink:href="#m4116862fcf" x="41.15" y="136.981979" style="stroke: #000000; stroke-width: 0.8"/>
      </g>
     </g>
     <g id="text_9">
      <!-- 1 -->
      <g transform="translate(27.7875 140.781198) scale(0.1 -0.1)">
       <use xlink:href="#DejaVuSans-31"/>
      </g>
     </g>
    </g>
    <g id="ytick_3">
     <g id="line2d_9">
      <g>
       <use xlink:href="#m4116862fcf" x="41.15" y="102.803958" style="stroke: #000000; stroke-width: 0.8"/>
      </g>
     </g>
     <g id="text_10">
      <!-- 2 -->
      <g transform="translate(27.7875 106.603177) scale(0.1 -0.1)">
       <use xlink:href="#DejaVuSans-32"/>
      </g>
     </g>
    </g>
    <g id="ytick_4">
     <g id="line2d_10">
      <g>
       <use xlink:href="#m4116862fcf" x="41.15" y="68.625937" style="stroke: #000000; stroke-width: 0.8"/>
      </g>
     </g>
     <g id="text_11">
      <!-- 3 -->
      <g transform="translate(27.7875 72.425156) scale(0.1 -0.1)">
       <use xlink:href="#DejaVuSans-33"/>
      </g>
     </g>
    </g>
    <g id="ytick_5">
     <g id="line2d_11">
      <g>
       <use xlink:href="#m4116862fcf" x="41.15" y="34.447916" style="stroke: #000000; stroke-width: 0.8"/>
      </g>
     </g>
     <g id="text_12">
      <!-- 4 -->
      <g transform="translate(27.7875 38.247135) scale(0.1 -0.1)">
       <use xlink:href="#DejaVuSans-34"/>
      </g>
     </g>
    </g>
    <g id="text_13">
     <!-- Peacefulness (P) -->
     <g transform="translate(21.291875 140.27375) rotate(-90) scale(0.12 -0.12)">
      <defs>
       <path id="DejaVuSans-50" d="M 1259 4147 
L 1259 2394 
L 2053 2394 
Q 2494 2394 2734 2622 
Q 2975 2850 2975 3272 
Q 2975 3691 2734 3919 
Q 2494 4147 2053 4147 
L 1259 4147 
z
M 628 4666 
L 2053 4666 
Q 2838 4666 3239 4311 
Q 3641 3956 3641 3272 
Q 3641 2581 3239 2228 
Q 2838 1875 2053 1875 
L 1259 1875 
L 1259 0 
L 628 0 
L 628 4666 
z
" transform="scale(0.015625)"/>
       <path id="DejaVuSans-61" d="M 2194 1759 
Q 1497 1759 1228 1600 
Q 959 1441 959 1056 
Q 959 750 1161 570 
Q 1363 391 1709 391 
Q 2188 391 2477 730 
Q 2766 1069 2766 1631 
L 2766 1759 
L 2194 1759 
z
M 3341 1997 
L 3341 0 
L 2766 0 
L 2766 531 
Q 2569 213 2275 61 
Q 1981 -91 1556 -91 
Q 1019 -91 701 211 
Q 384 513 384 1019 
Q 384 1609 779 1909 
Q 1175 2209 1959 2209 
L 2766 2209 
L 2766 2266 
Q 2766 2663 2505 2880 
Q 2244 3097 1772 3097 
Q 1472 3097 1187 3025 
Q 903 2953 641 2809 
L 641 3341 
Q 956 3463 1253 3523 
Q 1550 3584 1831 3584 
Q 2591 3584 2966 3190 
Q 3341 2797 3341 1997 
z
" transform="scale(0.015625)"/>
       <path id="DejaVuSans-63" d="M 3122 3366 
L 3122 2828 
Q 2878 2963 2633 3030 
Q 2388 3097 2138 3097 
Q 1578 3097 1268 2742 
Q 959 2388 959 1747 
Q 959 1106 1268 751 
Q 1578 397 2138 397 
Q 2388 397 2633 464 
Q 2878 531 3122 666 
L 3122 134 
Q 2881 22 2623 -34 
Q 2366 -91 2075 -91 
Q 1284 -91 818 406 
Q 353 903 353 1747 
Q 353 2603 823 3093 
Q 1294 3584 2113 3584 
Q 2378 3584 2631 3529 
Q 2884 3475 3122 3366 
z
" transform="scale(0.015625)"/>
       <path id="DejaVuSans-66" d="M 2375 4863 
L 2375 4384 
L 1825 4384 
Q 1516 4384 1395 4259 
Q 1275 4134 1275 3809 
L 1275 3500 
L 2222 3500 
L 2222 3053 
L 1275 3053 
L 1275 0 
L 697 0 
L 697 3053 
L 147 3053 
L 147 3500 
L 697 3500 
L 697 3744 
Q 697 4328 969 4595 
Q 1241 4863 1831 4863 
L 2375 4863 
z
" transform="scale(0.015625)"/>
       <path id="DejaVuSans-75" d="M 544 1381 
L 544 3500 
L 1119 3500 
L 1119 1403 
Q 1119 906 1312 657 
Q 1506 409 1894 409 
Q 2359 409 2629 706 
Q 2900 1003 2900 1516 
L 2900 3500 
L 3475 3500 
L 3475 0 
L 2900 0 
L 2900 538 
Q 2691 219 2414 64 
Q 2138 -91 1772 -91 
Q 1169 -91 856 284 
Q 544 659 544 1381 
z
M 1991 3584 
L 1991 3584 
z
" transform="scale(0.015625)"/>
       <path id="DejaVuSans-6c" d="M 603 4863 
L 1178 4863 
L 1178 0 
L 603 0 
L 603 4863 
z
" transform="scale(0.015625)"/>
       <path id="DejaVuSans-6e" d="M 3513 2113 
L 3513 0 
L 2938 0 
L 2938 2094 
Q 2938 2591 2744 2837 
Q 2550 3084 2163 3084 
Q 1697 3084 1428 2787 
Q 1159 2491 1159 1978 
L 1159 0 
L 581 0 
L 581 3500 
L 1159 3500 
L 1159 2956 
Q 1366 3272 1645 3428 
Q 1925 3584 2291 3584 
Q 2894 3584 3203 3211 
Q 3513 2838 3513 2113 
z
" transform="scale(0.015625)"/>
       <path id="DejaVuSans-20" transform="scale(0.015625)"/>
       <path id="DejaVuSans-28" d="M 1984 4856 
Q 1566 4138 1362 3434 
Q 1159 2731 1159 2009 
Q 1159 1288 1364 580 
Q 1569 -128 1984 -844 
L 1484 -844 
Q 1016 -109 783 600 
Q 550 1309 550 2009 
Q 550 2706 781 3412 
Q 1013 4119 1484 4856 
L 1984 4856 
z
" transform="scale(0.015625)"/>
       <path id="DejaVuSans-29" d="M 513 4856 
L 1013 4856 
Q 1481 4119 1714 3412 
Q 1947 2706 1947 2009 
Q 1947 1309 1714 600 
Q 1481 -109 1013 -844 
L 513 -844 
Q 928 -128 1133 580 
Q 1338 1288 1338 2009 
Q 1338 2731 1133 3434 
Q 928 4138 513 4856 
z
" transform="scale(0.015625)"/>
      </defs>
      <use xlink:href="#DejaVuSans-50"/>
      <use xlink:href="#DejaVuSans-65" x="56.677734"/>
      <use xlink:href="#DejaVuSans-61" x="118.201172"/>
      <use xlink:href="#DejaVuSans-63" x="179.480469"/>
      <use xlink:href="#DejaVuSans-65" x="234.460938"/>
      <use xlink:href="#DejaVuSans-66" x="295.984375"/>
      <use xlink:href="#DejaVuSans-75" x="331.189453"/>
      <use xlink:href="#DejaVuSans-6c" x="394.568359"/>
      <use xlink:href="#DejaVuSans-6e" x="422.351562"/>
      <use xlink:href="#DejaVuSans-65" x="485.730469"/>
      <use xlink:href="#DejaVuSans-73" x="547.253906"/>
      <use xlink:href="#DejaVuSans-73" x="599.353516"/>
      <use xlink:href="#DejaVuSans-20" x="651.453125"/>
      <use xlink:href="#DejaVuSans-28" x="683.240234"/>
      <use xlink:href="#DejaVuSans-50" x="722.253906"/>
      <use xlink:href="#DejaVuSans-29" x="782.556641"/>
     </g>
    </g>
   </g>
   <g id="line2d_12">
    <path d="M 41.15 39.931749 
L 41.62249 39.212373 
L 41.858735 39.443638 
L 42.035919 39.232157 
L 42.272163 39.279228 
L 42.508408 39.803155 
L 42.626531 39.663305 
L 42.803715 39.835218 
L 43.099021 39.448754 
L 43.217143 39.653754 
L 43.276204 39.590651 
L 43.335266 39.613163 
L 43.571511 39.342331 
L 43.689633 39.435792 
L 43.925878 39.760176 
L 44.103062 39.775526 
L 44.162123 39.72709 
L 44.221184 39.87922 
L 44.280245 39.788488 
L 44.457429 39.842722 
L 44.51649 39.926632 
L 44.575552 39.85773 
L 44.811797 39.732206 
L 44.929919 39.792922 
L 45.048042 39.873762 
L 45.107103 39.833854 
L 45.166164 40.008837 
L 45.225225 39.936183 
L 45.579593 40.051133 
L 45.638654 39.99724 
L 45.815838 40.190301 
L 45.993021 40.005426 
L 46.170205 39.871374 
L 46.347389 39.734594 
L 46.760817 39.595085 
L 47.174246 40.028621 
L 47.410491 39.661258 
L 47.646736 39.77382 
L 48.473593 39.310268 
L 48.591716 39.568138 
L 48.650777 39.511175 
L 48.887022 39.356999 
L 49.005144 39.212032 
L 49.182328 39.536416 
L 49.241389 39.387356 
L 49.30045 39.469902 
L 49.359512 39.536757 
L 49.418573 39.438521 
L 49.713879 39.052057 
L 49.832002 39.058197 
L 50.127308 38.560535 
L 50.186369 38.623979 
L 50.599798 38.744045 
L 50.658859 38.588505 
L 50.71792 38.613064 
L 50.776981 38.684353 
L 50.836043 38.597714 
L 51.013226 38.57759 
L 51.19041 38.687423 
L 51.249471 38.690834 
L 51.367594 38.905385 
L 51.426655 38.814994 
L 51.485716 38.65229 
L 51.544777 38.67412 
L 51.781022 38.839553 
L 51.840084 38.715052 
L 51.899145 38.832049 
L 52.13539 38.744728 
L 52.371635 38.885601 
L 52.489757 38.729378 
L 52.60788 38.968488 
L 52.666941 38.898904 
L 52.726002 38.926874 
L 52.903186 38.740976 
L 53.198492 39.088554 
L 53.257553 39.007714 
L 53.434737 39.37303 
L 53.493798 39.325276 
L 53.907227 39.631583 
L 54.025349 39.64318 
L 54.143472 39.613163 
L 54.320655 39.367914 
L 54.911268 40.146641 
L 55.147513 40.142206 
L 55.324696 40.223729 
L 55.797186 39.693321 
L 55.856248 39.775526 
L 56.151554 39.973704 
L 56.210615 39.796674 
L 56.269676 39.566092 
L 56.328737 39.599178 
L 56.387799 39.820551 
L 56.44686 39.77689 
L 56.564982 39.750285 
L 56.742166 39.587581 
L 56.860289 39.376441 
L 56.91935 39.38224 
L 56.978411 39.237614 
L 57.037472 39.267631 
L 57.214656 39.423172 
L 57.273717 39.487639 
L 57.332778 39.430335 
L 57.450901 39.401 
L 57.509962 39.482523 
L 57.569023 39.349494 
L 57.628085 39.378488 
L 58.041513 39.623396 
L 58.218697 39.682747 
L 58.514003 39.929361 
L 58.573064 39.90719 
L 58.691187 40.007131 
L 58.927432 39.739369 
L 58.986493 39.672855 
L 59.163677 39.843404 
L 59.281799 39.757448 
L 59.399922 39.744486 
L 59.458983 39.864552 
L 59.518044 39.743122 
L 59.81335 39.66194 
L 60.049595 39.908213 
L 60.108656 39.753013 
L 60.167718 39.920151 
L 60.226779 39.882972 
L 60.403963 39.308222 
L 60.463024 39.436816 
L 60.581146 39.642839 
L 60.640208 39.815775 
L 60.699269 39.753696 
L 60.935514 39.90719 
L 60.994575 39.789852 
L 61.053636 39.928679 
L 61.112697 39.833854 
L 61.171759 39.77382 
L 61.23082 39.868646 
L 61.762371 40.461133 
L 62.1758 40.604394 
L 62.412045 40.507863 
L 62.471106 40.663404 
L 62.530167 40.582905 
L 62.707351 40.601324 
L 62.766412 40.576424 
L 62.825473 40.688304 
L 62.884534 40.614286 
L 63.238902 40.811099 
L 63.593269 40.711499 
L 63.711392 40.764369 
L 64.361065 40.259885 
L 64.420127 40.274211 
L 64.538249 40.152098 
L 64.59731 40.186549 
L 64.656372 40.066824 
L 64.715433 40.241807 
L 64.774494 40.207356 
L 64.833555 40.192348 
L 64.892616 39.998604 
L 64.951678 40.05625 
L 65.010739 39.995534 
L 65.128861 40.161308 
L 65.306045 39.855002 
L 65.54229 39.648979 
L 65.601351 39.811341 
L 65.660413 39.665692 
L 65.955719 39.644203 
L 66.01478 39.828737 
L 66.073841 39.728454 
L 66.369147 39.408163 
L 66.546331 38.979062 
L 66.664454 38.953139 
L 66.841637 39.257057 
L 66.900698 39.228405 
L 67.136943 39.501965 
L 67.255066 39.567115 
L 67.314127 39.656824 
L 67.609433 39.291508 
L 67.727556 39.268313 
L 67.786617 39.431699 
L 67.845678 39.408846 
L 67.963801 39.344719 
L 68.081923 39.647955 
L 68.140984 39.616233 
L 68.318168 39.311291 
L 68.377229 39.454212 
L 68.436291 39.29219 
L 68.495352 39.334827 
L 68.790658 39.54699 
L 68.90878 39.333122 
L 68.967842 39.230451 
L 69.026903 39.267972 
L 69.085964 39.33892 
L 69.263148 39.141766 
L 69.499393 39.226699 
L 69.676576 39.03432 
L 69.971883 39.161208 
L 70.857801 38.692881 
L 70.975924 38.850809 
L 71.034985 38.806808 
L 71.27123 38.637282 
L 71.389352 38.880826 
L 71.448414 38.688105 
L 71.507475 38.8914 
L 71.566536 38.806466 
L 71.625597 38.793164 
L 71.861842 38.507323 
L 71.920903 38.589187 
L 72.039026 38.356899 
L 72.098087 38.45957 
L 72.157148 38.655019 
L 72.21621 38.466392 
L 72.275271 38.424778 
L 72.393393 38.559511 
L 72.570577 38.330976 
L 72.629638 38.405335 
L 72.688699 38.35724 
L 72.924944 38.118472 
L 73.102128 38.198289 
L 73.338373 38.744387 
L 73.397434 38.707548 
L 73.456496 38.592257 
L 73.574618 38.747456 
L 73.810863 38.716417 
L 73.869924 38.793505 
L 73.928985 38.659794 
L 73.988047 38.740976 
L 74.224292 38.977015 
L 74.755843 38.706184 
L 74.933026 38.692199 
L 75.051149 38.61818 
L 75.287394 38.805102 
L 75.346455 38.925169 
L 75.405516 38.838871 
L 75.700822 38.62739 
L 75.759884 38.750867 
L 75.818945 38.67412 
L 76.05519 38.709595 
L 76.114251 38.78907 
L 76.173312 38.687764 
L 76.291435 38.628413 
L 76.468619 38.874345 
L 76.645802 38.594986 
L 76.763925 38.591575 
L 76.941108 38.319378 
L 77.059231 38.480036 
L 77.236415 38.387598 
L 77.413598 38.13962 
L 77.590782 38.276741 
L 77.649843 38.206134 
L 77.708904 38.364744 
L 77.767966 38.266508 
L 77.827027 38.170319 
L 78.004211 38.475942 
L 78.122333 38.411816 
L 78.299517 38.719486 
L 78.358578 38.855585 
L 78.417639 38.810218 
L 79.067313 38.161109 
L 79.126374 38.147806 
L 79.42168 38.772698 
L 79.539803 38.714029 
L 79.716986 38.63353 
L 80.012293 38.517215 
L 80.425721 38.722215 
L 80.543844 38.773039 
L 80.780089 39.256034 
L 80.83915 39.181333 
L 80.898211 39.159844 
L 81.075395 39.314702 
L 81.252579 39.045917 
L 81.370701 39.126416 
L 81.488823 39.201458 
L 81.843191 39.126416 
L 82.020375 39.367232 
L 82.138497 39.470584 
L 82.25662 39.180992 
L 82.551926 39.610776 
L 82.788171 39.524137 
L 82.965354 39.737323 
L 83.024416 39.655459 
L 83.201599 39.371325 
L 83.260661 39.619644 
L 83.319722 39.535734 
L 83.73315 39.758471 
L 83.851273 39.791216 
L 84.087518 40.00986 
L 84.20564 39.688887 
L 84.264702 39.80793 
L 84.382824 39.741075 
L 84.441885 39.616915 
L 84.500946 39.698779 
L 84.560008 39.681724 
L 84.619069 39.903779 
L 84.67813 39.774844 
L 84.855314 39.812706 
L 85.62311 39.033638 
L 85.682171 39.057515 
L 85.741232 39.286391 
L 85.800294 39.216807 
L 85.918416 39.120618 
L 86.036539 39.103563 
L 86.0956 39.00942 
L 86.272784 39.142448 
L 86.390906 39.000892 
L 86.56809 39.177581 
L 86.745273 38.790776 
L 86.863396 38.754961 
L 87.099641 38.818064 
L 87.158702 38.768263 
L 87.217763 38.910842 
L 87.276825 38.817723 
L 87.454008 38.899245 
L 87.808376 39.230792 
L 87.926498 38.958937 
L 87.985559 39.054104 
L 88.339927 39.138014 
L 100.211235 38.408405 
L 100.270296 38.29175 
L 100.329357 38.401924 
L 100.565602 38.484129 
L 100.979031 38.308463 
L 101.510582 38.578613 
L 101.628705 38.246042 
L 101.687766 38.316991 
L 101.746827 38.377706 
L 101.805888 38.270943 
L 101.86495 38.37566 
L 101.983072 38.262074 
L 102.101195 38.488904 
L 102.278378 38.237515 
L 102.337439 38.323131 
L 102.455562 38.190443 
L 102.573684 37.923023 
L 102.632746 37.969753 
L 102.868991 37.526667 
L 103.105235 37.936325 
L 103.577725 38.082315 
L 103.754909 38.206475 
L 103.991154 38.200335 
L 104.050215 38.203064 
L 104.28646 38.59021 
L 104.522705 38.766558 
L 104.581766 38.639669 
L 104.640828 38.689811 
L 104.75895 38.715734 
L 105.054256 38.341891 
L 105.23144 38.54348 
L 105.290501 38.425119 
L 105.349562 38.548937 
L 105.408624 38.562922 
L 105.526746 38.847057 
L 105.822052 38.762465 
L 106.17642 39.030227 
L 106.353603 39.178263 
L 106.471726 38.905385 
L 106.530787 39.055127 
L 106.64891 39.196 
L 106.707971 39.120277 
L 106.767032 39.030227 
L 106.826093 39.104927 
L 106.944216 39.071841 
L 107.121399 38.886283 
L 107.239522 39.09947 
L 107.298583 39.060926 
L 107.771073 39.748579 
L 107.889196 39.420443 
L 107.948257 39.559611 
L 108.066379 39.847498 
L 108.12544 39.799744 
L 108.184502 39.822597 
L 108.243563 39.609752 
L 108.302624 39.632606 
L 108.538869 39.831466 
L 108.716053 39.619985 
L 108.775114 39.721291 
L 108.893237 39.885359 
L 109.07042 39.621691 
L 109.129481 39.744145 
L 109.188543 39.687864 
L 109.247604 39.58417 
L 109.306665 39.640451 
L 109.483849 39.715834 
L 109.661033 39.927314 
L 109.779155 39.962448 
L 109.838216 39.847839 
L 109.956339 39.996216 
L 110.192584 39.928679 
L 110.369767 40.205309 
L 110.606012 40.151075 
L 110.665074 40.054885 
L 110.724135 40.198829 
L 110.783196 40.095135 
L 110.901319 39.973363 
L 110.96038 40.061707 
L 111.137563 39.913329 
L 111.255686 39.97882 
L 111.43287 39.66501 
L 111.787237 40.125151 
L 111.90536 39.891499 
L 111.964421 39.964494 
L 112.200666 40.126175 
L 112.495972 39.898662 
L 112.555033 39.994852 
L 112.614094 40.132997 
L 112.673156 40.075351 
L 112.732217 40.051133 
L 112.909401 39.786441 
L 113.027523 39.750285 
L 113.322829 39.546649 
L 113.38189 39.634993 
L 113.440952 39.820551 
L 113.500013 39.760518 
L 113.795319 39.626125 
L 113.85438 39.513222 
L 113.913441 39.552789 
L 114.090625 39.700825 
L 114.208748 39.70526 
L 114.385931 40.147323 
L 114.444993 40.019752 
L 114.504054 40.117647 
L 114.681238 40.307639 
L 114.740299 40.238737 
L 114.79936 40.255451 
L 114.858421 40.098887 
L 114.917482 40.173928 
L 115.626217 40.027597 
L 115.980585 39.490027 
L 116.039646 39.505717 
L 116.275891 39.244436 
L 116.334952 39.238297 
L 116.512136 39.372348 
L 116.571197 39.328005 
L 116.630258 39.418396 
L 116.807442 39.578371 
L 116.866503 39.79531 
L 116.925564 39.678995 
L 116.984626 39.634993 
L 117.043687 39.432381 
L 117.102748 39.537098 
L 117.457116 39.306516 
L 117.516177 39.421466 
L 117.575238 39.382581 
L 117.634299 39.274453 
L 117.693361 39.32016 
L 117.811483 39.377806 
L 117.988667 39.132556 
L 118.047728 39.024428 
L 118.106789 39.111067 
L 118.224912 39.146541 
L 118.402095 39.39793 
L 118.520218 39.258421 
L 118.697402 39.459328 
L 118.756463 39.465468 
L 118.933646 39.705942 
L 118.992708 39.513904 
L 119.051769 39.558929 
L 119.288014 39.482864 
L 119.58332 39.007714 
L 119.642381 39.139037 
L 119.701443 39.048646 
L 119.878626 38.940518 
L 120.114871 39.307198 
L 120.173932 39.250917 
L 120.232994 39.315044 
L 120.5283 39.292531 
L 120.941728 39.706965 
L 121.00079 39.731865 
L 121.177973 39.553812 
L 121.414218 39.879561 
L 121.591402 39.793945 
L 121.768586 39.918446 
L 121.827647 39.749261 
L 121.886708 39.829419 
L 121.945769 39.791557 
L 122.004831 39.909236 
L 122.063892 39.847839 
L 122.536382 39.868305 
L 122.595443 39.776208 
L 122.654504 39.875468 
L 122.713566 39.858072 
L 122.772627 39.681042 
L 122.94981 40.065459 
L 123.4223 40.337996 
L 123.599484 40.178363 
L 123.776668 40.424976 
L 123.835729 40.337314 
L 124.131035 39.929702 
L 124.190096 39.902755 
L 124.36728 40.271141 
L 124.426341 40.160626 
L 124.662586 40.579494 
L 124.957892 40.963911 
L 125.016954 40.86704 
L 125.076015 40.936282 
L 125.194137 40.94174 
L 125.371321 40.855442 
L 125.548505 40.95402 
L 125.607566 41.101033 
L 125.666627 41.010642 
L 125.843811 40.876249 
L 125.902872 40.964935 
L 125.961933 40.918545 
L 126.080056 40.847256 
L 126.25724 40.913088 
L 126.788791 40.884436 
L 126.847852 40.745268 
L 126.906913 40.882389 
L 126.965974 41.000409 
L 127.025036 40.919228 
L 127.084097 40.810417 
L 127.143158 40.911382 
L 127.320342 41.002114 
L 127.497526 41.20575 
L 127.615648 41.420642 
L 127.73377 41.786981 
L 127.792832 41.691473 
L 127.970015 41.834735 
L 128.029077 41.686016 
L 128.265322 41.614044 
L 128.383444 41.710234 
L 128.501567 41.746731 
L 128.67875 41.647131 
L 128.855934 41.934676 
L 129.092179 42.264518 
L 129.15124 42.204144 
L 129.387485 42.152297 
L 129.446546 42.30545 
L 129.505608 42.20619 
L 129.564669 42.117846 
L 129.62373 42.185383 
L 129.741852 42.364801 
L 129.800914 42.284643 
L 130.273404 42.310907 
L 130.450587 42.642796 
L 130.509649 42.590949 
L 130.56871 42.711698 
L 130.627771 42.665308 
L 130.686832 42.600159 
L 130.864016 42.90817 
L 130.982138 42.869285 
L 131.0412 42.946373 
L 131.100261 42.883952 
L 131.218383 42.617896 
L 131.277445 42.668037 
L 131.51369 42.844044 
L 131.690873 42.646548 
L 132.045241 42.311931 
L 132.104302 42.430974 
L 132.281486 42.492372 
L 132.399608 42.442571 
L 132.517731 42.260425 
L 132.931159 42.556839 
L 132.99022 42.415625 
L 133.285527 41.848379 
L 133.521772 41.599036 
L 133.580833 41.487838 
L 133.639894 41.64065 
L 133.698955 41.520242 
L 133.994261 41.157996 
L 134.171445 41.318994 
L 134.289568 41.259302 
L 134.584874 41.742297 
L 134.821119 41.121158 
L 135.116425 41.181873 
L 135.234547 41.22144 
L 135.35267 41.232355 
L 135.529853 41.245658 
L 135.707037 41.303986 
L 136.002343 41.164477 
L 136.356711 41.453046 
L 136.474833 41.377663 
L 136.652017 41.151174 
L 137.006384 41.096598 
L 137.124507 41.207114 
L 137.301691 41.394718 
L 137.537935 41.318653 
L 137.715119 41.169252 
L 137.833242 41.105126 
L 138.010425 40.781424 
L 138.069487 40.858512 
L 138.24667 41.00689 
L 138.305732 40.946515 
L 138.364793 41.032472 
L 138.423854 41.014394 
L 138.482915 41.207114 
L 138.601038 40.949926 
L 138.660099 41.030425 
L 138.71916 40.965958 
L 139.073528 40.633387 
L 139.368834 40.196441 
L 139.66414 40.388138 
L 140.372875 40.266707 
L 140.431936 40.41679 
L 140.490997 40.359145 
L 140.550058 40.170858 
L 140.60912 40.281374 
L 140.786303 40.092065 
L 140.845365 40.189619 
L 140.904426 40.036125 
L 140.963487 40.138454 
L 141.08161 40.227481 
L 141.258793 40.361873 
L 141.495038 40.13402 
L 141.554099 40.202581 
L 141.613161 40.108438 
L 141.849406 39.980526 
L 141.908467 39.760176 
L 141.967528 39.824985 
L 142.144712 39.767681 
L 142.262834 39.687181 
L 142.321896 39.720268 
L 142.499079 39.446366 
L 142.676263 39.265925 
L 143.089692 39.834195 
L 143.207814 39.972339 
L 143.444059 39.722656 
L 143.680304 39.612481 
L 143.857488 39.766316 
L 144.270916 39.747897 
L 144.329978 39.732206 
L 144.507161 39.455576 
L 144.566222 39.556541 
L 144.625284 39.479453 
L 144.684345 39.389062 
L 144.743406 39.434769 
L 145.570263 40.21486 
L 145.747447 40.278645 
L 146.160876 40.231915 
L 146.33806 40.073646 
L 146.456182 40.078762 
L 146.574304 40.265684 
L 146.751488 40.008155 
L 146.810549 40.110143 
L 146.987733 40.198829 
L 147.223978 40.062048 
L 147.283039 40.162672 
L 147.3421 40.051133 
L 147.401162 39.922198 
L 159.331531 39.940276 
L 159.449654 40.110143 
L 159.685899 39.502989 
L 159.74496 39.3263 
L 159.804021 39.403388 
L 159.863082 39.353929 
L 159.922144 39.474336 
L 159.981205 39.440909 
L 160.040266 39.461034 
L 160.21745 39.662964 
L 160.808062 40.057955 
L 161.280552 39.436816 
L 161.753042 39.555518 
L 161.930226 39.372689 
L 161.989287 39.387697 
L 162.225532 38.885942 
L 162.284593 38.922781 
L 162.461777 38.878779 
L 162.579899 38.990318 
L 162.63896 38.922781 
L 162.698022 38.858996 
L 162.757083 39.000892 
L 162.816144 38.961325 
L 162.934267 38.574179 
L 163.11145 39.235568 
L 163.170511 39.087531 
L 163.229573 39.119935 
L 163.465818 38.833072 
L 163.702063 39.0715 
L 163.997369 39.230792 
L 164.05643 39.176217 
L 164.115491 39.254328 
L 164.52892 39.439203 
L 164.647042 39.394519 
L 164.706104 39.409187 
L 164.765165 39.64625 
L 164.824226 39.532323 
L 165.00141 39.524137 
L 165.060471 39.481499 
L 165.178593 39.129145 
L 165.237655 39.215784 
L 165.414838 39.149952 
L 165.651083 38.895493 
L 165.828267 38.948363 
L 166.123573 39.196683 
L 166.182634 39.338579 
L 166.241696 39.172806 
L 166.300757 39.199752 
L 166.418879 39.285368 
L 167.304798 39.115501 
L 167.481982 39.312656 
L 167.541043 39.221583 
L 167.600104 39.180992 
L 167.718227 39.583147 
L 167.777288 39.41021 
L 167.89541 39.388721 
L 167.954472 39.193272 
L 168.013533 39.216125 
L 168.190716 39.214079 
L 168.308839 39.481158 
L 168.663206 39.363138 
L 168.781329 39.118912 
L 168.899451 39.180992 
L 169.135696 38.936084 
L 169.253819 39.00635 
L 169.726309 39.125734 
L 169.903492 39.020676 
L 170.139737 39.335168 
L 170.198798 39.209644 
L 170.25786 39.303446 
L 170.375982 39.502989 
L 170.494105 39.345742 
L 171.143778 40.035784 
L 171.261901 39.884677 
L 171.439084 40.043288 
L 171.616268 40.284785 
L 171.793452 40.254086 
L 172.029697 39.916399 
L 172.384064 39.751308 
L 172.620309 39.240002 
L 172.797493 39.635676 
L 172.915615 39.527207 
L 173.033738 39.452847 
L 173.092799 39.577689 
L 173.15186 39.517315 
L 173.565289 39.385651 
L 173.683411 39.343355 
L 173.801534 39.284686 
L 174.037779 39.897298 
L 174.09684 39.757789 
L 174.155901 39.861483 
L 174.274024 39.642157 
L 174.451207 39.399977 
L 174.56933 39.206574 
L 174.687452 39.030227 
L 174.746514 39.19293 
L 174.805575 39.064678 
L 174.923697 38.684694 
L 175.159942 39.026816 
L 175.396187 38.799644 
L 175.51431 38.97224 
L 175.750555 38.630801 
L 175.868677 38.495726 
L 175.927738 38.393056 
L 176.104922 38.575202 
L 176.282106 38.557806 
L 176.459289 38.667981 
L 176.754596 38.527107 
L 176.813657 38.415227 
L 176.99084 38.668663 
L 177.168024 38.765194 
L 177.640514 38.885601 
L 177.93582 38.628072 
L 178.172065 38.330976 
L 178.290188 38.471508 
L 178.349249 38.558147 
L 178.526433 38.346325 
L 178.762678 38.647515 
L 178.8808 38.494021 
L 179.057984 38.488222 
L 179.117045 38.315626 
L 179.176106 38.352124 
L 179.412351 38.318014 
L 179.530474 38.03729 
L 179.589535 38.231375 
L 179.943902 38.317673 
L 180.180147 38.116766 
L 180.239208 38.138597 
L 180.357331 38.031492 
L 180.475453 38.413863 
L 180.534515 38.593962 
L 180.593576 38.385551 
L 180.652637 38.463322 
L 180.711698 38.464686 
L 180.888882 38.610335 
L 181.125127 38.823521 
L 181.656678 38.762465 
L 181.7748 38.76417 
L 181.951984 38.607606 
L 182.070107 38.655701 
L 182.188229 38.682307 
L 182.306352 38.692881 
L 182.483535 38.669686 
L 182.778841 38.283904 
L 182.896964 38.328247 
L 183.074148 38.153946 
L 183.251331 38.371566 
L 183.310393 38.212956 
L 183.369454 38.364403 
L 183.546638 38.557124 
L 183.605699 38.412839 
L 183.782882 38.753596 
L 184.019127 38.97838 
L 184.13725 38.75803 
L 184.432556 39.260809 
L 184.668801 38.993729 
L 184.786923 39.125734 
L 185.023168 39.453529 
L 185.141291 39.327323 
L 185.259413 39.44739 
L 185.318475 39.183039 
L 185.377536 39.360751 
L 185.495658 39.384628 
L 185.613781 39.464444 
L 185.850026 39.021358 
L 186.086271 39.378147 
L 186.145332 39.462398 
L 186.204393 39.335509 
L 186.263454 39.571549 
L 186.322516 39.428629 
L 186.795005 39.353588 
L 186.972189 39.105268 
L 187.03125 39.149611 
L 187.208434 39.48491 
L 187.326557 39.207257 
L 187.562802 39.420443 
L 188.035291 39.579736 
L 188.212475 39.565409 
L 188.44872 39.411233 
L 188.625904 39.547672 
L 188.684965 39.444661 
L 188.744026 39.538122 
L 189.098394 39.388039 
L 189.216516 39.40407 
L 189.334639 39.326982 
L 189.3937 39.250576 
L 189.570884 39.390767 
L 190.102435 39.887406 
L 190.161496 39.787805 
L 190.220557 39.898662 
L 190.33868 40.21179 
L 190.397741 40.162331 
L 190.574925 39.769386 
L 190.752108 39.973363 
L 190.870231 39.922539 
L 190.929292 40.02828 
L 190.988353 39.914012 
L 191.106476 39.965176 
L 191.165537 39.86694 
L 191.224598 40.034078 
L 191.283659 40.012589 
L 191.519904 40.055567 
L 191.638027 39.815093 
L 191.697088 39.915035 
L 191.81521 40.153462 
L 191.992394 39.914694 
L 192.051455 39.840676 
L 192.110517 39.922198 
L 192.228639 40.011225 
L 192.346762 39.923221 
L 192.642068 40.466932 
L 192.76019 40.293654 
L 192.819251 40.328446 
L 192.996435 40.239078 
L 193.055496 40.34516 
L 193.114558 40.295018 
L 193.173619 40.170176 
L 193.23268 40.280351 
L 193.409864 40.491832 
L 193.527986 40.401782 
L 194.354844 40.888529 
L 194.472966 40.766075 
L 194.709211 41.069652 
L 194.886395 41.277722 
L 195.240762 41.099327 
L 195.299823 41.107173 
L 195.536068 40.801549 
L 195.654191 40.722073 
L 195.949497 41.023945 
L 196.126681 40.805983 
L 196.303864 41.009277 
L 196.362926 40.962888 
L 196.421987 41.088753 
L 196.481048 41.049186 
L 196.658232 40.854419 
L 196.835415 40.652148 
L 197.130722 40.942763 
L 197.189783 40.834976 
L 197.248844 40.939693 
L 197.54415 40.7555 
L 197.662273 41.006549 
L 197.721334 40.979602 
L 197.780395 40.987447 
L 197.898518 40.759594 
L 197.957579 40.839411 
L 198.01664 40.859194 
L 198.075701 40.729236 
L 198.311946 41.122181 
L 198.666314 41.360267 
L 198.725375 41.335708 
L 198.843497 41.550259 
L 199.020681 41.328545 
L 199.079742 41.475217 
L 199.138804 41.380051 
L 199.315987 41.528087 
L 199.552232 41.414843 
L 199.611293 41.571748 
L 199.670355 41.444177 
L 200.260967 41.976631 
L 200.320028 41.782888 
L 200.37909 41.846673 
L 200.615334 42.039052 
L 200.733457 41.931948 
L 200.792518 41.988911 
L 200.851579 42.090558 
L 200.910641 42.046556 
L 201.087824 41.880442 
L 201.265008 42.12842 
L 201.383131 42.132172 
L 201.560314 41.937746 
L 201.678437 41.950026 
L 201.796559 42.138653 
L 201.85562 42.067705 
L 201.914682 41.94525 
L 201.973743 42.024726 
L 202.032804 41.996415 
L 202.209988 41.676465 
L 202.387171 41.836781 
L 202.741539 41.703412 
L 202.8006 41.876007 
L 202.859661 41.728312 
L 203.095906 41.667597 
L 203.154968 41.708528 
L 203.214029 41.5755 
L 203.27309 41.685675 
L 203.332151 41.630076 
L 203.450274 41.785275 
L 203.627457 41.446906 
L 203.922764 41.664868 
L 204.159009 41.574818 
L 204.21807 41.661116 
L 204.395253 41.356515 
L 204.454315 41.374593 
L 204.572437 41.593919 
L 204.867743 41.293412 
L 204.985866 41.51035 
L 205.16305 41.266465 
L 205.281172 41.415525 
L 205.458356 41.276016 
L 205.517417 41.403928 
L 205.576478 41.334685 
L 205.753662 41.25555 
L 206.048968 40.633387 
L 206.108029 40.755842 
L 206.167091 40.620085 
L 206.285213 40.838387 
L 206.344274 40.792339 
L 206.462397 40.778695 
L 218.333705 39.101175 
L 218.510889 38.605901 
L 218.865256 38.498455 
L 218.924317 38.630119 
L 218.983379 38.498455 
L 219.455868 38.914253 
L 219.692113 38.699703 
L 220.046481 38.849445 
L 220.105542 38.768605 
L 220.164603 38.885601 
L 220.223664 38.778837 
L 220.282726 38.795551 
L 220.518971 39.077298 
L 220.991461 38.804079 
L 221.050522 39.074569 
L 221.109583 39.010784 
L 221.168644 38.920393 
L 221.227705 38.959961 
L 221.286767 38.973946 
L 221.345828 38.831025 
L 221.404889 38.867523 
L 221.700195 39.236591 
L 221.995502 38.996458 
L 222.645175 38.84808 
L 222.763298 39.039095 
L 222.822359 39.001233 
L 222.999543 39.11516 
L 223.117665 38.911525 
L 223.176726 38.975992 
L 223.294849 39.154727 
L 223.35391 39.010443 
L 223.412971 39.035343 
L 223.649216 39.372007 
L 223.708277 39.285368 
L 223.767339 39.283663 
L 224.121706 38.704137 
L 224.239828 38.759736 
L 224.476073 39.080709 
L 224.535135 39.13699 
L 224.77138 38.831708 
L 224.830441 38.887307 
L 225.007624 38.785318 
L 225.066686 38.761783 
L 225.243869 38.541092 
L 225.302931 38.626026 
L 225.421053 38.514487 
L 225.480114 38.525061 
L 225.716359 38.316991 
L 225.775421 38.287656 
L 225.834482 38.439104 
L 225.893543 38.321084 
L 225.952604 38.23922 
L 226.011665 38.462299 
L 226.070727 38.329611 
L 226.188849 38.268896 
L 226.366033 38.612041 
L 226.543217 38.77645 
L 227.015706 38.365427 
L 227.074768 38.338139 
L 227.133829 38.538363 
L 227.19289 38.465368 
L 227.429135 38.344279 
L 227.842564 38.818064 
L 227.901625 38.814312 
L 228.078809 38.317673 
L 228.13787 38.504936 
L 228.196931 38.519944 
L 228.374115 38.39135 
L 228.905666 38.74848 
L 228.964727 38.564628 
L 229.023788 38.684353 
L 229.260033 38.53427 
L 229.378156 38.628413 
L 229.496278 38.464345 
L 229.673462 38.680601 
L 229.909707 38.594303 
L 230.086891 38.414204 
L 230.145952 38.313921 
L 230.205013 38.436034 
L 230.264074 38.378047 
L 230.618442 38.617157 
L 230.677503 38.487199 
L 230.736564 38.447631 
L 230.913748 38.569062 
L 230.972809 38.418297 
L 231.03187 38.457864 
L 231.149993 38.342232 
L 231.268115 38.219778 
L 231.445299 38.250136 
L 231.622483 37.993289 
L 231.681544 38.028763 
L 231.858728 37.986126 
L 231.917789 37.98749 
L 232.094973 37.787266 
L 232.272156 37.725868 
L 232.390279 37.718023 
L 232.508401 37.949287 
L 232.567463 37.887548 
L 232.626524 37.838089 
L 232.803708 38.118813 
L 232.862769 37.972482 
L 232.980891 38.248089 
L 233.099014 38.008638 
L 233.158075 38.133139 
L 233.571504 38.047864 
L 233.807749 38.276741 
L 233.984932 38.338821 
L 234.043993 38.344961 
L 234.103055 38.553031 
L 234.162116 38.47526 
L 234.457422 38.536999 
L 234.575545 38.422049 
L 234.693667 38.500501 
L 234.752728 38.446949 
L 234.929912 38.563946 
L 235.107096 38.07754 
L 235.166157 38.233422 
L 235.225218 38.188738 
L 235.461463 37.812166 
L 235.697708 38.022964 
L 235.756769 37.992265 
L 235.993014 38.434328 
L 236.111137 38.259004 
L 236.28832 38.372931 
L 236.406443 38.277764 
L 236.701749 38.54041 
L 236.76081 38.39749 
L 236.819871 38.430576 
L 237.115178 38.561217 
L 237.174239 38.489245 
L 237.2333 38.589869 
L 237.410484 38.584412 
L 237.882974 39.100152 
L 238.414525 38.311533 
L 238.591709 38.638305 
L 238.768892 38.967124 
L 239.005137 39.084802 
L 239.241382 39.370643 
L 239.477627 38.744045 
L 239.713872 38.4814 
L 239.831994 38.832731 
L 239.891056 38.676849 
L 240.009178 38.632848 
L 240.245423 38.857631 
L 240.481668 38.967465 
L 240.599791 38.985543 
L 240.658852 39.098105 
L 240.836035 38.880485 
L 240.954158 38.909137 
L 241.07228 39.075934 
L 241.131342 39.007032 
L 241.308525 39.146882 
L 241.367587 39.079004 
L 241.426648 39.186109 
L 241.54477 39.00635 
L 242.135383 39.57803 
L 242.312566 39.609411 
L 242.430689 39.774503 
L 242.607873 39.591333 
L 242.666934 39.362115 
L 242.725995 39.38838 
L 242.785056 39.512198 
L 242.844117 39.381558 
L 243.080362 39.104927 
L 243.139424 39.183721 
L 243.43473 39.439203 
L 243.611914 39.372689 
L 244.143465 39.592697 
L 244.37971 39.315044 
L 244.556893 39.200776 
L 244.793138 38.834778 
L 244.852199 38.952797 
L 244.970322 38.927897 
L 245.029383 38.902315 
L 245.147506 39.01897 
L 245.324689 38.773039 
L 245.383751 38.870252 
L 245.442812 38.766217 
L 245.501873 38.707889 
L 245.619996 38.890377 
L 245.679057 38.79828 
L 245.738118 38.910501 
L 245.797179 38.92551 
L 246.033424 38.718122 
L 246.092485 38.644786 
L 246.269669 38.835119 
L 246.32873 38.788729 
L 246.505914 38.46912 
L 246.564975 38.501184 
L 246.624036 38.342573 
L 246.683098 38.383505 
L 246.742159 38.390668 
L 246.978404 38.992024 
L 247.155588 39.123688 
L 247.214649 38.989295 
L 247.27371 39.13699 
L 247.332771 39.076957 
L 247.391833 39.031591 
L 247.569016 39.217148 
L 248.100567 38.867182 
L 248.21869 39.007373 
L 248.336812 39.002598 
L 248.395874 38.802714 
L 248.454935 38.969852 
L 248.513996 38.881849 
L 248.573057 38.97531 
L 248.868363 38.788388 
L 249.045547 39.131874 
L 249.222731 39.073546 
L 249.340853 39.038413 
L 249.399915 38.990318 
L 249.518037 39.188155 
L 249.577098 39.146882 
L 249.813343 39.410892 
L 250.226772 39.849885 
L 250.285833 39.874103 
L 250.581139 39.314361 
L 250.994568 38.918005 
L 251.644241 39.49719 
L 251.821425 39.752672 
L 252.175793 39.903097 
L 252.234854 39.836241 
L 252.352976 39.962789 
L 252.471099 39.824644 
L 252.589221 39.980185 
L 252.648282 39.920834 
L 252.707344 40.011566 
L 252.943589 40.241807 
L 253.061711 40.173587 
L 253.297956 40.00986 
L 253.534201 39.91026 
L 253.593262 40.078421 
L 253.770446 39.792922 
L 253.829507 39.822597 
L 253.888568 39.712423 
L 253.94763 39.812023 
L 254.42012 39.672173 
L 254.479181 39.846474 
L 254.538242 39.623055 
L 254.597303 39.796333 
L 254.774487 40.041582 
L 254.892609 40.068529 
L 255.246977 39.666375 
L 255.424161 39.979161 
L 255.601344 39.963471 
L 255.719467 40.10605 
L 255.89665 39.766316 
L 255.955712 39.829078 
L 256.073834 39.951191 
L 256.132895 39.867622 
L 256.191957 39.922539 
L 256.36914 40.050792 
L 256.487263 39.980185 
L 256.605385 40.054544 
L 256.84163 40.088654 
L 256.900691 39.950168 
L 256.959753 40.058637 
L 257.136936 40.212472 
L 257.195998 40.123105 
L 257.255059 40.20565 
L 257.31412 40.223046 
L 257.432243 39.962106 
L 257.491304 40.044993 
L 257.78661 40.18382 
L 257.963794 40.085925 
L 258.200039 40.32367 
L 258.318161 40.409968 
L 258.554406 40.685234 
L 258.613467 40.488762 
L 258.790651 40.128221 
L 258.967835 40.195418 
L 259.085957 40.229186 
L 259.263141 40.245218 
L 259.381263 40.338679 
L 259.617508 40.365967 
L 259.794692 40.633728 
L 259.912814 40.395983 
L 259.971876 40.418155 
L 260.149059 40.607123 
L 260.208121 40.595525 
L 260.267182 40.450559 
L 260.326243 40.492173 
L 260.444365 40.496948 
L 260.503427 40.778354 
L 260.562488 40.663745 
L 260.739672 40.403828 
L 260.798733 40.545725 
L 260.857794 40.431798 
L 261.094039 40.390526 
L 261.448406 40.045334 
L 261.566529 40.075351 
L 261.743713 39.843404 
L 261.861835 39.944369 
L 261.979958 39.910601 
L 262.09808 39.574619 
L 262.452447 40.218953 
L 262.511509 40.240442 
L 262.57057 40.384045 
L 262.629631 40.325717 
L 262.806815 40.105368 
L 262.865876 40.268413 
L 263.04306 40.314802 
L 263.338366 40.545725 
L 263.51555 40.386432 
L 263.810856 40.179045 
L 263.869917 40.210767 
L 263.928978 40.038171 
L 264.047101 40.356075 
L 264.106162 40.224752 
L 264.165223 40.284785 
L 264.401468 40.277281 
L 264.460529 40.504452 
L 264.519591 40.464885 
L 264.873958 39.574619 
L 265.228326 40.07808 
L 265.346448 40.086948 
L 265.46457 39.877855 
L 265.523632 39.962106 
L 277.86743 40.057614 
L 278.458042 39.268995 
L 278.694287 39.100152 
L 278.871471 39.275476 
L 278.930532 39.188496 
L 279.107716 39.401682 
L 279.462083 39.366549 
L 279.639267 39.170759 
L 279.875512 39.313679 
L 279.934573 39.472631 
L 279.993634 39.341649 
L 280.111757 39.166325 
L 280.170818 39.219536 
L 280.229879 39.198047 
L 280.525185 38.723238 
L 280.702369 38.535976 
L 280.997675 38.767581 
L 281.056736 38.971558 
L 281.115798 38.874686 
L 281.765471 39.677631 
L 281.942655 39.286391 
L 282.060777 39.47843 
L 282.237961 39.154386 
L 282.415145 39.28298 
L 282.65139 39.049328 
L 282.710451 39.09026 
L 282.769512 38.977015 
L 282.828574 39.09333 
L 283.064818 39.349836 
L 283.242002 39.384969 
L 283.478247 39.141766 
L 283.773553 39.656824 
L 283.891676 39.971316 
L 284.186982 39.619303 
L 284.482288 39.868646 
L 284.718533 40.292972 
L 284.895717 40.417131 
L 285.368207 40.1961 
L 285.722574 40.287514 
L 286.01788 39.958013 
L 286.076941 40.027597 
L 286.195064 39.949145 
L 286.254125 40.03169 
L 286.313186 39.941641 
L 286.431309 39.979502 
L 286.608493 39.886383 
L 286.844738 39.850909 
L 287.021921 40.141865 
L 287.199105 40.305933 
L 287.258166 40.386432 
L 287.494411 40.158579 
L 287.730656 40.013271 
L 287.90784 39.87615 
L 288.321268 39.928679 
L 288.439391 39.744145 
L 288.498452 39.904802 
L 288.557513 39.835218 
L 288.793758 39.878196 
L 288.911881 39.814411 
L 289.030003 39.894569 
L 289.325309 39.654436 
L 289.384371 39.815434 
L 289.443432 39.741416 
L 289.502493 39.799744 
L 289.561554 39.599519 
L 289.620616 39.716857 
L 289.679677 39.641815 
L 289.738738 39.727772 
L 289.856861 39.603612 
L 289.915922 39.739369 
L 290.211228 39.970975 
L 290.270289 40.063413 
L 290.32935 40.018729 
L 290.506534 39.972339 
L 290.683718 40.000651 
L 290.742779 40.14016 
L 290.80184 40.030667 
L 290.860902 39.87922 
L 290.919963 39.91981 
L 290.979024 39.976092 
L 291.038085 39.889112 
L 291.27433 39.830784 
L 291.333391 40.088654 
L 291.392453 39.899686 
L 291.510575 40.058978 
L 291.569636 40.027597 
L 291.74682 39.690592 
L 291.805881 39.785077 
L 292.042126 39.79224 
L 292.514616 40.428387 
L 292.573677 40.358462 
L 292.632739 40.145958 
L 292.6918 40.277963 
L 292.868983 40.12788 
L 293.046167 40.230892 
L 293.105228 40.096499 
L 293.16429 40.142547 
L 293.577718 39.993146 
L 293.63678 40.169153 
L 293.695841 40.141183 
L 293.873024 40.12788 
L 294.050208 40.462838 
L 294.227392 40.200875 
L 294.286453 40.2957 
L 294.404576 40.483304 
L 294.463637 40.437597 
L 294.522698 40.443396 
L 294.581759 40.657605 
L 294.640821 40.551524 
L 294.758943 40.419519 
L 295.054249 40.535492 
L 295.172372 40.415426 
L 295.290494 40.383704 
L 295.408617 40.220659 
L 295.467678 40.252722 
L 295.644862 40.181091 
L 295.703923 40.073987 
L 295.762984 40.13402 
L 295.999229 40.450218 
L 296.05829 40.434868 
L 296.235474 40.590068 
L 296.294535 40.600642 
L 296.471719 40.463862 
L 296.589841 40.327081 
L 296.648903 40.41372 
L 296.707964 40.355051 
L 296.885147 40.275576 
L 296.944209 40.383021 
L 297.00327 40.318895 
L 297.180454 40.371424 
L 297.357637 40.219977 
L 297.47576 40.369378 
L 297.652944 40.09377 
L 297.771066 40.370401 
L 298.066372 40.24897 
L 298.243556 40.289902 
L 298.302617 40.467955 
L 298.361678 40.404852 
L 298.479801 40.470343 
L 298.656985 40.546748 
L 298.834168 40.244536 
L 299.011352 40.165742 
L 299.306658 40.284444 
L 299.483842 40.1712 
L 299.661026 40.085243 
L 299.838209 40.195418 
L 299.89727 40.168812 
L 299.956332 40.325376 
L 300.015393 40.27694 
L 300.133515 40.132314 
L 300.251638 40.333903 
L 300.428822 39.981549 
L 300.487883 40.150734 
L 300.546944 40.017364 
L 300.606005 39.859436 
L 300.665067 39.963471 
L 300.901311 39.874785 
L 301.137556 40.136749 
L 301.31474 39.991782 
L 301.432863 40.166083 
L 301.491924 40.07808 
L 301.550985 40.137431 
L 301.669108 40.437597 
L 301.78723 40.308662 
L 301.964414 40.317872 
L 302.023475 40.360509 
L 302.141597 40.12788 
L 302.200659 40.217248 
L 302.25972 40.099569 
L 302.318781 40.156532 
L 302.495965 40.104344 
L 302.555026 40.004403 
L 302.614087 40.120717 
L 303.027516 40.448171 
L 303.086577 40.443737 
L 303.145638 40.305592 
L 303.263761 40.464885 
L 303.618128 40.417472 
L 304.031557 40.806665 
L 304.090618 40.707747 
L 304.149679 40.783129 
L 304.267802 40.749702 
L 304.385924 40.695467 
L 304.504047 40.598595 
L 304.68123 40.541632 
L 304.917475 40.48501 
L 305.035598 40.477847 
L 305.212782 40.667497 
L 305.389965 40.543679 
L 305.567149 40.591091 
L 305.685271 40.566532 
L 305.803394 40.511615 
L 305.921516 40.405193 
L 306.0987 40.471025 
L 306.157761 40.340043 
L 306.216823 40.423612 
L 306.334945 40.430093 
L 306.57119 40.221341 
L 306.689312 40.268754 
L 306.866496 39.982913 
L 307.04368 40.312414 
L 307.161802 40.157556 
L 307.220864 40.182115 
L 307.457109 39.736982 
L 307.634292 39.873421 
L 307.693353 39.734935 
L 307.752415 39.830784 
L 307.98866 39.635335 
L 308.165843 39.905484 
L 308.343027 39.829078 
L 308.638333 39.734253 
L 308.874578 39.780301 
L 308.992701 39.7861 
L 309.169884 40.104344 
L 309.347068 39.970293 
L 309.406129 39.887065 
L 309.465191 40.043288 
L 309.524252 39.952215 
L 309.583313 39.944028 
L 309.701435 40.058296 
L 310.114864 39.55006 
L 310.173925 39.546649 
L 310.232987 39.674561 
L 310.41017 39.528912 
L 310.469232 39.565409 
L 310.646415 39.833513 
L 310.88266 39.318113 
L 310.941721 39.223629 
L 311.000783 39.273771 
L 311.473273 39.57803 
L 311.768579 39.809977 
L 312.241069 40.131291 
L 312.30013 40.051474 
L 312.418252 40.225434 
L 312.595436 40.088654 
L 312.77262 40.156191 
L 312.831681 40.170517 
L 312.949803 39.882631 
L 313.008865 39.916058 
L 313.24511 39.782007 
L 313.304171 39.987689 
L 313.481354 39.567456 
L 313.776661 39.722315 
L 313.835722 39.607365 
L 313.894783 39.700143 
L 314.012906 39.725726 
L 314.249151 39.448754 
L 314.426334 39.66808 
L 314.485395 39.599519 
L 314.603518 39.716516 
L 314.839763 39.386333 
L 314.898824 39.477065 
L 315.076008 39.236932 
L 315.312253 39.265584 
L 315.430375 39.318796 
L 315.66662 38.881508 
L 315.725681 38.960302 
L 315.784743 39.013513 
L 315.843804 38.879461 
L 315.902865 39.09026 
L 315.961926 38.992365 
L 316.080049 39.00635 
L 316.434416 39.340967 
L 316.729722 39.232498 
L 316.906906 39.346425 
L 316.965967 39.38531 
L 317.025029 39.222606 
L 317.08409 39.249212 
L 317.143151 39.354952 
L 317.202212 39.308563 
L 317.320335 39.293895 
L 317.379396 39.421807 
L 317.438457 39.382922 
L 317.55658 39.377123 
L 317.674702 39.404752 
L 317.910947 39.168713 
L 317.970008 39.296624 
L 318.02907 39.187473 
L 318.206253 38.899927 
L 318.324376 39.10595 
L 318.383437 39.037731 
L 318.501559 38.891741 
L 318.560621 39.135967 
L 318.619682 38.992024 
L 319.151233 39.521408 
L 319.269356 39.622714 
L 319.446539 39.397248 
L 319.741845 39.308904 
L 319.800907 39.322548 
L 319.97809 39.065019 
L 320.096213 38.968488 
L 320.332458 39.260468 
L 320.391519 39.171441 
L 320.745886 39.656824 
L 320.804948 39.697414 
L 321.041193 39.36996 
L 321.100254 39.337897 
L 321.218376 39.534711 
L 321.336499 39.481499 
L 321.631805 39.903097 
L 321.986172 40.120035 
L 322.045234 39.834536 
L 322.104295 40.013953 
L 322.458662 39.424195 
L 322.635846 39.845451 
L 322.753968 39.797015 
L 322.990213 39.5811 
L 323.28552 39.669103 
L 323.344581 39.632265 
L 323.462703 39.87308 
L 323.698948 39.523796 
L 323.758009 39.452847 
L 323.817071 39.515268 
L 323.994254 39.465468 
L 324.171438 39.864894 
L 324.407683 40.185526 
L 324.466744 40.066482 
L 324.525805 40.10298 
L 324.584867 40.11219 
L 324.584867 40.11219 
" clip-path="url(#p367b2aa85c)" style="fill: none; stroke: #0000ff; stroke-width: 1.5; stroke-linecap: square"/>
   </g>
   <g id="patch_3">
    <path d="M 41.15 171.16 
L 41.15 10.8 
" style="fill: none; stroke: #000000; stroke-width: 0.8; stroke-linejoin: miter; stroke-linecap: square"/>
   </g>
   <g id="patch_4">
    <path d="M 338.75661 171.16 
L 338.75661 10.8 
" style="fill: none; stroke: #000000; stroke-width: 0.8; stroke-linejoin: miter; stroke-linecap: square"/>
   </g>
   <g id="patch_5">
    <path d="M 41.15 171.16 
L 338.75661 171.16 
" style="fill: none; stroke: #000000; stroke-width: 0.8; stroke-linejoin: miter; stroke-linecap: square"/>
   </g>
   <g id="patch_6">
    <path d="M 41.15 10.8 
L 338.75661 10.8 
" style="fill: none; stroke: #000000; stroke-width: 0.8; stroke-linejoin: miter; stroke-linecap: square"/>
   </g>
  </g>
 </g>
 <defs>
  <clipPath id="p367b2aa85c">
   <rect x="41.15" y="10.8" width="297.60661" height="160.36"/>
  </clipPath>
 </defs>
</svg>
