<?xml version="1.0" encoding="utf-8" standalone="no"?>
<!DOCTYPE svg PUBLIC "-//W3C//DTD SVG 1.1//EN"
  "http://www.w3.org/Graphics/SVG/1.1/DTD/svg11.dtd">
<svg xmlns:xlink="http://www.w3.org/1999/xlink" width="360pt" height="216pt" viewBox="0 0 360 216" xmlns="http://www.w3.org/2000/svg" version="1.1">
 <metadata>
  <rdf:RDF xmlns:dc="http://purl.org/dc/elements/1.1/" xmlns:cc="http://creativecommons.org/ns#" xmlns:rdf="http://www.w3.org/1999/02/22-rdf-syntax-ns#">
   <cc:Work>
    <dc:type rdf:resource="http://purl.org/dc/dcmitype/StillImage"/>
    <dc:date>2024-01-07T08:22:53.906260</dc:date>
    <dc:format>image/svg+xml</dc:format>
    <dc:creator>
     <cc:Agent>
      <dc:title>Matplotlib v3.7.4, https://matplotlib.org/</dc:title>
     </cc:Agent>
    </dc:creator>
   </cc:Work>
  </rdf:RDF>
 </metadata>
 <defs>
  <style type="text/css">*{stroke-linejoin: round; stroke-linecap: butt}</style>
 </defs>
 <g id="figure_1">
  <g id="patch_1">
   <path d="M 0 216 
L 360 216 
L 360 0 
L 0 0 
z
" style="fill: #ffffff"/>
  </g>
  <g id="axes_1">
   <g id="patch_2">
    <path d="M 53.75 171.16 
L 338.75661 171.16 
L 338.75661 10.8 
L 53.75 10.8 
z
" style="fill: #ffffff"/>
   </g>
   <g id="matplotlib.axis_1">
    <g id="xtick_1">
     <g id="line2d_1">
      <defs>
       <path id="m111f3cc243" d="M 0 0 
L 0 3.5 
" style="stroke: #000000; stroke-width: 0.8"/>
      </defs>
      <g>
       <use xlink:href="#m111f3cc243" x="53.75" y="171.16" style="stroke: #000000; stroke-width: 0.8"/>
      </g>
     </g>
     <g id="text_1">
      <!-- 0 -->
      <g transform="translate(50.56875 185.758437) scale(0.1 -0.1)">
       <defs>
        <path id="DejaVuSans-30" d="M 2034 4250 
Q 1547 4250 1301 3770 
Q 1056 3291 1056 2328 
Q 1056 1369 1301 889 
Q 1547 409 2034 409 
Q 2525 409 2770 889 
Q 3016 1369 3016 2328 
Q 3016 3291 2770 3770 
Q 2525 4250 2034 4250 
z
M 2034 4750 
Q 2819 4750 3233 4129 
Q 3647 3509 3647 2328 
Q 3647 1150 3233 529 
Q 2819 -91 2034 -91 
Q 1250 -91 836 529 
Q 422 1150 422 2328 
Q 422 3509 836 4129 
Q 1250 4750 2034 4750 
z
" transform="scale(0.015625)"/>
       </defs>
       <use xlink:href="#DejaVuSans-30"/>
      </g>
     </g>
    </g>
    <g id="xtick_2">
     <g id="line2d_2">
      <g>
       <use xlink:href="#m111f3cc243" x="110.310714" y="171.16" style="stroke: #000000; stroke-width: 0.8"/>
      </g>
     </g>
     <g id="text_2">
      <!-- 1000 -->
      <g transform="translate(97.585714 185.758437) scale(0.1 -0.1)">
       <defs>
        <path id="DejaVuSans-31" d="M 794 531 
L 1825 531 
L 1825 4091 
L 703 3866 
L 703 4441 
L 1819 4666 
L 2450 4666 
L 2450 531 
L 3481 531 
L 3481 0 
L 794 0 
L 794 531 
z
" transform="scale(0.015625)"/>
       </defs>
       <use xlink:href="#DejaVuSans-31"/>
       <use xlink:href="#DejaVuSans-30" x="63.623047"/>
       <use xlink:href="#DejaVuSans-30" x="127.246094"/>
       <use xlink:href="#DejaVuSans-30" x="190.869141"/>
      </g>
     </g>
    </g>
    <g id="xtick_3">
     <g id="line2d_3">
      <g>
       <use xlink:href="#m111f3cc243" x="166.871428" y="171.16" style="stroke: #000000; stroke-width: 0.8"/>
      </g>
     </g>
     <g id="text_3">
      <!-- 2000 -->
      <g transform="translate(154.146428 185.758437) scale(0.1 -0.1)">
       <defs>
        <path id="DejaVuSans-32" d="M 1228 531 
L 3431 531 
L 3431 0 
L 469 0 
L 469 531 
Q 828 903 1448 1529 
Q 2069 2156 2228 2338 
Q 2531 2678 2651 2914 
Q 2772 3150 2772 3378 
Q 2772 3750 2511 3984 
Q 2250 4219 1831 4219 
Q 1534 4219 1204 4116 
Q 875 4013 500 3803 
L 500 4441 
Q 881 4594 1212 4672 
Q 1544 4750 1819 4750 
Q 2544 4750 2975 4387 
Q 3406 4025 3406 3419 
Q 3406 3131 3298 2873 
Q 3191 2616 2906 2266 
Q 2828 2175 2409 1742 
Q 1991 1309 1228 531 
z
" transform="scale(0.015625)"/>
       </defs>
       <use xlink:href="#DejaVuSans-32"/>
       <use xlink:href="#DejaVuSans-30" x="63.623047"/>
       <use xlink:href="#DejaVuSans-30" x="127.246094"/>
       <use xlink:href="#DejaVuSans-30" x="190.869141"/>
      </g>
     </g>
    </g>
    <g id="xtick_4">
     <g id="line2d_4">
      <g>
       <use xlink:href="#m111f3cc243" x="223.432142" y="171.16" style="stroke: #000000; stroke-width: 0.8"/>
      </g>
     </g>
     <g id="text_4">
      <!-- 3000 -->
      <g transform="translate(210.707142 185.758437) scale(0.1 -0.1)">
       <defs>
        <path id="DejaVuSans-33" d="M 2597 2516 
Q 3050 2419 3304 2112 
Q 3559 1806 3559 1356 
Q 3559 666 3084 287 
Q 2609 -91 1734 -91 
Q 1441 -91 1130 -33 
Q 819 25 488 141 
L 488 750 
Q 750 597 1062 519 
Q 1375 441 1716 441 
Q 2309 441 2620 675 
Q 2931 909 2931 1356 
Q 2931 1769 2642 2001 
Q 2353 2234 1838 2234 
L 1294 2234 
L 1294 2753 
L 1863 2753 
Q 2328 2753 2575 2939 
Q 2822 3125 2822 3475 
Q 2822 3834 2567 4026 
Q 2313 4219 1838 4219 
Q 1578 4219 1281 4162 
Q 984 4106 628 3988 
L 628 4550 
Q 988 4650 1302 4700 
Q 1616 4750 1894 4750 
Q 2613 4750 3031 4423 
Q 3450 4097 3450 3541 
Q 3450 3153 3228 2886 
Q 3006 2619 2597 2516 
z
" transform="scale(0.015625)"/>
       </defs>
       <use xlink:href="#DejaVuSans-33"/>
       <use xlink:href="#DejaVuSans-30" x="63.623047"/>
       <use xlink:href="#DejaVuSans-30" x="127.246094"/>
       <use xlink:href="#DejaVuSans-30" x="190.869141"/>
      </g>
     </g>
    </g>
    <g id="xtick_5">
     <g id="line2d_5">
      <g>
       <use xlink:href="#m111f3cc243" x="279.992856" y="171.16" style="stroke: #000000; stroke-width: 0.8"/>
      </g>
     </g>
     <g id="text_5">
      <!-- 4000 -->
      <g transform="translate(267.267856 185.758437) scale(0.1 -0.1)">
       <defs>
        <path id="DejaVuSans-34" d="M 2419 4116 
L 825 1625 
L 2419 1625 
L 2419 4116 
z
M 2253 4666 
L 3047 4666 
L 3047 1625 
L 3713 1625 
L 3713 1100 
L 3047 1100 
L 3047 0 
L 2419 0 
L 2419 1100 
L 313 1100 
L 313 1709 
L 2253 4666 
z
" transform="scale(0.015625)"/>
       </defs>
       <use xlink:href="#DejaVuSans-34"/>
       <use xlink:href="#DejaVuSans-30" x="63.623047"/>
       <use xlink:href="#DejaVuSans-30" x="127.246094"/>
       <use xlink:href="#DejaVuSans-30" x="190.869141"/>
      </g>
     </g>
    </g>
    <g id="xtick_6">
     <g id="line2d_6">
      <g>
       <use xlink:href="#m111f3cc243" x="336.55357" y="171.16" style="stroke: #000000; stroke-width: 0.8"/>
      </g>
     </g>
     <g id="text_6">
      <!-- 5000 -->
      <g transform="translate(323.82857 185.758437) scale(0.1 -0.1)">
       <defs>
        <path id="DejaVuSans-35" d="M 691 4666 
L 3169 4666 
L 3169 4134 
L 1269 4134 
L 1269 2991 
Q 1406 3038 1543 3061 
Q 1681 3084 1819 3084 
Q 2600 3084 3056 2656 
Q 3513 2228 3513 1497 
Q 3513 744 3044 326 
Q 2575 -91 1722 -91 
Q 1428 -91 1123 -41 
Q 819 9 494 109 
L 494 744 
Q 775 591 1075 516 
Q 1375 441 1709 441 
Q 2250 441 2565 725 
Q 2881 1009 2881 1497 
Q 2881 1984 2565 2268 
Q 2250 2553 1709 2553 
Q 1456 2553 1204 2497 
Q 953 2441 691 2322 
L 691 4666 
z
" transform="scale(0.015625)"/>
       </defs>
       <use xlink:href="#DejaVuSans-35"/>
       <use xlink:href="#DejaVuSans-30" x="63.623047"/>
       <use xlink:href="#DejaVuSans-30" x="127.246094"/>
       <use xlink:href="#DejaVuSans-30" x="190.869141"/>
      </g>
     </g>
    </g>
    <g id="text_7">
     <!-- Episode -->
     <g transform="translate(172.688305 200.95625) scale(0.12 -0.12)">
      <defs>
       <path id="DejaVuSans-45" d="M 628 4666 
L 3578 4666 
L 3578 4134 
L 1259 4134 
L 1259 2753 
L 3481 2753 
L 3481 2222 
L 1259 2222 
L 1259 531 
L 3634 531 
L 3634 0 
L 628 0 
L 628 4666 
z
" transform="scale(0.015625)"/>
       <path id="DejaVuSans-70" d="M 1159 525 
L 1159 -1331 
L 581 -1331 
L 581 3500 
L 1159 3500 
L 1159 2969 
Q 1341 3281 1617 3432 
Q 1894 3584 2278 3584 
Q 2916 3584 3314 3078 
Q 3713 2572 3713 1747 
Q 3713 922 3314 415 
Q 2916 -91 2278 -91 
Q 1894 -91 1617 61 
Q 1341 213 1159 525 
z
M 3116 1747 
Q 3116 2381 2855 2742 
Q 2594 3103 2138 3103 
Q 1681 3103 1420 2742 
Q 1159 2381 1159 1747 
Q 1159 1113 1420 752 
Q 1681 391 2138 391 
Q 2594 391 2855 752 
Q 3116 1113 3116 1747 
z
" transform="scale(0.015625)"/>
       <path id="DejaVuSans-69" d="M 603 3500 
L 1178 3500 
L 1178 0 
L 603 0 
L 603 3500 
z
M 603 4863 
L 1178 4863 
L 1178 4134 
L 603 4134 
L 603 4863 
z
" transform="scale(0.015625)"/>
       <path id="DejaVuSans-73" d="M 2834 3397 
L 2834 2853 
Q 2591 2978 2328 3040 
Q 2066 3103 1784 3103 
Q 1356 3103 1142 2972 
Q 928 2841 928 2578 
Q 928 2378 1081 2264 
Q 1234 2150 1697 2047 
L 1894 2003 
Q 2506 1872 2764 1633 
Q 3022 1394 3022 966 
Q 3022 478 2636 193 
Q 2250 -91 1575 -91 
Q 1294 -91 989 -36 
Q 684 19 347 128 
L 347 722 
Q 666 556 975 473 
Q 1284 391 1588 391 
Q 1994 391 2212 530 
Q 2431 669 2431 922 
Q 2431 1156 2273 1281 
Q 2116 1406 1581 1522 
L 1381 1569 
Q 847 1681 609 1914 
Q 372 2147 372 2553 
Q 372 3047 722 3315 
Q 1072 3584 1716 3584 
Q 2034 3584 2315 3537 
Q 2597 3491 2834 3397 
z
" transform="scale(0.015625)"/>
       <path id="DejaVuSans-6f" d="M 1959 3097 
Q 1497 3097 1228 2736 
Q 959 2375 959 1747 
Q 959 1119 1226 758 
Q 1494 397 1959 397 
Q 2419 397 2687 759 
Q 2956 1122 2956 1747 
Q 2956 2369 2687 2733 
Q 2419 3097 1959 3097 
z
M 1959 3584 
Q 2709 3584 3137 3096 
Q 3566 2609 3566 1747 
Q 3566 888 3137 398 
Q 2709 -91 1959 -91 
Q 1206 -91 779 398 
Q 353 888 353 1747 
Q 353 2609 779 3096 
Q 1206 3584 1959 3584 
z
" transform="scale(0.015625)"/>
       <path id="DejaVuSans-64" d="M 2906 2969 
L 2906 4863 
L 3481 4863 
L 3481 0 
L 2906 0 
L 2906 525 
Q 2725 213 2448 61 
Q 2172 -91 1784 -91 
Q 1150 -91 751 415 
Q 353 922 353 1747 
Q 353 2572 751 3078 
Q 1150 3584 1784 3584 
Q 2172 3584 2448 3432 
Q 2725 3281 2906 2969 
z
M 947 1747 
Q 947 1113 1208 752 
Q 1469 391 1925 391 
Q 2381 391 2643 752 
Q 2906 1113 2906 1747 
Q 2906 2381 2643 2742 
Q 2381 3103 1925 3103 
Q 1469 3103 1208 2742 
Q 947 2381 947 1747 
z
" transform="scale(0.015625)"/>
       <path id="DejaVuSans-65" d="M 3597 1894 
L 3597 1613 
L 953 1613 
Q 991 1019 1311 708 
Q 1631 397 2203 397 
Q 2534 397 2845 478 
Q 3156 559 3463 722 
L 3463 178 
Q 3153 47 2828 -22 
Q 2503 -91 2169 -91 
Q 1331 -91 842 396 
Q 353 884 353 1716 
Q 353 2575 817 3079 
Q 1281 3584 2069 3584 
Q 2775 3584 3186 3129 
Q 3597 2675 3597 1894 
z
M 3022 2063 
Q 3016 2534 2758 2815 
Q 2500 3097 2075 3097 
Q 1594 3097 1305 2825 
Q 1016 2553 972 2059 
L 3022 2063 
z
" transform="scale(0.015625)"/>
      </defs>
      <use xlink:href="#DejaVuSans-45"/>
      <use xlink:href="#DejaVuSans-70" x="63.183594"/>
      <use xlink:href="#DejaVuSans-69" x="126.660156"/>
      <use xlink:href="#DejaVuSans-73" x="154.443359"/>
      <use xlink:href="#DejaVuSans-6f" x="206.542969"/>
      <use xlink:href="#DejaVuSans-64" x="267.724609"/>
      <use xlink:href="#DejaVuSans-65" x="331.201172"/>
     </g>
    </g>
   </g>
   <g id="matplotlib.axis_2">
    <g id="ytick_1">
     <g id="line2d_7">
      <defs>
       <path id="md4da89f18a" d="M 0 0 
L -3.5 0 
" style="stroke: #000000; stroke-width: 0.8"/>
      </defs>
      <g>
       <use xlink:href="#md4da89f18a" x="53.75" y="171.16" style="stroke: #000000; stroke-width: 0.8"/>
      </g>
     </g>
     <g id="text_8">
      <!-- 0 -->
      <g transform="translate(40.3875 174.959219) scale(0.1 -0.1)">
       <use xlink:href="#DejaVuSans-30"/>
      </g>
     </g>
    </g>
    <g id="ytick_2">
     <g id="line2d_8">
      <g>
       <use xlink:href="#md4da89f18a" x="53.75" y="150.813638" style="stroke: #000000; stroke-width: 0.8"/>
      </g>
     </g>
     <g id="text_9">
      <!-- 50 -->
      <g transform="translate(34.025 154.612857) scale(0.1 -0.1)">
       <use xlink:href="#DejaVuSans-35"/>
       <use xlink:href="#DejaVuSans-30" x="63.623047"/>
      </g>
     </g>
    </g>
    <g id="ytick_3">
     <g id="line2d_9">
      <g>
       <use xlink:href="#md4da89f18a" x="53.75" y="130.467277" style="stroke: #000000; stroke-width: 0.8"/>
      </g>
     </g>
     <g id="text_10">
      <!-- 100 -->
      <g transform="translate(27.6625 134.266495) scale(0.1 -0.1)">
       <use xlink:href="#DejaVuSans-31"/>
       <use xlink:href="#DejaVuSans-30" x="63.623047"/>
       <use xlink:href="#DejaVuSans-30" x="127.246094"/>
      </g>
     </g>
    </g>
    <g id="ytick_4">
     <g id="line2d_10">
      <g>
       <use xlink:href="#md4da89f18a" x="53.75" y="110.120915" style="stroke: #000000; stroke-width: 0.8"/>
      </g>
     </g>
     <g id="text_11">
      <!-- 150 -->
      <g transform="translate(27.6625 113.920134) scale(0.1 -0.1)">
       <use xlink:href="#DejaVuSans-31"/>
       <use xlink:href="#DejaVuSans-35" x="63.623047"/>
       <use xlink:href="#DejaVuSans-30" x="127.246094"/>
      </g>
     </g>
    </g>
    <g id="ytick_5">
     <g id="line2d_11">
      <g>
       <use xlink:href="#md4da89f18a" x="53.75" y="89.774553" style="stroke: #000000; stroke-width: 0.8"/>
      </g>
     </g>
     <g id="text_12">
      <!-- 200 -->
      <g transform="translate(27.6625 93.573772) scale(0.1 -0.1)">
       <use xlink:href="#DejaVuSans-32"/>
       <use xlink:href="#DejaVuSans-30" x="63.623047"/>
       <use xlink:href="#DejaVuSans-30" x="127.246094"/>
      </g>
     </g>
    </g>
    <g id="ytick_6">
     <g id="line2d_12">
      <g>
       <use xlink:href="#md4da89f18a" x="53.75" y="69.428192" style="stroke: #000000; stroke-width: 0.8"/>
      </g>
     </g>
     <g id="text_13">
      <!-- 250 -->
      <g transform="translate(27.6625 73.227411) scale(0.1 -0.1)">
       <use xlink:href="#DejaVuSans-32"/>
       <use xlink:href="#DejaVuSans-35" x="63.623047"/>
       <use xlink:href="#DejaVuSans-30" x="127.246094"/>
      </g>
     </g>
    </g>
    <g id="ytick_7">
     <g id="line2d_13">
      <g>
       <use xlink:href="#md4da89f18a" x="53.75" y="49.08183" style="stroke: #000000; stroke-width: 0.8"/>
      </g>
     </g>
     <g id="text_14">
      <!-- 300 -->
      <g transform="translate(27.6625 52.881049) scale(0.1 -0.1)">
       <use xlink:href="#DejaVuSans-33"/>
       <use xlink:href="#DejaVuSans-30" x="63.623047"/>
       <use xlink:href="#DejaVuSans-30" x="127.246094"/>
      </g>
     </g>
    </g>
    <g id="ytick_8">
     <g id="line2d_14">
      <g>
       <use xlink:href="#md4da89f18a" x="53.75" y="28.735469" style="stroke: #000000; stroke-width: 0.8"/>
      </g>
     </g>
     <g id="text_15">
      <!-- 350 -->
      <g transform="translate(27.6625 32.534687) scale(0.1 -0.1)">
       <use xlink:href="#DejaVuSans-33"/>
       <use xlink:href="#DejaVuSans-35" x="63.623047"/>
       <use xlink:href="#DejaVuSans-30" x="127.246094"/>
      </g>
     </g>
    </g>
    <g id="text_16">
     <!-- Sustainability (S) -->
     <g transform="translate(21.166875 142.003438) rotate(-90) scale(0.12 -0.12)">
      <defs>
       <path id="DejaVuSans-53" d="M 3425 4513 
L 3425 3897 
Q 3066 4069 2747 4153 
Q 2428 4238 2131 4238 
Q 1616 4238 1336 4038 
Q 1056 3838 1056 3469 
Q 1056 3159 1242 3001 
Q 1428 2844 1947 2747 
L 2328 2669 
Q 3034 2534 3370 2195 
Q 3706 1856 3706 1288 
Q 3706 609 3251 259 
Q 2797 -91 1919 -91 
Q 1588 -91 1214 -16 
Q 841 59 441 206 
L 441 856 
Q 825 641 1194 531 
Q 1563 422 1919 422 
Q 2459 422 2753 634 
Q 3047 847 3047 1241 
Q 3047 1584 2836 1778 
Q 2625 1972 2144 2069 
L 1759 2144 
Q 1053 2284 737 2584 
Q 422 2884 422 3419 
Q 422 4038 858 4394 
Q 1294 4750 2059 4750 
Q 2388 4750 2728 4690 
Q 3069 4631 3425 4513 
z
" transform="scale(0.015625)"/>
       <path id="DejaVuSans-75" d="M 544 1381 
L 544 3500 
L 1119 3500 
L 1119 1403 
Q 1119 906 1312 657 
Q 1506 409 1894 409 
Q 2359 409 2629 706 
Q 2900 1003 2900 1516 
L 2900 3500 
L 3475 3500 
L 3475 0 
L 2900 0 
L 2900 538 
Q 2691 219 2414 64 
Q 2138 -91 1772 -91 
Q 1169 -91 856 284 
Q 544 659 544 1381 
z
M 1991 3584 
L 1991 3584 
z
" transform="scale(0.015625)"/>
       <path id="DejaVuSans-74" d="M 1172 4494 
L 1172 3500 
L 2356 3500 
L 2356 3053 
L 1172 3053 
L 1172 1153 
Q 1172 725 1289 603 
Q 1406 481 1766 481 
L 2356 481 
L 2356 0 
L 1766 0 
Q 1100 0 847 248 
Q 594 497 594 1153 
L 594 3053 
L 172 3053 
L 172 3500 
L 594 3500 
L 594 4494 
L 1172 4494 
z
" transform="scale(0.015625)"/>
       <path id="DejaVuSans-61" d="M 2194 1759 
Q 1497 1759 1228 1600 
Q 959 1441 959 1056 
Q 959 750 1161 570 
Q 1363 391 1709 391 
Q 2188 391 2477 730 
Q 2766 1069 2766 1631 
L 2766 1759 
L 2194 1759 
z
M 3341 1997 
L 3341 0 
L 2766 0 
L 2766 531 
Q 2569 213 2275 61 
Q 1981 -91 1556 -91 
Q 1019 -91 701 211 
Q 384 513 384 1019 
Q 384 1609 779 1909 
Q 1175 2209 1959 2209 
L 2766 2209 
L 2766 2266 
Q 2766 2663 2505 2880 
Q 2244 3097 1772 3097 
Q 1472 3097 1187 3025 
Q 903 2953 641 2809 
L 641 3341 
Q 956 3463 1253 3523 
Q 1550 3584 1831 3584 
Q 2591 3584 2966 3190 
Q 3341 2797 3341 1997 
z
" transform="scale(0.015625)"/>
       <path id="DejaVuSans-6e" d="M 3513 2113 
L 3513 0 
L 2938 0 
L 2938 2094 
Q 2938 2591 2744 2837 
Q 2550 3084 2163 3084 
Q 1697 3084 1428 2787 
Q 1159 2491 1159 1978 
L 1159 0 
L 581 0 
L 581 3500 
L 1159 3500 
L 1159 2956 
Q 1366 3272 1645 3428 
Q 1925 3584 2291 3584 
Q 2894 3584 3203 3211 
Q 3513 2838 3513 2113 
z
" transform="scale(0.015625)"/>
       <path id="DejaVuSans-62" d="M 3116 1747 
Q 3116 2381 2855 2742 
Q 2594 3103 2138 3103 
Q 1681 3103 1420 2742 
Q 1159 2381 1159 1747 
Q 1159 1113 1420 752 
Q 1681 391 2138 391 
Q 2594 391 2855 752 
Q 3116 1113 3116 1747 
z
M 1159 2969 
Q 1341 3281 1617 3432 
Q 1894 3584 2278 3584 
Q 2916 3584 3314 3078 
Q 3713 2572 3713 1747 
Q 3713 922 3314 415 
Q 2916 -91 2278 -91 
Q 1894 -91 1617 61 
Q 1341 213 1159 525 
L 1159 0 
L 581 0 
L 581 4863 
L 1159 4863 
L 1159 2969 
z
" transform="scale(0.015625)"/>
       <path id="DejaVuSans-6c" d="M 603 4863 
L 1178 4863 
L 1178 0 
L 603 0 
L 603 4863 
z
" transform="scale(0.015625)"/>
       <path id="DejaVuSans-79" d="M 2059 -325 
Q 1816 -950 1584 -1140 
Q 1353 -1331 966 -1331 
L 506 -1331 
L 506 -850 
L 844 -850 
Q 1081 -850 1212 -737 
Q 1344 -625 1503 -206 
L 1606 56 
L 191 3500 
L 800 3500 
L 1894 763 
L 2988 3500 
L 3597 3500 
L 2059 -325 
z
" transform="scale(0.015625)"/>
       <path id="DejaVuSans-20" transform="scale(0.015625)"/>
       <path id="DejaVuSans-28" d="M 1984 4856 
Q 1566 4138 1362 3434 
Q 1159 2731 1159 2009 
Q 1159 1288 1364 580 
Q 1569 -128 1984 -844 
L 1484 -844 
Q 1016 -109 783 600 
Q 550 1309 550 2009 
Q 550 2706 781 3412 
Q 1013 4119 1484 4856 
L 1984 4856 
z
" transform="scale(0.015625)"/>
       <path id="DejaVuSans-29" d="M 513 4856 
L 1013 4856 
Q 1481 4119 1714 3412 
Q 1947 2706 1947 2009 
Q 1947 1309 1714 600 
Q 1481 -109 1013 -844 
L 513 -844 
Q 928 -128 1133 580 
Q 1338 1288 1338 2009 
Q 1338 2731 1133 3434 
Q 928 4138 513 4856 
z
" transform="scale(0.015625)"/>
      </defs>
      <use xlink:href="#DejaVuSans-53"/>
      <use xlink:href="#DejaVuSans-75" x="63.476562"/>
      <use xlink:href="#DejaVuSans-73" x="126.855469"/>
      <use xlink:href="#DejaVuSans-74" x="178.955078"/>
      <use xlink:href="#DejaVuSans-61" x="218.164062"/>
      <use xlink:href="#DejaVuSans-69" x="279.443359"/>
      <use xlink:href="#DejaVuSans-6e" x="307.226562"/>
      <use xlink:href="#DejaVuSans-61" x="370.605469"/>
      <use xlink:href="#DejaVuSans-62" x="431.884766"/>
      <use xlink:href="#DejaVuSans-69" x="495.361328"/>
      <use xlink:href="#DejaVuSans-6c" x="523.144531"/>
      <use xlink:href="#DejaVuSans-69" x="550.927734"/>
      <use xlink:href="#DejaVuSans-74" x="578.710938"/>
      <use xlink:href="#DejaVuSans-79" x="617.919922"/>
      <use xlink:href="#DejaVuSans-20" x="677.099609"/>
      <use xlink:href="#DejaVuSans-28" x="708.886719"/>
      <use xlink:href="#DejaVuSans-53" x="747.900391"/>
      <use xlink:href="#DejaVuSans-29" x="811.376953"/>
     </g>
    </g>
   </g>
   <g id="line2d_15">
    <path d="M 53.75 39.992688 
L 53.976243 40.268609 
L 54.145925 39.908075 
L 54.259046 40.46641 
L 54.315607 40.124138 
L 54.372168 40.223707 
L 54.598411 40.215788 
L 54.654971 40.269562 
L 54.881214 40.813183 
L 55.050896 40.53027 
L 55.164018 40.937913 
L 55.220579 40.835119 
L 55.390261 40.825421 
L 55.673064 40.546055 
L 55.842746 40.641321 
L 55.955868 40.417554 
L 56.012429 40.503998 
L 56.068989 40.419981 
L 56.238671 40.096959 
L 56.295232 40.220377 
L 56.351793 40.097431 
L 56.408354 40.157136 
L 56.578036 40.586543 
L 56.691157 40.729722 
L 56.860839 40.332772 
L 56.9174 40.396548 
L 57.200204 40.211529 
L 57.369886 40.562861 
L 57.426446 40.405145 
L 57.483007 40.487174 
L 57.539568 40.636873 
L 57.596129 40.497021 
L 57.70925 40.380182 
L 57.878932 40.28739 
L 58.048614 40.462918 
L 58.161736 40.550982 
L 58.387979 40.455475 
L 58.557661 40.607702 
L 58.840464 40.28483 
L 58.897025 40.391004 
L 58.953586 40.345285 
L 59.010146 40.355475 
L 59.066707 40.169097 
L 59.123268 40.199431 
L 59.29295 40.187473 
L 59.519193 39.96412 
L 59.688875 40.017821 
L 59.858557 40.309771 
L 60.141361 40.376587 
L 60.197921 40.365341 
L 60.424164 40.100898 
L 60.480725 40.082497 
L 60.650407 39.800359 
L 60.706968 39.91067 
L 60.763529 39.79927 
L 60.820089 39.711199 
L 60.933211 40.235162 
L 61.216014 40.023605 
L 61.385696 39.790822 
L 61.442257 39.786404 
L 61.555379 39.920784 
L 61.725061 39.850442 
L 62.007864 40.239384 
L 62.064425 40.236811 
L 62.234107 40.4562 
L 62.403789 40.59615 
L 62.46035 40.643837 
L 62.516911 40.560453 
L 62.630032 40.685288 
L 62.799714 40.908426 
L 62.856275 40.936526 
L 62.912836 41.192085 
L 62.969396 41.124702 
L 63.082518 41.150604 
L 63.308761 40.923424 
L 63.591564 41.276852 
L 63.648125 41.450173 
L 63.704686 41.398295 
L 63.761246 41.382484 
L 63.817807 41.504307 
L 63.874368 41.42661 
L 64.04405 41.23566 
L 64.100611 41.388869 
L 64.157171 41.291514 
L 64.213732 41.220513 
L 64.383414 41.564703 
L 64.666218 41.424665 
L 64.949021 41.441028 
L 65.062143 41.58835 
L 65.118704 41.555651 
L 65.231825 41.232983 
L 65.288386 41.279612 
L 65.458068 41.557489 
L 65.571189 41.211285 
L 65.62775 41.308344 
L 65.740871 41.181097 
L 65.853993 41.43432 
L 66.306479 40.859378 
L 66.363039 41.021459 
L 66.4196 40.963516 
L 66.532721 40.820395 
L 66.589282 40.957429 
L 66.645843 40.849208 
L 66.702404 40.908978 
L 66.872086 41.317593 
L 67.381132 41.336594 
L 67.437693 41.549488 
L 67.494254 41.500721 
L 67.550814 41.486928 
L 67.607375 41.339857 
L 67.663936 41.49637 
L 67.720496 41.617336 
L 67.890179 41.173365 
L 68.172982 41.785624 
L 68.286104 41.765703 
L 68.455786 41.623876 
L 68.625468 41.617075 
L 68.79515 41.495951 
L 68.851711 41.379419 
L 68.908271 41.741863 
L 68.964832 41.701999 
L 69.360757 41.946338 
L 69.473879 41.716356 
L 69.643561 41.78515 
L 69.700121 41.82739 
L 69.756682 41.746229 
L 69.982925 41.902991 
L 70.096046 41.92916 
L 70.209168 41.830001 
L 70.322289 41.701247 
L 70.491971 41.89978 
L 70.605093 41.787956 
L 70.774775 42.118758 
L 70.944457 41.931693 
L 71.057578 41.63758 
L 71.114139 41.739269 
L 71.283821 41.785891 
L 71.510064 41.792107 
L 71.623186 41.921069 
L 71.849428 42.326107 
L 71.96255 42.347905 
L 72.019111 42.119582 
L 72.075671 42.196255 
L 72.132232 42.239744 
L 72.301914 41.751894 
L 72.415036 41.667041 
L 72.471596 41.53001 
L 72.528157 41.554221 
L 72.980643 41.982838 
L 73.037203 41.873199 
L 73.150325 41.45653 
L 73.206886 41.487087 
L 73.376568 41.551281 
L 73.602811 41.146967 
L 73.659371 41.194269 
L 73.772493 41.484544 
L 73.829053 41.39601 
L 74.055296 41.253831 
L 74.168418 41.281332 
L 74.3381 40.745426 
L 74.394661 40.7782 
L 74.564343 41.31315 
L 74.734025 41.192233 
L 75.016828 41.081669 
L 75.186511 41.22985 
L 75.243071 41.112824 
L 75.299632 41.186899 
L 75.412753 41.312756 
L 75.752118 40.548449 
L 75.9218 40.846418 
L 75.978361 40.782968 
L 76.034921 40.884752 
L 76.204603 41.040612 
L 76.261164 41.027127 
L 76.317725 40.843058 
L 76.374286 40.914806 
L 76.487407 41.131857 
L 76.543968 41.086385 
L 76.600528 41.083953 
L 76.657089 41.21864 
L 76.71365 41.096945 
L 76.770211 41.102639 
L 76.826771 41.249015 
L 76.883332 41.166764 
L 76.939893 41.071196 
L 77.053014 41.411657 
L 77.166136 41.052607 
L 77.222696 41.169087 
L 77.279257 41.245076 
L 77.448939 41.093473 
L 77.562061 41.050777 
L 77.618621 41.126913 
L 77.788303 40.742209 
L 77.844864 40.879138 
L 77.901425 40.768465 
L 77.957986 40.813853 
L 78.014546 40.82349 
L 78.127668 40.619948 
L 78.184228 40.649239 
L 78.240789 40.688351 
L 78.353911 40.482297 
L 78.410471 40.560819 
L 78.523593 40.869652 
L 78.580153 40.844145 
L 78.636714 40.945975 
L 78.693275 40.891293 
L 78.806396 40.685967 
L 78.976078 40.907578 
L 79.032639 40.742377 
L 79.0892 40.788883 
L 79.202321 40.813859 
L 79.258882 40.782133 
L 79.315443 40.56812 
L 79.372003 40.713203 
L 79.541686 40.755306 
L 79.767928 41.250431 
L 80.163853 41.119806 
L 80.333536 40.630185 
L 80.390096 40.691788 
L 80.559778 40.51505 
L 80.616339 40.607168 
L 80.6729 40.514979 
L 80.729461 40.415346 
L 80.786021 40.494492 
L 80.842582 40.564425 
L 80.899143 40.471779 
L 81.068825 40.583929 
L 81.181946 40.323789 
L 81.238507 40.383311 
L 81.521311 40.381134 
L 81.577871 40.589277 
L 81.634432 40.514094 
L 81.747553 40.413193 
L 81.804114 40.265969 
L 81.860675 40.41078 
L 81.917236 40.558591 
L 81.973796 40.526954 
L 82.086918 40.491223 
L 82.2566 40.249939 
L 82.313161 40.284071 
L 82.426282 40.395172 
L 82.539403 40.139858 
L 82.595964 40.259177 
L 82.652525 40.164561 
L 82.935328 40.050146 
L 83.105011 39.661089 
L 83.274693 39.657262 
L 83.331253 39.650854 
L 83.444375 39.491271 
L 83.500936 39.544814 
L 83.670618 39.338777 
L 83.953421 39.915476 
L 84.009982 39.866654 
L 84.292786 39.265848 
L 84.405907 39.581926 
L 84.575589 39.236033 
L 84.63215 39.409022 
L 84.801832 39.186542 
L 84.914953 39.341128 
L 85.028075 39.59079 
L 85.084636 39.415048 
L 85.141196 39.59818 
L 85.197757 39.918611 
L 85.254318 39.795799 
L 85.706803 40.01911 
L 85.819925 39.894761 
L 85.876486 39.689977 
L 85.933046 39.840112 
L 85.989607 39.943879 
L 86.046168 39.867868 
L 86.21585 39.597622 
L 86.611775 39.457124 
L 86.838018 39.426778 
L 86.951139 39.381947 
L 87.064261 39.716424 
L 87.120821 39.542948 
L 87.290503 39.392729 
L 87.347064 39.545552 
L 87.403625 39.397935 
L 87.573307 39.105229 
L 87.629868 39.370937 
L 87.686428 39.175234 
L 87.912671 39.172701 
L 87.969232 38.918275 
L 88.025793 39.159039 
L 88.082353 39.145692 
L 88.138914 38.980498 
L 88.195475 39.026011 
L 88.252036 39.192956 
L 88.308596 39.072756 
L 88.421718 39.015261 
L 88.478278 39.225127 
L 88.534839 39.100986 
L 88.817643 39.322968 
L 88.874203 39.17074 
L 88.930764 39.302519 
L 89.439811 39.994488 
L 89.609493 39.6956 
L 89.722614 39.797947 
L 89.835736 39.512568 
L 89.892296 39.581921 
L 90.061978 39.663794 
L 90.231661 39.871826 
L 90.288221 39.816619 
L 90.344782 39.896865 
L 90.457903 40.046986 
L 90.514464 40.251108 
L 90.571025 40.165316 
L 90.627586 40.18836 
L 90.684146 40.079458 
L 90.740707 40.119482 
L 90.797268 40.28545 
L 91.080071 39.684725 
L 91.136632 39.760212 
L 91.193193 39.544736 
L 91.249753 39.632324 
L 91.306314 39.69459 
L 91.419436 39.31608 
L 91.475996 39.385088 
L 91.532557 39.600564 
L 91.589118 39.460723 
L 91.645678 39.590025 
L 91.871921 39.077512 
L 91.928482 39.046199 
L 92.041603 39.279858 
L 92.098164 39.221717 
L 92.154725 39.11598 
L 92.211286 39.158664 
L 92.494089 39.612806 
L 92.776893 39.919243 
L 92.833453 39.728346 
L 92.890014 39.802654 
L 93.285939 40.155257 
L 93.455621 40.143862 
L 94.021228 40.824711 
L 94.190911 40.793578 
L 94.360593 41.312304 
L 94.473714 41.088215 
L 94.530275 41.14856 
L 94.699957 41.328102 
L 94.869639 41.043462 
L 95.152443 40.837297 
L 95.209003 41.001347 
L 95.265564 40.87852 
L 95.491807 40.5818 
L 95.548368 40.693691 
L 95.661489 40.696478 
L 95.71805 40.587471 
L 95.774611 40.716443 
L 95.944293 40.70697 
L 96.000853 40.95613 
L 96.057414 40.865171 
L 96.227096 41.060161 
L 96.340218 40.749556 
L 96.396778 40.82282 
L 96.623021 40.466127 
L 96.792703 40.527361 
L 96.905825 40.488438 
L 96.962386 40.590467 
L 97.018946 40.51672 
L 97.30175 40.098967 
L 97.358311 40.118025 
L 97.414871 40.317922 
L 97.471432 40.167528 
L 97.923918 40.641903 
L 98.037039 40.589378 
L 98.150161 40.66368 
L 98.206721 40.5346 
L 98.263282 40.584083 
L 98.489525 40.603667 
L 98.546086 40.622633 
L 98.715768 40.277569 
L 98.88545 40.516043 
L 98.942011 40.380979 
L 110.367275 41.310584 
L 110.423835 41.464904 
L 110.480396 41.352464 
L 110.536957 41.228576 
L 110.593518 41.293226 
L 110.650078 41.273943 
L 111.102564 40.372997 
L 111.215685 40.282986 
L 111.272246 40.19431 
L 111.441928 40.34728 
L 111.498489 40.285608 
L 111.668171 39.912487 
L 111.724732 39.812118 
L 111.837853 40.090992 
L 112.007535 39.921634 
L 112.516582 40.626503 
L 112.629703 40.504633 
L 112.686264 40.597022 
L 112.742825 40.694412 
L 112.799385 40.580693 
L 112.912507 40.737012 
L 112.969068 40.640984 
L 113.025628 40.700905 
L 113.251871 40.374379 
L 113.421553 40.511389 
L 113.591235 40.769837 
L 113.647796 40.89215 
L 113.704357 40.831217 
L 113.817478 40.443713 
L 113.9306 40.493924 
L 114.043721 40.456914 
L 114.156843 40.699095 
L 114.326525 40.314046 
L 114.552768 39.963313 
L 114.609328 39.92122 
L 114.665889 40.015218 
L 114.77901 40.037719 
L 114.892132 39.893411 
L 115.005253 40.036681 
L 115.061814 39.995475 
L 115.174935 40.001978 
L 115.231496 40.136621 
L 115.288057 40.026485 
L 115.57086 39.797692 
L 115.683982 39.893263 
L 116.419271 39.875738 
L 116.645514 40.192692 
L 116.815196 40.156345 
L 116.871757 40.062573 
L 116.928318 40.228435 
L 116.984878 40.157101 
L 117.15456 39.974195 
L 117.380803 40.495859 
L 117.607046 40.299168 
L 117.776728 40.954104 
L 117.833289 40.904403 
L 117.88985 40.969201 
L 118.116093 41.117427 
L 118.229214 40.84422 
L 118.285775 40.874647 
L 118.398896 40.803994 
L 118.512018 40.551424 
L 118.568578 40.623285 
L 118.6817 40.833813 
L 118.73826 40.69866 
L 118.794821 40.837723 
L 118.851382 40.792694 
L 118.964503 40.370972 
L 119.021064 40.442202 
L 119.134185 40.39462 
L 119.303868 40.675347 
L 119.416989 40.26162 
L 119.47355 40.327752 
L 119.643232 40.648895 
L 119.699793 40.598722 
L 119.982596 39.709431 
L 120.039157 39.772904 
L 120.095718 39.525305 
L 120.152278 39.620531 
L 120.2654 39.565066 
L 120.435082 39.678165 
L 120.491643 39.742729 
L 120.548203 39.625007 
L 120.717885 39.872504 
L 120.887568 39.548668 
L 121.05725 39.963785 
L 121.226932 40.211888 
L 121.283493 40.179142 
L 121.509735 40.562328 
L 121.792539 40.249026 
L 121.8491 40.3075 
L 121.90566 40.23695 
L 121.962221 40.121704 
L 122.018782 40.219934 
L 122.131903 40.650883 
L 122.245025 40.536041 
L 122.301585 40.500751 
L 122.414707 40.684728 
L 122.527828 40.469398 
L 122.584389 40.625384 
L 122.64095 40.493068 
L 122.810632 40.636103 
L 122.867193 40.733786 
L 123.036875 40.566376 
L 123.263118 40.565653 
L 123.376239 40.711899 
L 123.4328 40.657379 
L 123.545921 40.383985 
L 123.602482 40.46692 
L 123.772164 40.16058 
L 123.941846 40.300585 
L 124.054968 40.008311 
L 124.111528 40.090727 
L 124.168089 40.186896 
L 124.22465 40.123553 
L 124.337771 39.969956 
L 124.394332 40.027618 
L 124.564014 40.418768 
L 124.733696 40.236139 
L 124.790257 40.277398 
L 124.959939 39.953265 
L 125.129621 40.094634 
L 125.582107 39.540416 
L 125.638668 39.704734 
L 125.80835 40.357859 
L 126.260835 40.362974 
L 126.430518 40.302492 
L 126.6002 40.492216 
L 126.883003 40.425646 
L 126.939564 40.473548 
L 127.222368 39.954406 
L 127.278928 40.268974 
L 127.335489 40.219646 
L 127.44861 40.146751 
L 127.505171 40.232602 
L 127.674853 40.268443 
L 127.787975 40.093267 
L 127.844535 40.321637 
L 127.901096 40.230029 
L 128.070778 40.089478 
L 128.127339 40.285133 
L 128.1839 40.173332 
L 128.24046 40.150204 
L 128.410143 40.442332 
L 128.579825 40.314078 
L 128.692946 39.988162 
L 128.749507 40.06141 
L 128.806068 40.112493 
L 129.088871 39.498927 
L 129.145432 39.566586 
L 129.258553 39.546966 
L 129.315114 39.466331 
L 129.484796 39.800884 
L 129.541357 39.846969 
L 129.654478 39.714462 
L 129.7676 39.837306 
L 129.937282 39.426371 
L 129.993843 39.483737 
L 130.106964 39.586674 
L 130.276646 39.539998 
L 130.446328 39.53218 
L 130.61601 39.068845 
L 130.729132 39.469836 
L 130.785693 39.400096 
L 130.955375 39.26505 
L 131.181618 39.793245 
L 131.40786 39.877779 
L 131.577543 39.503806 
L 132.030028 39.15041 
L 132.256271 39.15648 
L 132.539075 38.895762 
L 132.595635 38.988246 
L 132.765318 38.39644 
L 132.935 38.444967 
L 132.99156 38.340889 
L 133.048121 38.466925 
L 133.104682 38.496654 
L 133.444046 37.800271 
L 133.500607 37.828977 
L 133.670289 37.549334 
L 133.72685 37.61816 
L 133.839971 37.78179 
L 133.896532 37.621785 
L 133.953093 37.719775 
L 134.122775 37.526667 
L 134.179335 37.682512 
L 134.292457 37.820756 
L 134.405578 37.684745 
L 134.462139 38.0171 
L 134.5187 37.895329 
L 134.631821 37.945892 
L 134.744943 37.791177 
L 134.914625 38.113504 
L 135.084307 38.280942 
L 135.140868 37.985459 
L 135.197428 38.003208 
L 135.31055 38.07942 
L 135.423671 38.213308 
L 135.480232 38.100828 
L 135.536793 38.139199 
L 135.649914 38.245759 
L 135.819596 37.814018 
L 135.932717 37.971305 
L 136.328642 38.176491 
L 136.498325 38.378277 
L 136.554885 38.430983 
L 136.668007 38.340637 
L 136.89425 38.71713 
L 137.177053 38.66469 
L 137.346735 38.706742 
L 137.516417 38.507793 
L 137.74266 38.679424 
L 137.799221 38.516664 
L 138.082025 39.197955 
L 138.251707 39.041985 
L 138.53451 39.789155 
L 138.591071 39.780786 
L 138.817314 39.449119 
L 138.930435 39.490377 
L 139.156678 38.662147 
L 139.2698 38.768329 
L 139.439482 38.676189 
L 139.496042 38.721414 
L 139.665725 38.481068 
L 139.835407 38.629689 
L 139.891967 38.602665 
L 140.174771 39.059415 
L 140.570696 39.020793 
L 140.627257 39.05388 
L 140.740378 38.627877 
L 140.91006 38.858957 
L 140.966621 38.788221 
L 141.023182 38.878728 
L 141.249425 39.277379 
L 141.419107 39.14341 
L 141.532228 39.182674 
L 141.588789 39.409984 
L 141.64535 39.232722 
L 141.928153 39.704646 
L 142.041275 39.400634 
L 142.097835 39.504318 
L 142.267517 39.921872 
L 142.324078 39.857124 
L 142.49376 39.667388 
L 142.663442 39.970167 
L 142.720003 39.944833 
L 142.776564 40.201485 
L 142.833125 40.158011 
L 143.002807 40.091275 
L 143.172489 40.488187 
L 143.22905 40.49559 
L 143.342171 40.369452 
L 143.681535 40.844418 
L 143.851217 40.759013 
L 143.907778 40.778651 
L 144.134021 41.409971 
L 144.247142 41.443928 
L 144.699628 41.880225 
L 144.925871 41.985797 
L 144.982432 42.121701 
L 145.038992 42.060181 
L 145.152114 42.13786 
L 145.434917 42.275755 
L 145.491478 42.157227 
L 145.548039 42.240755 
L 145.6046 42.374721 
L 145.66116 42.249408 
L 145.717721 42.282417 
L 145.774282 42.098215 
L 145.830842 42.140057 
L 146.000525 42.110629 
L 146.057085 42.222074 
L 146.113646 42.060387 
L 146.170207 42.087942 
L 146.226767 42.088203 
L 146.39645 41.916588 
L 146.566132 42.291882 
L 146.622692 42.333408 
L 146.679253 42.154886 
L 146.735814 42.181481 
L 146.905496 42.339829 
L 147.131739 42.401859 
L 147.1883 42.283201 
L 147.24486 42.41878 
L 147.414542 42.15764 
L 147.471103 42.220524 
L 147.640785 42.313223 
L 147.867028 41.907791 
L 147.98015 41.95552 
L 148.149832 41.551548 
L 148.206392 41.622251 
L 148.262953 41.527289 
L 148.545757 41.270625 
L 148.602317 41.299151 
L 148.658878 41.172172 
L 148.715439 41.215346 
L 148.885121 41.157745 
L 148.941682 41.051457 
L 148.998242 41.133795 
L 149.111364 41.152208 
L 149.281046 40.534893 
L 149.337607 40.596268 
L 149.394167 40.514673 
L 149.507289 40.500012 
L 149.676971 40.782068 
L 149.733532 40.783336 
L 149.903214 40.26466 
L 150.525382 41.97292 
L 150.638503 41.887079 
L 150.977867 42.170547 
L 151.20411 41.972758 
L 151.373792 41.595732 
L 151.600035 41.754868 
L 151.882839 41.707972 
L 151.9394 41.58753 
L 151.99596 41.687043 
L 152.165642 41.929341 
L 152.335325 42.134818 
L 152.391885 42.02295 
L 152.448446 42.060144 
L 152.505007 42.147372 
L 152.561567 42.028958 
L 152.618128 42.124635 
L 152.844371 42.401924 
L 152.900932 42.226311 
L 152.957492 42.314467 
L 153.014053 42.378555 
L 153.183735 41.951873 
L 153.409978 42.348129 
L 153.466539 42.243114 
L 153.636221 42.07435 
L 153.805903 42.197449 
L 154.145267 41.966729 
L 154.201828 42.092168 
L 154.31495 42.290336 
L 154.484632 41.963963 
L 154.767435 41.996866 
L 154.823996 41.86455 
L 154.880557 41.973789 
L 154.993678 41.961902 
L 155.050239 42.115959 
L 155.1068 42.018482 
L 155.389603 41.541294 
L 155.502725 41.419937 
L 166.927989 40.742146 
L 167.097671 40.48702 
L 167.154232 40.506758 
L 167.210792 40.331758 
L 167.267353 40.42232 
L 167.323914 40.573973 
L 167.380475 40.386856 
L 167.437035 40.523165 
L 167.493596 40.920528 
L 167.550157 40.834731 
L 167.663278 40.633007 
L 167.889521 40.930568 
L 168.059203 40.640103 
L 168.285446 40.685082 
L 168.511689 40.41148 
L 168.62481 40.795244 
L 168.681371 40.597071 
L 168.737932 40.752947 
L 168.851053 40.689695 
L 169.077296 40.901665 
L 169.303539 40.761759 
L 169.529782 40.67297 
L 169.642903 40.707438 
L 169.869146 40.32446 
L 169.925707 40.432738 
L 170.095389 40.766603 
L 170.151949 40.7189 
L 170.20851 40.657613 
L 170.321632 40.207131 
L 170.378192 40.482042 
L 170.434753 40.351851 
L 170.660996 40.428235 
L 170.717557 40.540051 
L 171.00036 39.939268 
L 171.452846 40.050703 
L 171.622528 40.313153 
L 171.679089 40.197541 
L 171.79221 40.469517 
L 171.848771 40.341996 
L 171.905332 40.445315 
L 172.075014 40.753665 
L 172.131574 40.637852 
L 172.188135 40.733927 
L 172.414378 40.788164 
L 172.527499 41.04398 
L 172.58406 40.904698 
L 172.640621 40.884296 
L 172.866864 40.469024 
L 173.206228 40.209676 
L 173.319349 40.214766 
L 173.545592 39.981676 
L 173.602153 40.003136 
L 173.771835 40.346509 
L 173.828396 40.121827 
L 173.884957 40.177097 
L 174.111199 40.694966 
L 174.337442 40.826292 
L 174.394003 40.720805 
L 174.450564 41.056746 
L 174.507124 40.994484 
L 174.563685 40.846907 
L 174.620246 40.913667 
L 174.789928 41.032278 
L 174.95961 41.287751 
L 175.016171 41.212968 
L 175.072732 41.079457 
L 175.129292 41.200618 
L 175.185853 41.175474 
L 175.242414 41.025394 
L 175.298974 41.055442 
L 175.355535 41.193593 
L 175.412096 41.125782 
L 175.525217 40.910675 
L 175.581778 41.027779 
L 175.808021 41.202766 
L 175.977703 41.603678 
L 176.034264 41.537459 
L 176.090824 41.685019 
L 176.147385 41.584159 
L 176.203946 41.584569 
L 176.260507 41.360551 
L 176.317067 41.490707 
L 176.430189 41.449113 
L 176.712992 41.853061 
L 176.882674 41.385076 
L 176.995796 41.051609 
L 177.052357 41.193363 
L 177.108917 41.11437 
L 177.278599 40.907918 
L 177.391721 40.923736 
L 177.448282 40.73627 
L 177.504842 40.840318 
L 177.561403 40.943447 
L 177.617964 40.864268 
L 177.844207 40.460307 
L 178.183571 40.340416 
L 178.353253 40.691673 
L 178.749178 40.683989 
L 178.805739 40.495535 
L 178.862299 40.64662 
L 178.975421 40.813569 
L 179.201664 40.370884 
L 179.484467 40.967982 
L 179.597589 41.054398 
L 179.654149 41.265346 
L 179.767271 41.027474 
L 179.823832 41.096291 
L 179.936953 41.000104 
L 180.050074 41.03162 
L 180.276317 40.742765 
L 180.445999 40.954465 
L 180.615682 40.772493 
L 180.841924 41.028372 
L 180.898485 41.169276 
L 180.955046 41.024942 
L 181.068167 40.890606 
L 181.237849 41.043648 
L 181.29441 40.959154 
L 181.464092 40.441857 
L 181.633774 40.536784 
L 181.803457 40.236778 
L 181.973139 40.262912 
L 182.029699 40.146766 
L 182.08626 40.198267 
L 182.255942 40.513406 
L 182.312503 40.479632 
L 182.595307 40.579015 
L 182.708428 40.443534 
L 182.821549 40.618897 
L 182.87811 40.5472 
L 183.160914 40.2784 
L 183.387157 40.089759 
L 183.783082 40.038665 
L 183.839642 39.958562 
L 183.896203 40.043395 
L 183.952764 40.013666 
L 184.065885 40.137886 
L 184.235567 39.965044 
L 184.292128 40.048344 
L 184.348689 39.896414 
L 184.405249 39.954638 
L 184.46181 39.946913 
L 184.518371 40.126655 
L 184.574932 40.105982 
L 184.631492 39.985119 
L 184.688053 40.062853 
L 184.801174 40.173944 
L 185.25366 39.719393 
L 185.310221 39.922496 
L 185.366782 39.849515 
L 185.423342 39.831443 
L 185.536464 39.479979 
L 185.593024 39.594191 
L 185.649585 39.566736 
L 185.706146 39.802173 
L 185.762707 39.636178 
L 185.932389 39.669134 
L 186.158632 39.638201 
L 186.271753 39.366929 
L 186.328314 39.409459 
L 186.611117 39.988192 
L 186.724239 39.972667 
L 186.83736 40.123589 
L 186.893921 39.900506 
L 187.007042 40.161121 
L 187.289846 39.804389 
L 187.459528 39.904666 
L 187.572649 40.059559 
L 187.798892 39.722553 
L 187.855453 39.642012 
L 187.912014 39.689821 
L 188.025135 39.836966 
L 188.194817 40.330016 
L 188.364499 40.145216 
L 188.647303 40.050481 
L 188.760424 40.194439 
L 188.873546 39.93356 
L 188.930107 40.028114 
L 189.269471 40.44096 
L 189.495714 40.238439 
L 189.665396 39.980367 
L 189.778517 39.982611 
L 189.835078 39.81228 
L 189.891639 39.882033 
L 190.00476 39.825975 
L 190.061321 39.926887 
L 190.287564 39.362477 
L 190.513807 39.838869 
L 190.683489 39.610247 
L 190.740049 39.658465 
L 190.79661 39.44029 
L 190.853171 39.606094 
L 190.966292 39.581678 
L 191.135974 39.793876 
L 191.305657 40.011727 
L 191.418778 40.007112 
L 191.531899 40.152919 
L 191.58846 40.072548 
L 191.701582 39.975459 
L 192.040946 40.342751 
L 192.097507 40.305153 
L 192.267189 39.819109 
L 192.549992 39.562613 
L 192.776235 39.918065 
L 192.889357 39.737023 
L 193.059039 39.91052 
L 193.17216 39.814281 
L 193.285282 39.918928 
L 193.454964 40.264806 
L 193.511524 40.190524 
L 193.568085 40.383371 
L 193.624646 40.287176 
L 193.850889 40.115354 
L 194.020571 40.470304 
L 194.077132 40.43638 
L 194.190253 40.491825 
L 194.303374 40.71052 
L 194.359935 40.524711 
L 194.75586 40.630341 
L 195.038664 40.943741 
L 195.095224 40.848823 
L 195.151785 40.906036 
L 195.378028 41.414358 
L 195.434589 41.497321 
L 195.491149 41.376874 
L 195.773953 41.966663 
L 195.830514 41.885 
L 195.887074 41.942816 
L 196.000196 42.264124 
L 196.056757 42.16717 
L 196.169878 42.462695 
L 196.282999 42.353403 
L 196.396121 42.530378 
L 196.452682 42.458364 
L 196.509242 42.589857 
L 196.565803 42.478986 
L 196.792046 42.104869 
L 196.848607 42.193276 
L 197.018289 41.764934 
L 197.074849 41.756901 
L 197.13141 41.872332 
L 197.187971 41.770025 
L 197.244532 41.810314 
L 197.301092 41.716625 
L 197.583896 41.679455 
L 197.810139 41.257878 
L 197.92326 41.288268 
L 198.149503 40.996347 
L 198.206064 41.038521 
L 198.262624 40.945264 
L 198.319185 40.876331 
L 198.375746 41.038559 
L 198.432307 40.898983 
L 198.488867 40.789397 
L 198.658549 41.129003 
L 198.771671 41.317282 
L 198.828232 41.169065 
L 198.884792 41.244839 
L 198.997914 41.452164 
L 199.054474 41.457087 
L 199.167596 41.713526 
L 199.393839 41.312995 
L 199.733203 41.565579 
L 199.846324 41.542871 
L 200.016007 41.25341 
L 200.129128 41.321971 
L 200.468492 40.818158 
L 200.638174 40.839302 
L 200.751296 40.598525 
L 201.034099 41.132461 
L 201.260342 40.8729 
L 201.486585 40.939616 
L 201.543146 41.125374 
L 201.599706 41.070327 
L 201.769389 41.066045 
L 201.825949 40.76208 
L 201.88251 40.79678 
L 202.108753 41.00608 
L 202.221874 40.77609 
L 202.391556 40.990434 
L 202.67436 40.432545 
L 202.787481 40.711468 
L 202.900603 40.631477 
L 203.183406 40.769951 
L 203.296528 41.077496 
L 203.409649 40.905159 
L 203.635892 41.330423 
L 203.692453 41.149114 
L 203.749014 41.165309 
L 203.862135 41.579127 
L 203.918696 41.56428 
L 203.975256 41.553103 
L 204.031817 41.364654 
L 204.088378 41.52992 
L 204.201499 41.762999 
L 204.314621 41.631111 
L 204.484303 41.751061 
L 204.880228 40.832219 
L 205.04991 41.371865 
L 205.106471 41.106345 
L 205.163031 41.253433 
L 205.389274 41.055143 
L 205.558956 41.135156 
L 205.615517 40.978459 
L 205.672078 41.040522 
L 205.728639 41.063268 
L 205.785199 40.965662 
L 205.84176 41.029074 
L 206.011442 41.044682 
L 206.350806 40.331918 
L 206.463928 40.314788 
L 206.577049 39.885729 
L 206.63361 39.905632 
L 206.859853 39.496985 
L 207.199217 39.164927 
L 207.708264 38.498493 
L 207.934506 38.772246 
L 207.991067 38.673306 
L 208.047628 38.759994 
L 208.386992 39.208434 
L 208.556674 38.839499 
L 208.726356 38.896109 
L 208.782917 38.787162 
L 208.952599 39.298247 
L 209.065721 39.221968 
L 209.461646 39.739641 
L 209.518206 39.601323 
L 209.687889 39.237352 
L 209.80101 39.454918 
L 210.083814 38.605651 
L 210.140374 38.726375 
L 210.196935 38.58653 
L 210.253496 38.508397 
L 210.310056 38.671139 
L 210.366617 38.612841 
L 210.423178 38.501397 
L 210.479739 38.596329 
L 210.59286 38.826033 
L 210.649421 38.758674 
L 210.705981 38.827796 
L 210.932224 38.474134 
L 211.158467 38.965918 
L 211.271589 39.274473 
L 211.328149 39.203934 
L 211.441271 39.148186 
L 211.610953 39.655965 
L 211.667514 39.587787 
L 211.724074 39.487188 
L 211.780635 39.555239 
L 212.006878 39.802352 
L 212.063439 39.997684 
L 223.432142 39.753926 
L 223.601824 39.374995 
L 223.941189 39.638003 
L 224.05431 39.664361 
L 224.110871 39.741046 
L 224.167431 39.690081 
L 224.223992 39.674471 
L 224.393674 40.12468 
L 224.789599 39.585498 
L 224.84616 39.622365 
L 225.072403 39.111693 
L 225.298646 39.263286 
L 225.468328 39.078207 
L 225.524889 39.069906 
L 225.694571 39.30523 
L 225.751131 39.312236 
L 225.864253 39.550633 
L 226.033935 39.289944 
L 226.203617 39.315035 
L 226.260178 39.441062 
L 226.316739 39.346742 
L 226.542981 39.420677 
L 226.656103 39.695896 
L 227.278271 39.140452 
L 227.504514 39.178693 
L 227.617635 38.811047 
L 227.730756 38.866528 
L 227.843878 38.867623 
L 228.126681 38.447208 
L 228.296364 38.620723 
L 228.409485 38.434354 
L 228.748849 39.075512 
L 228.975092 38.954992 
L 229.031653 39.124419 
L 229.088214 39.086528 
L 229.257896 39.040682 
L 229.371017 39.150926 
L 229.59726 39.21177 
L 229.766942 38.996496 
L 229.823503 39.188838 
L 229.880064 39.223239 
L 229.936624 39.099639 
L 229.993185 39.132456 
L 230.162867 39.492773 
L 230.219428 39.332837 
L 230.275989 39.395575 
L 230.502231 39.718793 
L 230.558792 39.652794 
L 230.615353 39.705956 
L 230.841596 39.988613 
L 231.067839 39.890145 
L 231.18096 39.857271 
L 231.350642 39.662764 
L 231.463764 40.141838 
L 231.520324 39.996226 
L 231.690006 40.10886 
L 231.746567 40.029905 
L 231.803128 40.224006 
L 231.859689 40.152282 
L 231.97281 39.997163 
L 232.199053 40.406045 
L 232.255614 40.361668 
L 232.538417 40.308583 
L 232.708099 40.586445 
L 232.821221 40.30525 
L 232.877781 40.361731 
L 233.047464 40.295753 
L 233.217146 40.482622 
L 233.273706 40.349804 
L 233.330267 40.265268 
L 233.443389 40.529369 
L 233.499949 40.388808 
L 233.55651 40.513817 
L 233.726192 40.472315 
L 233.895874 40.361044 
L 234.235238 41.164043 
L 234.291799 41.005133 
L 234.34836 40.943015 
L 234.461481 41.156025 
L 234.518042 41.05324 
L 234.574603 41.0239 
L 234.800846 41.208179 
L 235.083649 41.405614 
L 235.14021 41.19606 
L 235.196771 41.243198 
L 235.253331 41.219086 
L 235.309892 41.392097 
L 235.366453 41.370258 
L 235.536135 41.289791 
L 236.101742 41.850919 
L 236.271424 41.65737 
L 236.327985 41.710485 
L 236.610788 41.125204 
L 236.72391 41.260499 
L 236.780471 41.15016 
L 236.837031 41.226214 
L 236.950153 41.20886 
L 237.063274 41.079648 
L 237.119835 41.088778 
L 237.176396 40.911118 
L 237.232956 41.041701 
L 237.346078 41.342419 
L 237.402638 41.244571 
L 237.459199 41.397512 
L 237.51576 41.362995 
L 237.685442 41.276158 
L 237.742003 41.383001 
L 237.798563 41.281411 
L 237.968246 40.95944 
L 238.194488 41.204679 
L 238.251049 41.225569 
L 238.420731 41.6435 
L 238.477292 41.593963 
L 238.646974 41.477282 
L 239.042899 42.129683 
L 239.09946 42.023047 
L 239.212581 42.215143 
L 239.269142 42.111904 
L 239.325703 42.160886 
L 239.382263 42.247162 
L 239.551946 42.613444 
L 239.608506 42.494436 
L 239.665067 42.543949 
L 239.721628 42.651042 
L 240.060992 41.943887 
L 240.230674 41.8204 
L 240.287235 41.99307 
L 240.343796 41.830517 
L 240.456917 41.802732 
L 240.626599 42.221374 
L 240.739721 41.928333 
L 240.852842 42.208596 
L 240.909403 42.118545 
L 241.079085 42.38032 
L 241.135646 42.544328 
L 241.192206 42.393813 
L 241.588131 41.742482 
L 241.984056 41.374016 
L 242.379981 41.714935 
L 242.436542 41.948073 
L 242.493103 41.849921 
L 242.662785 41.94135 
L 242.832467 41.66533 
L 242.889028 41.71088 
L 243.05871 41.72792 
L 243.115271 41.687998 
L 243.341513 41.881715 
L 243.398074 41.83437 
L 243.567756 41.972251 
L 243.85056 41.984272 
L 244.020242 41.714645 
L 244.416167 42.012704 
L 244.472728 41.917435 
L 244.64241 41.82184 
L 244.812092 41.583458 
L 244.868653 41.522585 
L 245.094896 41.804856 
L 245.490821 41.21278 
L 245.547381 41.258925 
L 245.603942 41.331012 
L 245.773624 41.098463 
L 245.886746 41.223211 
L 245.943306 40.779711 
L 245.999867 40.977437 
L 246.22611 40.905138 
L 246.282671 41.145631 
L 246.508913 40.567724 
L 246.565474 40.561381 
L 246.622035 40.358569 
L 246.678596 40.404578 
L 246.735156 40.43297 
L 246.848278 40.75382 
L 246.904838 40.675499 
L 246.961399 40.659751 
L 247.131081 41.172957 
L 247.244203 40.873108 
L 247.300763 41.016211 
L 247.470446 41.057216 
L 247.640128 41.186726 
L 247.753249 41.130018 
L 247.979492 41.488688 
L 248.036053 41.463507 
L 248.092613 41.56076 
L 248.149174 41.484765 
L 248.262296 41.37606 
L 248.375417 41.489372 
L 248.431978 41.473736 
L 248.545099 41.634515 
L 248.60166 41.318703 
L 248.658221 41.347849 
L 248.714781 41.622647 
L 248.771342 41.515099 
L 248.941024 41.621632 
L 248.997585 41.786231 
L 249.054146 41.672232 
L 249.280388 41.543078 
L 249.336949 41.490773 
L 249.39351 41.708329 
L 249.450071 41.659579 
L 249.676313 41.244228 
L 249.959117 41.273349 
L 250.298481 40.949084 
L 250.411603 41.108486 
L 250.524724 40.942778 
L 250.637846 41.179595 
L 251.090331 40.414107 
L 251.146892 40.458735 
L 251.260013 40.84301 
L 251.316574 40.657159 
L 251.373135 40.719489 
L 251.542817 40.896406 
L 251.655938 40.667507 
L 251.712499 40.693121 
L 251.76906 40.911271 
L 251.938742 40.558356 
L 252.051863 40.873635 
L 252.108424 40.723004 
L 252.278106 40.516492 
L 252.391228 40.557309 
L 252.447788 40.21059 
L 252.504349 40.248174 
L 252.674031 40.258212 
L 252.730592 40.058252 
L 252.787153 40.134854 
L 252.843713 40.119344 
L 253.013396 40.483247 
L 253.239638 40.374517 
L 253.409321 40.432058 
L 253.579003 40.348035 
L 253.692124 40.326973 
L 253.748685 40.068285 
L 253.805246 40.242602 
L 254.427413 40.855068 
L 254.540535 40.666526 
L 254.653656 40.775367 
L 254.823338 40.312622 
L 254.993021 40.523786 
L 255.106142 40.375604 
L 255.162703 40.518249 
L 255.558628 40.317974 
L 255.671749 40.10904 
L 255.72831 40.187392 
L 256.293917 40.097214 
L 256.463599 40.055123 
L 256.576721 40.201829 
L 256.859524 39.956564 
L 257.029206 40.056213 
L 257.142328 40.091129 
L 257.198888 40.052326 
L 257.255449 40.346963 
L 257.31201 40.123438 
L 257.368571 40.049324 
L 257.425131 40.15328 
L 257.481692 40.199089 
L 257.538253 40.118522 
L 257.594813 39.960956 
L 257.651374 40.014821 
L 257.764496 40.217523 
L 257.934178 40.672369 
L 258.047299 40.680305 
L 258.443224 39.387774 
L 258.499785 39.548587 
L 258.556346 39.650553 
L 258.612906 39.540885 
L 258.839149 39.694055 
L 258.89571 39.719375 
L 259.065392 39.629436 
L 259.517878 40.327892 
L 259.68756 40.207075 
L 259.744121 40.277591 
L 259.857242 40.012948 
L 259.970363 40.123796 
L 260.196606 39.613573 
L 260.535971 39.239274 
L 260.592531 39.460527 
L 260.649092 39.381641 
L 260.705653 39.339545 
L 260.762213 39.143251 
L 260.818774 39.205565 
L 260.988456 39.415741 
L 261.158138 39.175801 
L 261.27126 39.284056 
L 261.327821 39.048668 
L 261.384381 39.150673 
L 261.440942 39.344401 
L 261.497503 39.200696 
L 261.610624 39.105306 
L 261.723746 39.058421 
L 261.836867 39.093984 
L 261.893428 39.034715 
L 261.949988 39.10203 
L 262.232792 39.422002 
L 262.459035 39.864399 
L 262.628717 39.560036 
L 262.685278 39.557658 
L 262.85496 39.348699 
L 262.968081 39.647774 
L 263.081203 39.319718 
L 263.137763 39.411752 
L 263.194324 39.467449 
L 263.250885 39.377288 
L 263.420567 39.337397 
L 263.590249 39.547806 
L 263.703371 39.467074 
L 263.873053 39.961813 
L 263.929613 39.901762 
L 264.042735 40.159048 
L 264.099296 40.054321 
L 264.155856 40.208232 
L 264.212417 40.140275 
L 264.495221 39.950185 
L 264.608342 40.219013 
L 264.834585 39.970336 
L 265.004267 39.971011 
L 265.173949 40.119338 
L 265.23051 40.214705 
L 265.287071 40.114662 
L 265.343631 40.154041 
L 265.513313 39.859849 
L 265.682996 39.819143 
L 265.852678 39.971865 
L 265.965799 39.73039 
L 266.02236 39.761541 
L 266.078921 39.771705 
L 266.135481 39.921489 
L 266.192042 39.880806 
L 266.305163 39.795808 
L 266.644528 40.15865 
L 266.81421 39.839618 
L 266.927331 40.038435 
L 267.210135 39.79943 
L 267.323256 40.221216 
L 267.379817 40.076782 
L 267.436378 39.991237 
L 267.492938 40.085718 
L 267.719181 40.05489 
L 267.888863 40.285057 
L 268.115106 40.190841 
L 268.228228 39.995209 
L 268.341349 40.223583 
L 268.45447 40.053031 
L 268.511031 40.143707 
L 268.567592 40.201095 
L 268.624153 40.116579 
L 280.388781 40.093998 
L 280.671585 40.046156 
L 280.954388 40.075343 
L 281.06751 39.93006 
L 281.237192 40.230413 
L 281.350313 40.1258 
L 281.406874 40.055383 
L 281.463435 40.107579 
L 281.633117 40.373194 
L 281.689678 40.349231 
L 281.802799 40.460222 
L 281.91592 40.346437 
L 282.198724 40.927258 
L 282.368406 40.894828 
L 282.820892 41.62763 
L 283.103695 41.375769 
L 283.273378 41.836479 
L 283.44306 41.699701 
L 283.612742 41.787009 
L 283.669303 41.659096 
L 283.725863 41.726924 
L 283.838985 41.742816 
L 284.065228 41.702343 
L 284.121788 41.794268 
L 284.178349 41.708584 
L 284.23491 41.72609 
L 284.29147 41.598553 
L 284.348031 41.647263 
L 284.461153 41.700558 
L 284.630835 42.048089 
L 284.800517 42.186421 
L 285.02676 42.147464 
L 285.08332 42.233132 
L 285.309563 41.476811 
L 285.422685 41.662919 
L 285.479245 41.581109 
L 285.535806 41.848291 
L 285.592367 41.698818 
L 285.81861 41.907012 
L 286.214535 42.451125 
L 286.271095 42.483167 
L 286.327656 42.319654 
L 286.384217 42.398045 
L 286.66702 42.348693 
L 286.780142 42.453328 
L 286.893263 42.386601 
L 287.062945 42.09154 
L 287.232628 42.348642 
L 287.289188 42.427943 
L 287.345749 42.313709 
L 287.40231 42.419514 
L 287.45887 42.628849 
L 287.515431 42.602746 
L 287.571992 42.517406 
L 287.628553 42.570565 
L 287.685113 42.929875 
L 287.741674 42.917014 
L 287.798235 42.894703 
L 287.854795 43.008688 
L 287.911356 42.942131 
L 288.024478 42.890978 
L 288.137599 42.839188 
L 288.19416 42.499837 
L 288.25072 42.606037 
L 288.307281 42.565209 
L 288.363842 42.69292 
L 288.420403 42.555934 
L 288.476963 42.668135 
L 288.533524 42.450867 
L 288.590085 42.469584 
L 288.646645 42.562969 
L 288.703206 42.459088 
L 288.759767 42.470819 
L 288.816328 42.603975 
L 288.872888 42.528891 
L 289.155692 42.736884 
L 289.325374 42.38238 
L 289.551617 42.588885 
L 289.721299 42.368517 
L 289.83442 42.502596 
L 289.890981 42.474362 
L 289.947542 42.578467 
L 290.004103 42.499651 
L 290.117224 42.539004 
L 290.62627 42.79619 
L 290.852513 42.423833 
L 290.909074 42.620678 
L 291.022195 42.799108 
L 291.304999 42.988498 
L 291.36156 42.816593 
L 291.41812 42.84978 
L 291.644363 43.355428 
L 291.870606 43.194012 
L 292.096849 43.035539 
L 292.15341 42.977023 
L 292.20997 43.067683 
L 292.492774 43.281832 
L 292.662456 42.924219 
L 292.775578 42.964919 
L 292.888699 42.75704 
L 292.94526 42.777258 
L 293.00182 42.923942 
L 293.058381 42.777223 
L 293.114942 42.640884 
L 293.171503 42.671363 
L 293.284624 42.752492 
L 293.454306 42.23242 
L 293.680549 41.987257 
L 293.963353 41.392201 
L 294.133035 41.425009 
L 294.246156 41.285016 
L 294.302717 41.420888 
L 294.359278 41.296053 
L 294.415838 41.293199 
L 294.52896 41.047198 
L 294.981445 41.448712 
L 295.094567 41.213583 
L 295.32081 41.534165 
L 295.37737 41.49248 
L 295.490492 41.411465 
L 295.547053 41.454603 
L 295.716735 41.755209 
L 296.056099 41.569739 
L 296.225781 41.776182 
L 296.338903 41.599765 
L 296.621706 42.112321 
L 296.678267 42.038107 
L 296.791388 42.470236 
L 296.847949 42.250091 
L 297.017631 42.284308 
L 297.130753 42.169599 
L 297.243874 42.29897 
L 297.413556 41.866258 
L 297.583238 41.821806 
L 297.639799 41.874875 
L 297.922603 41.302346 
L 297.979163 41.227896 
L 298.035724 41.346927 
L 298.092285 41.24182 
L 298.205406 41.010205 
L 298.54477 41.35358 
L 298.601331 41.211408 
L 298.657892 41.368456 
L 298.884135 41.444894 
L 298.940695 41.445377 
L 299.110378 41.147443 
L 299.449742 40.757371 
L 299.506303 40.934872 
L 299.675985 40.644195 
L 299.845667 40.90343 
L 300.015349 40.737251 
L 300.07191 40.845064 
L 300.241592 40.547648 
L 300.807199 40.410929 
L 300.86376 40.228763 
L 300.976881 40.673887 
L 301.033442 40.548559 
L 301.259685 40.378953 
L 301.372806 40.680525 
L 301.429367 40.623978 
L 301.599049 40.330441 
L 301.65561 40.441113 
L 301.71217 40.34075 
L 301.768731 40.396133 
L 301.881852 40.251351 
L 302.164656 40.58442 
L 302.617142 40.177572 
L 302.673702 40.397311 
L 302.730263 40.291234 
L 302.956506 39.986088 
L 303.126188 40.150178 
L 303.182749 40.070276 
L 303.23931 40.175118 
L 303.29587 40.256383 
L 303.352431 40.188464 
L 303.578674 39.922563 
L 303.635235 40.019058 
L 303.804917 39.784893 
L 304.08772 40.539931 
L 304.144281 40.506933 
L 304.257402 40.582414 
L 304.313963 40.31544 
L 304.370524 40.338186 
L 304.596767 40.399788 
L 305.049252 41.014748 
L 305.162374 41.002188 
L 305.275495 41.170905 
L 305.332056 41.124581 
L 305.501738 41.028666 
L 305.558299 41.062237 
L 305.727981 40.917149 
L 305.897663 40.913406 
L 306.010785 40.796564 
L 306.067345 40.906015 
L 306.237027 40.596345 
L 306.40671 40.674317 
L 306.632952 40.482601 
L 306.802635 40.383573 
L 307.141999 39.878319 
L 307.25512 39.872735 
L 307.537924 39.352401 
L 307.707606 39.664295 
L 307.933849 39.581647 
L 308.160092 39.07221 
L 308.216652 39.158859 
L 308.273213 39.146682 
L 308.386335 39.321975 
L 308.499456 39.054254 
L 308.612577 39.191266 
L 308.725699 39.182482 
L 309.008502 38.862841 
L 309.178185 39.362634 
L 309.234745 39.26759 
L 309.404427 38.900897 
L 309.57411 39.149142 
L 309.743792 38.837499 
L 309.800352 38.556688 
L 309.856913 38.733159 
L 309.913474 38.808039 
L 310.139717 38.327369 
L 310.309399 38.614568 
L 310.42252 38.535836 
L 310.592202 38.851062 
L 310.761885 39.105633 
L 310.818445 39.037573 
L 310.931567 39.308565 
L 310.988127 39.271204 
L 311.044688 39.150389 
L 311.101249 39.178844 
L 311.15781 39.190218 
L 311.327492 39.439619 
L 311.384052 39.370475 
L 311.610295 39.927882 
L 311.723417 39.834682 
L 312.00622 40.119755 
L 312.062781 39.921663 
L 312.119342 40.104216 
L 312.232463 40.239172 
L 312.402145 40.018147 
L 312.628388 40.500944 
L 312.74151 40.332032 
L 312.911192 40.60709 
L 313.080874 40.260715 
L 313.137435 40.422614 
L 313.193995 40.390011 
L 313.250556 40.285552 
L 313.307117 40.348351 
L 313.53336 40.439955 
L 313.703042 40.239509 
L 313.759602 40.373071 
L 313.816163 40.32493 
L 313.929285 40.276788 
L 314.042406 40.366236 
L 314.098967 40.287242 
L 314.212088 40.080787 
L 314.268649 40.20233 
L 314.438331 39.926007 
L 314.494892 39.98279 
L 314.551452 39.744474 
L 314.608013 39.769931 
L 314.721135 39.805045 
L 314.890817 40.175808 
L 314.947377 40.129175 
L 315.11706 40.415019 
L 315.456424 40.128087 
L 315.512985 40.195703 
L 315.569545 40.000424 
L 315.739227 40.590438 
L 315.90891 40.273722 
L 315.96547 40.320551 
L 316.022031 40.596772 
L 316.078592 40.436217 
L 316.135152 40.545423 
L 316.191713 40.467288 
L 316.587638 40.307153 
L 316.644199 40.403013 
L 316.70076 40.32009 
L 316.813881 40.287123 
L 316.927002 40.434142 
L 317.153245 40.868993 
L 317.209806 40.681096 
L 317.322927 41.011001 
L 317.379488 40.757159 
L 317.436049 40.819894 
L 317.605731 40.828051 
L 317.662292 40.981362 
L 317.718852 40.870337 
L 317.831974 40.706103 
L 317.888535 40.734076 
L 318.114777 40.928328 
L 318.454142 41.394416 
L 318.850067 41.771022 
L 319.019749 41.396031 
L 319.07631 41.428251 
L 319.472235 41.78289 
L 319.528795 41.706571 
L 319.755038 41.429804 
L 319.811599 41.45706 
L 319.86816 41.357082 
L 319.92472 41.458825 
L 320.037842 41.445881 
L 320.207524 41.688687 
L 320.377206 41.642626 
L 320.546888 41.682589 
L 320.829692 41.817621 
L 320.942813 41.538606 
L 321.112495 41.766463 
L 321.169056 41.656289 
L 321.338738 41.980174 
L 321.395299 41.949002 
L 321.50842 42.052147 
L 321.621542 41.885117 
L 321.678102 41.959806 
L 321.734663 42.01658 
L 321.791224 41.953614 
L 321.847785 41.921399 
L 322.017467 41.548802 
L 322.130588 41.565184 
L 322.413392 41.085446 
L 322.469952 41.315023 
L 322.526513 41.287175 
L 322.809317 40.988143 
L 322.978999 41.003617 
L 323.261802 41.324094 
L 323.431485 41.36243 
L 323.88397 40.697895 
L 323.940531 40.463589 
L 323.997092 40.624919 
L 324.223335 40.2686 
L 324.732381 40.800952 
L 324.958624 40.672241 
L 325.128306 40.963715 
L 325.184867 41.06297 
L 325.184867 41.06297 
" clip-path="url(#p599152d73e)" style="fill: none; stroke: #0000ff; stroke-width: 1.5; stroke-linecap: square"/>
   </g>
   <g id="patch_3">
    <path d="M 53.75 171.16 
L 53.75 10.8 
" style="fill: none; stroke: #000000; stroke-width: 0.8; stroke-linejoin: miter; stroke-linecap: square"/>
   </g>
   <g id="patch_4">
    <path d="M 338.75661 171.16 
L 338.75661 10.8 
" style="fill: none; stroke: #000000; stroke-width: 0.8; stroke-linejoin: miter; stroke-linecap: square"/>
   </g>
   <g id="patch_5">
    <path d="M 53.75 171.16 
L 338.75661 171.16 
" style="fill: none; stroke: #000000; stroke-width: 0.8; stroke-linejoin: miter; stroke-linecap: square"/>
   </g>
   <g id="patch_6">
    <path d="M 53.75 10.8 
L 338.75661 10.8 
" style="fill: none; stroke: #000000; stroke-width: 0.8; stroke-linejoin: miter; stroke-linecap: square"/>
   </g>
  </g>
 </g>
 <defs>
  <clipPath id="p599152d73e">
   <rect x="53.75" y="10.8" width="285.00661" height="160.36"/>
  </clipPath>
 </defs>
</svg>
